<?xml version="1.0" encoding="utf-8" standalone="no"?>
<!DOCTYPE svg PUBLIC "-//W3C//DTD SVG 1.1//EN"
  "http://www.w3.org/Graphics/SVG/1.1/DTD/svg11.dtd">
<svg xmlns:xlink="http://www.w3.org/1999/xlink" width="720pt" height="720pt" viewBox="0 0 720 720" xmlns="http://www.w3.org/2000/svg" version="1.1">
 <metadata>
  <rdf:RDF xmlns:dc="http://purl.org/dc/elements/1.1/" xmlns:cc="http://creativecommons.org/ns#" xmlns:rdf="http://www.w3.org/1999/02/22-rdf-syntax-ns#">
   <cc:Work>
    <dc:type rdf:resource="http://purl.org/dc/dcmitype/StillImage"/>
    <dc:date>2024-03-12T20:54:29.785572</dc:date>
    <dc:format>image/svg+xml</dc:format>
    <dc:creator>
     <cc:Agent>
      <dc:title>Matplotlib v3.5.2, https://matplotlib.org/</dc:title>
     </cc:Agent>
    </dc:creator>
   </cc:Work>
  </rdf:RDF>
 </metadata>
 <defs>
  <style type="text/css">*{stroke-linejoin: round; stroke-linecap: butt}</style>
 </defs>
 <g id="figure_1">
  <g id="patch_1">
   <path d="M 0 720 
L 720 720 
L 720 0 
L 0 0 
z
" style="fill: #f0ead6"/>
  </g>
  <g id="axes_1">
   <g id="line2d_1">
    <path d="M 370.8 382.190339 
L 374.95645 382.105343 
L 375.025369 382.043898 
L 375.486641 382.080751 
L 375.555078 382.011536 
L 376.080603 382.048996 
L 376.14843 381.971077 
L 376.753812 382.007403 
L 376.820852 381.919619 
L 377.526044 381.952002 
L 377.592051 381.852904 
L 377.956916 381.917353 
L 378.022283 381.811942 
L 378.422447 381.876773 
L 378.48707 381.764542 
L 378.926746 381.828985 
L 378.990499 381.709367 
L 379.474289 381.772383 
L 379.537016 381.644744 
L 380.069812 381.704943 
L 380.131325 381.568582 
L 380.718101 381.624115 
L 380.778166 381.478259 
L 381.423587 381.526681 
L 381.481917 381.370495 
L 382.189649 381.408613 
L 382.245887 381.241211 
L 383.017448 381.264921 
L 383.071154 381.0854 
L 383.904123 381.089558 
L 383.954752 380.89706 
L 384.840139 380.875472 
L 384.887031 380.669277 
L 385.805779 380.614962 
L 385.848146 380.394642 
L 387.643002 380.426768 
L 387.681957 380.179537 
L 388.825645 380.058396 
L 388.858224 379.793872 
L 389.97279 379.620746 
L 389.997824 379.339459 
L 391.024034 379.11321 
L 391.040355 378.816573 
L 391.919065 378.541995 
L 391.925613 378.232308 
L 392.612589 377.920049 
L 392.608533 377.600271 
L 393.086365 377.264511 
L 393.071162 376.937868 
L 393.351455 376.592704 
L 393.324857 376.262259 
L 393.44004 375.918697 
L 393.187554 374.268281 
L 391.057602 370.078754 
L 390.468818 369.269882 
L 389.933953 368.449825 
L 389.538615 367.927376 
L 388.951119 367.148012 
L 387.394165 365.478973 
L 386.455295 364.582197 
L 385.470086 363.73698 
L 384.183419 362.748181 
L 381.394832 361.069066 
L 378.69394 359.905058 
L 376.817219 359.316968 
L 374.893505 358.888988 
L 372.937568 358.624858 
L 370.635314 358.526885 
L 368.33467 358.65598 
L 366.060934 359.013598 
L 364.151276 359.495434 
L 362.293376 360.135822 
L 360.500892 360.929191 
L 359.060582 361.694556 
L 356.372965 363.523675 
L 353.511611 366.169419 
L 350.542398 370.078754 
L 350.066296 370.945292 
L 349.732554 371.524253 
L 349.513338 371.801216 
L 349.411137 372.114062 
L 349.19703 372.397973 
L 349.10496 372.715382 
L 348.901103 373.00739 
L 348.563526 373.95602 
L 348.352107 374.596961 
L 348.207297 375.251803 
L 348.248545 376.592704 
L 348.528838 376.937868 
L 348.513635 377.264511 
L 348.991467 377.600271 
L 348.987411 377.920049 
L 349.674387 378.232308 
L 349.680935 378.541995 
L 350.559645 378.816573 
L 350.575966 379.11321 
L 351.602176 379.339459 
L 351.62721 379.620746 
L 352.741776 379.793872 
L 352.774355 380.058396 
L 353.918043 380.179537 
L 353.956998 380.426768 
L 355.751854 380.394642 
L 355.794221 380.614962 
L 356.712969 380.669277 
L 356.759861 380.875472 
L 357.645248 380.89706 
L 357.695877 381.089558 
L 358.528846 381.0854 
L 358.582552 381.264921 
L 359.354113 381.241211 
L 359.410351 381.408613 
L 360.118083 381.370495 
L 360.176413 381.526681 
L 360.821834 381.478259 
L 360.881899 381.624115 
L 361.468675 381.568582 
L 361.530188 381.704943 
L 362.062984 381.644744 
L 362.125711 381.772383 
L 362.609501 381.709367 
L 362.673254 381.828985 
L 363.11293 381.764542 
L 363.177553 381.876773 
L 363.577717 381.811942 
L 363.643084 381.917353 
L 364.407324 381.888506 
L 364.473884 381.981745 
L 365.126362 381.94695 
L 365.193821 382.02964 
L 365.757077 381.992474 
L 365.825228 382.065912 
L 366.316906 382.028586 
L 366.385598 382.093812 
L 366.819515 382.057698 
L 366.888637 382.115552 
L 367.275679 382.081508 
L 367.345147 382.132671 
L 367.69398 382.101232 
L 367.961017 382.151984 
L 368.265204 382.125028 
L 368.513547 382.165769 
L 368.949002 382.148964 
L 369.337169 382.180436 
L 369.869225 382.173814 
L 370.516151 382.18997 
L 370.8 382.190339 
L 370.8 382.190339 
" clip-path="url(#p451c109f23)" style="fill: none; stroke: #6d904f; stroke-width: 2"/>
   </g>
   <g id="line2d_2">
    <path d="M 350.196125 370.227048 
L 342.224076 372.077127 
L 334.803687 373.730884 
L 332.063802 374.616299 
L 330.76798 375.278709 
L 330.215304 375.789692 
L 330.064119 376.159622 
L 330.064119 376.159622 
L 330.164931 376.588974 
L 330.466847 376.924053 
L 331.068332 377.299796 
L 332.063801 377.696687 
L 333.246675 378.024894 
L 336.337205 378.563972 
L 339.331474 378.853375 
L 345.007616 379.023841 
L 350.196125 378.811477 
L 350.196125 378.811477 
" clip-path="url(#p451c109f23)" style="fill: none; stroke: #008fd5"/>
   </g>
   <g id="line2d_3">
    <path d="M 351.873381 367.823986 
L 347.688169 367.980685 
L 338.295617 368.742427 
L 316.45075 369.985527 
L 307.350773 370.853144 
L 301.031733 371.77333 
L 296.16457 372.81012 
L 292.860268 373.857353 
L 290.771265 374.922281 
L 290.035831 375.581739 
L 289.713378 376.19294 
L 289.706793 376.706716 
L 289.930583 377.198982 
L 290.351296 377.659584 
L 291.190523 378.239644 
L 292.860265 378.994762 
L 296.164572 379.95666 
L 297.798943 380.306403 
L 301.031731 380.854306 
L 307.350771 381.564137 
L 310.435445 381.787481 
L 316.450741 382.045537 
L 322.254226 382.104706 
L 327.837053 382.003743 
L 333.188657 381.766571 
L 338.295616 381.408284 
L 343.139166 380.936994 
L 347.68817 380.35173 
L 351.873381 379.628674 
L 351.873381 379.628674 
" clip-path="url(#p451c109f23)" style="fill: none; stroke: #fc4f30"/>
   </g>
   <g id="line2d_4">
    <path d="M 353.550638 365.854991 
L 350.368723 364.948988 
L 346.946861 364.399878 
L 339.584309 363.742723 
L 299.791529 361.055807 
L 284.429508 360.319731 
L 273.663937 359.978811 
L 262.496876 359.791702 
L 250.941891 359.788955 
L 239.0113 360.006022 
L 226.716357 360.487973 
L 214.067327 361.297585 
L 207.613017 361.853443 
L 201.073729 362.531887 
L 194.450468 363.357147 
L 187.74431 364.364539 
L 180.956251 365.610295 
L 174.08722 367.195813 
L 167.138219 369.34922 
L 160.110105 372.988064 
L 159.226042 373.800979 
L 158.340799 375.002984 
L 158.008529 375.868578 
L 157.925421 376.630699 
L 158.063907 377.480585 
L 158.340787 378.140515 
L 159.226056 379.335998 
L 160.110094 380.142148 
L 167.138223 383.726498 
L 174.087247 385.823097 
L 180.956248 387.349317 
L 187.744309 388.533267 
L 194.450463 389.476051 
L 201.073719 390.233728 
L 207.613017 390.841398 
L 220.435483 391.695722 
L 232.908713 392.163516 
L 245.022821 392.318583 
L 256.767064 392.209514 
L 268.129711 391.870603 
L 279.097804 391.327259 
L 289.657059 390.599017 
L 299.791533 389.701257 
L 309.483252 388.646218 
L 318.711732 387.443613 
L 327.45301 386.100656 
L 335.677684 384.621311 
L 343.344556 383.002724 
L 350.368725 381.217106 
L 353.550637 380.217957 
L 353.550637 380.217957 
" clip-path="url(#p451c109f23)" style="fill: none; stroke: #e5ae38"/>
   </g>
   <g id="line2d_5">
    <path d="M 355.227895 364.228379 
L 353.049279 362.454089 
L 350.754553 360.97276 
L 348.3935 359.670069 
L 345.979965 358.491717 
L 343.518311 357.405146 
L 341.009942 356.388251 
L 338.455266 355.424953 
L 335.854437 354.503093 
L 333.207519 353.613315 
L 330.514642 352.74835 
L 327.775981 351.902563 
L 324.991758 351.071567 
L 322.162278 350.251982 
L 319.287864 349.441235 
L 316.368878 348.637368 
L 313.405715 347.838918 
L 310.398751 347.044816 
L 307.348429 346.25427 
L 304.255158 345.466739 
L 301.119378 344.681852 
L 297.941476 343.899393 
L 294.721907 343.119222 
L 291.461076 342.341302 
L 288.159427 341.565637 
L 284.817322 340.792299 
L 281.435212 340.021354 
L 278.013454 339.252942 
L 274.552452 338.487188 
L 271.052572 337.724229 
L 267.514229 336.964211 
L 263.93773 336.207296 
L 260.323494 335.453634 
L 256.671851 334.703376 
L 252.983099 333.956692 
L 249.257658 333.21372 
L 245.495765 332.474619 
L 241.697787 331.739541 
L 237.864057 331.008618 
L 233.994863 330.281995 
L 230.090472 329.559819 
L 226.15119 328.842214 
L 222.177375 328.129303 
L 218.169183 327.421242 
L 214.126995 326.718116 
L 210.05106 326.020057 
L 205.941593 325.327215 
L 201.7989 324.639654 
L 197.623172 323.957534 
L 193.41474 323.280922 
L 189.173769 322.609971 
L 184.900571 321.944731 
L 180.595272 321.285358 
L 176.25819 320.631924 
L 171.889534 319.984534 
L 167.489528 319.343267 
L 163.05835 318.708263 
L 163.05835 318.708263 
L 163.058323 318.708261 
" clip-path="url(#p451c109f23)" style="fill: none; stroke: #6d904f"/>
   </g>
   <g id="line2d_6">
    <path d="M 163.058334 430.941728 
L 163.058336 430.941735 
L 163.058338 430.94174 
L 163.058338 430.94174 
L 167.48952 430.241075 
L 171.889534 429.532757 
L 176.258189 428.816809 
L 180.595281 428.093272 
L 184.900547 427.362209 
L 189.173751 426.623643 
L 193.414754 425.877656 
L 197.623178 425.124255 
L 201.798888 424.363492 
L 205.941579 423.595423 
L 210.05106 422.820071 
L 214.127027 422.037487 
L 218.169197 421.247707 
L 222.177349 420.450775 
L 226.151225 419.646724 
L 230.090455 418.835592 
L 233.994845 418.017418 
L 237.864039 417.192251 
L 241.69779 416.360103 
L 245.495781 415.521034 
L 249.257635 414.675058 
L 252.983111 413.822218 
L 256.671837 412.962548 
L 260.323511 412.096077 
L 263.937726 411.222831 
L 267.514231 410.342861 
L 271.052572 409.456168 
L 274.552432 408.562807 
L 278.013451 407.662791 
L 281.435204 406.756151 
L 284.817317 405.842911 
L 288.159431 404.923092 
L 291.461096 403.996723 
L 294.721912 403.063816 
L 297.941478 402.124389 
L 301.119363 401.178465 
L 304.255157 400.226051 
L 307.348434 399.26716 
L 310.398754 398.301788 
L 313.405701 397.329939 
L 316.368878 396.351601 
L 319.28786 395.366751 
L 322.162282 394.375358 
L 324.991756 393.377376 
L 327.775977 392.372727 
L 330.514647 391.361307 
L 333.207522 390.342958 
L 335.854435 389.317459 
L 338.455275 388.284474 
L 341.009943 387.243492 
L 343.518312 386.193703 
L 345.979964 385.133764 
L 348.393499 384.061272 
L 350.754553 382.971498 
L 353.049279 381.853661 
L 355.111824 380.502461 
" clip-path="url(#p451c109f23)" style="fill: none; stroke: #8b8b8b"/>
   </g>
   <g id="line2d_7">
    <path d="M 356.905151 362.877194 
L 355.729834 360.462477 
L 354.562245 358.290651 
L 353.442441 356.259073 
L 352.37562 354.323316 
L 351.358942 352.459144 
L 350.387797 350.651452 
L 349.457533 348.889977 
L 348.563935 347.167358 
L 347.703319 345.478012 
L 346.872489 343.817636 
L 346.068699 342.182788 
L 345.289567 340.570663 
L 344.533023 338.978932 
L 343.797259 337.405655 
L 343.08069 335.849141 
L 342.381917 334.308 
L 341.699697 332.780964 
L 341.032929 331.266954 
L 340.380611 329.765026 
L 339.741867 328.274317 
L 339.115888 326.794076 
L 338.501932 325.323639 
L 337.899353 323.86238 
L 337.307541 322.409748 
L 336.725946 320.965245 
L 336.154051 319.528428 
L 335.591398 318.098881 
L 335.037554 316.676184 
L 334.49212 315.260023 
L 333.954721 313.85006 
L 333.425012 312.445985 
L 332.902689 311.047543 
L 332.387439 309.654445 
L 331.878992 308.266481 
L 331.377057 306.883417 
L 330.88144 305.505037 
L 330.391879 304.131135 
L 329.908154 302.761551 
L 329.430076 301.396131 
L 328.957448 300.034636 
L 328.490087 298.677007 
L 328.027817 297.322999 
L 327.57048 295.972579 
L 327.117925 294.625555 
L 326.669998 293.281825 
L 326.226567 291.941281 
L 325.787497 290.603791 
L 325.352657 289.26926 
L 324.92193 287.937625 
L 324.49521 286.608712 
L 324.072381 285.282501 
L 323.653334 283.958906 
L 323.237976 282.637813 
L 322.826208 281.319186 
L 322.417943 280.00291 
L 322.01311 278.688909 
L 322.01311 278.688909 
L 322.013086 278.688892 
" clip-path="url(#p451c109f23)" style="fill: none; stroke: #810f7c"/>
   </g>
   <g id="line2d_8">
    <path d="M 322.013084 447.698461 
L 322.013086 447.698462 
L 322.01311 447.698446 
L 322.01311 447.698446 
L 322.417937 446.514072 
L 322.826217 445.329687 
L 323.237978 444.145279 
L 323.653344 442.960892 
L 324.072379 441.776479 
L 324.495214 440.592062 
L 324.921932 439.407639 
L 325.352653 438.223176 
L 325.787487 437.038718 
L 326.226567 435.854246 
L 326.670004 434.669759 
L 327.117925 433.485243 
L 327.570482 432.300733 
L 328.027813 431.116207 
L 328.490083 429.931649 
L 328.957448 428.747091 
L 329.430077 427.562489 
L 329.908163 426.377874 
L 330.391877 425.193229 
L 330.881445 424.008569 
L 331.377068 422.823868 
L 331.87899 421.639151 
L 332.387439 420.454391 
L 332.902697 419.269598 
L 333.425013 418.084764 
L 333.954719 416.899893 
L 334.492117 415.71496 
L 335.037547 414.529986 
L 335.591389 413.344954 
L 336.154042 412.159856 
L 336.725933 410.974691 
L 337.307541 409.789441 
L 337.899355 408.604114 
L 338.50194 407.418684 
L 339.115881 406.233137 
L 339.741866 405.047479 
L 340.380617 403.861662 
L 341.032927 402.675689 
L 341.699705 401.48952 
L 342.381921 400.30313 
L 343.080689 399.116484 
L 343.797258 397.92952 
L 344.533022 396.742196 
L 345.289565 395.554423 
L 346.068704 394.366102 
L 346.872485 393.177099 
L 347.703318 391.987235 
L 348.563936 390.796251 
L 349.457536 389.603792 
L 350.387794 388.409316 
L 351.358943 387.211989 
L 352.375618 386.010434 
L 356.905151 380.849701 
" clip-path="url(#p451c109f23)" style="fill: none; stroke: #008fd5"/>
   </g>
   <g id="line2d_9">
    <path d="M 358.582408 381.216009 
L 358.410388 382.642659 
L 358.369941 383.977795 
L 358.491381 385.274716 
L 358.771275 386.550233 
L 359.199572 387.811406 
L 359.765654 389.06173 
L 360.459796 390.320245 
L 361.273434 391.551944 
L 362.199113 392.7771 
L 363.230337 393.996064 
L 364.361424 395.209068 
L 365.587377 396.416285 
L 371.358125 401.189174 
L 373.000641 402.368682 
L 374.717419 403.542765 
L 376.506062 404.711421 
L 378.364361 405.874693 
L 380.290283 407.03256 
L 382.28195 408.185041 
L 384.337618 409.332123 
L 386.45566 410.473789 
L 388.634564 411.610048 
L 390.872903 412.740894 
L 393.169357 413.866315 
L 395.522669 414.986287 
L 397.931658 416.100808 
L 400.395219 417.20988 
L 402.912302 418.313455 
L 405.481883 419.411548 
L 408.103031 420.504124 
L 410.774858 421.5912 
L 413.496495 422.672716 
L 416.267116 423.748674 
L 419.085939 424.819075 
L 421.952258 425.883878 
L 424.865317 426.943074 
L 427.824445 427.996642 
L 430.828973 429.044566 
L 433.878273 430.086823 
L 436.971777 431.1234 
L 440.108836 432.154274 
L 443.288934 433.179424 
L 446.511545 434.198831 
L 449.776122 435.212472 
L 453.082133 436.220334 
L 456.429147 437.222386 
L 459.816663 438.218616 
L 463.244223 439.208992 
L 466.711379 440.193506 
L 470.217731 441.17213 
L 473.762849 442.144831 
L 477.346382 443.111594 
L 480.967778 444.072419 
L 480.967818 444.072407 
L 480.96782 444.072403 
" clip-path="url(#p451c109f23)" style="fill: none; stroke: #fc4f30"/>
   </g>
   <g id="line2d_10">
    <path d="M 480.967873 294.487292 
L 480.967833 294.487285 
L 480.96783 294.487282 
L 480.967786 294.487272 
L 477.346337 295.083365 
L 473.762861 295.677439 
L 470.217742 296.26986 
L 466.711383 296.861102 
L 463.244208 297.451741 
L 459.816651 298.042509 
L 456.429138 298.634166 
L 453.082137 299.227704 
L 449.776105 299.824181 
L 446.511544 300.424796 
L 443.288935 301.030892 
L 440.10884 301.643937 
L 436.971762 302.265529 
L 433.878275 302.897312 
L 430.828963 303.541138 
L 427.824431 304.198832 
L 424.865315 304.872382 
L 421.95226 305.563776 
L 419.085955 306.275062 
L 416.267116 307.00825 
L 413.496485 307.765411 
L 410.774855 308.548568 
L 408.103034 309.359704 
L 405.481878 310.200749 
L 402.912294 311.073529 
L 400.395217 311.979876 
L 397.931664 312.921452 
L 395.522669 313.899879 
L 393.169358 314.916661 
L 390.872902 315.973217 
L 388.634565 317.070876 
L 386.45566 318.210856 
L 384.337617 319.394287 
L 382.281955 320.622234 
L 380.290286 321.895733 
L 378.364362 323.215666 
L 376.506061 324.582958 
L 374.71742 325.99844 
L 373.000643 327.462958 
L 371.358125 328.977372 
L 369.792501 330.542505 
L 368.306698 332.159301 
L 368.306698 332.159301 
L 368.306654 332.159303 
L 368.306652 332.159303 
L 366.903767 333.828741 
L 365.587376 335.551931 
L 364.361424 337.330177 
L 363.23034 339.165003 
L 362.199116 341.058278 
L 361.273434 343.012352 
L 360.459797 345.030243 
L 359.765654 347.115974 
L 359.199571 349.275102 
L 358.771275 351.515625 
L 358.491381 353.849844 
L 358.369938 356.298383 
L 358.410388 358.90086 
L 358.582408 361.753384 
" clip-path="url(#p451c109f23)" style="fill: none; stroke: #e5ae38"/>
   </g>
   <g id="line2d_11">
    <path d="M 360.259664 381.504169 
L 361.090943 382.955752 
L 362.177632 384.308785 
L 363.540323 385.611423 
L 365.16693 386.879026 
L 373.982932 391.687011 
L 376.694909 392.842677 
L 379.588189 393.965126 
L 382.654146 395.065472 
L 385.885184 396.143623 
L 389.274507 397.199427 
L 392.816051 398.232688 
L 396.504309 399.243181 
L 400.334331 400.23065 
L 404.301583 401.194812 
L 408.401915 402.135368 
L 412.631512 403.051991 
L 416.98686 403.944338 
L 421.464685 404.812053 
L 426.061981 405.654744 
L 430.775895 406.472019 
L 435.60377 407.263458 
L 440.543192 408.028608 
L 445.591763 408.767022 
L 450.747302 409.478196 
L 456.007784 410.161618 
L 461.371209 410.816757 
L 466.835734 411.443051 
L 472.399557 412.039898 
L 478.061072 412.606667 
L 483.818624 413.142704 
L 489.670734 413.647297 
L 495.615916 414.119708 
L 501.652774 414.559162 
L 507.780023 414.964812 
L 513.996374 415.335774 
L 520.300532 415.671122 
L 526.691429 415.969829 
L 533.167823 416.230833 
L 539.728744 416.452953 
L 546.373031 416.634984 
L 553.099755 416.775554 
L 559.907882 416.873254 
L 566.796522 416.926486 
L 573.764742 416.933568 
L 580.811595 416.892665 
L 587.93633 416.801698 
L 595.138073 416.65846 
L 602.416029 416.460469 
L 609.76941 416.205008 
L 617.197493 415.889001 
L 624.699499 415.509023 
L 632.274799 415.061169 
L 639.922581 414.54107 
L 639.922581 414.54107 
L 639.922581 414.541068 
" clip-path="url(#p451c109f23)" style="fill: none; stroke: #6d904f"/>
   </g>
   <g id="line2d_12">
    <path d="M 639.922585 337.59186 
L 639.922583 337.591849 
L 639.922556 337.591851 
L 639.922556 337.591851 
L 632.274779 336.976491 
L 624.699533 336.428617 
L 617.197507 335.94342 
L 609.769456 335.51667 
L 602.416038 335.14445 
L 595.138089 334.823235 
L 587.936354 334.549768 
L 580.811614 334.320929 
L 573.764706 334.133854 
L 566.796531 333.985772 
L 559.907894 333.873974 
L 553.099755 333.795841 
L 546.373035 333.748789 
L 539.728742 333.730179 
L 533.167832 333.737399 
L 526.691403 333.767726 
L 520.300536 333.818344 
L 513.996352 333.886339 
L 507.780044 333.968589 
L 501.65278 334.061796 
L 495.615904 334.162471 
L 489.670739 334.266862 
L 483.81863 334.370949 
L 478.06108 334.470514 
L 472.399556 334.561092 
L 466.835731 334.638169 
L 461.371198 334.697254 
L 456.007777 334.734218 
L 450.747313 334.745681 
L 445.591746 334.72955 
L 440.543186 334.685776 
L 435.60378 334.61711 
L 430.775893 334.529943 
L 426.061984 334.434862 
L 421.464687 334.346752 
L 416.986864 334.284344 
L 412.63152 334.269043 
L 408.401914 334.323373 
L 404.301584 334.469336 
L 400.334334 334.726901 
L 396.50431 335.113131 
L 392.81605 335.641684 
L 389.274512 336.322876 
L 385.885186 337.164043 
L 382.654147 338.169959 
L 379.588182 339.34349 
L 376.694909 340.686055 
L 373.982932 342.198216 
L 371.462057 343.880164 
L 369.143515 345.732244 
L 369.143515 345.732244 
L 369.143515 345.732244 
L 369.143514 345.732244 
L 367.040205 347.755656 
L 365.16693 349.953409 
L 363.540323 352.332156 
L 362.177627 354.90608 
L 361.090942 357.707289 
L 360.259664 360.822955 
" clip-path="url(#p451c109f23)" style="fill: none; stroke: #8b8b8b"/>
   </g>
   <g id="line2d_13">
    <path d="M 361.936921 381.732325 
L 371.562585 386.967575 
L 374.880834 388.111668 
L 378.521372 389.203313 
L 382.46432 390.261868 
L 386.692431 391.253924 
L 395.946034 393.079308 
L 406.182994 394.683293 
L 417.325439 396.050883 
L 429.310546 397.163119 
L 442.086401 397.996146 
L 455.609353 398.519531 
L 469.842001 398.693341 
L 484.751892 398.463156 
L 492.451786 398.17344 
L 500.310601 397.750649 
L 508.325273 397.178126 
L 516.492897 396.434078 
L 524.810742 395.4889 
L 533.276216 394.300325 
L 541.886844 392.803722 
L 550.64027 390.889648 
L 555.0698 389.716068 
L 559.534218 388.339396 
L 564.033229 386.674084 
L 569.705296 383.881771 
L 571.98901 382.315246 
L 573.707368 380.726013 
L 574.281214 380.026653 
L 574.85559 379.135677 
L 575.520341 377.136288 
L 575.529354 376.086833 
L 575.430486 375.488082 
L 574.85558 373.997332 
L 573.707369 372.392451 
L 573.134043 371.791761 
L 571.989 370.781074 
L 569.705288 369.184532 
L 568.566606 368.514212 
L 564.03324 366.314372 
L 559.534226 364.583728 
L 555.0698 363.138818 
L 550.640242 361.893904 
L 541.886825 359.827082 
L 533.276213 358.162588 
L 524.810747 356.78867 
L 516.492889 355.637901 
L 508.325283 354.664658 
L 492.451804 353.122614 
L 477.214142 351.958429 
L 442.086415 349.585514 
L 429.310545 348.367814 
L 417.325443 346.82497 
L 406.182996 345.263602 
L 400.94687 344.685773 
L 395.946035 344.358114 
L 391.1907 344.339824 
L 386.69243 344.664883 
L 382.464321 345.347688 
L 378.521369 346.390036 
L 374.880833 347.787003 
L 371.562585 349.531445 
L 368.589263 351.617811 
L 365.9853 354.047094 
L 365.9853 354.047094 
L 363.771501 356.837524 
L 361.936921 360.061719 
L 361.936921 360.061719 
" clip-path="url(#p451c109f23)" style="fill: none; stroke: #810f7c"/>
   </g>
   <g id="line2d_14">
    <path d="M 365.291434 382.046731 
L 384.353895 386.46783 
L 390.562095 387.178723 
L 397.277089 387.720523 
L 404.468838 388.075695 
L 412.111424 388.22007 
L 420.182298 388.119617 
L 428.661718 387.723844 
L 437.532321 386.951166 
L 446.778609 385.649972 
L 451.538265 384.705824 
L 456.386743 383.451103 
L 461.322548 381.64546 
L 466.423369 377.536169 
L 466.611412 376.775106 
L 466.581709 376.002398 
L 466.344234 375.254699 
L 461.322555 371.138779 
L 456.386741 369.115349 
L 451.538268 367.612173 
L 446.77862 366.382399 
L 437.532324 364.363295 
L 428.661734 362.593355 
L 420.182294 360.77915 
L 412.111428 358.692896 
L 397.277087 354.135992 
L 390.562093 352.6273 
L 384.353896 352.066827 
L 378.687149 352.475696 
L 373.600709 353.793913 
L 369.132605 355.962604 
L 365.291434 358.982331 
L 365.291434 358.982331 
" clip-path="url(#p451c109f23)" style="fill: none; stroke: #008fd5"/>
   </g>
   <g id="line2d_15">
    <path d="M 373.677717 382.182742 
L 377.9508 382.54796 
L 387.433733 382.816138 
L 395.354066 382.402838 
L 401.001705 381.699935 
L 405.422952 380.793352 
L 408.456411 379.850461 
L 410.77577 378.735897 
L 411.753237 377.991231 
L 412.342814 377.260066 
L 412.601483 376.560725 
L 412.601483 375.929515 
L 412.392049 375.287697 
L 411.949504 374.597281 
L 411.165982 373.782718 
L 409.998474 372.869579 
L 406.93119 370.989663 
L 401.001705 367.634384 
L 392.639171 362.496789 
L 387.433739 359.996456 
L 382.535381 358.577573 
L 377.950801 358.123803 
L 373.677718 358.505806 
L 373.677718 358.505806 
" clip-path="url(#p451c109f23)" style="fill: none; stroke: #fc4f30"/>
   </g>
   <g id="line2d_16">
    <path d="M 382.064 381.388023 
L 388.764979 380.959351 
L 392.292409 380.384198 
L 396.867977 379.069194 
L 397.805108 378.634776 
L 398.749529 378.057505 
L 399.88046 376.775487 
L 400.050606 376.063296 
L 399.970177 375.382923 
L 399.701211 374.71544 
L 398.749529 373.379483 
L 396.867977 371.454765 
L 392.292404 367.245897 
L 388.764982 364.497015 
L 385.356 362.509754 
L 382.064001 361.202411 
L 382.064001 361.202411 
" clip-path="url(#p451c109f23)" style="fill: none; stroke: #e5ae38"/>
   </g>
  </g>
  <g id="text_1">
   <!-- Isoredshift lines for M=1.0 -->
   <g transform="translate(249.365437 27.165375)scale(0.168 -0.168)">
    <defs>
     <path id="DejaVuSans-49" d="M 628 4666 
L 1259 4666 
L 1259 0 
L 628 0 
L 628 4666 
z
" transform="scale(0.015625)"/>
     <path id="DejaVuSans-73" d="M 2834 3397 
L 2834 2853 
Q 2591 2978 2328 3040 
Q 2066 3103 1784 3103 
Q 1356 3103 1142 2972 
Q 928 2841 928 2578 
Q 928 2378 1081 2264 
Q 1234 2150 1697 2047 
L 1894 2003 
Q 2506 1872 2764 1633 
Q 3022 1394 3022 966 
Q 3022 478 2636 193 
Q 2250 -91 1575 -91 
Q 1294 -91 989 -36 
Q 684 19 347 128 
L 347 722 
Q 666 556 975 473 
Q 1284 391 1588 391 
Q 1994 391 2212 530 
Q 2431 669 2431 922 
Q 2431 1156 2273 1281 
Q 2116 1406 1581 1522 
L 1381 1569 
Q 847 1681 609 1914 
Q 372 2147 372 2553 
Q 372 3047 722 3315 
Q 1072 3584 1716 3584 
Q 2034 3584 2315 3537 
Q 2597 3491 2834 3397 
z
" transform="scale(0.015625)"/>
     <path id="DejaVuSans-6f" d="M 1959 3097 
Q 1497 3097 1228 2736 
Q 959 2375 959 1747 
Q 959 1119 1226 758 
Q 1494 397 1959 397 
Q 2419 397 2687 759 
Q 2956 1122 2956 1747 
Q 2956 2369 2687 2733 
Q 2419 3097 1959 3097 
z
M 1959 3584 
Q 2709 3584 3137 3096 
Q 3566 2609 3566 1747 
Q 3566 888 3137 398 
Q 2709 -91 1959 -91 
Q 1206 -91 779 398 
Q 353 888 353 1747 
Q 353 2609 779 3096 
Q 1206 3584 1959 3584 
z
" transform="scale(0.015625)"/>
     <path id="DejaVuSans-72" d="M 2631 2963 
Q 2534 3019 2420 3045 
Q 2306 3072 2169 3072 
Q 1681 3072 1420 2755 
Q 1159 2438 1159 1844 
L 1159 0 
L 581 0 
L 581 3500 
L 1159 3500 
L 1159 2956 
Q 1341 3275 1631 3429 
Q 1922 3584 2338 3584 
Q 2397 3584 2469 3576 
Q 2541 3569 2628 3553 
L 2631 2963 
z
" transform="scale(0.015625)"/>
     <path id="DejaVuSans-65" d="M 3597 1894 
L 3597 1613 
L 953 1613 
Q 991 1019 1311 708 
Q 1631 397 2203 397 
Q 2534 397 2845 478 
Q 3156 559 3463 722 
L 3463 178 
Q 3153 47 2828 -22 
Q 2503 -91 2169 -91 
Q 1331 -91 842 396 
Q 353 884 353 1716 
Q 353 2575 817 3079 
Q 1281 3584 2069 3584 
Q 2775 3584 3186 3129 
Q 3597 2675 3597 1894 
z
M 3022 2063 
Q 3016 2534 2758 2815 
Q 2500 3097 2075 3097 
Q 1594 3097 1305 2825 
Q 1016 2553 972 2059 
L 3022 2063 
z
" transform="scale(0.015625)"/>
     <path id="DejaVuSans-64" d="M 2906 2969 
L 2906 4863 
L 3481 4863 
L 3481 0 
L 2906 0 
L 2906 525 
Q 2725 213 2448 61 
Q 2172 -91 1784 -91 
Q 1150 -91 751 415 
Q 353 922 353 1747 
Q 353 2572 751 3078 
Q 1150 3584 1784 3584 
Q 2172 3584 2448 3432 
Q 2725 3281 2906 2969 
z
M 947 1747 
Q 947 1113 1208 752 
Q 1469 391 1925 391 
Q 2381 391 2643 752 
Q 2906 1113 2906 1747 
Q 2906 2381 2643 2742 
Q 2381 3103 1925 3103 
Q 1469 3103 1208 2742 
Q 947 2381 947 1747 
z
" transform="scale(0.015625)"/>
     <path id="DejaVuSans-68" d="M 3513 2113 
L 3513 0 
L 2938 0 
L 2938 2094 
Q 2938 2591 2744 2837 
Q 2550 3084 2163 3084 
Q 1697 3084 1428 2787 
Q 1159 2491 1159 1978 
L 1159 0 
L 581 0 
L 581 4863 
L 1159 4863 
L 1159 2956 
Q 1366 3272 1645 3428 
Q 1925 3584 2291 3584 
Q 2894 3584 3203 3211 
Q 3513 2838 3513 2113 
z
" transform="scale(0.015625)"/>
     <path id="DejaVuSans-69" d="M 603 3500 
L 1178 3500 
L 1178 0 
L 603 0 
L 603 3500 
z
M 603 4863 
L 1178 4863 
L 1178 4134 
L 603 4134 
L 603 4863 
z
" transform="scale(0.015625)"/>
     <path id="DejaVuSans-66" d="M 2375 4863 
L 2375 4384 
L 1825 4384 
Q 1516 4384 1395 4259 
Q 1275 4134 1275 3809 
L 1275 3500 
L 2222 3500 
L 2222 3053 
L 1275 3053 
L 1275 0 
L 697 0 
L 697 3053 
L 147 3053 
L 147 3500 
L 697 3500 
L 697 3744 
Q 697 4328 969 4595 
Q 1241 4863 1831 4863 
L 2375 4863 
z
" transform="scale(0.015625)"/>
     <path id="DejaVuSans-74" d="M 1172 4494 
L 1172 3500 
L 2356 3500 
L 2356 3053 
L 1172 3053 
L 1172 1153 
Q 1172 725 1289 603 
Q 1406 481 1766 481 
L 2356 481 
L 2356 0 
L 1766 0 
Q 1100 0 847 248 
Q 594 497 594 1153 
L 594 3053 
L 172 3053 
L 172 3500 
L 594 3500 
L 594 4494 
L 1172 4494 
z
" transform="scale(0.015625)"/>
     <path id="DejaVuSans-20" transform="scale(0.015625)"/>
     <path id="DejaVuSans-6c" d="M 603 4863 
L 1178 4863 
L 1178 0 
L 603 0 
L 603 4863 
z
" transform="scale(0.015625)"/>
     <path id="DejaVuSans-6e" d="M 3513 2113 
L 3513 0 
L 2938 0 
L 2938 2094 
Q 2938 2591 2744 2837 
Q 2550 3084 2163 3084 
Q 1697 3084 1428 2787 
Q 1159 2491 1159 1978 
L 1159 0 
L 581 0 
L 581 3500 
L 1159 3500 
L 1159 2956 
Q 1366 3272 1645 3428 
Q 1925 3584 2291 3584 
Q 2894 3584 3203 3211 
Q 3513 2838 3513 2113 
z
" transform="scale(0.015625)"/>
     <path id="DejaVuSans-4d" d="M 628 4666 
L 1569 4666 
L 2759 1491 
L 3956 4666 
L 4897 4666 
L 4897 0 
L 4281 0 
L 4281 4097 
L 3078 897 
L 2444 897 
L 1241 4097 
L 1241 0 
L 628 0 
L 628 4666 
z
" transform="scale(0.015625)"/>
     <path id="DejaVuSans-3d" d="M 678 2906 
L 4684 2906 
L 4684 2381 
L 678 2381 
L 678 2906 
z
M 678 1631 
L 4684 1631 
L 4684 1100 
L 678 1100 
L 678 1631 
z
" transform="scale(0.015625)"/>
     <path id="DejaVuSans-31" d="M 794 531 
L 1825 531 
L 1825 4091 
L 703 3866 
L 703 4441 
L 1819 4666 
L 2450 4666 
L 2450 531 
L 3481 531 
L 3481 0 
L 794 0 
L 794 531 
z
" transform="scale(0.015625)"/>
     <path id="DejaVuSans-2e" d="M 684 794 
L 1344 794 
L 1344 0 
L 684 0 
L 684 794 
z
" transform="scale(0.015625)"/>
     <path id="DejaVuSans-30" d="M 2034 4250 
Q 1547 4250 1301 3770 
Q 1056 3291 1056 2328 
Q 1056 1369 1301 889 
Q 1547 409 2034 409 
Q 2525 409 2770 889 
Q 3016 1369 3016 2328 
Q 3016 3291 2770 3770 
Q 2525 4250 2034 4250 
z
M 2034 4750 
Q 2819 4750 3233 4129 
Q 3647 3509 3647 2328 
Q 3647 1150 3233 529 
Q 2819 -91 2034 -91 
Q 1250 -91 836 529 
Q 422 1150 422 2328 
Q 422 3509 836 4129 
Q 1250 4750 2034 4750 
z
" transform="scale(0.015625)"/>
    </defs>
    <use xlink:href="#DejaVuSans-49"/>
    <use xlink:href="#DejaVuSans-73" x="29.492188"/>
    <use xlink:href="#DejaVuSans-6f" x="81.591797"/>
    <use xlink:href="#DejaVuSans-72" x="142.773438"/>
    <use xlink:href="#DejaVuSans-65" x="181.636719"/>
    <use xlink:href="#DejaVuSans-64" x="243.160156"/>
    <use xlink:href="#DejaVuSans-73" x="306.636719"/>
    <use xlink:href="#DejaVuSans-68" x="358.736328"/>
    <use xlink:href="#DejaVuSans-69" x="422.115234"/>
    <use xlink:href="#DejaVuSans-66" x="449.898438"/>
    <use xlink:href="#DejaVuSans-74" x="483.353516"/>
    <use xlink:href="#DejaVuSans-20" x="522.5625"/>
    <use xlink:href="#DejaVuSans-6c" x="554.349609"/>
    <use xlink:href="#DejaVuSans-69" x="582.132812"/>
    <use xlink:href="#DejaVuSans-6e" x="609.916016"/>
    <use xlink:href="#DejaVuSans-65" x="673.294922"/>
    <use xlink:href="#DejaVuSans-73" x="734.818359"/>
    <use xlink:href="#DejaVuSans-20" x="786.917969"/>
    <use xlink:href="#DejaVuSans-66" x="818.705078"/>
    <use xlink:href="#DejaVuSans-6f" x="853.910156"/>
    <use xlink:href="#DejaVuSans-72" x="915.091797"/>
    <use xlink:href="#DejaVuSans-20" x="956.205078"/>
    <use xlink:href="#DejaVuSans-4d" x="987.992188"/>
    <use xlink:href="#DejaVuSans-3d" x="1074.271484"/>
    <use xlink:href="#DejaVuSans-31" x="1158.060547"/>
    <use xlink:href="#DejaVuSans-2e" x="1221.683594"/>
    <use xlink:href="#DejaVuSans-30" x="1253.470703"/>
   </g>
  </g>
 </g>
 <defs>
  <clipPath id="p451c109f23">
   <rect x="57.6" y="86.4" width="626.4" height="583.2"/>
  </clipPath>
 </defs>
</svg>
