<?xml version="1.0" encoding="utf-8" standalone="no"?>
<!DOCTYPE svg PUBLIC "-//W3C//DTD SVG 1.1//EN"
  "http://www.w3.org/Graphics/SVG/1.1/DTD/svg11.dtd">
<svg xmlns:xlink="http://www.w3.org/1999/xlink" width="720pt" height="720pt" viewBox="0 0 720 720" xmlns="http://www.w3.org/2000/svg" version="1.1">
 <metadata>
  <rdf:RDF xmlns:dc="http://purl.org/dc/elements/1.1/" xmlns:cc="http://creativecommons.org/ns#" xmlns:rdf="http://www.w3.org/1999/02/22-rdf-syntax-ns#">
   <cc:Work>
    <dc:type rdf:resource="http://purl.org/dc/dcmitype/StillImage"/>
    <dc:date>2023-06-28T19:14:07.228133</dc:date>
    <dc:format>image/svg+xml</dc:format>
    <dc:creator>
     <cc:Agent>
      <dc:title>Matplotlib v3.5.2, https://matplotlib.org/</dc:title>
     </cc:Agent>
    </dc:creator>
   </cc:Work>
  </rdf:RDF>
 </metadata>
 <defs>
  <style type="text/css">*{stroke-linejoin: round; stroke-linecap: butt}</style>
 </defs>
 <g id="figure_1">
  <g id="patch_1">
   <path d="M 0 720 
L 720 720 
L 720 0 
L 0 0 
z
" style="fill: #1a1a1a"/>
  </g>
  <g id="axes_1">
   <g id="line2d_1">
    <path d="M 370.8 382.190339 
L 374.95645 382.105343 
L 375.025369 382.043898 
L 375.486641 382.080751 
L 375.555078 382.011536 
L 376.080603 382.048996 
L 376.14843 381.971077 
L 376.753812 382.007403 
L 376.820852 381.919619 
L 377.526044 381.952002 
L 377.592051 381.852904 
L 377.956916 381.917353 
L 378.022283 381.811942 
L 378.422447 381.876773 
L 378.48707 381.764542 
L 378.926746 381.828985 
L 378.990499 381.709367 
L 379.474289 381.772383 
L 379.537016 381.644744 
L 380.069812 381.704943 
L 380.131325 381.568582 
L 380.718101 381.624115 
L 380.778166 381.478259 
L 381.423587 381.526681 
L 381.481917 381.370495 
L 382.189649 381.408613 
L 382.245887 381.241211 
L 383.017448 381.264921 
L 383.071154 381.0854 
L 383.904123 381.089558 
L 383.954752 380.89706 
L 384.840139 380.875472 
L 384.887031 380.669277 
L 385.805779 380.614962 
L 385.848146 380.394642 
L 387.643002 380.426768 
L 387.681957 380.179537 
L 388.825645 380.058396 
L 388.858224 379.793872 
L 389.97279 379.620746 
L 389.997824 379.339459 
L 391.024034 379.11321 
L 391.040355 378.816573 
L 391.919065 378.541995 
L 391.925613 378.232308 
L 392.612589 377.920049 
L 392.608533 377.600271 
L 393.086365 377.264511 
L 393.071162 376.937868 
L 393.351455 376.592704 
L 393.324857 376.262259 
L 393.44004 375.918697 
L 393.187554 374.268281 
L 391.057602 370.078754 
L 390.468818 369.269882 
L 389.933953 368.449825 
L 389.538615 367.927376 
L 388.951119 367.148012 
L 387.394165 365.478973 
L 386.455295 364.582197 
L 385.470086 363.73698 
L 384.183419 362.748181 
L 381.394832 361.069066 
L 378.69394 359.905058 
L 376.817219 359.316968 
L 374.893505 358.888988 
L 372.937568 358.624858 
L 370.635314 358.526885 
L 368.33467 358.65598 
L 366.060934 359.013598 
L 364.151276 359.495434 
L 362.293376 360.135822 
L 360.500892 360.929191 
L 359.060582 361.694556 
L 356.372965 363.523675 
L 353.511611 366.169419 
L 350.542398 370.078754 
L 350.066296 370.945292 
L 349.732554 371.524253 
L 349.513338 371.801216 
L 349.411137 372.114062 
L 349.19703 372.397973 
L 349.10496 372.715382 
L 348.901103 373.00739 
L 348.563526 373.95602 
L 348.352107 374.596961 
L 348.207297 375.251803 
L 348.248545 376.592704 
L 348.528838 376.937868 
L 348.513635 377.264511 
L 348.991467 377.600271 
L 348.987411 377.920049 
L 349.674387 378.232308 
L 349.680935 378.541995 
L 350.559645 378.816573 
L 350.575966 379.11321 
L 351.602176 379.339459 
L 351.62721 379.620746 
L 352.741776 379.793872 
L 352.774355 380.058396 
L 353.918043 380.179537 
L 353.956998 380.426768 
L 355.751854 380.394642 
L 355.794221 380.614962 
L 356.712969 380.669277 
L 356.759861 380.875472 
L 357.645248 380.89706 
L 357.695877 381.089558 
L 358.528846 381.0854 
L 358.582552 381.264921 
L 359.354113 381.241211 
L 359.410351 381.408613 
L 360.118083 381.370495 
L 360.176413 381.526681 
L 360.821834 381.478259 
L 360.881899 381.624115 
L 361.468675 381.568582 
L 361.530188 381.704943 
L 362.062984 381.644744 
L 362.125711 381.772383 
L 362.609501 381.709367 
L 362.673254 381.828985 
L 363.11293 381.764542 
L 363.177553 381.876773 
L 363.577717 381.811942 
L 363.643084 381.917353 
L 364.407324 381.888506 
L 364.473884 381.981745 
L 365.126362 381.94695 
L 365.193821 382.02964 
L 365.757077 381.992474 
L 365.825228 382.065912 
L 366.316906 382.028586 
L 366.385598 382.093812 
L 366.819515 382.057698 
L 366.888637 382.115552 
L 367.275679 382.081508 
L 367.345147 382.132671 
L 367.69398 382.101232 
L 367.961017 382.151984 
L 368.265204 382.125028 
L 368.513547 382.165769 
L 368.949002 382.148964 
L 369.337169 382.180436 
L 369.869225 382.173814 
L 370.516151 382.18997 
L 370.8 382.190339 
L 370.8 382.190339 
" clip-path="url(#pefd2c6bc29)" style="fill: none; stroke: #8b8b8b; stroke-width: 2"/>
   </g>
   <g id="line2d_2">
    <path d="M 350.196125 370.227048 
L 342.224076 372.077127 
L 334.803687 373.730884 
L 332.063802 374.616299 
L 330.76798 375.278709 
L 330.215304 375.789692 
L 330.064119 376.159622 
L 330.064119 376.159622 
L 330.164931 376.588974 
L 330.466847 376.924053 
L 331.068332 377.299796 
L 332.063801 377.696687 
L 333.246675 378.024894 
L 336.337205 378.563972 
L 339.331474 378.853375 
L 345.007616 379.023841 
L 350.196125 378.811477 
L 350.196125 378.811477 
" clip-path="url(#pefd2c6bc29)" style="fill: none; stroke: #008fd5"/>
   </g>
   <g id="line2d_3">
    <path d="M 351.53793 368.26632 
L 347.152056 368.644581 
L 337.285826 369.679079 
L 320.378653 371.085792 
L 314.250292 371.849115 
L 307.083317 373.244458 
L 304.632173 373.998574 
L 302.981175 374.723743 
L 302.046587 375.349966 
L 301.577711 375.898497 
L 301.427673 376.437688 
L 301.525554 376.856811 
L 301.838327 377.298484 
L 302.566318 377.860177 
L 303.808359 378.464104 
L 305.452615 379.020685 
L 307.893544 379.615531 
L 314.250291 380.561559 
L 320.378653 381.028344 
L 326.268921 381.207466 
L 331.909522 381.176404 
L 337.285828 380.975407 
L 342.377633 380.626429 
L 347.152058 380.13692 
L 351.53793 379.488537 
L 351.53793 379.488537 
" clip-path="url(#pefd2c6bc29)" style="fill: none; stroke: #fc4f30"/>
   </g>
   <g id="line2d_4">
    <path d="M 353.215187 366.218878 
L 349.832613 365.513301 
L 346.185323 365.165129 
L 334.109555 364.671953 
L 295.317389 363.170678 
L 284.314702 363.030177 
L 272.837627 363.097785 
L 260.904625 363.43289 
L 248.532188 364.114404 
L 242.185879 364.62072 
L 235.735165 365.266257 
L 229.181667 366.084752 
L 222.526983 367.129815 
L 215.772588 368.498812 
L 208.919891 370.416011 
L 201.751574 374.087922 
L 200.985315 374.964367 
L 200.574339 375.772328 
L 200.442606 376.554062 
L 200.546955 377.256305 
L 200.875762 377.97779 
L 201.532766 378.802983 
L 201.970298 379.210071 
L 208.919902 382.616313 
L 215.772586 384.460933 
L 222.526986 385.753364 
L 229.181672 386.717479 
L 235.735167 387.45023 
L 242.185881 388.004726 
L 248.532199 388.414179 
L 260.90463 388.881702 
L 272.837615 388.970064 
L 284.31471 388.748842 
L 295.317381 388.263783 
L 305.824705 387.547074 
L 315.812572 386.622186 
L 325.252552 385.506284 
L 334.109557 384.21077 
L 342.334767 382.738507 
L 349.832612 381.066199 
L 353.215187 380.112453 
L 353.215187 380.112453 
" clip-path="url(#pefd2c6bc29)" style="fill: none; stroke: #e5ae38"/>
   </g>
   <g id="line2d_5">
    <path d="M 354.556992 364.842696 
L 351.977057 363.387821 
L 349.231476 362.256096 
L 346.373923 361.319514 
L 343.421702 360.510762 
L 340.38206 359.786331 
L 337.2588 359.116081 
L 334.054363 358.479094 
L 330.77064 357.861232 
L 327.409204 357.25339 
L 323.971505 356.65004 
L 320.458884 356.048142 
L 316.872633 355.446272 
L 313.213976 354.844074 
L 309.484113 354.241826 
L 305.68416 353.640197 
L 301.815225 353.040023 
L 297.878379 352.44226 
L 293.874628 351.847871 
L 289.804982 351.257815 
L 285.670372 350.673017 
L 281.471718 350.094366 
L 277.209902 349.522688 
L 272.885768 348.958762 
L 268.500175 348.403325 
L 264.053879 347.857078 
L 259.547662 347.320683 
L 254.982264 346.794755 
L 250.358395 346.279902 
L 245.676755 345.776684 
L 240.938016 345.285649 
L 236.142817 344.807341 
L 231.291826 344.342251 
L 226.385585 343.890906 
L 221.424751 343.453782 
L 216.409879 343.03138 
L 211.341494 342.62418 
L 206.22015 342.232669 
L 201.046406 341.857308 
L 195.820766 341.49861 
L 190.543659 341.157054 
L 185.215659 340.833129 
L 179.837169 340.527353 
L 174.408711 340.240219 
L 168.930664 339.972275 
L 163.403483 339.724065 
L 157.827609 339.496159 
L 152.203439 339.289105 
L 146.531391 339.103532 
L 140.811832 338.940056 
L 135.045211 338.799329 
L 129.231816 338.682061 
L 123.372079 338.588954 
L 117.466315 338.520776 
L 111.514881 338.478314 
L 105.518176 338.46242 
L 99.476422 338.474032 
L 99.476422 338.474035 
L 99.476392 338.474048 
" clip-path="url(#pefd2c6bc29)" style="fill: none; stroke: #6d904f"/>
   </g>
   <g id="line2d_6">
    <path d="M 99.476372 413.719862 
L 99.4764 413.719869 
L 99.476429 413.719881 
L 99.47643 413.719885 
L 105.518163 413.685485 
L 111.514885 413.622411 
L 117.466299 413.531527 
L 123.372087 413.413649 
L 129.231801 413.269499 
L 135.045178 413.099792 
L 140.811825 412.905185 
L 146.531377 412.686323 
L 152.203432 412.443761 
L 157.827616 412.178084 
L 163.403466 411.889774 
L 168.930633 411.579354 
L 174.408682 411.247297 
L 179.837184 410.894063 
L 185.215665 410.520043 
L 190.543656 410.12566 
L 195.820765 409.711322 
L 201.046416 409.277366 
L 206.22015 408.824151 
L 211.341483 408.352044 
L 216.409861 407.861344 
L 221.424769 407.352358 
L 226.385589 406.825395 
L 231.291819 406.280728 
L 236.142832 405.718633 
L 240.938034 405.139387 
L 245.676742 404.543209 
L 250.358393 403.930378 
L 254.982267 403.301108 
L 259.54767 402.655624 
L 264.053868 401.994134 
L 268.500186 401.316867 
L 272.885783 400.623989 
L 277.209898 399.915716 
L 281.471714 399.192209 
L 285.670369 398.453658 
L 289.804994 397.700223 
L 293.874631 396.932045 
L 297.878378 396.149284 
L 301.815227 395.352073 
L 305.684155 394.54053 
L 309.48411 393.714769 
L 313.213982 392.874879 
L 316.872632 392.020927 
L 320.458888 391.152965 
L 323.971503 390.270993 
L 327.409199 389.374967 
L 330.770635 388.464774 
L 334.054369 387.54018 
L 337.258799 386.600774 
L 340.382056 385.645847 
L 343.421705 384.674156 
L 346.373921 383.683387 
L 349.231476 382.668908 
L 351.977056 381.620025 
L 354.556992 380.505507 
" clip-path="url(#pefd2c6bc29)" style="fill: none; stroke: #8b8b8b"/>
   </g>
   <g id="line2d_7">
    <path d="M 355.898797 363.657919 
L 354.121501 361.601164 
L 352.277629 359.811278 
L 350.413075 358.180565 
L 348.538227 356.660734 
L 346.654563 355.224548 
L 344.761082 353.854486 
L 342.856177 352.538343 
L 340.938236 351.267104 
L 339.00584 350.033847 
L 337.057785 348.833078 
L 335.093071 347.660363 
L 333.110881 346.512043 
L 331.110579 345.385052 
L 329.091629 344.276807 
L 327.053604 343.185119 
L 324.996192 342.108074 
L 322.919134 341.044051 
L 320.822233 339.99162 
L 318.705343 338.949574 
L 316.568365 337.916816 
L 314.411249 336.892394 
L 312.23392 335.875497 
L 310.036398 334.865381 
L 307.81866 333.861416 
L 305.580765 332.863019 
L 303.322737 331.869692 
L 301.044637 330.880987 
L 298.746485 329.896532 
L 296.428391 328.915966 
L 294.090421 327.938989 
L 291.732667 326.965308 
L 289.355175 325.994704 
L 286.95807 325.026969 
L 284.541459 324.061891 
L 282.105406 323.099315 
L 279.650035 322.139095 
L 277.175432 321.181076 
L 274.681683 320.225197 
L 272.168936 319.271308 
L 269.637247 318.31934 
L 267.086757 317.369201 
L 264.517551 316.420841 
L 261.929716 315.474188 
L 259.323381 314.52919 
L 256.698646 313.585802 
L 254.055579 312.643985 
L 251.394326 311.703727 
L 248.714971 310.76497 
L 246.017618 309.827682 
L 243.302349 308.891877 
L 240.569284 307.957518 
L 237.818504 307.024587 
L 235.050091 306.093105 
L 232.264203 305.163018 
L 229.460887 304.234343 
L 226.640277 303.307095 
L 226.640277 303.307095 
L 226.640246 303.307094 
" clip-path="url(#pefd2c6bc29)" style="fill: none; stroke: #810f7c"/>
   </g>
   <g id="line2d_8">
    <path d="M 226.640235 440.686532 
L 226.640235 440.686533 
L 226.640265 440.686534 
L 226.640265 440.686534 
L 229.460904 439.681664 
L 232.264199 438.674623 
L 235.050138 437.665406 
L 237.818504 436.65401 
L 240.569303 435.640454 
L 243.302351 434.624721 
L 246.017609 433.606838 
L 248.714971 432.586777 
L 251.394349 431.564574 
L 254.055567 430.540212 
L 256.698619 429.513691 
L 259.323359 428.48502 
L 261.929722 427.454204 
L 264.517544 426.421237 
L 267.086745 425.386122 
L 269.637261 424.348868 
L 272.168956 423.309469 
L 274.681699 422.267938 
L 277.17544 421.224257 
L 279.650027 420.178443 
L 282.105425 419.130492 
L 284.541461 418.080409 
L 286.958066 417.028184 
L 289.355164 415.973829 
L 291.732649 414.91734 
L 294.090421 413.858713 
L 296.428391 412.797944 
L 298.746489 411.73504 
L 301.044626 410.669996 
L 303.322737 409.602805 
L 305.580766 408.533464 
L 307.818669 407.461972 
L 310.036403 406.388321 
L 312.23391 405.312499 
L 314.41124 404.234504 
L 316.568369 403.154323 
L 318.705347 402.071929 
L 320.822224 400.987318 
L 322.919132 399.900458 
L 324.996197 398.811329 
L 327.053603 397.719889 
L 329.091621 396.626096 
L 331.110577 395.529888 
L 333.110883 394.431197 
L 335.093066 393.329922 
L 337.057787 392.225929 
L 339.005839 391.119045 
L 340.938235 390.009016 
L 342.856178 388.895487 
L 344.761082 387.777923 
L 346.654561 386.655492 
L 348.538229 385.526825 
L 355.898797 380.578882 
" clip-path="url(#pefd2c6bc29)" style="fill: none; stroke: #008fd5"/>
   </g>
   <g id="line2d_9">
    <path d="M 385.594984 274.035361 
L 384.389303 275.267993 
L 383.200871 276.508039 
L 382.029886 277.755601 
L 380.876554 279.010853 
L 379.741111 280.273851 
L 378.623785 281.544815 
L 377.524815 282.823894 
L 376.444449 284.111176 
L 375.382938 285.406868 
L 374.340561 286.711118 
L 373.317582 288.024063 
L 372.314291 289.345876 
L 371.330994 290.676726 
L 370.368029 292.01678 
L 370.368029 292.01678 
L 370.368002 292.01678 
L 370.368002 292.01678 
L 369.42564 293.366247 
L 368.504241 294.72523 
L 367.60417 296.093955 
L 366.725797 297.47266 
L 365.869509 298.861464 
L 365.035711 300.260616 
L 364.224836 301.670326 
L 363.437332 303.090841 
L 362.673676 304.522356 
L 361.934365 305.965147 
L 361.21993 307.41943 
L 360.530915 308.885545 
L 359.867935 310.363735 
L 359.2316 311.854333 
L 358.62258 313.357637 
L 358.041597 314.87405 
L 357.48939 316.403885 
L 356.966788 317.94759 
L 356.47466 319.50561 
L 356.013937 321.078393 
L 355.585642 322.666479 
L 355.190865 324.270452 
L 354.83079 325.890917 
L 354.506724 327.528596 
L 354.220077 329.184274 
L 353.972401 330.858829 
L 353.765417 332.553234 
L 353.601015 334.268639 
L 353.481319 336.006348 
L 353.408691 337.767883 
L 353.385792 339.555002 
L 353.415626 341.369834 
L 353.501637 343.214928 
L 353.647735 345.09343 
L 353.85844 347.009293 
L 354.13894 348.96763 
L 354.495192 350.975246 
L 354.933882 353.041662 
L 355.46202 355.181037 
L 356.085321 357.41631 
L 356.802055 359.790108 
L 357.576055 362.402551 
L 357.576055 362.402551 
L 357.576054 362.402551 
" clip-path="url(#pefd2c6bc29)" style="fill: none; stroke: #fc4f30"/>
   </g>
   <g id="line2d_10">
    <path d="M 357.576053 381.007293 
L 357.576054 381.007294 
L 357.576056 381.007294 
L 357.576056 381.007294 
L 356.802055 382.404681 
L 356.085322 383.708578 
L 355.462017 385.030731 
L 354.933881 386.270891 
L 354.495194 387.503563 
L 354.138943 388.731181 
L 353.858439 389.955124 
L 353.647735 391.176223 
L 353.501638 392.39502 
L 353.415628 393.611873 
L 353.38579 394.827042 
L 353.408691 396.040702 
L 353.48132 397.252987 
L 353.601018 398.464 
L 353.765414 399.673818 
L 353.972397 400.882502 
L 354.220076 402.090094 
L 354.506726 403.296639 
L 354.830794 404.502171 
L 355.190865 405.706712 
L 355.585643 406.910272 
L 356.013942 408.112876 
L 356.47466 409.31454 
L 356.966789 410.515285 
L 357.489393 411.7151 
L 358.041591 412.914025 
L 358.62258 414.112023 
L 359.2316 415.30914 
L 359.867934 416.505363 
L 360.530919 417.700709 
L 361.219925 418.89518 
L 361.934364 420.08876 
L 362.673675 421.281482 
L 363.437331 422.473346 
L 364.224837 423.664298 
L 365.03571 424.854422 
L 365.869506 426.043683 
L 366.725798 427.232047 
L 367.60417 428.419579 
L 368.504242 429.606248 
L 372.314291 434.344358 
L 373.317578 435.526734 
L 374.34056 436.708275 
L 375.382937 437.888946 
L 376.444448 439.068787 
L 377.524816 440.247744 
L 378.62379 441.425887 
L 379.74111 442.603148 
L 380.876553 443.779536 
L 382.029878 444.955103 
L 383.200867 446.129801 
L 384.389303 447.303668 
L 385.594983 448.476687 
" clip-path="url(#pefd2c6bc29)" style="fill: none; stroke: #e5ae38"/>
   </g>
   <g id="line2d_11">
    <path d="M 358.917859 381.279153 
L 358.9465 382.713135 
L 359.131477 384.055168 
L 359.50117 385.357368 
L 360.050406 386.636239 
L 360.7677 387.89872 
L 361.641224 389.148241 
L 362.660249 390.38669 
L 363.815334 391.615185 
L 365.098272 392.846415 
L 366.501903 394.05616 
L 368.019971 395.257694 
L 369.646939 396.451165 
L 377.153367 401.145987 
L 379.260827 402.300116 
L 381.454314 403.44644 
L 383.731153 404.58495 
L 386.088861 405.715653 
L 388.525164 406.838506 
L 391.037955 407.953511 
L 393.625274 409.06064 
L 396.285283 410.159869 
L 399.016289 411.251166 
L 401.816677 412.334513 
L 404.684951 413.40986 
L 407.619697 414.47719 
L 410.619568 415.536465 
L 413.683318 416.587647 
L 416.809749 417.630703 
L 419.997721 418.665592 
L 423.246166 419.692277 
L 426.554024 420.710716 
L 429.920367 421.720879 
L 433.34425 422.722703 
L 436.824767 423.716165 
L 440.361076 424.701223 
L 443.952357 425.677818 
L 447.597836 426.645903 
L 451.296754 427.605444 
L 455.048365 428.556404 
L 458.852016 429.498717 
L 462.707021 430.432333 
L 466.612754 431.357213 
L 470.568542 432.273313 
L 474.57382 433.180561 
L 478.628031 434.078933 
L 482.730562 434.968349 
L 486.880938 435.848772 
L 491.078598 436.720141 
L 495.323004 437.582402 
L 499.613667 438.435508 
L 503.950193 439.279391 
L 508.332062 440.11399 
L 512.758798 440.939252 
L 512.7588 440.939249 
L 512.758803 440.939242 
" clip-path="url(#pefd2c6bc29)" style="fill: none; stroke: #6d904f"/>
   </g>
   <g id="line2d_12">
    <path d="M 512.758791 302.762155 
L 512.758787 302.762149 
L 512.758782 302.762142 
L 512.758781 302.762139 
L 508.332055 303.279134 
L 503.950198 303.792914 
L 499.61371 304.302996 
L 495.322993 304.808924 
L 491.078591 305.310314 
L 486.880949 305.806792 
L 482.730577 306.298099 
L 478.628031 306.784089 
L 474.57385 307.26468 
L 470.568537 307.739996 
L 466.612747 308.210335 
L 462.70702 308.676165 
L 458.85201 309.138223 
L 455.048365 309.597471 
L 451.296741 310.055208 
L 447.597829 310.513001 
L 443.952356 310.972759 
L 440.361073 311.436665 
L 436.824767 311.907299 
L 433.34425 312.3875 
L 429.920376 312.88044 
L 426.554034 313.389432 
L 423.246143 313.9181 
L 419.997716 314.470124 
L 416.809749 315.049329 
L 413.683317 315.659508 
L 410.619573 316.304422 
L 407.619688 316.987742 
L 404.684947 317.712997 
L 401.81667 318.483516 
L 399.016287 319.30243 
L 396.285284 320.172594 
L 393.625273 321.096625 
L 391.037952 322.076933 
L 388.525167 323.115632 
L 386.088861 324.214604 
L 383.731153 325.375523 
L 381.454317 326.599893 
L 379.260828 327.889001 
L 377.153367 329.244069 
L 375.13486 330.666157 
L 373.208534 332.156272 
L 373.208531 332.156272 
L 373.208486 332.15627 
L 373.208486 332.15627 
L 371.377919 333.715435 
L 369.646938 335.344658 
L 368.019968 337.045058 
L 366.501904 338.817937 
L 365.098274 340.664828 
L 363.815333 342.587702 
L 362.660249 344.589133 
L 361.641226 346.672612 
L 360.767701 348.843083 
L 360.050406 351.10787 
L 359.501172 353.478446 
L 359.131476 355.97447 
L 358.9465 358.634361 
L 358.917859 361.55272 
" clip-path="url(#pefd2c6bc29)" style="fill: none; stroke: #8b8b8b"/>
   </g>
   <g id="line2d_13">
    <path d="M 360.259664 381.504169 
L 361.090943 382.955752 
L 362.177632 384.308785 
L 363.540323 385.611423 
L 365.16693 386.879026 
L 373.982932 391.687011 
L 376.694909 392.842677 
L 379.588189 393.965126 
L 382.654146 395.065472 
L 385.885184 396.143623 
L 389.274507 397.199427 
L 392.816051 398.232688 
L 396.504309 399.243181 
L 400.334331 400.23065 
L 404.301583 401.194812 
L 408.401915 402.135368 
L 412.631512 403.051991 
L 416.98686 403.944338 
L 421.464685 404.812053 
L 426.061981 405.654744 
L 430.775895 406.472019 
L 435.60377 407.263458 
L 440.543192 408.028608 
L 445.591763 408.767022 
L 450.747302 409.478196 
L 456.007784 410.161618 
L 461.371209 410.816757 
L 466.835734 411.443051 
L 472.399557 412.039898 
L 478.061072 412.606667 
L 483.818624 413.142704 
L 489.670734 413.647297 
L 495.615916 414.119708 
L 501.652774 414.559162 
L 507.780023 414.964812 
L 513.996374 415.335774 
L 520.300532 415.671122 
L 526.691429 415.969829 
L 533.167823 416.230833 
L 539.728744 416.452953 
L 546.373031 416.634984 
L 553.099755 416.775554 
L 559.907882 416.873254 
L 566.796522 416.926486 
L 573.764742 416.933568 
L 580.811595 416.892665 
L 587.93633 416.801698 
L 595.138073 416.65846 
L 602.416029 416.460469 
L 609.76941 416.205008 
L 617.197493 415.889001 
L 624.699499 415.509023 
L 632.274799 415.061169 
L 639.922581 414.54107 
L 639.922581 414.54107 
L 639.922581 414.541068 
" clip-path="url(#pefd2c6bc29)" style="fill: none; stroke: #810f7c"/>
   </g>
   <g id="line2d_14">
    <path d="M 639.922585 337.59186 
L 639.922583 337.591849 
L 639.922556 337.591851 
L 639.922556 337.591851 
L 632.274779 336.976491 
L 624.699533 336.428617 
L 617.197507 335.94342 
L 609.769456 335.51667 
L 602.416038 335.14445 
L 595.138089 334.823235 
L 587.936354 334.549768 
L 580.811614 334.320929 
L 573.764706 334.133854 
L 566.796531 333.985772 
L 559.907894 333.873974 
L 553.099755 333.795841 
L 546.373035 333.748789 
L 539.728742 333.730179 
L 533.167832 333.737399 
L 526.691403 333.767726 
L 520.300536 333.818344 
L 513.996352 333.886339 
L 507.780044 333.968589 
L 501.65278 334.061796 
L 495.615904 334.162471 
L 489.670739 334.266862 
L 483.81863 334.370949 
L 478.06108 334.470514 
L 472.399556 334.561092 
L 466.835731 334.638169 
L 461.371198 334.697254 
L 456.007777 334.734218 
L 450.747313 334.745681 
L 445.591746 334.72955 
L 440.543186 334.685776 
L 435.60378 334.61711 
L 430.775893 334.529943 
L 426.061984 334.434862 
L 421.464687 334.346752 
L 416.986864 334.284344 
L 412.63152 334.269043 
L 408.401914 334.323373 
L 404.301584 334.469336 
L 400.334334 334.726901 
L 396.50431 335.113131 
L 392.81605 335.641684 
L 389.274512 336.322876 
L 385.885186 337.164043 
L 382.654147 338.169959 
L 379.588182 339.34349 
L 376.694909 340.686055 
L 373.982932 342.198216 
L 371.462057 343.880164 
L 369.143515 345.732244 
L 369.143515 345.732244 
L 369.143515 345.732244 
L 369.143514 345.732244 
L 367.040205 347.755656 
L 365.16693 349.953409 
L 363.540323 352.332156 
L 362.177627 354.90608 
L 361.090942 357.707289 
L 360.259664 360.822955 
" clip-path="url(#pefd2c6bc29)" style="fill: none; stroke: #008fd5"/>
   </g>
   <g id="line2d_15">
    <path d="M 361.936921 381.732325 
L 371.562585 386.967575 
L 374.880834 388.111668 
L 378.521372 389.203313 
L 382.46432 390.261868 
L 386.692431 391.253924 
L 395.946034 393.079308 
L 406.182994 394.683293 
L 417.325439 396.050883 
L 429.310546 397.163119 
L 442.086401 397.996146 
L 455.609353 398.519531 
L 469.842001 398.693341 
L 484.751892 398.463156 
L 492.451786 398.17344 
L 500.310601 397.750649 
L 508.325273 397.178126 
L 516.492897 396.434078 
L 524.810742 395.4889 
L 533.276216 394.300325 
L 541.886844 392.803722 
L 550.64027 390.889648 
L 555.0698 389.716068 
L 559.534218 388.339396 
L 564.033229 386.674084 
L 569.705296 383.881771 
L 571.98901 382.315246 
L 573.707368 380.726013 
L 574.281214 380.026653 
L 574.85559 379.135677 
L 575.520341 377.136288 
L 575.529354 376.086833 
L 575.430486 375.488082 
L 574.85558 373.997332 
L 573.707369 372.392451 
L 573.134043 371.791761 
L 571.989 370.781074 
L 569.705288 369.184532 
L 568.566606 368.514212 
L 564.03324 366.314372 
L 559.534226 364.583728 
L 555.0698 363.138818 
L 550.640242 361.893904 
L 541.886825 359.827082 
L 533.276213 358.162588 
L 524.810747 356.78867 
L 516.492889 355.637901 
L 508.325283 354.664658 
L 492.451804 353.122614 
L 477.214142 351.958429 
L 442.086415 349.585514 
L 429.310545 348.367814 
L 417.325443 346.82497 
L 406.182996 345.263602 
L 400.94687 344.685773 
L 395.946035 344.358114 
L 391.1907 344.339824 
L 386.69243 344.664883 
L 382.464321 345.347688 
L 378.521369 346.390036 
L 374.880833 347.787003 
L 371.562585 349.531445 
L 368.589263 351.617811 
L 365.9853 354.047094 
L 365.9853 354.047094 
L 363.771501 356.837524 
L 361.936921 360.061719 
L 361.936921 360.061719 
" clip-path="url(#pefd2c6bc29)" style="fill: none; stroke: #fc4f30"/>
   </g>
   <g id="line2d_16">
    <path d="M 363.278726 381.878862 
L 376.679109 386.87093 
L 381.153337 387.881935 
L 386.023657 388.835303 
L 391.266131 389.681035 
L 396.860032 390.436122 
L 402.787339 391.09592 
L 409.032311 391.654789 
L 415.581053 392.105974 
L 422.421247 392.441314 
L 429.541852 392.650915 
L 436.932967 392.722522 
L 444.585564 392.640707 
L 452.491509 392.385412 
L 460.643286 391.929682 
L 469.033989 391.235495 
L 477.657325 390.245516 
L 486.50734 388.86465 
L 491.01566 387.97655 
L 495.578606 386.908034 
L 500.195611 385.590452 
L 506.041879 383.363085 
L 508.403512 382.135349 
L 510.183355 380.948525 
L 511.373974 379.901651 
L 512.418434 378.54671 
L 512.866834 377.465866 
L 512.986825 376.527434 
L 512.885521 375.691134 
L 512.567857 374.811142 
L 511.970502 373.847129 
L 510.778252 372.575737 
L 509.589248 371.632649 
L 507.221054 370.176095 
L 504.866007 369.02464 
L 500.195609 367.20575 
L 495.578614 365.767198 
L 491.015651 364.568322 
L 486.507353 363.539403 
L 477.657314 361.840193 
L 469.034005 360.472043 
L 452.491509 358.310846 
L 436.932969 356.421268 
L 429.541849 355.402356 
L 422.421239 354.245354 
L 415.581055 352.923809 
L 402.78734 350.148256 
L 396.86003 349.084637 
L 391.266133 348.479309 
L 386.023658 348.418738 
L 381.153336 348.926185 
L 376.679109 349.991967 
L 372.628419 351.594959 
L 369.031476 353.716449 
L 365.915944 356.354597 
L 363.278726 359.562716 
L 363.278726 359.562716 
" clip-path="url(#pefd2c6bc29)" style="fill: none; stroke: #e5ae38"/>
   </g>
   <g id="line2d_17">
    <path d="M 364.620532 381.997276 
L 381.795634 386.620511 
L 387.425841 387.47642 
L 393.52595 388.172484 
L 400.067937 388.724327 
L 407.027627 389.118855 
L 414.383973 389.338912 
L 422.118587 389.36162 
L 430.215238 389.155413 
L 438.659491 388.674325 
L 447.438444 387.845918 
L 456.540481 386.540875 
L 465.955026 384.470379 
L 475.672475 380.458056 
L 476.908007 379.473147 
L 477.527498 378.811275 
L 478.32287 377.371062 
L 478.450325 376.519092 
L 478.450325 376.519092 
L 478.342302 375.714289 
L 478.148125 375.178068 
L 477.527492 374.18127 
L 476.289663 372.950013 
L 475.672477 372.476696 
L 465.955017 368.114871 
L 456.540468 365.607432 
L 447.438455 363.743335 
L 422.118589 359.159156 
L 414.383977 357.371725 
L 400.067943 353.376545 
L 393.525947 351.872302 
L 387.42584 351.114007 
L 381.795633 351.182494 
L 376.667569 352.057613 
L 372.07763 353.691928 
L 368.060386 356.050007 
L 364.620532 359.154237 
L 364.620532 359.154237 
" clip-path="url(#pefd2c6bc29)" style="fill: none; stroke: #6d904f"/>
   </g>
   <g id="line2d_18">
    <path d="M 365.962337 382.090009 
L 386.912158 386.247837 
L 393.698349 386.817995 
L 401.028227 387.174367 
L 408.869748 387.285924 
L 417.195231 387.106619 
L 425.980618 386.563284 
L 435.204856 385.52448 
L 444.849409 383.692395 
L 455.218083 379.515977 
L 456.18142 378.627696 
L 456.66436 377.981483 
L 457.047285 377.077868 
L 457.112841 376.295402 
L 456.946468 375.537288 
L 456.50328 374.700644 
L 455.859925 373.9355 
L 454.897737 373.101553 
L 444.849411 368.63217 
L 435.204871 366.06542 
L 425.980617 363.967525 
L 417.195229 361.850339 
L 408.869752 359.39544 
L 401.028225 356.699886 
L 393.698348 354.429251 
L 386.912158 353.155517 
L 380.706725 353.023135 
L 375.123781 353.972837 
L 370.204831 355.917838 
L 365.962337 358.831288 
L 365.962337 358.831288 
" clip-path="url(#pefd2c6bc29)" style="fill: none; stroke: #8b8b8b"/>
   </g>
   <g id="line2d_19">
    <path d="M 367.639594 382.172378 
L 393.307812 385.491646 
L 401.538974 385.584282 
L 410.406077 385.266493 
L 419.872015 384.383818 
L 431.197242 382.20835 
L 433.807319 381.38444 
L 436.450475 380.275838 
L 438.119083 379.291043 
L 439.126331 378.432716 
L 439.631666 377.791477 
L 439.990296 376.967918 
L 440.053645 376.337083 
L 439.884757 375.551529 
L 439.463096 374.788336 
L 438.790081 374.024214 
L 437.784344 373.199773 
L 435.786613 371.990797 
L 433.807327 371.050774 
L 429.904726 369.548689 
L 410.406079 363.502652 
L 393.307813 356.827643 
L 385.755663 354.994512 
L 378.931471 354.76648 
L 372.885385 355.991586 
L 367.639594 358.542305 
L 367.639594 358.542305 
" clip-path="url(#pefd2c6bc29)" style="fill: none; stroke: #810f7c"/>
   </g>
   <g id="line2d_20">
    <path d="M 368.981399 382.212798 
L 398.424337 384.626015 
L 403.026368 384.453506 
L 407.811478 384.121509 
L 412.773929 383.588179 
L 417.908375 382.77932 
L 420.538536 382.22817 
L 423.209866 381.532639 
L 425.921811 380.61413 
L 428.673827 379.24836 
L 429.020615 379.012383 
L 429.020615 379.012383 
L 429.368028 378.748506 
L 429.368028 378.748506 
L 429.716054 378.445715 
L 429.716054 378.445715 
L 430.064688 378.082733 
L 430.239236 377.864812 
L 430.239236 377.864811 
L 430.413947 377.605424 
L 430.413947 377.605423 
L 430.413947 377.605421 
L 430.588799 377.267997 
L 430.588799 377.267996 
L 430.763814 376.618814 
L 430.766547 376.592388 
L 430.766547 376.592384 
L 430.76928 376.561894 
L 430.76928 376.561894 
L 430.772016 376.524507 
L 430.772016 376.524505 
L 430.774754 376.470993 
L 430.775095 376.461554 
L 430.775095 376.461552 
L 430.775435 376.450654 
L 430.775438 376.450456 
L 430.775779 376.436963 
L 430.775779 376.43696 
L 430.776119 376.417361 
L 430.776141 376.415442 
L 430.776162 376.413503 
L 430.776164 376.413255 
L 430.776164 376.413255 
L 430.776184 376.411287 
L 430.776205 376.409038 
L 430.776246 376.403644 
L 430.776252 376.402593 
L 430.776257 376.401526 
L 430.776258 376.40126 
L 430.776262 376.399636 
L 430.776267 376.399381 
L 430.776269 376.398563 
L 430.776271 376.398292 
L 430.776271 376.397738 
L 430.776268 376.397729 
L 430.776275 376.396079 
L 430.776279 376.391832 
L 430.776279 376.387909 
L 430.776275 376.38697 
L 430.776276 376.386418 
L 430.776271 376.385742 
L 430.776272 376.3849 
L 430.776273 376.384063 
L 430.776267 376.383075 
L 430.77626 376.382092 
L 430.77626 376.3818 
L 430.77626 376.381514 
L 430.776255 376.381126 
L 430.776249 376.378732 
L 430.776207 376.374219 
L 430.776185 376.370965 
L 430.776164 376.369145 
L 430.776164 376.369143 
L 430.776164 376.368861 
L 430.776142 376.367043 
L 430.776121 376.365513 
L 430.775779 376.345709 
L 430.775779 376.345706 
L 430.775437 376.331983 
L 430.775437 376.331704 
L 430.775095 376.320866 
L 430.775095 376.320864 
L 430.774753 376.311471 
L 430.772017 376.257787 
L 430.772017 376.257787 
L 430.769281 376.220028 
L 430.769281 376.220025 
L 430.766548 376.189404 
L 430.766548 376.189403 
L 430.76381 376.162711 
L 430.588797 375.50021 
L 430.588797 375.500208 
L 430.413943 375.149318 
L 430.413943 375.149317 
L 430.413943 375.149315 
L 430.23924 374.8764 
L 430.23924 374.876397 
L 430.064692 374.644798 
L 429.716048 374.254115 
L 429.716048 374.254113 
L 429.368025 373.923204 
L 429.368024 373.923201 
L 429.020619 373.630744 
L 429.020619 373.630744 
L 428.673822 373.365691 
L 425.921816 371.749104 
L 423.209873 370.542538 
L 420.538534 369.514051 
L 417.908375 368.575732 
L 412.773926 366.784738 
L 407.811477 364.913982 
L 403.026368 362.854783 
L 398.42434 360.712818 
L 389.794817 357.251186 
L 381.977637 355.778054 
L 381.977632 355.778052 
L 381.977614 355.778046 
L 381.977614 355.778046 
L 375.02983 356.243114 
L 368.981399 358.399791 
" clip-path="url(#pefd2c6bc29)" style="fill: none; stroke: #008fd5"/>
   </g>
   <g id="line2d_21">
    <path d="M 370.323204 382.231303 
L 403.540859 383.429511 
L 408.711368 382.825024 
L 414.083988 381.853074 
L 416.844085 381.147434 
L 419.65237 380.179945 
L 421.074353 379.519897 
L 422.508124 378.605752 
L 423.31976 377.806625 
L 423.726963 377.108156 
L 423.873727 376.369984 
L 423.772268 375.711306 
L 423.410174 374.973033 
L 422.868395 374.308145 
L 421.789776 373.382613 
L 420.361887 372.459691 
L 418.24225 371.354759 
L 414.083982 369.550101 
L 406.100441 366.228253 
L 403.540862 365.03468 
L 393.833973 360.166157 
L 385.023783 357.157012 
L 385.023783 357.157012 
L 377.174272 356.670786 
L 370.323204 358.334396 
L 370.323204 358.334396 
" clip-path="url(#pefd2c6bc29)" style="fill: none; stroke: #fc4f30"/>
   </g>
   <g id="line2d_22">
    <path d="M 372.000461 382.22402 
L 379.854824 383.018193 
L 388.831484 383.318097 
L 398.882918 382.841069 
L 409.936517 381.051132 
L 412.848379 380.147765 
L 414.325889 379.528941 
L 416.19278 378.400158 
L 416.945704 377.640877 
L 417.421028 376.552362 
L 417.394418 375.889758 
L 417.323488 375.631581 
L 416.945704 374.897975 
L 416.19278 374.040979 
L 415.817636 373.709633 
L 414.325889 372.644371 
L 411.385213 371.020647 
L 409.936516 370.308922 
L 388.831479 359.462532 
L 379.854823 357.466486 
L 372.000461 358.360144 
L 372.000461 358.360144 
" clip-path="url(#pefd2c6bc29)" style="fill: none; stroke: #e5ae38"/>
   </g>
   <g id="line2d_23">
    <path d="M 373.342266 382.193754 
L 377.518236 382.581298 
L 386.787885 382.916572 
L 394.532528 382.602533 
L 400.05602 382.017818 
L 404.380615 381.271358 
L 407.34801 380.533456 
L 409.616975 379.75775 
L 411.150023 379.040683 
L 412.504702 378.107964 
L 413.13784 377.381031 
L 413.437059 376.694875 
L 413.476032 376.038551 
L 413.308752 375.421599 
L 412.894016 374.717102 
L 412.116397 373.877824 
L 411.150023 373.097505 
L 408.856555 371.637846 
L 400.05602 366.722367 
L 394.532528 363.332085 
L 391.877634 361.829195 
L 386.787883 359.565624 
L 381.999268 358.32842 
L 377.518233 358.000823 
L 373.342266 358.466994 
L 373.342266 358.466994 
" clip-path="url(#pefd2c6bc29)" style="fill: none; stroke: #6d904f"/>
   </g>
   <g id="line2d_24">
    <path d="M 374.684071 382.14127 
L 379.248504 382.433617 
L 389.371292 382.478199 
L 394.923788 382.064369 
L 397.818667 381.706927 
L 400.790792 381.209052 
L 403.838769 380.507349 
L 407.753313 379.071314 
L 408.549957 378.616202 
L 409.351129 378.011785 
L 410.232572 376.691858 
L 410.283104 376.005142 
L 410.15681 375.484721 
L 409.35113 374.2481 
L 407.753315 372.862746 
L 406.961219 372.308484 
L 397.818666 366.589524 
L 394.923787 364.66934 
L 389.37129 361.430617 
L 384.143717 359.41169 
L 379.248501 358.543479 
L 374.684071 358.651675 
L 374.684071 358.651675 
" clip-path="url(#pefd2c6bc29)" style="fill: none; stroke: #8b8b8b"/>
   </g>
   <g id="line2d_25">
    <path d="M 376.361328 382.043068 
L 381.411338 382.191136 
L 386.824275 382.181632 
L 392.600555 381.765878 
L 398.731482 380.830292 
L 401.926335 380.012365 
L 403.555445 379.432465 
L 405.621149 378.353228 
L 406.456475 377.62892 
L 407.020595 376.635079 
L 407.073188 375.97538 
L 406.902331 375.320067 
L 406.456475 374.557513 
L 405.621149 373.638093 
L 405.205418 373.26455 
L 401.926335 370.86329 
L 398.731479 368.66819 
L 392.600557 364.324896 
L 386.824273 361.118329 
L 381.411338 359.421668 
L 376.361328 358.995088 
L 376.361328 358.995088 
" clip-path="url(#pefd2c6bc29)" style="fill: none; stroke: #810f7c"/>
   </g>
   <g id="line2d_26">
    <path d="M 377.703133 381.936739 
L 383.141612 381.943451 
L 388.968709 381.765558 
L 395.183965 381.006281 
L 402.202023 379.044763 
L 403.483725 378.327826 
L 404.345278 377.595313 
L 404.805277 376.912293 
L 404.977335 376.239339 
L 404.913741 375.603049 
L 404.669817 374.991326 
L 404.129362 374.203479 
L 403.055071 373.115773 
L 401.777632 372.064046 
L 395.183961 367.075008 
L 388.968717 362.808225 
L 383.141611 360.299891 
L 377.703133 359.363628 
L 377.703133 359.363628 
" clip-path="url(#pefd2c6bc29)" style="fill: none; stroke: #008fd5"/>
   </g>
   <g id="line2d_27">
    <path d="M 379.044939 381.803518 
L 384.871879 381.637613 
L 387.940469 381.577985 
L 392.738332 381.021568 
L 396.065614 380.392338 
L 398.627692 379.68859 
L 400.367099 379.017054 
L 401.687962 378.292011 
L 402.576252 377.540143 
L 403.148543 376.511232 
L 403.190516 375.878014 
L 403.022702 375.221864 
L 402.576253 374.427823 
L 401.687958 373.397477 
L 400.367099 372.196195 
L 394.38921 367.332081 
L 391.113158 364.827612 
L 387.940466 362.820249 
L 384.871876 361.353323 
L 381.907251 360.374096 
L 379.044939 359.820217 
L 379.044939 359.820217 
" clip-path="url(#pefd2c6bc29)" style="fill: none; stroke: #fc4f30"/>
   </g>
   <g id="line2d_28">
    <path d="M 380.722195 381.594565 
L 387.034715 381.364308 
L 390.358212 380.991297 
L 393.793713 380.396733 
L 395.553208 379.975267 
L 397.340322 379.421452 
L 399.154866 378.634036 
L 401.112644 376.901959 
L 401.317732 376.204377 
L 401.272329 375.546519 
L 400.996634 374.820968 
L 399.154864 372.597157 
L 393.793712 367.836703 
L 390.358213 365.079562 
L 387.034715 362.953052 
L 383.823221 361.463208 
L 380.722195 360.523764 
L 380.722195 360.523764 
" clip-path="url(#pefd2c6bc29)" style="fill: none; stroke: #e5ae38"/>
   </g>
   <g id="line2d_29">
    <path d="M 382.064 381.388023 
L 388.764979 380.959351 
L 392.292409 380.384198 
L 396.867977 379.069194 
L 397.805108 378.634776 
L 398.749529 378.057505 
L 399.88046 376.775487 
L 400.050606 376.063296 
L 399.970177 375.382923 
L 399.701211 374.71544 
L 398.749529 373.379483 
L 396.867977 371.454765 
L 392.292404 367.245897 
L 388.764982 364.497015 
L 385.356 362.509754 
L 382.064001 361.202411 
L 382.064001 361.202411 
" clip-path="url(#pefd2c6bc29)" style="fill: none; stroke: #6d904f"/>
   </g>
  </g>
  <g id="text_1">
   <!-- Isoredshift lines for M=1.0 -->
   <g transform="translate(249.365437 27.165375)scale(0.168 -0.168)">
    <defs>
     <path id="DejaVuSans-49" d="M 628 4666 
L 1259 4666 
L 1259 0 
L 628 0 
L 628 4666 
z
" transform="scale(0.015625)"/>
     <path id="DejaVuSans-73" d="M 2834 3397 
L 2834 2853 
Q 2591 2978 2328 3040 
Q 2066 3103 1784 3103 
Q 1356 3103 1142 2972 
Q 928 2841 928 2578 
Q 928 2378 1081 2264 
Q 1234 2150 1697 2047 
L 1894 2003 
Q 2506 1872 2764 1633 
Q 3022 1394 3022 966 
Q 3022 478 2636 193 
Q 2250 -91 1575 -91 
Q 1294 -91 989 -36 
Q 684 19 347 128 
L 347 722 
Q 666 556 975 473 
Q 1284 391 1588 391 
Q 1994 391 2212 530 
Q 2431 669 2431 922 
Q 2431 1156 2273 1281 
Q 2116 1406 1581 1522 
L 1381 1569 
Q 847 1681 609 1914 
Q 372 2147 372 2553 
Q 372 3047 722 3315 
Q 1072 3584 1716 3584 
Q 2034 3584 2315 3537 
Q 2597 3491 2834 3397 
z
" transform="scale(0.015625)"/>
     <path id="DejaVuSans-6f" d="M 1959 3097 
Q 1497 3097 1228 2736 
Q 959 2375 959 1747 
Q 959 1119 1226 758 
Q 1494 397 1959 397 
Q 2419 397 2687 759 
Q 2956 1122 2956 1747 
Q 2956 2369 2687 2733 
Q 2419 3097 1959 3097 
z
M 1959 3584 
Q 2709 3584 3137 3096 
Q 3566 2609 3566 1747 
Q 3566 888 3137 398 
Q 2709 -91 1959 -91 
Q 1206 -91 779 398 
Q 353 888 353 1747 
Q 353 2609 779 3096 
Q 1206 3584 1959 3584 
z
" transform="scale(0.015625)"/>
     <path id="DejaVuSans-72" d="M 2631 2963 
Q 2534 3019 2420 3045 
Q 2306 3072 2169 3072 
Q 1681 3072 1420 2755 
Q 1159 2438 1159 1844 
L 1159 0 
L 581 0 
L 581 3500 
L 1159 3500 
L 1159 2956 
Q 1341 3275 1631 3429 
Q 1922 3584 2338 3584 
Q 2397 3584 2469 3576 
Q 2541 3569 2628 3553 
L 2631 2963 
z
" transform="scale(0.015625)"/>
     <path id="DejaVuSans-65" d="M 3597 1894 
L 3597 1613 
L 953 1613 
Q 991 1019 1311 708 
Q 1631 397 2203 397 
Q 2534 397 2845 478 
Q 3156 559 3463 722 
L 3463 178 
Q 3153 47 2828 -22 
Q 2503 -91 2169 -91 
Q 1331 -91 842 396 
Q 353 884 353 1716 
Q 353 2575 817 3079 
Q 1281 3584 2069 3584 
Q 2775 3584 3186 3129 
Q 3597 2675 3597 1894 
z
M 3022 2063 
Q 3016 2534 2758 2815 
Q 2500 3097 2075 3097 
Q 1594 3097 1305 2825 
Q 1016 2553 972 2059 
L 3022 2063 
z
" transform="scale(0.015625)"/>
     <path id="DejaVuSans-64" d="M 2906 2969 
L 2906 4863 
L 3481 4863 
L 3481 0 
L 2906 0 
L 2906 525 
Q 2725 213 2448 61 
Q 2172 -91 1784 -91 
Q 1150 -91 751 415 
Q 353 922 353 1747 
Q 353 2572 751 3078 
Q 1150 3584 1784 3584 
Q 2172 3584 2448 3432 
Q 2725 3281 2906 2969 
z
M 947 1747 
Q 947 1113 1208 752 
Q 1469 391 1925 391 
Q 2381 391 2643 752 
Q 2906 1113 2906 1747 
Q 2906 2381 2643 2742 
Q 2381 3103 1925 3103 
Q 1469 3103 1208 2742 
Q 947 2381 947 1747 
z
" transform="scale(0.015625)"/>
     <path id="DejaVuSans-68" d="M 3513 2113 
L 3513 0 
L 2938 0 
L 2938 2094 
Q 2938 2591 2744 2837 
Q 2550 3084 2163 3084 
Q 1697 3084 1428 2787 
Q 1159 2491 1159 1978 
L 1159 0 
L 581 0 
L 581 4863 
L 1159 4863 
L 1159 2956 
Q 1366 3272 1645 3428 
Q 1925 3584 2291 3584 
Q 2894 3584 3203 3211 
Q 3513 2838 3513 2113 
z
" transform="scale(0.015625)"/>
     <path id="DejaVuSans-69" d="M 603 3500 
L 1178 3500 
L 1178 0 
L 603 0 
L 603 3500 
z
M 603 4863 
L 1178 4863 
L 1178 4134 
L 603 4134 
L 603 4863 
z
" transform="scale(0.015625)"/>
     <path id="DejaVuSans-66" d="M 2375 4863 
L 2375 4384 
L 1825 4384 
Q 1516 4384 1395 4259 
Q 1275 4134 1275 3809 
L 1275 3500 
L 2222 3500 
L 2222 3053 
L 1275 3053 
L 1275 0 
L 697 0 
L 697 3053 
L 147 3053 
L 147 3500 
L 697 3500 
L 697 3744 
Q 697 4328 969 4595 
Q 1241 4863 1831 4863 
L 2375 4863 
z
" transform="scale(0.015625)"/>
     <path id="DejaVuSans-74" d="M 1172 4494 
L 1172 3500 
L 2356 3500 
L 2356 3053 
L 1172 3053 
L 1172 1153 
Q 1172 725 1289 603 
Q 1406 481 1766 481 
L 2356 481 
L 2356 0 
L 1766 0 
Q 1100 0 847 248 
Q 594 497 594 1153 
L 594 3053 
L 172 3053 
L 172 3500 
L 594 3500 
L 594 4494 
L 1172 4494 
z
" transform="scale(0.015625)"/>
     <path id="DejaVuSans-20" transform="scale(0.015625)"/>
     <path id="DejaVuSans-6c" d="M 603 4863 
L 1178 4863 
L 1178 0 
L 603 0 
L 603 4863 
z
" transform="scale(0.015625)"/>
     <path id="DejaVuSans-6e" d="M 3513 2113 
L 3513 0 
L 2938 0 
L 2938 2094 
Q 2938 2591 2744 2837 
Q 2550 3084 2163 3084 
Q 1697 3084 1428 2787 
Q 1159 2491 1159 1978 
L 1159 0 
L 581 0 
L 581 3500 
L 1159 3500 
L 1159 2956 
Q 1366 3272 1645 3428 
Q 1925 3584 2291 3584 
Q 2894 3584 3203 3211 
Q 3513 2838 3513 2113 
z
" transform="scale(0.015625)"/>
     <path id="DejaVuSans-4d" d="M 628 4666 
L 1569 4666 
L 2759 1491 
L 3956 4666 
L 4897 4666 
L 4897 0 
L 4281 0 
L 4281 4097 
L 3078 897 
L 2444 897 
L 1241 4097 
L 1241 0 
L 628 0 
L 628 4666 
z
" transform="scale(0.015625)"/>
     <path id="DejaVuSans-3d" d="M 678 2906 
L 4684 2906 
L 4684 2381 
L 678 2381 
L 678 2906 
z
M 678 1631 
L 4684 1631 
L 4684 1100 
L 678 1100 
L 678 1631 
z
" transform="scale(0.015625)"/>
     <path id="DejaVuSans-31" d="M 794 531 
L 1825 531 
L 1825 4091 
L 703 3866 
L 703 4441 
L 1819 4666 
L 2450 4666 
L 2450 531 
L 3481 531 
L 3481 0 
L 794 0 
L 794 531 
z
" transform="scale(0.015625)"/>
     <path id="DejaVuSans-2e" d="M 684 794 
L 1344 794 
L 1344 0 
L 684 0 
L 684 794 
z
" transform="scale(0.015625)"/>
     <path id="DejaVuSans-30" d="M 2034 4250 
Q 1547 4250 1301 3770 
Q 1056 3291 1056 2328 
Q 1056 1369 1301 889 
Q 1547 409 2034 409 
Q 2525 409 2770 889 
Q 3016 1369 3016 2328 
Q 3016 3291 2770 3770 
Q 2525 4250 2034 4250 
z
M 2034 4750 
Q 2819 4750 3233 4129 
Q 3647 3509 3647 2328 
Q 3647 1150 3233 529 
Q 2819 -91 2034 -91 
Q 1250 -91 836 529 
Q 422 1150 422 2328 
Q 422 3509 836 4129 
Q 1250 4750 2034 4750 
z
" transform="scale(0.015625)"/>
    </defs>
    <use xlink:href="#DejaVuSans-49"/>
    <use xlink:href="#DejaVuSans-73" x="29.492188"/>
    <use xlink:href="#DejaVuSans-6f" x="81.591797"/>
    <use xlink:href="#DejaVuSans-72" x="142.773438"/>
    <use xlink:href="#DejaVuSans-65" x="181.636719"/>
    <use xlink:href="#DejaVuSans-64" x="243.160156"/>
    <use xlink:href="#DejaVuSans-73" x="306.636719"/>
    <use xlink:href="#DejaVuSans-68" x="358.736328"/>
    <use xlink:href="#DejaVuSans-69" x="422.115234"/>
    <use xlink:href="#DejaVuSans-66" x="449.898438"/>
    <use xlink:href="#DejaVuSans-74" x="483.353516"/>
    <use xlink:href="#DejaVuSans-20" x="522.5625"/>
    <use xlink:href="#DejaVuSans-6c" x="554.349609"/>
    <use xlink:href="#DejaVuSans-69" x="582.132812"/>
    <use xlink:href="#DejaVuSans-6e" x="609.916016"/>
    <use xlink:href="#DejaVuSans-65" x="673.294922"/>
    <use xlink:href="#DejaVuSans-73" x="734.818359"/>
    <use xlink:href="#DejaVuSans-20" x="786.917969"/>
    <use xlink:href="#DejaVuSans-66" x="818.705078"/>
    <use xlink:href="#DejaVuSans-6f" x="853.910156"/>
    <use xlink:href="#DejaVuSans-72" x="915.091797"/>
    <use xlink:href="#DejaVuSans-20" x="956.205078"/>
    <use xlink:href="#DejaVuSans-4d" x="987.992188"/>
    <use xlink:href="#DejaVuSans-3d" x="1074.271484"/>
    <use xlink:href="#DejaVuSans-31" x="1158.060547"/>
    <use xlink:href="#DejaVuSans-2e" x="1221.683594"/>
    <use xlink:href="#DejaVuSans-30" x="1253.470703"/>
   </g>
  </g>
 </g>
 <defs>
  <clipPath id="pefd2c6bc29">
   <rect x="57.6" y="86.4" width="626.4" height="583.2"/>
  </clipPath>
 </defs>
</svg>
