<?xml version="1.0" encoding="utf-8" standalone="no"?>
<!DOCTYPE svg PUBLIC "-//W3C//DTD SVG 1.1//EN"
  "http://www.w3.org/Graphics/SVG/1.1/DTD/svg11.dtd">
<svg xmlns:xlink="http://www.w3.org/1999/xlink" width="720pt" height="720pt" viewBox="0 0 720 720" xmlns="http://www.w3.org/2000/svg" version="1.1">
 <metadata>
  <rdf:RDF xmlns:dc="http://purl.org/dc/elements/1.1/" xmlns:cc="http://creativecommons.org/ns#" xmlns:rdf="http://www.w3.org/1999/02/22-rdf-syntax-ns#">
   <cc:Work>
    <dc:type rdf:resource="http://purl.org/dc/dcmitype/StillImage"/>
    <dc:date>2023-06-28T17:55:46.452267</dc:date>
    <dc:format>image/svg+xml</dc:format>
    <dc:creator>
     <cc:Agent>
      <dc:title>Matplotlib v3.5.2, https://matplotlib.org/</dc:title>
     </cc:Agent>
    </dc:creator>
   </cc:Work>
  </rdf:RDF>
 </metadata>
 <defs>
  <style type="text/css">*{stroke-linejoin: round; stroke-linecap: butt}</style>
 </defs>
 <g id="figure_1">
  <g id="patch_1">
   <path d="M 0 720 
L 720 720 
L 720 0 
L 0 0 
z
" style="fill: #1a1a1a"/>
  </g>
  <g id="axes_1">
   <g id="line2d_1">
    <path d="M 370.8 387.685803 
L 373.451648 387.590165 
L 374.296969 387.483818 
L 374.83516 387.462647 
L 375.349861 387.355345 
L 375.91758 387.3239 
L 376.074642 387.247716 
L 376.666196 387.206965 
L 376.821187 387.119821 
L 377.439851 387.067226 
L 377.592382 386.968757 
L 377.836931 386.987741 
L 377.988069 386.88346 
L 378.241264 386.901189 
L 378.390888 386.790991 
L 378.653126 386.807017 
L 378.801106 386.690793 
L 379.072749 386.704619 
L 379.218946 386.582256 
L 379.500311 386.593333 
L 379.644572 386.464715 
L 379.935919 386.472435 
L 380.078082 386.337446 
L 380.379596 386.341143 
L 380.519483 386.199666 
L 380.831257 386.198609 
L 380.968678 386.050527 
L 381.290688 386.04392 
L 381.425435 385.889122 
L 381.757516 385.876103 
L 381.889367 385.714481 
L 382.231181 385.69412 
L 382.359895 385.525577 
L 382.7109 385.496885 
L 382.836219 385.321333 
L 383.195627 385.283263 
L 383.317273 385.100631 
L 383.684016 385.052092 
L 383.801691 384.862329 
L 384.174375 384.802202 
L 384.287763 384.605281 
L 385.321885 384.842109 
L 385.435806 384.628359 
L 385.882054 384.559072 
L 385.991118 384.337145 
L 386.445263 384.253073 
L 386.549082 384.022927 
L 387.009005 383.922837 
L 387.107169 383.684467 
L 387.57033 383.567197 
L 387.662409 383.320642 
L 388.125843 383.185156 
L 388.211392 382.930504 
L 388.671727 382.775938 
L 388.750287 382.513334 
L 389.203779 382.339058 
L 389.274884 382.068708 
L 389.717495 381.874373 
L 389.780677 381.596548 
L 390.208174 381.382139 
L 390.26297 381.097183 
L 390.671045 380.863054 
L 390.717005 380.571376 
L 391.101441 380.318275 
L 391.138133 380.020354 
L 391.494956 379.749421 
L 391.521978 379.445801 
L 391.847623 379.158543 
L 391.864608 378.849827 
L 392.156081 378.548078 
L 392.162703 378.234915 
L 392.417686 377.920764 
L 392.413666 377.603843 
L 392.630609 377.279552 
L 392.615717 376.959589 
L 392.793862 376.6275 
L 392.767922 376.305225 
L 392.90729 375.967672 
L 392.870176 375.643816 
L 392.971498 375.303038 
L 392.923135 374.978323 
L 392.987749 374.636398 
L 392.886941 373.64597 
L 392.768573 372.648753 
L 391.943353 370.094705 
L 391.189851 368.580158 
L 389.669437 366.323797 
L 388.789621 365.278533 
L 387.841824 364.291296 
L 386.832791 363.363891 
L 385.768197 362.498078 
L 384.375533 361.494547 
L 381.366736 359.820977 
L 378.470925 358.693725 
L 376.808845 358.215789 
L 374.085758 357.703841 
L 371.667062 357.505162 
L 369.240052 357.538919 
L 366.828108 357.803591 
L 364.121155 358.390497 
L 361.500517 359.272397 
L 358.70479 360.614574 
L 357.224467 361.494547 
L 354.497292 363.579207 
L 352.130384 366.048605 
L 350.410149 368.580158 
L 349.40086 370.718875 
L 348.831427 372.648753 
L 348.628502 375.303038 
L 348.729824 375.643816 
L 348.69271 375.967672 
L 348.832078 376.305225 
L 348.806138 376.6275 
L 348.984283 376.959589 
L 348.969391 377.279552 
L 349.186334 377.603843 
L 349.182314 377.920764 
L 349.437297 378.234915 
L 349.443919 378.548078 
L 349.735392 378.849827 
L 349.752377 379.158543 
L 350.078022 379.445801 
L 350.105044 379.749421 
L 350.461867 380.020354 
L 350.498559 380.318275 
L 350.882995 380.571376 
L 350.928955 380.863054 
L 351.33703 381.097183 
L 351.391826 381.382139 
L 351.819323 381.596548 
L 351.882505 381.874373 
L 352.325116 382.068708 
L 352.396221 382.339058 
L 352.849713 382.513334 
L 352.928273 382.775938 
L 353.388608 382.930504 
L 353.474157 383.185156 
L 353.937591 383.320642 
L 354.02967 383.567197 
L 354.492831 383.684467 
L 354.590995 383.922837 
L 355.050918 384.022927 
L 355.154737 384.253073 
L 355.608882 384.337145 
L 355.717946 384.559072 
L 356.164194 384.628359 
L 356.278115 384.842109 
L 357.312237 384.605281 
L 357.425625 384.802202 
L 357.798309 384.862329 
L 357.915984 385.052092 
L 358.282727 385.100631 
L 358.404373 385.283263 
L 358.763781 385.321333 
L 358.8891 385.496885 
L 359.240105 385.525577 
L 359.368819 385.69412 
L 359.710633 385.714481 
L 359.842484 385.876103 
L 360.174565 385.889122 
L 360.309312 386.04392 
L 360.631322 386.050527 
L 360.768743 386.198609 
L 361.080517 386.199666 
L 361.220404 386.341143 
L 361.521918 386.337446 
L 361.664081 386.472435 
L 361.955428 386.464715 
L 362.099689 386.593333 
L 362.381054 386.582256 
L 362.527251 386.704619 
L 362.798894 386.690793 
L 362.946874 386.807017 
L 363.209112 386.790991 
L 363.358736 386.901189 
L 363.611931 386.88346 
L 363.763069 386.987741 
L 364.39647 387.04739 
L 364.550283 387.140148 
L 365.15499 387.186469 
L 365.311062 387.26809 
L 365.890284 387.303905 
L 366.408931 387.420889 
L 366.956137 387.445065 
L 367.463865 387.53391 
L 367.986481 387.550101 
L 368.658615 387.602478 
L 369.485615 387.662405 
L 370.8 387.685803 
L 370.8 387.685803 
" clip-path="url(#pa65f1070fe)" style="fill: none; stroke: #fc4f30; stroke-width: 2"/>
   </g>
   <g id="line2d_2">
    <path d="M 348.648511 376.57103 
L 348.64851 372.513484 
L 346.261564 371.695863 
L 343.750188 371.392702 
L 341.134565 371.42999 
L 337.735367 371.984094 
L 336.338236 372.438065 
L 334.920695 373.16298 
L 334.114561 373.883358 
L 333.799384 374.454019 
L 333.743006 375.028329 
L 333.844465 375.395539 
L 334.204438 375.935914 
L 334.920694 376.515429 
L 335.631981 376.893539 
L 337.039389 377.391307 
L 338.426091 377.695575 
L 338.426091 377.695575 
" clip-path="url(#pa65f1070fe)" style="fill: none; stroke: #008fd5"/>
   </g>
   <g id="line2d_3">
    <path d="M 350.611552 367.804176 
L 346.887477 365.40046 
L 342.882569 363.511681 
L 338.666476 361.902238 
L 334.265526 360.4951 
L 329.693252 359.258193 
L 324.95833 358.177746 
L 320.067198 357.249288 
L 315.025083 356.474057 
L 309.836502 355.857411 
L 304.505468 355.408279 
L 299.035604 355.139289 
L 293.430262 355.067287 
L 287.692532 355.214619 
L 281.825297 355.611435 
L 275.831275 356.299575 
L 269.712993 357.340408 
L 263.472841 358.831188 
L 257.113099 360.94631 
L 250.635908 364.078022 
L 244.043315 369.848386 
L 243.211208 371.248029 
L 242.794505 372.198554 
L 242.272995 374.40838 
L 242.253425 375.712796 
L 242.377356 376.682482 
L 242.794507 378.154323 
L 243.627486 379.848104 
L 244.043309 380.485861 
L 250.635918 386.154759 
L 257.113104 389.181624 
L 263.472853 391.188519 
L 269.712999 392.567547 
L 275.831269 393.493135 
L 281.825302 394.062549 
L 287.692531 394.337164 
L 293.43026 394.359042 
L 299.035605 394.158563 
L 304.505463 393.758553 
L 309.836501 393.176583 
L 315.025085 392.426341 
L 320.067195 391.518384 
L 324.958337 390.460514 
L 329.693253 389.257594 
L 334.265525 387.910746 
L 350.611551 380.586506 
L 350.611551 380.586506 
" clip-path="url(#pa65f1070fe)" style="fill: none; stroke: #fc4f30"/>
   </g>
   <g id="line2d_4">
    <path d="M 352.574593 365.208875 
L 350.024766 361.975804 
L 347.339046 359.128847 
L 344.5757 356.471497 
L 341.750925 353.932989 
L 338.869837 351.479486 
L 335.934064 349.092027 
L 332.944111 346.75882 
L 329.900131 344.472029 
L 326.80221 342.226181 
L 323.650495 340.017296 
L 320.44519 337.842401 
L 317.186577 335.699253 
L 313.874989 333.586102 
L 310.510806 331.501596 
L 307.094461 329.444638 
L 303.626404 327.414386 
L 300.107103 325.410159 
L 296.537039 323.431406 
L 292.916707 321.477722 
L 289.24662 319.548741 
L 285.527253 317.644232 
L 281.759114 315.763993 
L 277.94268 313.907878 
L 274.078449 312.075808 
L 270.166887 310.267698 
L 266.2085 308.483543 
L 262.203712 306.72334 
L 258.152988 304.987151 
L 254.056783 303.275005 
L 249.915564 301.58697 
L 245.729673 299.923191 
L 241.499615 298.283727 
L 237.225768 296.668728 
L 232.908506 295.078345 
L 228.548271 293.512718 
L 224.145415 291.97202 
L 219.700316 290.456432 
L 215.21335 288.966147 
L 210.684852 287.501367 
L 206.115228 286.062282 
L 201.504768 284.649131 
L 196.853849 283.262153 
L 192.162718 281.901598 
L 187.431794 280.567664 
L 182.661342 279.260665 
L 177.851663 277.980886 
L 173.003098 276.728528 
L 168.115907 275.503945 
L 163.190382 274.30742 
L 158.226816 273.139253 
L 153.225488 271.999791 
L 148.18666 270.889336 
L 143.11058 269.808226 
L 137.997554 268.756822 
L 132.847835 267.735496 
L 127.661626 266.744623 
L 127.661623 266.744628 
L 127.661593 266.744629 
" clip-path="url(#pa65f1070fe)" style="fill: none; stroke: #e5ae38"/>
   </g>
   <g id="line2d_5">
    <path d="M 127.661606 481.589313 
L 127.661636 481.589313 
L 127.661642 481.589325 
L 127.661644 481.589329 
L 132.847819 480.554843 
L 137.997568 479.489554 
L 143.110621 478.393807 
L 148.186661 477.267938 
L 153.225488 476.112361 
L 158.226832 474.927389 
L 163.19039 473.713345 
L 168.115907 472.470576 
L 173.003104 471.199372 
L 177.851659 469.900064 
L 182.661337 468.572958 
L 187.431785 467.218322 
L 192.162747 465.836467 
L 196.853828 464.427633 
L 201.504755 462.992082 
L 206.115231 461.530134 
L 210.684872 460.041983 
L 215.213369 458.527905 
L 219.700318 456.988127 
L 224.145413 455.422877 
L 228.54827 453.832409 
L 232.908528 452.216916 
L 237.225755 450.576615 
L 241.499602 448.911725 
L 245.729684 447.222454 
L 249.915547 445.508986 
L 254.056796 443.771507 
L 258.152996 442.010216 
L 262.203711 440.225279 
L 266.2085 438.416855 
L 270.166904 436.585125 
L 274.078449 434.730232 
L 277.942689 432.852326 
L 281.759106 430.951534 
L 285.527249 429.027997 
L 289.246617 427.08182 
L 292.916715 425.113107 
L 296.537038 423.121929 
L 300.1071 421.108374 
L 303.626403 419.072452 
L 307.094466 417.014191 
L 310.510814 414.933554 
L 313.874992 412.830455 
L 317.186577 410.70475 
L 320.445195 408.556187 
L 323.650494 406.384399 
L 326.802211 404.188821 
L 329.900127 401.968605 
L 332.944114 399.72247 
L 335.934066 397.448423 
L 338.869837 395.143265 
L 341.750924 392.801571 
L 352.574592 382.559194 
" clip-path="url(#pa65f1070fe)" style="fill: none; stroke: #6d904f"/>
   </g>
   <g id="line2d_6">
    <path d="M 354.537634 363.272193 
L 349.236324 349.511225 
L 348.046416 346.387993 
L 346.909801 343.316171 
L 345.82103 340.284084 
L 344.775174 337.28376 
L 343.767917 334.309505 
L 342.795526 331.35705 
L 341.85478 328.423117 
L 340.942892 325.505131 
L 340.057442 322.600999 
L 339.196313 319.709027 
L 338.357647 316.827817 
L 337.539813 313.956173 
L 336.741353 311.093106 
L 335.96097 308.237756 
L 335.197515 305.389371 
L 334.449929 302.547332 
L 333.717287 299.711057 
L 332.998721 296.880085 
L 332.293472 294.05394 
L 331.600824 291.232256 
L 330.920126 288.414706 
L 330.250795 285.600962 
L 329.592275 282.790763 
L 328.944057 279.983818 
L 328.305687 277.179954 
L 327.676724 274.378938 
L 327.056762 271.580588 
L 326.445437 268.784728 
L 325.84239 265.991231 
L 325.2473 263.199946 
L 324.659877 260.410697 
L 324.079792 257.623409 
L 323.506816 254.837967 
L 322.940666 252.054269 
L 322.381134 249.272219 
L 321.827974 246.491702 
L 321.280979 243.71267 
L 320.739941 240.935056 
L 320.20469 238.158736 
L 319.675019 235.38371 
L 319.150766 232.609853 
L 318.631779 229.837147 
L 318.117899 227.065562 
L 317.608978 224.29498 
L 317.104857 221.525421 
L 316.605423 218.756775 
L 316.110549 215.989051 
L 315.620103 213.222208 
L 315.133971 210.456171 
L 314.652045 207.690976 
L 314.174208 204.92648 
L 313.700497 202.162739 
L 313.700374 202.162748 
L 313.700367 202.16275 
" clip-path="url(#pa65f1070fe)" style="fill: none; stroke: #8b8b8b"/>
   </g>
   <g id="line2d_7">
    <path d="M 313.700302 538.496667 
L 313.700365 538.49666 
L 313.700371 538.496662 
L 313.700486 538.496671 
L 314.174209 535.758759 
L 314.652045 533.0208 
L 315.133971 530.282849 
L 315.620102 527.544832 
L 316.11055 524.806784 
L 316.605426 522.068696 
L 317.10486 519.330576 
L 317.60897 516.592437 
L 318.117896 513.854219 
L 318.631785 511.115966 
L 319.150777 508.377666 
L 319.675017 505.639323 
L 320.20469 502.900904 
L 320.73995 500.162426 
L 321.28098 497.423911 
L 321.827973 494.685287 
L 322.381133 491.946625 
L 322.940668 489.207865 
L 323.506808 486.469022 
L 324.079793 483.730109 
L 324.659865 480.991078 
L 325.247303 478.251936 
L 325.84239 475.512682 
L 326.445437 472.773302 
L 327.056762 470.033773 
L 327.676724 467.294115 
L 328.305687 464.554278 
L 328.944061 461.814262 
L 329.592271 459.074041 
L 330.250791 456.3336 
L 330.920127 453.59291 
L 331.600824 450.85195 
L 332.293475 448.110691 
L 332.998723 445.369061 
L 333.717282 442.627067 
L 334.449929 439.884607 
L 335.197513 437.141647 
L 335.960976 434.398109 
L 336.741354 431.653891 
L 337.539813 428.908898 
L 338.35765 426.162973 
L 339.196308 423.41595 
L 340.057441 420.667623 
L 340.942892 417.917701 
L 341.854781 415.165831 
L 342.795528 412.41152 
L 343.767916 409.654113 
L 344.775176 406.892695 
L 345.821031 404.125941 
L 346.9098 401.351868 
L 348.04642 398.567393 
L 349.236326 395.767361 
L 350.484919 392.942556 
L 351.795525 390.074575 
L 354.537634 383.948093 
" clip-path="url(#pa65f1070fe)" style="fill: none; stroke: #810f7c"/>
   </g>
   <g id="line2d_8">
    <path d="M 356.641254 384.769921 
L 356.299344 388.384541 
L 356.252004 391.54336 
L 356.394139 394.605518 
L 356.721724 397.611262 
L 357.222998 400.577892 
L 357.885531 403.514079 
L 358.697948 406.424657 
L 359.65022 409.312505 
L 360.733624 412.17945 
L 361.940556 415.026683 
L 363.264366 417.855028 
L 364.699207 420.665047 
L 371.453223 431.728236 
L 373.375601 434.450683 
L 375.384906 437.156 
L 377.478308 439.844192 
L 379.653239 442.515285 
L 381.907313 445.169275 
L 384.238345 447.80616 
L 386.644272 450.425916 
L 389.123199 453.028488 
L 391.673361 455.613867 
L 394.293089 458.181988 
L 396.980834 460.732815 
L 399.735118 463.266304 
L 402.554571 465.782337 
L 405.437896 468.280937 
L 408.383839 470.761954 
L 411.391259 473.225402 
L 414.459038 475.671134 
L 417.586097 478.099123 
L 420.771462 480.509299 
L 424.014172 482.901545 
L 427.313303 485.275795 
L 430.667987 487.632012 
L 434.077402 489.970034 
L 437.540717 492.289861 
L 441.057184 494.591331 
L 444.626068 496.874397 
L 448.246648 499.138952 
L 451.918251 501.384919 
L 455.640199 503.612213 
L 459.411894 505.820679 
L 463.232698 508.010311 
L 467.102032 510.180924 
L 471.019321 512.332478 
L 474.984031 514.464827 
L 478.99561 516.577912 
L 483.053544 518.671617 
L 487.157338 520.745804 
L 491.306508 522.800402 
L 495.500577 524.835266 
L 499.739037 526.85032 
L 499.739037 526.85032 
L 499.739122 526.850288 
" clip-path="url(#pa65f1070fe)" style="fill: none; stroke: #008fd5"/>
   </g>
   <g id="line2d_9">
    <path d="M 499.739125 216.617577 
L 499.739121 216.617574 
L 499.739015 216.617563 
L 499.739015 216.617563 
L 495.500585 218.538241 
L 491.306489 220.478468 
L 487.157361 222.438209 
L 483.053534 224.417409 
L 478.99562 226.416089 
L 474.984024 228.4342 
L 471.01932 230.471808 
L 467.102034 232.528858 
L 463.232704 234.605374 
L 459.411875 236.701446 
L 455.640201 238.817078 
L 451.918242 240.952363 
L 448.246643 243.107392 
L 444.626071 245.282188 
L 441.057181 247.476911 
L 437.540719 249.691688 
L 434.077402 251.92667 
L 430.667991 254.181992 
L 427.313299 256.457872 
L 424.014177 258.75448 
L 420.771471 261.072075 
L 417.586107 263.410894 
L 414.459028 265.771225 
L 411.391259 268.153383 
L 408.383843 270.55768 
L 405.437893 272.984468 
L 402.554571 275.434209 
L 399.735119 277.907257 
L 396.980833 280.404153 
L 394.293086 282.925355 
L 391.673364 285.471429 
L 389.123199 288.042983 
L 386.644268 290.640637 
L 384.238337 293.265117 
L 381.907319 295.917168 
L 379.653239 298.597636 
L 377.478306 301.307428 
L 375.384901 304.047488 
L 373.375602 306.81896 
L 371.453224 309.622992 
L 369.620835 312.460934 
L 367.881818 315.334281 
L 367.881814 315.334281 
L 367.88179 315.334282 
L 367.88179 315.334282 
L 366.239897 318.244697 
L 364.699207 321.194106 
L 363.264369 324.184718 
L 361.940552 327.219122 
L 360.733624 330.300405 
L 359.65022 333.432362 
L 358.697945 336.619726 
L 357.885534 339.868638 
L 357.222998 343.187417 
L 356.721723 346.587958 
L 356.394141 350.088596 
L 356.252005 353.720796 
L 356.299345 357.548032 
L 356.500675 361.738604 
" clip-path="url(#pa65f1070fe)" style="fill: none; stroke: #fc4f30"/>
   </g>
   <g id="line2d_10">
    <path d="M 358.463716 385.380355 
L 359.436636 389.314669 
L 360.708479 392.538299 
L 362.303359 395.624556 
L 364.207122 398.611042 
L 374.525266 409.774803 
L 377.699328 412.386832 
L 381.085589 414.928814 
L 384.673955 417.400455 
L 388.455523 419.80117 
L 392.42235 422.13016 
L 396.567329 424.386463 
L 400.884025 426.568958 
L 405.366634 428.6764 
L 410.009852 430.707425 
L 414.808834 432.660558 
L 419.759106 434.534235 
L 424.856546 436.326749 
L 430.097346 438.03627 
L 435.477967 439.660878 
L 440.995064 441.198478 
L 446.645574 442.64686 
L 452.426592 444.003636 
L 458.33538 445.266265 
L 464.369397 446.432017 
L 470.526178 447.497956 
L 476.803452 448.460874 
L 483.199061 449.317352 
L 489.710938 450.06368 
L 496.337079 450.695817 
L 503.075665 451.209292 
L 509.924893 451.599307 
L 516.88307 451.860514 
L 523.948552 451.987029 
L 531.11979 451.972286 
L 538.395312 451.808975 
L 545.77367 451.488868 
L 553.253476 451.002662 
L 560.833395 450.339753 
L 568.512189 449.487867 
L 576.288607 448.432858 
L 584.161467 447.157986 
L 592.129637 445.643402 
L 600.191996 443.865076 
L 608.347501 441.793427 
L 616.595097 439.391252 
L 624.933807 436.610501 
L 633.36265 433.387145 
L 641.880691 429.631983 
L 650.486985 425.213681 
L 659.180697 419.922683 
L 667.960995 413.381489 
L 676.826953 404.748804 
L 685.777871 390.826233 
L 685.777871 390.826233 
L 685.777871 390.826233 
L 685.777872 390.826219 
L 685.777873 359.640769 
L 685.777873 359.640769 
L 685.777873 359.640769 
L 685.777872 359.640755 
L 676.826995 345.623114 
L 667.960985 336.892026 
L 659.180711 330.249352 
L 650.486985 324.853358 
L 641.880665 320.326417 
L 633.362633 316.458838 
L 624.933774 313.119121 
L 616.595089 310.217939 
L 608.347497 307.690969 
L 600.192012 305.489973 
L 592.129632 303.577565 
L 584.161484 301.923986 
L 576.288595 300.504924 
L 568.512186 299.300346 
L 560.833399 298.293299 
L 553.253458 297.469335 
L 545.773658 296.81603 
L 538.395335 296.322535 
L 531.119805 295.979284 
L 523.948552 295.77788 
L 516.883052 295.710845 
L 509.924885 295.771431 
L 503.075652 295.953652 
L 496.337079 296.252113 
L 489.710935 296.661936 
L 483.199066 297.178785 
L 476.803459 297.798806 
L 470.526179 298.518548 
L 464.369391 299.33504 
L 458.33538 300.245704 
L 452.426587 301.248465 
L 446.645573 302.341632 
L 440.995059 303.524019 
L 435.47795 304.794904 
L 430.097352 306.154068 
L 424.856549 307.601801 
L 419.759102 309.138922 
L 414.808836 310.766783 
L 410.009852 312.487233 
L 405.366633 314.302656 
L 400.884023 316.215912 
L 396.567325 318.230278 
L 392.422352 320.349463 
L 388.455522 322.577544 
L 384.673954 324.918924 
L 381.085588 327.378356 
L 377.699328 329.960961 
L 374.525266 332.672323 
L 371.574865 335.5187 
L 368.861269 338.507396 
L 368.861263 338.507397 
L 368.861245 338.507397 
L 368.861245 338.507397 
L 366.399577 341.647462 
L 364.207122 344.951021 
L 362.30336 348.436015 
L 360.708482 352.132652 
L 359.436635 356.101457 
L 358.463716 360.502588 
" clip-path="url(#pa65f1070fe)" style="fill: none; stroke: #e5ae38"/>
   </g>
   <g id="line2d_11">
    <path d="M 360.426758 386.15801 
L 371.692521 398.878952 
L 375.576158 401.494321 
L 379.837004 403.948096 
L 384.451779 406.239284 
L 389.400312 408.364513 
L 394.665039 410.31875 
L 400.230615 412.095617 
L 406.083542 413.687448 
L 412.211838 415.085244 
L 418.604806 416.278518 
L 425.252826 417.255055 
L 432.147203 418.000545 
L 439.280044 418.498048 
L 446.644107 418.727321 
L 454.232776 418.66374 
L 462.039891 418.276833 
L 470.059851 417.527903 
L 478.287383 416.366443 
L 486.717574 414.723887 
L 495.345848 412.502358 
L 504.167957 409.551899 
L 508.650414 407.730635 
L 513.179823 405.617814 
L 517.75572 403.141161 
L 522.377679 400.185426 
L 524.705775 398.469535 
L 527.045219 396.54358 
L 529.395957 394.342775 
L 531.757953 391.755935 
L 532.943128 390.25617 
L 534.131116 388.557903 
L 535.321872 386.572066 
L 536.814244 383.366703 
L 537.412394 381.622086 
L 538.011242 379.141973 
L 538.329654 376.525183 
L 538.348398 374.247594 
L 538.161062 372.200574 
L 537.711735 369.870744 
L 537.113218 367.840381 
L 536.515418 366.268608 
L 535.321877 363.776709 
L 534.131105 361.763866 
L 531.757946 358.511216 
L 529.395958 355.868737 
L 527.045229 353.611348 
L 524.705794 351.6278 
L 522.377668 349.853238 
L 517.755723 346.777139 
L 513.179815 344.175744 
L 508.650402 341.93368 
L 504.167945 339.978493 
L 495.345844 336.745365 
L 486.717573 334.220224 
L 478.28739 332.251809 
L 470.059859 330.741108 
L 462.039893 329.618866 
L 454.232763 328.834512 
L 446.644111 328.350237 
L 439.280045 328.137778 
L 432.147205 328.176506 
L 425.25283 328.452363 
L 418.6048 328.957182 
L 412.211838 329.688175 
L 406.083547 330.647302 
L 400.230621 331.840512 
L 394.665039 333.276722 
L 389.400312 334.966771 
L 384.451785 336.922449 
L 379.836999 339.155852 
L 375.576158 341.679365 
L 371.692521 344.506603 
L 368.212585 347.654928 
L 365.164957 351.151831 
L 365.164957 351.151831 
L 362.573927 355.052649 
L 360.426758 359.507668 
L 360.426758 359.507668 
" clip-path="url(#pa65f1070fe)" style="fill: none; stroke: #6d904f"/>
   </g>
   <g id="line2d_12">
    <path d="M 364.35284 387.189833 
L 386.663319 397.254839 
L 393.929316 398.45848 
L 401.78847 399.07366 
L 410.205622 398.998896 
L 419.150404 398.072827 
L 423.812287 397.209853 
L 428.596454 396.010178 
L 433.500124 394.386357 
L 438.520677 392.188848 
L 441.074011 390.791692 
L 443.655657 389.112332 
L 446.26531 387.025142 
L 448.902719 384.243664 
L 450.231746 382.348092 
L 450.898813 381.143904 
L 451.902619 378.546393 
L 452.280043 376.647884 
L 452.371853 374.897469 
L 452.238083 373.253596 
L 451.735052 371.080013 
L 451.567603 370.583378 
L 450.898822 368.994907 
L 449.566373 366.702934 
L 448.902718 365.78043 
L 446.265313 362.840556 
L 443.655646 360.588538 
L 441.074016 358.73785 
L 438.520683 357.162673 
L 433.500124 354.58893 
L 428.596455 352.56231 
L 423.812285 350.934889 
L 419.150402 349.622639 
L 410.205615 347.758202 
L 401.788461 346.756465 
L 393.929319 346.55697 
L 386.663318 347.16296 
L 380.031026 348.592686 
L 374.077883 350.86245 
L 374.077883 350.86245 
L 368.848504 354.000506 
L 364.35284 358.115869 
L 364.35284 358.115869 
" clip-path="url(#pa65f1070fe)" style="fill: none; stroke: #8b8b8b"/>
   </g>
   <g id="line2d_13">
    <path d="M 374.168046 387.625219 
L 379.169215 388.265749 
L 384.534947 388.639119 
L 390.267925 388.102123 
L 396.360308 386.634985 
L 399.537787 385.378217 
L 401.158681 384.551877 
L 403.629691 382.936897 
L 405.303191 381.453758 
L 406.571917 379.92268 
L 407.424166 378.452928 
L 408.066712 376.543776 
L 408.234514 375.160292 
L 408.174082 373.827032 
L 407.905806 372.503479 
L 407.424165 371.157768 
L 406.571917 369.547319 
L 405.303192 367.801182 
L 403.629693 366.025157 
L 402.800766 365.275643 
L 401.15868 363.962682 
L 397.938262 361.854504 
L 396.360308 360.990894 
L 390.267925 358.468551 
L 384.534956 357.155155 
L 379.169213 356.866619 
L 374.168046 357.507091 
L 374.168046 357.507091 
" clip-path="url(#pa65f1070fe)" style="fill: none; stroke: #810f7c"/>
   </g>
   <g id="line2d_14">
    <path d="M 383.983252 384.97216 
L 385.892807 385.088853 
L 387.836167 384.52572 
L 389.813809 383.777541 
L 392.845103 382.151614 
L 393.87288 381.401636 
L 394.909334 380.477605 
L 396.217094 378.887884 
L 396.743987 377.969901 
L 397.306179 376.438182 
L 397.505182 375.128791 
L 397.471994 373.860565 
L 397.206791 372.509482 
L 396.743986 371.225517 
L 395.954458 369.734674 
L 394.909333 368.264991 
L 393.872878 367.08785 
L 391.826 365.224444 
L 389.813806 363.779343 
L 387.83617 362.629797 
L 385.892809 361.716243 
L 383.983253 361.003682 
L 383.983253 361.003682 
" clip-path="url(#pa65f1070fe)" style="fill: none; stroke: #008fd5"/>
   </g>
  </g>
  <g id="text_1">
   <!-- Isoredshift lines for M=1.0 -->
   <g transform="translate(249.365437 27.165375)scale(0.168 -0.168)">
    <defs>
     <path id="DejaVuSans-49" d="M 628 4666 
L 1259 4666 
L 1259 0 
L 628 0 
L 628 4666 
z
" transform="scale(0.015625)"/>
     <path id="DejaVuSans-73" d="M 2834 3397 
L 2834 2853 
Q 2591 2978 2328 3040 
Q 2066 3103 1784 3103 
Q 1356 3103 1142 2972 
Q 928 2841 928 2578 
Q 928 2378 1081 2264 
Q 1234 2150 1697 2047 
L 1894 2003 
Q 2506 1872 2764 1633 
Q 3022 1394 3022 966 
Q 3022 478 2636 193 
Q 2250 -91 1575 -91 
Q 1294 -91 989 -36 
Q 684 19 347 128 
L 347 722 
Q 666 556 975 473 
Q 1284 391 1588 391 
Q 1994 391 2212 530 
Q 2431 669 2431 922 
Q 2431 1156 2273 1281 
Q 2116 1406 1581 1522 
L 1381 1569 
Q 847 1681 609 1914 
Q 372 2147 372 2553 
Q 372 3047 722 3315 
Q 1072 3584 1716 3584 
Q 2034 3584 2315 3537 
Q 2597 3491 2834 3397 
z
" transform="scale(0.015625)"/>
     <path id="DejaVuSans-6f" d="M 1959 3097 
Q 1497 3097 1228 2736 
Q 959 2375 959 1747 
Q 959 1119 1226 758 
Q 1494 397 1959 397 
Q 2419 397 2687 759 
Q 2956 1122 2956 1747 
Q 2956 2369 2687 2733 
Q 2419 3097 1959 3097 
z
M 1959 3584 
Q 2709 3584 3137 3096 
Q 3566 2609 3566 1747 
Q 3566 888 3137 398 
Q 2709 -91 1959 -91 
Q 1206 -91 779 398 
Q 353 888 353 1747 
Q 353 2609 779 3096 
Q 1206 3584 1959 3584 
z
" transform="scale(0.015625)"/>
     <path id="DejaVuSans-72" d="M 2631 2963 
Q 2534 3019 2420 3045 
Q 2306 3072 2169 3072 
Q 1681 3072 1420 2755 
Q 1159 2438 1159 1844 
L 1159 0 
L 581 0 
L 581 3500 
L 1159 3500 
L 1159 2956 
Q 1341 3275 1631 3429 
Q 1922 3584 2338 3584 
Q 2397 3584 2469 3576 
Q 2541 3569 2628 3553 
L 2631 2963 
z
" transform="scale(0.015625)"/>
     <path id="DejaVuSans-65" d="M 3597 1894 
L 3597 1613 
L 953 1613 
Q 991 1019 1311 708 
Q 1631 397 2203 397 
Q 2534 397 2845 478 
Q 3156 559 3463 722 
L 3463 178 
Q 3153 47 2828 -22 
Q 2503 -91 2169 -91 
Q 1331 -91 842 396 
Q 353 884 353 1716 
Q 353 2575 817 3079 
Q 1281 3584 2069 3584 
Q 2775 3584 3186 3129 
Q 3597 2675 3597 1894 
z
M 3022 2063 
Q 3016 2534 2758 2815 
Q 2500 3097 2075 3097 
Q 1594 3097 1305 2825 
Q 1016 2553 972 2059 
L 3022 2063 
z
" transform="scale(0.015625)"/>
     <path id="DejaVuSans-64" d="M 2906 2969 
L 2906 4863 
L 3481 4863 
L 3481 0 
L 2906 0 
L 2906 525 
Q 2725 213 2448 61 
Q 2172 -91 1784 -91 
Q 1150 -91 751 415 
Q 353 922 353 1747 
Q 353 2572 751 3078 
Q 1150 3584 1784 3584 
Q 2172 3584 2448 3432 
Q 2725 3281 2906 2969 
z
M 947 1747 
Q 947 1113 1208 752 
Q 1469 391 1925 391 
Q 2381 391 2643 752 
Q 2906 1113 2906 1747 
Q 2906 2381 2643 2742 
Q 2381 3103 1925 3103 
Q 1469 3103 1208 2742 
Q 947 2381 947 1747 
z
" transform="scale(0.015625)"/>
     <path id="DejaVuSans-68" d="M 3513 2113 
L 3513 0 
L 2938 0 
L 2938 2094 
Q 2938 2591 2744 2837 
Q 2550 3084 2163 3084 
Q 1697 3084 1428 2787 
Q 1159 2491 1159 1978 
L 1159 0 
L 581 0 
L 581 4863 
L 1159 4863 
L 1159 2956 
Q 1366 3272 1645 3428 
Q 1925 3584 2291 3584 
Q 2894 3584 3203 3211 
Q 3513 2838 3513 2113 
z
" transform="scale(0.015625)"/>
     <path id="DejaVuSans-69" d="M 603 3500 
L 1178 3500 
L 1178 0 
L 603 0 
L 603 3500 
z
M 603 4863 
L 1178 4863 
L 1178 4134 
L 603 4134 
L 603 4863 
z
" transform="scale(0.015625)"/>
     <path id="DejaVuSans-66" d="M 2375 4863 
L 2375 4384 
L 1825 4384 
Q 1516 4384 1395 4259 
Q 1275 4134 1275 3809 
L 1275 3500 
L 2222 3500 
L 2222 3053 
L 1275 3053 
L 1275 0 
L 697 0 
L 697 3053 
L 147 3053 
L 147 3500 
L 697 3500 
L 697 3744 
Q 697 4328 969 4595 
Q 1241 4863 1831 4863 
L 2375 4863 
z
" transform="scale(0.015625)"/>
     <path id="DejaVuSans-74" d="M 1172 4494 
L 1172 3500 
L 2356 3500 
L 2356 3053 
L 1172 3053 
L 1172 1153 
Q 1172 725 1289 603 
Q 1406 481 1766 481 
L 2356 481 
L 2356 0 
L 1766 0 
Q 1100 0 847 248 
Q 594 497 594 1153 
L 594 3053 
L 172 3053 
L 172 3500 
L 594 3500 
L 594 4494 
L 1172 4494 
z
" transform="scale(0.015625)"/>
     <path id="DejaVuSans-20" transform="scale(0.015625)"/>
     <path id="DejaVuSans-6c" d="M 603 4863 
L 1178 4863 
L 1178 0 
L 603 0 
L 603 4863 
z
" transform="scale(0.015625)"/>
     <path id="DejaVuSans-6e" d="M 3513 2113 
L 3513 0 
L 2938 0 
L 2938 2094 
Q 2938 2591 2744 2837 
Q 2550 3084 2163 3084 
Q 1697 3084 1428 2787 
Q 1159 2491 1159 1978 
L 1159 0 
L 581 0 
L 581 3500 
L 1159 3500 
L 1159 2956 
Q 1366 3272 1645 3428 
Q 1925 3584 2291 3584 
Q 2894 3584 3203 3211 
Q 3513 2838 3513 2113 
z
" transform="scale(0.015625)"/>
     <path id="DejaVuSans-4d" d="M 628 4666 
L 1569 4666 
L 2759 1491 
L 3956 4666 
L 4897 4666 
L 4897 0 
L 4281 0 
L 4281 4097 
L 3078 897 
L 2444 897 
L 1241 4097 
L 1241 0 
L 628 0 
L 628 4666 
z
" transform="scale(0.015625)"/>
     <path id="DejaVuSans-3d" d="M 678 2906 
L 4684 2906 
L 4684 2381 
L 678 2381 
L 678 2906 
z
M 678 1631 
L 4684 1631 
L 4684 1100 
L 678 1100 
L 678 1631 
z
" transform="scale(0.015625)"/>
     <path id="DejaVuSans-31" d="M 794 531 
L 1825 531 
L 1825 4091 
L 703 3866 
L 703 4441 
L 1819 4666 
L 2450 4666 
L 2450 531 
L 3481 531 
L 3481 0 
L 794 0 
L 794 531 
z
" transform="scale(0.015625)"/>
     <path id="DejaVuSans-2e" d="M 684 794 
L 1344 794 
L 1344 0 
L 684 0 
L 684 794 
z
" transform="scale(0.015625)"/>
     <path id="DejaVuSans-30" d="M 2034 4250 
Q 1547 4250 1301 3770 
Q 1056 3291 1056 2328 
Q 1056 1369 1301 889 
Q 1547 409 2034 409 
Q 2525 409 2770 889 
Q 3016 1369 3016 2328 
Q 3016 3291 2770 3770 
Q 2525 4250 2034 4250 
z
M 2034 4750 
Q 2819 4750 3233 4129 
Q 3647 3509 3647 2328 
Q 3647 1150 3233 529 
Q 2819 -91 2034 -91 
Q 1250 -91 836 529 
Q 422 1150 422 2328 
Q 422 3509 836 4129 
Q 1250 4750 2034 4750 
z
" transform="scale(0.015625)"/>
    </defs>
    <use xlink:href="#DejaVuSans-49"/>
    <use xlink:href="#DejaVuSans-73" x="29.492188"/>
    <use xlink:href="#DejaVuSans-6f" x="81.591797"/>
    <use xlink:href="#DejaVuSans-72" x="142.773438"/>
    <use xlink:href="#DejaVuSans-65" x="181.636719"/>
    <use xlink:href="#DejaVuSans-64" x="243.160156"/>
    <use xlink:href="#DejaVuSans-73" x="306.636719"/>
    <use xlink:href="#DejaVuSans-68" x="358.736328"/>
    <use xlink:href="#DejaVuSans-69" x="422.115234"/>
    <use xlink:href="#DejaVuSans-66" x="449.898438"/>
    <use xlink:href="#DejaVuSans-74" x="483.353516"/>
    <use xlink:href="#DejaVuSans-20" x="522.5625"/>
    <use xlink:href="#DejaVuSans-6c" x="554.349609"/>
    <use xlink:href="#DejaVuSans-69" x="582.132812"/>
    <use xlink:href="#DejaVuSans-6e" x="609.916016"/>
    <use xlink:href="#DejaVuSans-65" x="673.294922"/>
    <use xlink:href="#DejaVuSans-73" x="734.818359"/>
    <use xlink:href="#DejaVuSans-20" x="786.917969"/>
    <use xlink:href="#DejaVuSans-66" x="818.705078"/>
    <use xlink:href="#DejaVuSans-6f" x="853.910156"/>
    <use xlink:href="#DejaVuSans-72" x="915.091797"/>
    <use xlink:href="#DejaVuSans-20" x="956.205078"/>
    <use xlink:href="#DejaVuSans-4d" x="987.992188"/>
    <use xlink:href="#DejaVuSans-3d" x="1074.271484"/>
    <use xlink:href="#DejaVuSans-31" x="1158.060547"/>
    <use xlink:href="#DejaVuSans-2e" x="1221.683594"/>
    <use xlink:href="#DejaVuSans-30" x="1253.470703"/>
   </g>
  </g>
 </g>
 <defs>
  <clipPath id="pa65f1070fe">
   <rect x="57.6" y="86.4" width="626.4" height="583.2"/>
  </clipPath>
 </defs>
</svg>
