<?xml version="1.0" encoding="utf-8" standalone="no"?>
<!DOCTYPE svg PUBLIC "-//W3C//DTD SVG 1.1//EN"
  "http://www.w3.org/Graphics/SVG/1.1/DTD/svg11.dtd">
<svg xmlns:xlink="http://www.w3.org/1999/xlink" width="720pt" height="720pt" viewBox="0 0 720 720" xmlns="http://www.w3.org/2000/svg" version="1.1">
 <metadata>
  <rdf:RDF xmlns:dc="http://purl.org/dc/elements/1.1/" xmlns:cc="http://creativecommons.org/ns#" xmlns:rdf="http://www.w3.org/1999/02/22-rdf-syntax-ns#">
   <cc:Work>
    <dc:type rdf:resource="http://purl.org/dc/dcmitype/StillImage"/>
    <dc:date>2023-06-28T17:27:01.383750</dc:date>
    <dc:format>image/svg+xml</dc:format>
    <dc:creator>
     <cc:Agent>
      <dc:title>Matplotlib v3.5.2, https://matplotlib.org/</dc:title>
     </cc:Agent>
    </dc:creator>
   </cc:Work>
  </rdf:RDF>
 </metadata>
 <defs>
  <style type="text/css">*{stroke-linejoin: round; stroke-linecap: butt}</style>
 </defs>
 <g id="figure_1">
  <g id="patch_1">
   <path d="M 0 720 
L 720 720 
L 720 0 
L 0 0 
z
" style="fill: #1a1a1a"/>
  </g>
  <g id="axes_1">
   <g id="line2d_1">
    <path d="M 370.8 397.53062 
L 373.107958 397.414431 
L 375.390354 397.070405 
L 377.620387 396.496964 
L 379.472077 395.831374 
L 381.251867 395.008961 
L 382.944644 394.035957 
L 384.535808 392.919819 
L 386.011392 391.669222 
L 387.358177 390.294036 
L 388.378866 389.064381 
L 389.783429 386.944203 
L 390.895919 384.671183 
L 391.696211 382.279621 
L 392.168794 379.806383 
L 392.303212 377.290356 
L 392.094458 374.771819 
L 391.543232 372.291731 
L 390.656082 369.890983 
L 389.608851 367.889622 
L 388.13069 365.7445 
L 386.367527 363.788625 
L 384.610326 362.261675 
L 382.966675 361.101118 
L 381.209372 360.091705 
L 379.354664 359.243218 
L 377.419789 358.56389 
L 375.422804 358.060321 
L 373.382399 357.73741 
L 371.317702 357.598304 
L 368.904088 357.670515 
L 366.514528 357.992767 
L 364.180211 358.56389 
L 362.245336 359.243218 
L 360.390628 360.091705 
L 358.633325 361.101118 
L 356.989674 362.261675 
L 355.474762 363.562156 
L 354.102362 364.990019 
L 352.884794 366.531543 
L 351.822483 368.166626 
L 350.691218 370.481521 
L 349.887113 372.905904 
L 349.421118 375.399453 
L 349.298319 377.921189 
L 349.517968 380.430252 
L 350.073662 382.886648 
L 350.953647 385.251939 
L 352.14121 387.489853 
L 353.615158 389.566805 
L 355.350346 391.452319 
L 357.318236 393.119346 
L 359.48745 394.544491 
L 361.824302 395.708165 
L 364.293299 396.594663 
L 366.533493 397.132027 
L 368.820686 397.44586 
L 370.8 397.53062 
L 370.8 397.53062 
" clip-path="url(#pa865e7e5eb)" style="fill: none; stroke: #008fd5; stroke-width: 2"/>
   </g>
   <g id="line2d_2">
    <path d="M 312.768411 435.087852 
L 377.013554 475.687316 
L 395.299499 478.200046 
L 414.412226 477.752824 
L 434.325009 473.897575 
L 455.013217 465.746305 
L 455.013243 465.746283 
L 455.013245 465.746281 
" clip-path="url(#pa865e7e5eb)" style="fill: none; stroke: #008fd5"/>
   </g>
   <g id="line2d_3">
    <path d="M 455.013274 289.262341 
L 455.013245 289.262317 
L 455.013243 289.262315 
L 455.013216 289.262293 
L 434.325004 281.111043 
L 414.412232 277.256131 
L 395.299516 276.809623 
L 377.013554 279.323506 
L 359.583629 284.614808 
L 343.041857 292.740216 
L 343.041839 292.740221 
L 343.04176 292.740243 
L 343.04176 292.740243 
L 327.423652 304.104975 
L 312.768411 319.933114 
" clip-path="url(#pa865e7e5eb)" style="fill: none; stroke: #fc4f30"/>
   </g>
   <g id="line2d_4">
    <path d="M 406.235239 426.877024 
L 406.235249 426.877018 
L 406.235251 426.877017 
" clip-path="url(#pa865e7e5eb)" style="fill: none; stroke: #e5ae38"/>
   </g>
   <g id="line2d_5">
    <path d="M 406.235273 328.15488 
L 406.23525 328.154866 
L 406.235249 328.154865 
L 406.235239 328.154859 
" clip-path="url(#pa865e7e5eb)" style="fill: none; stroke: #6d904f"/>
   </g>
   <g id="line2d_6">
    <path d="M 379.289782 416.511944 
L 379.289782 416.511944 
L 379.289794 416.511942 
" clip-path="url(#pa865e7e5eb)" style="fill: none; stroke: #8b8b8b"/>
   </g>
   <g id="line2d_7">
    <path d="M 379.289806 338.541382 
L 379.289794 338.54138 
L 379.289782 338.541378 
L 379.289782 338.541378 
" clip-path="url(#pa865e7e5eb)" style="fill: none; stroke: #810f7c"/>
   </g>
  </g>
  <g id="text_1">
   <!-- Isoredshift lines for M=1.0 -->
   <g transform="translate(249.365437 27.165375)scale(0.168 -0.168)">
    <defs>
     <path id="DejaVuSans-49" d="M 628 4666 
L 1259 4666 
L 1259 0 
L 628 0 
L 628 4666 
z
" transform="scale(0.015625)"/>
     <path id="DejaVuSans-73" d="M 2834 3397 
L 2834 2853 
Q 2591 2978 2328 3040 
Q 2066 3103 1784 3103 
Q 1356 3103 1142 2972 
Q 928 2841 928 2578 
Q 928 2378 1081 2264 
Q 1234 2150 1697 2047 
L 1894 2003 
Q 2506 1872 2764 1633 
Q 3022 1394 3022 966 
Q 3022 478 2636 193 
Q 2250 -91 1575 -91 
Q 1294 -91 989 -36 
Q 684 19 347 128 
L 347 722 
Q 666 556 975 473 
Q 1284 391 1588 391 
Q 1994 391 2212 530 
Q 2431 669 2431 922 
Q 2431 1156 2273 1281 
Q 2116 1406 1581 1522 
L 1381 1569 
Q 847 1681 609 1914 
Q 372 2147 372 2553 
Q 372 3047 722 3315 
Q 1072 3584 1716 3584 
Q 2034 3584 2315 3537 
Q 2597 3491 2834 3397 
z
" transform="scale(0.015625)"/>
     <path id="DejaVuSans-6f" d="M 1959 3097 
Q 1497 3097 1228 2736 
Q 959 2375 959 1747 
Q 959 1119 1226 758 
Q 1494 397 1959 397 
Q 2419 397 2687 759 
Q 2956 1122 2956 1747 
Q 2956 2369 2687 2733 
Q 2419 3097 1959 3097 
z
M 1959 3584 
Q 2709 3584 3137 3096 
Q 3566 2609 3566 1747 
Q 3566 888 3137 398 
Q 2709 -91 1959 -91 
Q 1206 -91 779 398 
Q 353 888 353 1747 
Q 353 2609 779 3096 
Q 1206 3584 1959 3584 
z
" transform="scale(0.015625)"/>
     <path id="DejaVuSans-72" d="M 2631 2963 
Q 2534 3019 2420 3045 
Q 2306 3072 2169 3072 
Q 1681 3072 1420 2755 
Q 1159 2438 1159 1844 
L 1159 0 
L 581 0 
L 581 3500 
L 1159 3500 
L 1159 2956 
Q 1341 3275 1631 3429 
Q 1922 3584 2338 3584 
Q 2397 3584 2469 3576 
Q 2541 3569 2628 3553 
L 2631 2963 
z
" transform="scale(0.015625)"/>
     <path id="DejaVuSans-65" d="M 3597 1894 
L 3597 1613 
L 953 1613 
Q 991 1019 1311 708 
Q 1631 397 2203 397 
Q 2534 397 2845 478 
Q 3156 559 3463 722 
L 3463 178 
Q 3153 47 2828 -22 
Q 2503 -91 2169 -91 
Q 1331 -91 842 396 
Q 353 884 353 1716 
Q 353 2575 817 3079 
Q 1281 3584 2069 3584 
Q 2775 3584 3186 3129 
Q 3597 2675 3597 1894 
z
M 3022 2063 
Q 3016 2534 2758 2815 
Q 2500 3097 2075 3097 
Q 1594 3097 1305 2825 
Q 1016 2553 972 2059 
L 3022 2063 
z
" transform="scale(0.015625)"/>
     <path id="DejaVuSans-64" d="M 2906 2969 
L 2906 4863 
L 3481 4863 
L 3481 0 
L 2906 0 
L 2906 525 
Q 2725 213 2448 61 
Q 2172 -91 1784 -91 
Q 1150 -91 751 415 
Q 353 922 353 1747 
Q 353 2572 751 3078 
Q 1150 3584 1784 3584 
Q 2172 3584 2448 3432 
Q 2725 3281 2906 2969 
z
M 947 1747 
Q 947 1113 1208 752 
Q 1469 391 1925 391 
Q 2381 391 2643 752 
Q 2906 1113 2906 1747 
Q 2906 2381 2643 2742 
Q 2381 3103 1925 3103 
Q 1469 3103 1208 2742 
Q 947 2381 947 1747 
z
" transform="scale(0.015625)"/>
     <path id="DejaVuSans-68" d="M 3513 2113 
L 3513 0 
L 2938 0 
L 2938 2094 
Q 2938 2591 2744 2837 
Q 2550 3084 2163 3084 
Q 1697 3084 1428 2787 
Q 1159 2491 1159 1978 
L 1159 0 
L 581 0 
L 581 4863 
L 1159 4863 
L 1159 2956 
Q 1366 3272 1645 3428 
Q 1925 3584 2291 3584 
Q 2894 3584 3203 3211 
Q 3513 2838 3513 2113 
z
" transform="scale(0.015625)"/>
     <path id="DejaVuSans-69" d="M 603 3500 
L 1178 3500 
L 1178 0 
L 603 0 
L 603 3500 
z
M 603 4863 
L 1178 4863 
L 1178 4134 
L 603 4134 
L 603 4863 
z
" transform="scale(0.015625)"/>
     <path id="DejaVuSans-66" d="M 2375 4863 
L 2375 4384 
L 1825 4384 
Q 1516 4384 1395 4259 
Q 1275 4134 1275 3809 
L 1275 3500 
L 2222 3500 
L 2222 3053 
L 1275 3053 
L 1275 0 
L 697 0 
L 697 3053 
L 147 3053 
L 147 3500 
L 697 3500 
L 697 3744 
Q 697 4328 969 4595 
Q 1241 4863 1831 4863 
L 2375 4863 
z
" transform="scale(0.015625)"/>
     <path id="DejaVuSans-74" d="M 1172 4494 
L 1172 3500 
L 2356 3500 
L 2356 3053 
L 1172 3053 
L 1172 1153 
Q 1172 725 1289 603 
Q 1406 481 1766 481 
L 2356 481 
L 2356 0 
L 1766 0 
Q 1100 0 847 248 
Q 594 497 594 1153 
L 594 3053 
L 172 3053 
L 172 3500 
L 594 3500 
L 594 4494 
L 1172 4494 
z
" transform="scale(0.015625)"/>
     <path id="DejaVuSans-20" transform="scale(0.015625)"/>
     <path id="DejaVuSans-6c" d="M 603 4863 
L 1178 4863 
L 1178 0 
L 603 0 
L 603 4863 
z
" transform="scale(0.015625)"/>
     <path id="DejaVuSans-6e" d="M 3513 2113 
L 3513 0 
L 2938 0 
L 2938 2094 
Q 2938 2591 2744 2837 
Q 2550 3084 2163 3084 
Q 1697 3084 1428 2787 
Q 1159 2491 1159 1978 
L 1159 0 
L 581 0 
L 581 3500 
L 1159 3500 
L 1159 2956 
Q 1366 3272 1645 3428 
Q 1925 3584 2291 3584 
Q 2894 3584 3203 3211 
Q 3513 2838 3513 2113 
z
" transform="scale(0.015625)"/>
     <path id="DejaVuSans-4d" d="M 628 4666 
L 1569 4666 
L 2759 1491 
L 3956 4666 
L 4897 4666 
L 4897 0 
L 4281 0 
L 4281 4097 
L 3078 897 
L 2444 897 
L 1241 4097 
L 1241 0 
L 628 0 
L 628 4666 
z
" transform="scale(0.015625)"/>
     <path id="DejaVuSans-3d" d="M 678 2906 
L 4684 2906 
L 4684 2381 
L 678 2381 
L 678 2906 
z
M 678 1631 
L 4684 1631 
L 4684 1100 
L 678 1100 
L 678 1631 
z
" transform="scale(0.015625)"/>
     <path id="DejaVuSans-31" d="M 794 531 
L 1825 531 
L 1825 4091 
L 703 3866 
L 703 4441 
L 1819 4666 
L 2450 4666 
L 2450 531 
L 3481 531 
L 3481 0 
L 794 0 
L 794 531 
z
" transform="scale(0.015625)"/>
     <path id="DejaVuSans-2e" d="M 684 794 
L 1344 794 
L 1344 0 
L 684 0 
L 684 794 
z
" transform="scale(0.015625)"/>
     <path id="DejaVuSans-30" d="M 2034 4250 
Q 1547 4250 1301 3770 
Q 1056 3291 1056 2328 
Q 1056 1369 1301 889 
Q 1547 409 2034 409 
Q 2525 409 2770 889 
Q 3016 1369 3016 2328 
Q 3016 3291 2770 3770 
Q 2525 4250 2034 4250 
z
M 2034 4750 
Q 2819 4750 3233 4129 
Q 3647 3509 3647 2328 
Q 3647 1150 3233 529 
Q 2819 -91 2034 -91 
Q 1250 -91 836 529 
Q 422 1150 422 2328 
Q 422 3509 836 4129 
Q 1250 4750 2034 4750 
z
" transform="scale(0.015625)"/>
    </defs>
    <use xlink:href="#DejaVuSans-49"/>
    <use xlink:href="#DejaVuSans-73" x="29.492188"/>
    <use xlink:href="#DejaVuSans-6f" x="81.591797"/>
    <use xlink:href="#DejaVuSans-72" x="142.773438"/>
    <use xlink:href="#DejaVuSans-65" x="181.636719"/>
    <use xlink:href="#DejaVuSans-64" x="243.160156"/>
    <use xlink:href="#DejaVuSans-73" x="306.636719"/>
    <use xlink:href="#DejaVuSans-68" x="358.736328"/>
    <use xlink:href="#DejaVuSans-69" x="422.115234"/>
    <use xlink:href="#DejaVuSans-66" x="449.898438"/>
    <use xlink:href="#DejaVuSans-74" x="483.353516"/>
    <use xlink:href="#DejaVuSans-20" x="522.5625"/>
    <use xlink:href="#DejaVuSans-6c" x="554.349609"/>
    <use xlink:href="#DejaVuSans-69" x="582.132812"/>
    <use xlink:href="#DejaVuSans-6e" x="609.916016"/>
    <use xlink:href="#DejaVuSans-65" x="673.294922"/>
    <use xlink:href="#DejaVuSans-73" x="734.818359"/>
    <use xlink:href="#DejaVuSans-20" x="786.917969"/>
    <use xlink:href="#DejaVuSans-66" x="818.705078"/>
    <use xlink:href="#DejaVuSans-6f" x="853.910156"/>
    <use xlink:href="#DejaVuSans-72" x="915.091797"/>
    <use xlink:href="#DejaVuSans-20" x="956.205078"/>
    <use xlink:href="#DejaVuSans-4d" x="987.992188"/>
    <use xlink:href="#DejaVuSans-3d" x="1074.271484"/>
    <use xlink:href="#DejaVuSans-31" x="1158.060547"/>
    <use xlink:href="#DejaVuSans-2e" x="1221.683594"/>
    <use xlink:href="#DejaVuSans-30" x="1253.470703"/>
   </g>
  </g>
 </g>
 <defs>
  <clipPath id="pa865e7e5eb">
   <rect x="57.6" y="86.4" width="626.4" height="583.2"/>
  </clipPath>
 </defs>
</svg>
