<?xml version="1.0" encoding="utf-8" standalone="no"?>
<!DOCTYPE svg PUBLIC "-//W3C//DTD SVG 1.1//EN"
  "http://www.w3.org/Graphics/SVG/1.1/DTD/svg11.dtd">
<svg xmlns:xlink="http://www.w3.org/1999/xlink" width="720pt" height="720pt" viewBox="0 0 720 720" xmlns="http://www.w3.org/2000/svg" version="1.1">
 <metadata>
  <rdf:RDF xmlns:dc="http://purl.org/dc/elements/1.1/" xmlns:cc="http://creativecommons.org/ns#" xmlns:rdf="http://www.w3.org/1999/02/22-rdf-syntax-ns#">
   <cc:Work>
    <dc:type rdf:resource="http://purl.org/dc/dcmitype/StillImage"/>
    <dc:date>2023-06-28T21:14:18.975626</dc:date>
    <dc:format>image/svg+xml</dc:format>
    <dc:creator>
     <cc:Agent>
      <dc:title>Matplotlib v3.5.2, https://matplotlib.org/</dc:title>
     </cc:Agent>
    </dc:creator>
   </cc:Work>
  </rdf:RDF>
 </metadata>
 <defs>
  <style type="text/css">*{stroke-linejoin: round; stroke-linecap: butt}</style>
 </defs>
 <g id="figure_1">
  <g id="patch_1">
   <path d="M 0 720 
L 720 720 
L 720 0 
L 0 0 
z
" style="fill: #1a1a1a"/>
  </g>
  <g id="axes_1">
   <g id="line2d_1">
    <path d="M 370.8 382.190339 
L 374.95645 382.105343 
L 375.025369 382.043898 
L 375.486641 382.080751 
L 375.555078 382.011536 
L 376.080603 382.048996 
L 376.14843 381.971077 
L 376.753812 382.007403 
L 376.820852 381.919619 
L 377.526044 381.952002 
L 377.592051 381.852904 
L 377.956916 381.917353 
L 378.022283 381.811942 
L 378.422447 381.876773 
L 378.48707 381.764542 
L 378.926746 381.828985 
L 378.990499 381.709367 
L 379.474289 381.772383 
L 379.537016 381.644744 
L 380.069812 381.704943 
L 380.131325 381.568582 
L 380.718101 381.624115 
L 380.778166 381.478259 
L 381.423587 381.526681 
L 381.481917 381.370495 
L 382.189649 381.408613 
L 382.245887 381.241211 
L 383.017448 381.264921 
L 383.071154 381.0854 
L 383.904123 381.089558 
L 383.954752 380.89706 
L 384.840139 380.875472 
L 384.887031 380.669277 
L 385.805779 380.614962 
L 385.848146 380.394642 
L 387.643002 380.426768 
L 387.681957 380.179537 
L 388.825645 380.058396 
L 388.858224 379.793872 
L 389.97279 379.620746 
L 389.997824 379.339459 
L 391.024034 379.11321 
L 391.040355 378.816573 
L 391.919065 378.541995 
L 391.925613 378.232308 
L 392.612589 377.920049 
L 392.608533 377.600271 
L 393.086365 377.264511 
L 393.071162 376.937868 
L 393.351455 376.592704 
L 393.324857 376.262259 
L 393.44004 375.918697 
L 393.187554 374.268281 
L 391.057602 370.078754 
L 390.468818 369.269882 
L 389.933953 368.449825 
L 389.538615 367.927376 
L 388.951119 367.148012 
L 387.394165 365.478973 
L 386.455295 364.582197 
L 385.470086 363.73698 
L 384.183419 362.748181 
L 381.394832 361.069066 
L 378.69394 359.905058 
L 376.817219 359.316968 
L 374.893505 358.888988 
L 372.937568 358.624858 
L 370.635314 358.526885 
L 368.33467 358.65598 
L 366.060934 359.013598 
L 364.151276 359.495434 
L 362.293376 360.135822 
L 360.500892 360.929191 
L 359.060582 361.694556 
L 356.372965 363.523675 
L 353.511611 366.169419 
L 350.542398 370.078754 
L 350.066296 370.945292 
L 349.732554 371.524253 
L 349.513338 371.801216 
L 349.411137 372.114062 
L 349.19703 372.397973 
L 349.10496 372.715382 
L 348.901103 373.00739 
L 348.563526 373.95602 
L 348.352107 374.596961 
L 348.207297 375.251803 
L 348.248545 376.592704 
L 348.528838 376.937868 
L 348.513635 377.264511 
L 348.991467 377.600271 
L 348.987411 377.920049 
L 349.674387 378.232308 
L 349.680935 378.541995 
L 350.559645 378.816573 
L 350.575966 379.11321 
L 351.602176 379.339459 
L 351.62721 379.620746 
L 352.741776 379.793872 
L 352.774355 380.058396 
L 353.918043 380.179537 
L 353.956998 380.426768 
L 355.751854 380.394642 
L 355.794221 380.614962 
L 356.712969 380.669277 
L 356.759861 380.875472 
L 357.645248 380.89706 
L 357.695877 381.089558 
L 358.528846 381.0854 
L 358.582552 381.264921 
L 359.354113 381.241211 
L 359.410351 381.408613 
L 360.118083 381.370495 
L 360.176413 381.526681 
L 360.821834 381.478259 
L 360.881899 381.624115 
L 361.468675 381.568582 
L 361.530188 381.704943 
L 362.062984 381.644744 
L 362.125711 381.772383 
L 362.609501 381.709367 
L 362.673254 381.828985 
L 363.11293 381.764542 
L 363.177553 381.876773 
L 363.577717 381.811942 
L 363.643084 381.917353 
L 364.407324 381.888506 
L 364.473884 381.981745 
L 365.126362 381.94695 
L 365.193821 382.02964 
L 365.757077 381.992474 
L 365.825228 382.065912 
L 366.316906 382.028586 
L 366.385598 382.093812 
L 366.819515 382.057698 
L 366.888637 382.115552 
L 367.275679 382.081508 
L 367.345147 382.132671 
L 367.69398 382.101232 
L 367.961017 382.151984 
L 368.265204 382.125028 
L 368.513547 382.165769 
L 368.949002 382.148964 
L 369.337169 382.180436 
L 369.869225 382.173814 
L 370.516151 382.18997 
L 370.8 382.190339 
L 370.8 382.190339 
" clip-path="url(#pc31aeb12e2)" style="fill: none; stroke: #6d904f; stroke-width: 2"/>
   </g>
   <g id="line2d_2">
    <path d="M 351.202479 368.726714 
L 336.276042 370.633173 
L 324.700799 371.932673 
L 318.50308 372.956682 
L 315.307699 373.727155 
L 313.686503 374.254645 
L 311.638277 375.280461 
L 311.070822 375.850692 
L 310.895145 376.356582 
L 310.967461 376.735526 
L 311.225762 377.119873 
L 311.844177 377.610582 
L 312.049838 377.731443 
L 313.686498 378.421822 
L 316.913283 379.232858 
L 318.503083 379.510784 
L 321.634607 379.92153 
L 327.700007 380.372462 
L 330.630393 380.469981 
L 336.276039 380.477189 
L 341.616089 380.279217 
L 346.615946 379.902323 
L 351.202478 379.338588 
L 351.202478 379.338588 
" clip-path="url(#pc31aeb12e2)" style="fill: none; stroke: #008fd5"/>
   </g>
   <g id="line2d_3">
    <path d="M 356.5697 363.127937 
L 355.193723 360.824102 
L 353.800706 358.768865 
L 352.432653 356.858193 
L 351.096489 355.046663 
L 349.790813 353.309321 
L 348.512224 351.630513 
L 347.257084 349.99959 
L 346.022036 348.408839 
L 344.804157 346.852462 
L 343.600919 345.325931 
L 342.410158 343.825637 
L 341.230001 342.34864 
L 340.058874 340.892497 
L 338.895379 339.455151 
L 337.738329 338.034871 
L 336.586673 336.630144 
L 335.439511 335.239677 
L 334.296028 333.862332 
L 333.155524 332.497119 
L 332.017367 331.143139 
L 330.880993 329.799596 
L 329.745928 328.465782 
L 328.611698 327.141092 
L 327.477917 325.8249 
L 326.34422 324.516737 
L 325.210283 323.216084 
L 324.075807 321.92253 
L 322.940531 320.635667 
L 321.804217 319.355157 
L 320.666619 318.080652 
L 319.527562 316.811808 
L 318.386851 315.548378 
L 317.244307 314.290095 
L 316.099807 313.036699 
L 314.953174 311.787954 
L 313.804306 310.543671 
L 312.653061 309.303605 
L 311.499339 308.067612 
L 310.343022 306.835518 
L 309.184051 305.607137 
L 308.022312 304.382306 
L 306.857725 303.160903 
L 305.69023 301.94278 
L 304.519741 300.727821 
L 303.346206 299.515889 
L 302.169574 298.306842 
L 300.989763 297.100639 
L 299.806762 295.897122 
L 298.620491 294.696227 
L 297.43092 293.497837 
L 296.238016 292.301842 
L 295.041724 291.108244 
L 293.842018 289.916882 
L 292.638878 288.727673 
L 291.432265 287.540616 
L 290.222137 286.355613 
L 290.222134 286.355615 
L 290.222114 286.355598 
" clip-path="url(#pc31aeb12e2)" style="fill: none; stroke: #fc4f30"/>
   </g>
   <g id="line2d_4">
    <path d="M 290.222133 446.193278 
L 290.222135 446.19328 
L 290.222137 446.193282 
L 290.222139 446.193284 
L 291.432251 445.040505 
L 292.638871 443.8875 
L 293.842029 442.73427 
L 295.041724 441.580825 
L 296.238012 440.427132 
L 297.430922 439.273239 
L 298.620512 438.119095 
L 299.806751 436.964729 
L 300.989792 435.810142 
L 302.169574 434.655309 
L 303.346209 433.500269 
L 304.519728 432.344986 
L 305.690224 431.189473 
L 306.857738 430.03373 
L 308.022293 428.877746 
L 309.184051 427.721536 
L 310.343043 426.565078 
L 311.499338 425.40838 
L 312.653059 424.25145 
L 313.804316 423.094283 
L 314.953184 421.936866 
L 316.09981 420.779198 
L 317.244318 419.621288 
L 318.386856 418.463125 
L 319.527562 417.304714 
L 320.666618 416.146028 
L 321.804203 414.987089 
L 322.940531 413.827888 
L 324.075811 412.668399 
L 325.210283 411.508642 
L 326.344221 410.348591 
L 327.47791 409.188257 
L 328.611699 408.027617 
L 329.745927 406.866666 
L 330.881002 405.705379 
L 332.017359 404.54376 
L 333.155516 403.381779 
L 334.296028 402.219415 
L 335.439509 401.056653 
L 336.586673 399.893449 
L 337.738328 398.72977 
L 338.89538 397.565567 
L 340.058877 396.400784 
L 341.230007 395.235337 
L 342.410153 394.069128 
L 343.600923 392.902023 
L 344.804162 391.73384 
L 346.022036 390.564329 
L 347.257078 389.393123 
L 348.512224 388.219689 
L 349.790818 387.043191 
L 351.096491 385.862255 
L 356.5697 380.764445 
" clip-path="url(#pc31aeb12e2)" style="fill: none; stroke: #e5ae38"/>
   </g>
   <g id="line2d_5">
    <path d="M 361.936921 381.732325 
L 371.562585 386.967575 
L 374.880834 388.111668 
L 378.521372 389.203313 
L 382.46432 390.261868 
L 386.692431 391.253924 
L 395.946034 393.079308 
L 406.182994 394.683293 
L 417.325439 396.050883 
L 429.310546 397.163119 
L 442.086401 397.996146 
L 455.609353 398.519531 
L 469.842001 398.693341 
L 484.751892 398.463156 
L 492.451786 398.17344 
L 500.310601 397.750649 
L 508.325273 397.178126 
L 516.492897 396.434078 
L 524.810742 395.4889 
L 533.276216 394.300325 
L 541.886844 392.803722 
L 550.64027 390.889648 
L 555.0698 389.716068 
L 559.534218 388.339396 
L 564.033229 386.674084 
L 569.705296 383.881771 
L 571.98901 382.315246 
L 573.707368 380.726013 
L 574.281214 380.026653 
L 574.85559 379.135677 
L 575.520341 377.136288 
L 575.529354 376.086833 
L 575.430486 375.488082 
L 574.85558 373.997332 
L 573.707369 372.392451 
L 573.134043 371.791761 
L 571.989 370.781074 
L 569.705288 369.184532 
L 568.566606 368.514212 
L 564.03324 366.314372 
L 559.534226 364.583728 
L 555.0698 363.138818 
L 550.640242 361.893904 
L 541.886825 359.827082 
L 533.276213 358.162588 
L 524.810747 356.78867 
L 516.492889 355.637901 
L 508.325283 354.664658 
L 492.451804 353.122614 
L 477.214142 351.958429 
L 442.086415 349.585514 
L 429.310545 348.367814 
L 417.325443 346.82497 
L 406.182996 345.263602 
L 400.94687 344.685773 
L 395.946035 344.358114 
L 391.1907 344.339824 
L 386.69243 344.664883 
L 382.464321 345.347688 
L 378.521369 346.390036 
L 374.880833 347.787003 
L 371.562585 349.531445 
L 368.589263 351.617811 
L 365.9853 354.047094 
L 365.9853 354.047094 
L 363.771501 356.837524 
L 361.936921 360.061719 
L 361.936921 360.061719 
" clip-path="url(#pc31aeb12e2)" style="fill: none; stroke: #6d904f"/>
   </g>
   <g id="line2d_6">
    <path d="M 367.639594 382.172378 
L 393.307812 385.491646 
L 401.538974 385.584282 
L 410.406077 385.266493 
L 419.872015 384.383818 
L 431.197242 382.20835 
L 433.807319 381.38444 
L 436.450475 380.275838 
L 438.119083 379.291043 
L 439.126331 378.432716 
L 439.631666 377.791477 
L 439.990296 376.967918 
L 440.053645 376.337083 
L 439.884757 375.551529 
L 439.463096 374.788336 
L 438.790081 374.024214 
L 437.784344 373.199773 
L 435.786613 371.990797 
L 433.807327 371.050774 
L 429.904726 369.548689 
L 410.406079 363.502652 
L 393.307813 356.827643 
L 385.755663 354.994512 
L 378.931471 354.76648 
L 372.885385 355.991586 
L 367.639594 358.542305 
L 367.639594 358.542305 
" clip-path="url(#pc31aeb12e2)" style="fill: none; stroke: #8b8b8b"/>
   </g>
   <g id="line2d_7">
    <path d="M 373.006815 382.203378 
L 381.46316 382.855243 
L 391.11608 382.920459 
L 401.912276 381.927114 
L 413.870575 377.639442 
L 414.257853 376.98128 
L 414.396128 376.258624 
L 414.306331 375.679771 
L 413.967302 374.965592 
L 413.773907 374.691275 
L 401.91228 367.452253 
L 391.116089 361.191887 
L 381.46316 358.093065 
L 373.006815 358.433043 
L 373.006815 358.433043 
" clip-path="url(#pc31aeb12e2)" style="fill: none; stroke: #810f7c"/>
   </g>
   <g id="line2d_8">
    <path d="M 378.374036 381.87365 
L 384.006742 381.798617 
L 390.040936 381.52182 
L 396.47567 380.529945 
L 403.410382 377.58379 
L 403.84998 376.95348 
L 404.047936 376.261401 
L 404.001431 375.63503 
L 403.739943 374.95547 
L 403.30071 374.288079 
L 396.475665 368.554149 
L 390.04093 363.77469 
L 384.006743 360.803381 
L 378.374036 359.58059 
L 378.374036 359.58059 
" clip-path="url(#pc31aeb12e2)" style="fill: none; stroke: #008fd5"/>
   </g>
   <g id="line2d_9">
    <path d="M 384.076709 380.995476 
L 385.850266 380.774717 
L 387.655164 380.796758 
L 389.491795 380.521912 
L 391.360386 380.164078 
L 392.306695 379.944966 
L 393.261019 379.691259 
L 394.223361 379.393444 
L 395.193701 379.035982 
L 395.681868 378.826786 
L 396.172035 378.589946 
L 396.664194 378.31592 
L 397.158346 377.98768 
L 397.406168 377.793342 
L 397.654486 377.568515 
L 397.903302 377.296751 
L 397.903301 377.29675 
L 398.152615 376.937532 
L 398.21502 376.82161 
L 398.21502 376.821609 
L 398.277455 376.685982 
L 398.277455 376.685982 
L 398.277455 376.68598 
L 398.339925 376.516858 
L 398.339925 376.516857 
L 398.402422 376.267469 
L 398.410237 376.22159 
L 398.410238 376.221571 
L 398.418053 376.16729 
L 398.418053 376.167289 
L 398.418053 376.167289 
L 398.418053 376.167288 
L 398.425868 376.097405 
L 398.425869 376.09738 
L 398.433684 375.972474 
L 398.433928 375.964206 
L 398.433929 375.964144 
L 398.434172 375.954548 
L 398.434172 375.954548 
L 398.434172 375.954546 
L 398.434417 375.942167 
L 398.434418 375.942068 
L 398.434661 375.921369 
L 398.434668 375.92033 
L 398.434675 375.919252 
L 398.434676 375.919111 
L 398.434676 375.91904 
L 398.434677 375.91883 
L 398.434683 375.917641 
L 398.434684 375.917464 
L 398.434691 375.915739 
L 398.434699 375.913719 
L 398.434699 375.913468 
L 398.434703 375.912257 
L 398.434703 375.911934 
L 398.434706 375.910172 
L 398.434707 375.909523 
L 398.434707 375.909305 
L 398.434708 375.908691 
L 398.434708 375.907744 
L 398.434709 375.907549 
L 398.434708 375.907107 
L 398.434708 375.905612 
L 398.434707 375.905021 
L 398.434707 375.90488 
L 398.434703 375.902806 
L 398.434703 375.902442 
L 398.434699 375.901211 
L 398.434699 375.900846 
L 398.434691 375.898748 
L 398.434684 375.897341 
L 398.434684 375.897195 
L 398.434676 375.896005 
L 398.434676 375.895898 
L 398.434676 375.895753 
L 398.434676 375.895498 
L 398.434669 375.894673 
L 398.434661 375.89352 
L 398.434417 375.872617 
L 398.434417 375.872508 
L 398.434172 375.860164 
L 398.434172 375.860057 
L 398.434172 375.860022 
L 398.433928 375.850299 
L 398.433928 375.850265 
L 398.433684 375.841859 
L 398.425868 375.71374 
L 398.425868 375.713738 
L 398.418053 375.640601 
L 398.418053 375.6406 
L 398.418052 375.6406 
L 398.418052 375.640599 
L 398.410238 375.583055 
L 398.410237 375.583054 
L 398.402422 375.533907 
L 398.339924 375.258334 
L 398.339924 375.258332 
L 398.277456 375.062794 
L 398.277456 375.062793 
L 398.277456 375.062792 
L 398.21502 374.900494 
L 398.21502 374.900493 
L 398.152615 374.757668 
L 397.903302 374.288385 
L 397.654484 373.902605 
L 397.406167 373.559783 
L 397.158343 373.243425 
L 396.664193 372.659137 
L 396.172033 372.113348 
L 395.681868 371.589855 
L 395.193701 371.080451 
L 394.22336 370.089678 
L 393.261019 369.131098 
L 392.306695 368.210384 
L 391.360386 367.337 
L 389.491797 365.760278 
L 387.655165 364.426299 
L 385.850265 363.326161 
L 384.076708 362.438624 
" clip-path="url(#pc31aeb12e2)" style="fill: none; stroke: #fc4f30"/>
   </g>
   <g id="line2d_10">
    <path d="M 389.443929 379.740067 
L 391.596155 379.097794 
L 392.68645 378.653185 
L 394.339767 377.630419 
L 394.965318 376.915114 
L 395.261769 376.196543 
L 395.296691 375.482195 
L 395.104739 374.689712 
L 394.617415 373.683124 
L 393.786271 372.431935 
L 391.596155 369.71913 
L 389.44393 367.464611 
L 389.44393 367.464611 
" clip-path="url(#pc31aeb12e2)" style="fill: none; stroke: #e5ae38"/>
   </g>
  </g>
  <g id="text_1">
   <!-- Isoredshift lines for M=1.0 -->
   <g transform="translate(249.365437 27.165375)scale(0.168 -0.168)">
    <defs>
     <path id="DejaVuSans-49" d="M 628 4666 
L 1259 4666 
L 1259 0 
L 628 0 
L 628 4666 
z
" transform="scale(0.015625)"/>
     <path id="DejaVuSans-73" d="M 2834 3397 
L 2834 2853 
Q 2591 2978 2328 3040 
Q 2066 3103 1784 3103 
Q 1356 3103 1142 2972 
Q 928 2841 928 2578 
Q 928 2378 1081 2264 
Q 1234 2150 1697 2047 
L 1894 2003 
Q 2506 1872 2764 1633 
Q 3022 1394 3022 966 
Q 3022 478 2636 193 
Q 2250 -91 1575 -91 
Q 1294 -91 989 -36 
Q 684 19 347 128 
L 347 722 
Q 666 556 975 473 
Q 1284 391 1588 391 
Q 1994 391 2212 530 
Q 2431 669 2431 922 
Q 2431 1156 2273 1281 
Q 2116 1406 1581 1522 
L 1381 1569 
Q 847 1681 609 1914 
Q 372 2147 372 2553 
Q 372 3047 722 3315 
Q 1072 3584 1716 3584 
Q 2034 3584 2315 3537 
Q 2597 3491 2834 3397 
z
" transform="scale(0.015625)"/>
     <path id="DejaVuSans-6f" d="M 1959 3097 
Q 1497 3097 1228 2736 
Q 959 2375 959 1747 
Q 959 1119 1226 758 
Q 1494 397 1959 397 
Q 2419 397 2687 759 
Q 2956 1122 2956 1747 
Q 2956 2369 2687 2733 
Q 2419 3097 1959 3097 
z
M 1959 3584 
Q 2709 3584 3137 3096 
Q 3566 2609 3566 1747 
Q 3566 888 3137 398 
Q 2709 -91 1959 -91 
Q 1206 -91 779 398 
Q 353 888 353 1747 
Q 353 2609 779 3096 
Q 1206 3584 1959 3584 
z
" transform="scale(0.015625)"/>
     <path id="DejaVuSans-72" d="M 2631 2963 
Q 2534 3019 2420 3045 
Q 2306 3072 2169 3072 
Q 1681 3072 1420 2755 
Q 1159 2438 1159 1844 
L 1159 0 
L 581 0 
L 581 3500 
L 1159 3500 
L 1159 2956 
Q 1341 3275 1631 3429 
Q 1922 3584 2338 3584 
Q 2397 3584 2469 3576 
Q 2541 3569 2628 3553 
L 2631 2963 
z
" transform="scale(0.015625)"/>
     <path id="DejaVuSans-65" d="M 3597 1894 
L 3597 1613 
L 953 1613 
Q 991 1019 1311 708 
Q 1631 397 2203 397 
Q 2534 397 2845 478 
Q 3156 559 3463 722 
L 3463 178 
Q 3153 47 2828 -22 
Q 2503 -91 2169 -91 
Q 1331 -91 842 396 
Q 353 884 353 1716 
Q 353 2575 817 3079 
Q 1281 3584 2069 3584 
Q 2775 3584 3186 3129 
Q 3597 2675 3597 1894 
z
M 3022 2063 
Q 3016 2534 2758 2815 
Q 2500 3097 2075 3097 
Q 1594 3097 1305 2825 
Q 1016 2553 972 2059 
L 3022 2063 
z
" transform="scale(0.015625)"/>
     <path id="DejaVuSans-64" d="M 2906 2969 
L 2906 4863 
L 3481 4863 
L 3481 0 
L 2906 0 
L 2906 525 
Q 2725 213 2448 61 
Q 2172 -91 1784 -91 
Q 1150 -91 751 415 
Q 353 922 353 1747 
Q 353 2572 751 3078 
Q 1150 3584 1784 3584 
Q 2172 3584 2448 3432 
Q 2725 3281 2906 2969 
z
M 947 1747 
Q 947 1113 1208 752 
Q 1469 391 1925 391 
Q 2381 391 2643 752 
Q 2906 1113 2906 1747 
Q 2906 2381 2643 2742 
Q 2381 3103 1925 3103 
Q 1469 3103 1208 2742 
Q 947 2381 947 1747 
z
" transform="scale(0.015625)"/>
     <path id="DejaVuSans-68" d="M 3513 2113 
L 3513 0 
L 2938 0 
L 2938 2094 
Q 2938 2591 2744 2837 
Q 2550 3084 2163 3084 
Q 1697 3084 1428 2787 
Q 1159 2491 1159 1978 
L 1159 0 
L 581 0 
L 581 4863 
L 1159 4863 
L 1159 2956 
Q 1366 3272 1645 3428 
Q 1925 3584 2291 3584 
Q 2894 3584 3203 3211 
Q 3513 2838 3513 2113 
z
" transform="scale(0.015625)"/>
     <path id="DejaVuSans-69" d="M 603 3500 
L 1178 3500 
L 1178 0 
L 603 0 
L 603 3500 
z
M 603 4863 
L 1178 4863 
L 1178 4134 
L 603 4134 
L 603 4863 
z
" transform="scale(0.015625)"/>
     <path id="DejaVuSans-66" d="M 2375 4863 
L 2375 4384 
L 1825 4384 
Q 1516 4384 1395 4259 
Q 1275 4134 1275 3809 
L 1275 3500 
L 2222 3500 
L 2222 3053 
L 1275 3053 
L 1275 0 
L 697 0 
L 697 3053 
L 147 3053 
L 147 3500 
L 697 3500 
L 697 3744 
Q 697 4328 969 4595 
Q 1241 4863 1831 4863 
L 2375 4863 
z
" transform="scale(0.015625)"/>
     <path id="DejaVuSans-74" d="M 1172 4494 
L 1172 3500 
L 2356 3500 
L 2356 3053 
L 1172 3053 
L 1172 1153 
Q 1172 725 1289 603 
Q 1406 481 1766 481 
L 2356 481 
L 2356 0 
L 1766 0 
Q 1100 0 847 248 
Q 594 497 594 1153 
L 594 3053 
L 172 3053 
L 172 3500 
L 594 3500 
L 594 4494 
L 1172 4494 
z
" transform="scale(0.015625)"/>
     <path id="DejaVuSans-20" transform="scale(0.015625)"/>
     <path id="DejaVuSans-6c" d="M 603 4863 
L 1178 4863 
L 1178 0 
L 603 0 
L 603 4863 
z
" transform="scale(0.015625)"/>
     <path id="DejaVuSans-6e" d="M 3513 2113 
L 3513 0 
L 2938 0 
L 2938 2094 
Q 2938 2591 2744 2837 
Q 2550 3084 2163 3084 
Q 1697 3084 1428 2787 
Q 1159 2491 1159 1978 
L 1159 0 
L 581 0 
L 581 3500 
L 1159 3500 
L 1159 2956 
Q 1366 3272 1645 3428 
Q 1925 3584 2291 3584 
Q 2894 3584 3203 3211 
Q 3513 2838 3513 2113 
z
" transform="scale(0.015625)"/>
     <path id="DejaVuSans-4d" d="M 628 4666 
L 1569 4666 
L 2759 1491 
L 3956 4666 
L 4897 4666 
L 4897 0 
L 4281 0 
L 4281 4097 
L 3078 897 
L 2444 897 
L 1241 4097 
L 1241 0 
L 628 0 
L 628 4666 
z
" transform="scale(0.015625)"/>
     <path id="DejaVuSans-3d" d="M 678 2906 
L 4684 2906 
L 4684 2381 
L 678 2381 
L 678 2906 
z
M 678 1631 
L 4684 1631 
L 4684 1100 
L 678 1100 
L 678 1631 
z
" transform="scale(0.015625)"/>
     <path id="DejaVuSans-31" d="M 794 531 
L 1825 531 
L 1825 4091 
L 703 3866 
L 703 4441 
L 1819 4666 
L 2450 4666 
L 2450 531 
L 3481 531 
L 3481 0 
L 794 0 
L 794 531 
z
" transform="scale(0.015625)"/>
     <path id="DejaVuSans-2e" d="M 684 794 
L 1344 794 
L 1344 0 
L 684 0 
L 684 794 
z
" transform="scale(0.015625)"/>
     <path id="DejaVuSans-30" d="M 2034 4250 
Q 1547 4250 1301 3770 
Q 1056 3291 1056 2328 
Q 1056 1369 1301 889 
Q 1547 409 2034 409 
Q 2525 409 2770 889 
Q 3016 1369 3016 2328 
Q 3016 3291 2770 3770 
Q 2525 4250 2034 4250 
z
M 2034 4750 
Q 2819 4750 3233 4129 
Q 3647 3509 3647 2328 
Q 3647 1150 3233 529 
Q 2819 -91 2034 -91 
Q 1250 -91 836 529 
Q 422 1150 422 2328 
Q 422 3509 836 4129 
Q 1250 4750 2034 4750 
z
" transform="scale(0.015625)"/>
    </defs>
    <use xlink:href="#DejaVuSans-49"/>
    <use xlink:href="#DejaVuSans-73" x="29.492188"/>
    <use xlink:href="#DejaVuSans-6f" x="81.591797"/>
    <use xlink:href="#DejaVuSans-72" x="142.773438"/>
    <use xlink:href="#DejaVuSans-65" x="181.636719"/>
    <use xlink:href="#DejaVuSans-64" x="243.160156"/>
    <use xlink:href="#DejaVuSans-73" x="306.636719"/>
    <use xlink:href="#DejaVuSans-68" x="358.736328"/>
    <use xlink:href="#DejaVuSans-69" x="422.115234"/>
    <use xlink:href="#DejaVuSans-66" x="449.898438"/>
    <use xlink:href="#DejaVuSans-74" x="483.353516"/>
    <use xlink:href="#DejaVuSans-20" x="522.5625"/>
    <use xlink:href="#DejaVuSans-6c" x="554.349609"/>
    <use xlink:href="#DejaVuSans-69" x="582.132812"/>
    <use xlink:href="#DejaVuSans-6e" x="609.916016"/>
    <use xlink:href="#DejaVuSans-65" x="673.294922"/>
    <use xlink:href="#DejaVuSans-73" x="734.818359"/>
    <use xlink:href="#DejaVuSans-20" x="786.917969"/>
    <use xlink:href="#DejaVuSans-66" x="818.705078"/>
    <use xlink:href="#DejaVuSans-6f" x="853.910156"/>
    <use xlink:href="#DejaVuSans-72" x="915.091797"/>
    <use xlink:href="#DejaVuSans-20" x="956.205078"/>
    <use xlink:href="#DejaVuSans-4d" x="987.992188"/>
    <use xlink:href="#DejaVuSans-3d" x="1074.271484"/>
    <use xlink:href="#DejaVuSans-31" x="1158.060547"/>
    <use xlink:href="#DejaVuSans-2e" x="1221.683594"/>
    <use xlink:href="#DejaVuSans-30" x="1253.470703"/>
   </g>
  </g>
 </g>
 <defs>
  <clipPath id="pc31aeb12e2">
   <rect x="57.6" y="86.4" width="626.4" height="583.2"/>
  </clipPath>
 </defs>
</svg>
