<?xml version="1.0" encoding="utf-8" standalone="no"?>
<!DOCTYPE svg PUBLIC "-//W3C//DTD SVG 1.1//EN"
  "http://www.w3.org/Graphics/SVG/1.1/DTD/svg11.dtd">
<svg xmlns:xlink="http://www.w3.org/1999/xlink" width="720pt" height="720pt" viewBox="0 0 720 720" xmlns="http://www.w3.org/2000/svg" version="1.1">
 <metadata>
  <rdf:RDF xmlns:dc="http://purl.org/dc/elements/1.1/" xmlns:cc="http://creativecommons.org/ns#" xmlns:rdf="http://www.w3.org/1999/02/22-rdf-syntax-ns#">
   <cc:Work>
    <dc:type rdf:resource="http://purl.org/dc/dcmitype/StillImage"/>
    <dc:date>2023-06-28T19:21:30.988171</dc:date>
    <dc:format>image/svg+xml</dc:format>
    <dc:creator>
     <cc:Agent>
      <dc:title>Matplotlib v3.5.2, https://matplotlib.org/</dc:title>
     </cc:Agent>
    </dc:creator>
   </cc:Work>
  </rdf:RDF>
 </metadata>
 <defs>
  <style type="text/css">*{stroke-linejoin: round; stroke-linecap: butt}</style>
 </defs>
 <g id="figure_1">
  <g id="patch_1">
   <path d="M 0 720 
L 720 720 
L 720 0 
L 0 0 
z
" style="fill: #1a1a1a"/>
  </g>
  <g id="axes_1">
   <g id="line2d_1">
    <path d="M 370.8 382.190339 
L 374.95645 382.105343 
L 375.025369 382.043898 
L 375.486641 382.080751 
L 375.555078 382.011536 
L 376.080603 382.048996 
L 376.14843 381.971077 
L 376.753812 382.007403 
L 376.820852 381.919619 
L 377.526044 381.952002 
L 377.592051 381.852904 
L 377.956916 381.917353 
L 378.022283 381.811942 
L 378.422447 381.876773 
L 378.48707 381.764542 
L 378.926746 381.828985 
L 378.990499 381.709367 
L 379.474289 381.772383 
L 379.537016 381.644744 
L 380.069812 381.704943 
L 380.131325 381.568582 
L 380.718101 381.624115 
L 380.778166 381.478259 
L 381.423587 381.526681 
L 381.481917 381.370495 
L 382.189649 381.408613 
L 382.245887 381.241211 
L 383.017448 381.264921 
L 383.071154 381.0854 
L 383.904123 381.089558 
L 383.954752 380.89706 
L 384.840139 380.875472 
L 384.887031 380.669277 
L 385.805779 380.614962 
L 385.848146 380.394642 
L 387.643002 380.426768 
L 387.681957 380.179537 
L 388.825645 380.058396 
L 388.858224 379.793872 
L 389.97279 379.620746 
L 389.997824 379.339459 
L 391.024034 379.11321 
L 391.040355 378.816573 
L 391.919065 378.541995 
L 391.925613 378.232308 
L 392.612589 377.920049 
L 392.608533 377.600271 
L 393.086365 377.264511 
L 393.071162 376.937868 
L 393.351455 376.592704 
L 393.324857 376.262259 
L 393.44004 375.918697 
L 393.187554 374.268281 
L 391.057602 370.078754 
L 390.468818 369.269882 
L 389.933953 368.449825 
L 389.538615 367.927376 
L 388.951119 367.148012 
L 387.394165 365.478973 
L 386.455295 364.582197 
L 385.470086 363.73698 
L 384.183419 362.748181 
L 381.394832 361.069066 
L 378.69394 359.905058 
L 376.817219 359.316968 
L 374.893505 358.888988 
L 372.937568 358.624858 
L 370.635314 358.526885 
L 368.33467 358.65598 
L 366.060934 359.013598 
L 364.151276 359.495434 
L 362.293376 360.135822 
L 360.500892 360.929191 
L 359.060582 361.694556 
L 356.372965 363.523675 
L 353.511611 366.169419 
L 350.542398 370.078754 
L 350.066296 370.945292 
L 349.732554 371.524253 
L 349.513338 371.801216 
L 349.411137 372.114062 
L 349.19703 372.397973 
L 349.10496 372.715382 
L 348.901103 373.00739 
L 348.563526 373.95602 
L 348.352107 374.596961 
L 348.207297 375.251803 
L 348.248545 376.592704 
L 348.528838 376.937868 
L 348.513635 377.264511 
L 348.991467 377.600271 
L 348.987411 377.920049 
L 349.674387 378.232308 
L 349.680935 378.541995 
L 350.559645 378.816573 
L 350.575966 379.11321 
L 351.602176 379.339459 
L 351.62721 379.620746 
L 352.741776 379.793872 
L 352.774355 380.058396 
L 353.918043 380.179537 
L 353.956998 380.426768 
L 355.751854 380.394642 
L 355.794221 380.614962 
L 356.712969 380.669277 
L 356.759861 380.875472 
L 357.645248 380.89706 
L 357.695877 381.089558 
L 358.528846 381.0854 
L 358.582552 381.264921 
L 359.354113 381.241211 
L 359.410351 381.408613 
L 360.118083 381.370495 
L 360.176413 381.526681 
L 360.821834 381.478259 
L 360.881899 381.624115 
L 361.468675 381.568582 
L 361.530188 381.704943 
L 362.062984 381.644744 
L 362.125711 381.772383 
L 362.609501 381.709367 
L 362.673254 381.828985 
L 363.11293 381.764542 
L 363.177553 381.876773 
L 363.577717 381.811942 
L 363.643084 381.917353 
L 364.407324 381.888506 
L 364.473884 381.981745 
L 365.126362 381.94695 
L 365.193821 382.02964 
L 365.757077 381.992474 
L 365.825228 382.065912 
L 366.316906 382.028586 
L 366.385598 382.093812 
L 366.819515 382.057698 
L 366.888637 382.115552 
L 367.275679 382.081508 
L 367.345147 382.132671 
L 367.69398 382.101232 
L 367.961017 382.151984 
L 368.265204 382.125028 
L 368.513547 382.165769 
L 368.949002 382.148964 
L 369.337169 382.180436 
L 369.869225 382.173814 
L 370.516151 382.18997 
L 370.8 382.190339 
L 370.8 382.190339 
" clip-path="url(#p2641639a8f)" style="fill: none; stroke: #6d904f; stroke-width: 2"/>
   </g>
   <g id="line2d_2">
    <path d="M 350.196125 370.227048 
L 342.224076 372.077127 
L 334.803687 373.730884 
L 332.063802 374.616299 
L 330.76798 375.278709 
L 330.215304 375.789692 
L 330.064119 376.159622 
L 330.064119 376.159622 
L 330.164931 376.588974 
L 330.466847 376.924053 
L 331.068332 377.299796 
L 332.063801 377.696687 
L 333.246675 378.024894 
L 336.337205 378.563972 
L 339.331474 378.853375 
L 345.007616 379.023841 
L 350.196125 378.811477 
L 350.196125 378.811477 
" clip-path="url(#p2641639a8f)" style="fill: none; stroke: #008fd5"/>
   </g>
   <g id="line2d_3">
    <path d="M 352.208832 367.39885 
L 348.224279 367.334228 
L 334.467786 367.996128 
L 312.977345 368.658364 
L 307.115089 368.976639 
L 301.070523 369.428314 
L 294.849076 370.066758 
L 288.455698 370.983007 
L 285.195969 371.600443 
L 281.894928 372.389369 
L 278.5531 373.484877 
L 275.117788 375.831396 
L 274.949097 376.437249 
L 275.011432 376.896835 
L 275.170948 377.247576 
L 278.553103 379.432591 
L 281.894936 380.459717 
L 285.195973 381.176575 
L 288.455698 381.717914 
L 294.849065 382.468237 
L 301.070512 382.919078 
L 307.115088 383.156196 
L 312.977336 383.225727 
L 318.651198 383.156167 
L 324.129793 382.966607 
L 334.467785 382.276957 
L 339.305402 381.792245 
L 343.900706 381.218315 
L 348.224279 380.549937 
L 352.208833 379.760234 
L 352.208833 379.760234 
" clip-path="url(#p2641639a8f)" style="fill: none; stroke: #fc4f30"/>
   </g>
   <g id="line2d_4">
    <path d="M 354.221541 365.167485 
L 351.440945 363.886397 
L 348.469937 362.942819 
L 345.364134 362.197285 
L 342.142571 361.572232 
L 338.813931 361.017075 
L 335.383219 360.498524 
L 331.853917 359.995876 
L 328.228738 359.497407 
L 324.510047 358.997367 
L 320.699929 358.493721 
L 316.800342 357.986568 
L 312.813071 357.477164 
L 308.739827 356.96728 
L 304.582232 356.458897 
L 300.341797 355.954008 
L 296.019991 355.454503 
L 291.61819 354.962175 
L 287.137737 354.478666 
L 282.579889 354.00551 
L 277.945865 353.544111 
L 273.236826 353.095793 
L 268.453908 352.661775 
L 263.598129 352.243228 
L 258.670545 351.84126 
L 253.672157 351.456922 
L 248.603883 351.091241 
L 243.466667 350.745238 
L 238.26137 350.419887 
L 232.988852 350.116211 
L 227.649919 349.83517 
L 222.245369 349.577801 
L 216.775974 349.345132 
L 211.242478 349.138212 
L 205.645604 348.95813 
L 199.985999 348.806078 
L 194.264367 348.683232 
L 188.48134 348.59087 
L 182.637603 348.530327 
L 176.733691 348.503092 
L 170.770279 348.510673 
L 164.747884 348.554789 
L 158.667082 348.637271 
L 152.528427 348.760119 
L 146.332442 348.925559 
L 140.079673 349.136044 
L 133.770595 349.394333 
L 127.40571 349.703508 
L 120.985485 350.06713 
L 114.510424 350.489225 
L 107.980905 350.974496 
L 101.397428 351.528463 
L 94.760455 352.15766 
L 88.070367 352.870023 
L 81.327575 353.67531 
L 74.532463 354.585782 
L 67.685466 355.617274 
L 67.685466 355.61728 
L 67.685464 355.617294 
" clip-path="url(#p2641639a8f)" style="fill: none; stroke: #e5ae38"/>
   </g>
   <g id="line2d_5">
    <path d="M 67.685492 397.320391 
L 67.685492 397.320397 
L 67.685493 397.320411 
L 67.685494 397.320418 
L 74.532459 398.313177 
L 81.327539 399.183874 
L 88.070332 399.948333 
L 94.760472 400.618764 
L 101.397469 401.20483 
L 107.980921 401.714433 
L 114.510396 402.154061 
L 120.985481 402.529176 
L 127.405735 402.844432 
L 133.770605 403.103741 
L 140.079702 403.310619 
L 146.332455 403.468069 
L 152.528432 403.578779 
L 158.667087 403.645098 
L 164.747876 403.669142 
L 170.770291 403.652854 
L 176.733722 403.597934 
L 182.637585 403.505928 
L 188.481356 403.378298 
L 194.264361 403.216337 
L 199.986004 403.021245 
L 205.645576 402.794122 
L 211.242497 402.536022 
L 216.775981 402.247848 
L 222.245385 401.930524 
L 227.64991 401.58483 
L 232.988833 401.211564 
L 238.26138 400.811453 
L 243.466678 400.385146 
L 248.603893 399.933282 
L 253.672161 399.456459 
L 258.67055 398.955244 
L 263.598135 398.430155 
L 268.453909 397.881695 
L 273.23683 397.310337 
L 277.945878 396.716519 
L 282.579896 396.10066 
L 287.13774 395.463165 
L 291.618183 394.804393 
L 296.019979 394.124694 
L 300.341795 393.424396 
L 304.582225 392.703798 
L 308.739833 391.963163 
L 312.813075 391.202741 
L 316.800335 390.422729 
L 320.699936 389.623297 
L 324.510045 388.804538 
L 328.228741 387.966473 
L 331.853913 387.109007 
L 335.383225 386.231854 
L 338.813936 385.334427 
L 342.142571 384.415592 
L 345.364132 383.473155 
L 348.469936 382.502582 
L 351.440944 381.493286 
L 354.221541 380.414107 
" clip-path="url(#p2641639a8f)" style="fill: none; stroke: #6d904f"/>
   </g>
   <g id="line2d_6">
    <path d="M 356.234248 363.388061 
L 354.657612 361.203462 
L 353.039168 359.275492 
L 351.422864 357.498505 
L 349.817358 355.825852 
L 348.222687 354.231642 
L 346.636654 352.699502 
L 345.056629 351.218198 
L 343.480136 349.779524 
L 341.904999 348.377272 
L 340.329355 347.006581 
L 338.751609 345.663544 
L 337.170441 344.344954 
L 335.584724 343.048151 
L 333.993501 341.770878 
L 332.395965 340.511238 
L 330.791434 339.267559 
L 329.179323 338.038389 
L 327.559136 336.822499 
L 325.930441 335.618758 
L 324.292873 334.426188 
L 322.646116 333.243911 
L 320.989921 332.071132 
L 319.324047 330.907161 
L 317.648286 329.751352 
L 315.962497 328.603116 
L 314.266503 327.461967 
L 312.560214 326.327392 
L 310.843508 325.198969 
L 309.116297 324.076317 
L 307.378528 322.959036 
L 305.630108 321.846832 
L 303.871004 320.739382 
L 302.101198 319.636397 
L 300.320636 318.537617 
L 298.529289 317.442821 
L 296.72717 316.351752 
L 294.914245 315.264242 
L 293.090517 314.180093 
L 291.256001 313.099087 
L 289.410654 312.021105 
L 287.554524 310.94599 
L 285.68763 309.873586 
L 283.809968 308.803745 
L 281.921559 307.736364 
L 280.022417 306.671348 
L 278.112571 305.60856 
L 276.19205 304.547911 
L 274.260874 303.489284 
L 272.319037 302.432636 
L 270.366652 301.377841 
L 268.403638 300.32486 
L 266.430124 299.273598 
L 264.446071 298.224015 
L 262.451523 297.176006 
L 260.446568 296.129529 
L 258.431182 295.08455 
L 258.431179 295.084554 
L 258.431167 295.084567 
" clip-path="url(#p2641639a8f)" style="fill: none; stroke: #8b8b8b"/>
   </g>
   <g id="line2d_7">
    <path d="M 258.431117 443.885169 
L 258.431172 443.885158 
L 258.431181 443.885171 
L 258.431184 443.885175 
L 260.446573 442.790975 
L 262.451545 441.69586 
L 264.446051 440.599847 
L 266.430099 439.502913 
L 268.403649 438.405064 
L 270.366635 437.306323 
L 272.319065 436.20666 
L 274.260846 435.106078 
L 276.192049 434.004591 
L 278.112582 432.902194 
L 280.022401 431.79888 
L 281.92156 430.694662 
L 283.809958 429.589525 
L 285.687638 428.483473 
L 287.554532 427.376514 
L 289.410654 426.268626 
L 291.255986 425.159841 
L 293.090514 424.050127 
L 294.914232 422.939501 
L 296.72717 421.827952 
L 298.529297 420.715482 
L 300.32065 419.602095 
L 302.101213 418.487778 
L 303.871013 417.372526 
L 305.630116 416.256363 
L 307.37853 415.139256 
L 309.116295 414.021209 
L 310.843508 412.902222 
L 312.560212 411.782299 
L 314.26651 410.661414 
L 315.962502 409.53958 
L 317.648296 408.416779 
L 319.324044 407.293001 
L 320.989917 406.16824 
L 322.646115 405.042484 
L 324.292868 403.915719 
L 325.930433 402.787926 
L 327.559125 401.65908 
L 329.179312 400.529164 
L 330.791428 399.398145 
L 332.395972 398.265984 
L 333.9935 397.132632 
L 335.584723 395.998027 
L 337.170447 394.862101 
L 338.751612 393.724746 
L 340.329348 392.58583 
L 341.904996 391.445175 
L 343.480136 390.302525 
L 345.056624 389.157522 
L 346.636656 388.009629 
L 348.222692 386.858011 
L 349.817359 385.701296 
L 356.234248 380.674341 
" clip-path="url(#p2641639a8f)" style="fill: none; stroke: #810f7c"/>
   </g>
   <g id="line2d_8">
    <path d="M 358.246956 381.149788 
L 357.874276 382.567905 
L 357.6084 383.894417 
L 357.481596 385.183916 
L 357.492144 386.453539 
L 357.631444 387.737903 
L 357.890083 388.981602 
L 358.259342 390.219206 
L 358.731535 391.451548 
L 359.299954 392.679163 
L 359.958769 393.9024 
L 360.702881 395.121516 
L 361.527815 396.336675 
L 362.429617 397.548023 
L 363.404772 398.755634 
L 364.450138 399.959585 
L 365.562884 401.159938 
L 376.626036 410.63653 
L 378.25284 411.805532 
L 379.929135 412.971097 
L 381.653765 414.133219 
L 383.425646 415.291919 
L 385.243753 416.447165 
L 387.107119 417.598976 
L 389.014837 418.74734 
L 390.96604 419.892259 
L 392.959921 421.033728 
L 394.995683 422.171753 
L 397.072608 423.30629 
L 399.18998 424.437396 
L 401.347139 425.56502 
L 403.543436 426.689151 
L 405.778264 427.809821 
L 408.051035 428.927004 
L 410.361186 430.040701 
L 412.708185 431.150898 
L 415.091504 432.257591 
L 417.510657 433.360767 
L 419.965155 434.460439 
L 422.454549 435.556571 
L 424.978389 436.649189 
L 427.536252 437.738261 
L 430.127685 438.823791 
L 432.752358 439.905764 
L 435.40984 440.984183 
L 438.099773 442.059017 
L 440.821791 443.130304 
L 443.57553 444.197983 
L 446.360658 445.262095 
L 449.176853 446.322614 
L 449.176853 446.322614 
L 449.176882 446.322585 
" clip-path="url(#p2641639a8f)" style="fill: none; stroke: #008fd5"/>
   </g>
   <g id="line2d_9">
    <path d="M 449.176883 285.764762 
L 449.176879 285.764759 
L 449.176839 285.76473 
L 449.176839 285.76473 
L 446.360673 286.514015 
L 443.575527 287.26935 
L 440.821787 288.031589 
L 438.099774 288.801478 
L 435.409846 289.579923 
L 432.752364 290.367761 
L 430.127702 291.165908 
L 427.536239 291.975239 
L 424.978383 292.796704 
L 422.454546 293.631305 
L 419.965168 294.47994 
L 417.510657 295.343627 
L 415.091502 296.223332 
L 412.708184 297.120007 
L 410.361187 298.034629 
L 408.051035 298.96814 
L 405.778267 299.92149 
L 403.543432 300.895626 
L 401.347137 301.891407 
L 399.189981 302.909733 
L 397.072606 303.951454 
L 394.995687 305.017378 
L 392.959915 306.108372 
L 390.966041 307.225151 
L 389.014833 308.368474 
L 387.107121 309.539125 
L 385.243754 310.737715 
L 383.425645 311.964993 
L 381.653769 313.2216 
L 379.929133 314.508148 
L 378.25284 315.825296 
L 376.626037 317.173612 
L 375.049968 318.55375 
L 373.525945 319.96631 
L 372.055402 321.411876 
L 370.639865 322.891092 
L 370.639865 322.891092 
L 370.639862 322.891092 
L 370.639862 322.891092 
L 370.639862 322.891092 
L 370.639795 322.891093 
L 370.639795 322.891093 
L 370.639778 322.891093 
L 369.280971 324.4046 
L 367.980525 325.953082 
L 366.740452 327.537262 
L 365.562884 329.157924 
L 364.450138 330.815919 
L 363.404776 332.512205 
L 362.429621 334.247887 
L 361.527814 336.024204 
L 360.702878 337.842637 
L 359.958767 339.704952 
L 359.299954 341.613298 
L 358.731534 343.570349 
L 358.259343 345.579501 
L 357.890086 347.645207 
L 357.631447 349.773525 
L 357.492144 351.973051 
L 357.481593 354.256782 
L 357.6084 356.646203 
L 357.874279 359.182022 
L 358.246957 361.961751 
" clip-path="url(#p2641639a8f)" style="fill: none; stroke: #fc4f30"/>
   </g>
   <g id="line2d_10">
    <path d="M 360.259664 381.504169 
L 361.090943 382.955752 
L 362.177632 384.308785 
L 363.540323 385.611423 
L 365.16693 386.879026 
L 373.982932 391.687011 
L 376.694909 392.842677 
L 379.588189 393.965126 
L 382.654146 395.065472 
L 385.885184 396.143623 
L 389.274507 397.199427 
L 392.816051 398.232688 
L 396.504309 399.243181 
L 400.334331 400.23065 
L 404.301583 401.194812 
L 408.401915 402.135368 
L 412.631512 403.051991 
L 416.98686 403.944338 
L 421.464685 404.812053 
L 426.061981 405.654744 
L 430.775895 406.472019 
L 435.60377 407.263458 
L 440.543192 408.028608 
L 445.591763 408.767022 
L 450.747302 409.478196 
L 456.007784 410.161618 
L 461.371209 410.816757 
L 466.835734 411.443051 
L 472.399557 412.039898 
L 478.061072 412.606667 
L 483.818624 413.142704 
L 489.670734 413.647297 
L 495.615916 414.119708 
L 501.652774 414.559162 
L 507.780023 414.964812 
L 513.996374 415.335774 
L 520.300532 415.671122 
L 526.691429 415.969829 
L 533.167823 416.230833 
L 539.728744 416.452953 
L 546.373031 416.634984 
L 553.099755 416.775554 
L 559.907882 416.873254 
L 566.796522 416.926486 
L 573.764742 416.933568 
L 580.811595 416.892665 
L 587.93633 416.801698 
L 595.138073 416.65846 
L 602.416029 416.460469 
L 609.76941 416.205008 
L 617.197493 415.889001 
L 624.699499 415.509023 
L 632.274799 415.061169 
L 639.922581 414.54107 
L 639.922581 414.54107 
L 639.922581 414.541068 
" clip-path="url(#p2641639a8f)" style="fill: none; stroke: #e5ae38"/>
   </g>
   <g id="line2d_11">
    <path d="M 639.922585 337.59186 
L 639.922583 337.591849 
L 639.922556 337.591851 
L 639.922556 337.591851 
L 632.274779 336.976491 
L 624.699533 336.428617 
L 617.197507 335.94342 
L 609.769456 335.51667 
L 602.416038 335.14445 
L 595.138089 334.823235 
L 587.936354 334.549768 
L 580.811614 334.320929 
L 573.764706 334.133854 
L 566.796531 333.985772 
L 559.907894 333.873974 
L 553.099755 333.795841 
L 546.373035 333.748789 
L 539.728742 333.730179 
L 533.167832 333.737399 
L 526.691403 333.767726 
L 520.300536 333.818344 
L 513.996352 333.886339 
L 507.780044 333.968589 
L 501.65278 334.061796 
L 495.615904 334.162471 
L 489.670739 334.266862 
L 483.81863 334.370949 
L 478.06108 334.470514 
L 472.399556 334.561092 
L 466.835731 334.638169 
L 461.371198 334.697254 
L 456.007777 334.734218 
L 450.747313 334.745681 
L 445.591746 334.72955 
L 440.543186 334.685776 
L 435.60378 334.61711 
L 430.775893 334.529943 
L 426.061984 334.434862 
L 421.464687 334.346752 
L 416.986864 334.284344 
L 412.63152 334.269043 
L 408.401914 334.323373 
L 404.301584 334.469336 
L 400.334334 334.726901 
L 396.50431 335.113131 
L 392.81605 335.641684 
L 389.274512 336.322876 
L 385.885186 337.164043 
L 382.654147 338.169959 
L 379.588182 339.34349 
L 376.694909 340.686055 
L 373.982932 342.198216 
L 371.462057 343.880164 
L 369.143515 345.732244 
L 369.143515 345.732244 
L 369.143515 345.732244 
L 369.143514 345.732244 
L 367.040205 347.755656 
L 365.16693 349.953409 
L 363.540323 352.332156 
L 362.177627 354.90608 
L 361.090942 357.707289 
L 360.259664 360.822955 
" clip-path="url(#p2641639a8f)" style="fill: none; stroke: #6d904f"/>
   </g>
   <g id="line2d_12">
    <path d="M 362.272372 381.771764 
L 372.841716 386.957423 
L 376.448958 388.073321 
L 380.396945 389.129526 
L 384.664776 390.148573 
L 389.234327 391.090565 
L 399.2176 392.789187 
L 410.242556 394.226168 
L 422.227321 395.379197 
L 435.105792 396.219285 
L 448.823297 396.708358 
L 455.982062 396.805824 
L 463.333847 396.794704 
L 470.873974 396.665043 
L 478.597998 396.404585 
L 486.501797 395.997876 
L 494.581523 395.424877 
L 502.833517 394.658716 
L 511.254371 393.661555 
L 519.840873 392.376713 
L 528.589924 390.711061 
L 533.024505 389.686227 
L 537.498665 388.487564 
L 542.012024 387.052675 
L 547.708435 384.730715 
L 550.003856 383.518381 
L 552.308885 381.989265 
L 553.754376 380.721794 
L 554.768419 379.502255 
L 555.348682 378.468755 
L 555.675352 377.45315 
L 555.763868 376.427997 
L 555.639052 375.510303 
L 555.276139 374.494099 
L 554.623446 373.404831 
L 553.754364 372.377245 
L 552.308886 371.088523 
L 551.155167 370.253568 
L 548.854943 368.871752 
L 546.564315 367.72816 
L 542.012042 365.862168 
L 537.498665 364.348864 
L 533.024504 363.067746 
L 528.589914 361.956046 
L 519.840875 360.102063 
L 511.254374 358.606569 
L 502.833533 357.372371 
L 494.581515 356.337718 
L 478.59801 354.699588 
L 455.982049 352.85051 
L 441.862725 351.678966 
L 435.105787 351.01506 
L 428.558488 350.258929 
L 422.227325 349.397462 
L 399.217601 345.932894 
L 394.089865 345.564687 
L 389.23433 345.564368 
L 384.664774 345.962847 
L 380.396946 346.768583 
L 376.448957 347.977379 
L 372.841716 349.579842 
L 369.599055 351.566843 
L 366.746861 353.935373 
L 364.307611 356.699611 
L 362.272372 359.928152 
L 362.272372 359.928152 
" clip-path="url(#p2641639a8f)" style="fill: none; stroke: #8b8b8b"/>
   </g>
   <g id="line2d_13">
    <path d="M 364.28508 381.970161 
L 380.516502 386.698119 
L 385.857713 387.603364 
L 391.650368 388.366788 
L 397.867488 389.00312 
L 404.485728 389.502701 
L 411.484819 389.853173 
L 418.847011 390.038623 
L 426.556693 390.03817 
L 434.59993 389.823472 
L 442.964305 389.354088 
L 451.63859 388.568182 
L 460.612662 387.36053 
L 469.877239 385.516923 
L 474.615795 384.202316 
L 477.011198 383.381832 
L 480.636607 381.802957 
L 481.853645 381.120259 
L 483.074927 380.291996 
L 484.607505 378.817786 
L 485.145455 377.957731 
L 485.433985 377.090423 
L 485.472479 376.213233 
L 485.299304 375.443937 
L 484.914815 374.643885 
L 484.300455 373.820312 
L 483.074934 372.677429 
L 481.853646 371.813639 
L 479.423848 370.468718 
L 477.011184 369.401383 
L 472.237763 367.712801 
L 469.877237 367.010804 
L 460.612656 364.757853 
L 451.638589 363.036271 
L 426.556682 358.886143 
L 418.847015 357.346662 
L 411.484816 355.570048 
L 397.867488 352.001107 
L 391.650374 350.872016 
L 385.857717 350.46418 
L 380.516503 350.814058 
L 375.657783 351.8958 
L 371.316085 353.669543 
L 371.316085 353.669543 
L 367.524274 356.109819 
L 364.28508 359.248166 
L 364.28508 359.248166 
" clip-path="url(#p2641639a8f)" style="fill: none; stroke: #810f7c"/>
   </g>
   <g id="line2d_14">
    <path d="M 365.962337 382.090009 
L 386.912158 386.247837 
L 393.698349 386.817995 
L 401.028227 387.174367 
L 408.869748 387.285924 
L 417.195231 387.106619 
L 425.980618 386.563284 
L 435.204856 385.52448 
L 444.849409 383.692395 
L 455.218083 379.515977 
L 456.18142 378.627696 
L 456.66436 377.981483 
L 457.047285 377.077868 
L 457.112841 376.295402 
L 456.946468 375.537288 
L 456.50328 374.700644 
L 455.859925 373.9355 
L 454.897737 373.101553 
L 444.849411 368.63217 
L 435.204871 366.06542 
L 425.980617 363.967525 
L 417.195229 361.850339 
L 408.869752 359.39544 
L 401.028225 356.699886 
L 393.698348 354.429251 
L 386.912158 353.155517 
L 380.706725 353.023135 
L 375.123781 353.972837 
L 370.204831 355.917838 
L 365.962337 358.831288 
L 365.962337 358.831288 
" clip-path="url(#p2641639a8f)" style="fill: none; stroke: #008fd5"/>
   </g>
   <g id="line2d_15">
    <path d="M 367.975045 382.184567 
L 394.586946 385.29993 
L 403.107104 385.267228 
L 412.281664 384.756212 
L 422.072472 383.53676 
L 433.11371 380.563467 
L 435.127883 379.508878 
L 436.142209 378.763596 
L 436.991137 377.826561 
L 437.374243 377.006436 
L 437.448809 376.279535 
L 437.289047 375.567005 
L 436.991133 374.984579 
L 436.481379 374.332159 
L 435.465457 373.42401 
L 434.454336 372.732258 
L 432.446625 371.640694 
L 422.072471 367.859966 
L 412.281668 364.789918 
L 403.107098 361.270048 
L 394.586944 357.727373 
L 386.765452 355.499134 
L 379.693014 354.986813 
L 373.421498 356.038279 
L 367.975045 358.499378 
L 367.975045 358.499378 
" clip-path="url(#p2641639a8f)" style="fill: none; stroke: #fc4f30"/>
   </g>
   <g id="line2d_16">
    <path d="M 369.987753 382.22871 
L 402.261728 383.768359 
L 407.290121 383.297701 
L 412.515862 382.542205 
L 417.932756 381.332628 
L 423.89127 378.761264 
L 424.605731 378.134132 
L 425.233187 377.231057 
L 425.42426 376.429765 
L 425.345456 375.791164 
L 425.053691 375.123804 
L 424.605732 374.513284 
L 423.535088 373.530264 
L 417.932756 370.535682 
L 407.290122 366.263281 
L 402.26173 363.952015 
L 392.824183 359.375412 
L 384.262234 356.775696 
L 384.262234 356.775696 
L 376.638163 356.546955 
L 369.987753 358.343565 
L 369.987753 358.343565 
" clip-path="url(#p2641639a8f)" style="fill: none; stroke: #e5ae38"/>
   </g>
   <g id="line2d_17">
    <path d="M 372.000461 382.22402 
L 379.854824 383.018193 
L 388.831484 383.318097 
L 398.882918 382.841069 
L 409.936517 381.051132 
L 412.848379 380.147765 
L 414.325889 379.528941 
L 416.19278 378.400158 
L 416.945704 377.640877 
L 417.421028 376.552362 
L 417.394418 375.889758 
L 417.323488 375.631581 
L 416.945704 374.897975 
L 416.19278 374.040979 
L 415.817636 373.709633 
L 414.325889 372.644371 
L 411.385213 371.020647 
L 409.936516 370.308922 
L 388.831479 359.462532 
L 379.854823 357.466486 
L 372.000461 358.360144 
L 372.000461 358.360144 
" clip-path="url(#p2641639a8f)" style="fill: none; stroke: #6d904f"/>
   </g>
   <g id="line2d_18">
    <path d="M 374.013169 382.170333 
L 378.383371 382.512272 
L 388.079589 382.709827 
L 393.400711 382.44082 
L 399.024936 381.83431 
L 401.947396 381.348472 
L 406.465287 380.233519 
L 408.006394 379.683036 
L 409.564815 378.950179 
L 411.338538 377.528967 
L 411.685934 376.910506 
L 411.8102 376.190047 
L 411.685934 375.542489 
L 411.33854 374.867379 
L 411.140393 374.59565 
L 409.564818 373.127339 
L 406.465289 371.141052 
L 401.947391 368.542909 
L 393.400711 363.193851 
L 388.079591 360.45044 
L 383.07149 358.840898 
L 378.383372 358.255147 
L 374.013169 358.549504 
L 374.013169 358.549504 
" clip-path="url(#p2641639a8f)" style="fill: none; stroke: #8b8b8b"/>
   </g>
   <g id="line2d_19">
    <path d="M 376.025877 382.065707 
L 380.978774 382.245215 
L 386.277688 382.211744 
L 391.954704 381.926054 
L 399.526928 380.811177 
L 402.703388 379.971433 
L 405.139678 378.996376 
L 406.374942 378.244118 
L 407.100737 377.572086 
L 407.543268 376.840156 
L 407.621511 376.580182 
L 407.517198 375.407052 
L 407.100737 374.653864 
L 406.374942 373.82084 
L 405.139682 372.763994 
L 402.70339 371.053682 
L 397.969941 367.849761 
L 391.954699 363.694663 
L 386.288159 360.742925 
L 380.978771 359.227286 
L 376.025877 358.91617 
L 376.025877 358.91617 
" clip-path="url(#p2641639a8f)" style="fill: none; stroke: #810f7c"/>
   </g>
   <g id="line2d_20">
    <path d="M 378.038585 381.906053 
L 383.574179 381.872937 
L 389.504832 381.647019 
L 395.829814 380.778295 
L 402.539168 378.61166 
L 403.404238 378.024586 
L 403.838943 377.621571 
L 404.439007 376.612356 
L 404.493695 375.863571 
L 404.275084 375.133179 
L 403.40424 373.893936 
L 402.53917 373.048282 
L 395.829814 367.808307 
L 389.504825 363.280856 
L 383.574178 360.546009 
L 378.038585 359.46932 
L 378.038585 359.46932 
" clip-path="url(#p2641639a8f)" style="fill: none; stroke: #008fd5"/>
   </g>
   <g id="line2d_21">
    <path d="M 380.051293 381.684222 
L 383.056837 381.589938 
L 386.169581 381.360647 
L 389.391114 381.244933 
L 394.427256 380.44509 
L 396.159875 380.031115 
L 397.919165 379.492086 
L 400.155484 378.490602 
L 401.061499 377.851829 
L 401.745298 377.059351 
L 402.016979 376.300237 
L 401.988353 375.607673 
L 401.745297 374.931434 
L 401.516959 374.532268 
L 400.607676 373.405507 
L 399.704929 372.522303 
L 394.427259 367.982918 
L 392.721489 366.571113 
L 389.391113 364.118227 
L 386.169576 362.272315 
L 383.056834 361.000125 
L 380.051293 360.223864 
L 380.051293 360.223864 
" clip-path="url(#p2641639a8f)" style="fill: none; stroke: #fc4f30"/>
   </g>
   <g id="line2d_22">
    <path d="M 382.064 381.388023 
L 388.764979 380.959351 
L 392.292409 380.384198 
L 396.867977 379.069194 
L 397.805108 378.634776 
L 398.749529 378.057505 
L 399.88046 376.775487 
L 400.050606 376.063296 
L 399.970177 375.382923 
L 399.701211 374.71544 
L 398.749529 373.379483 
L 396.867977 371.454765 
L 392.292404 367.245897 
L 388.764982 364.497015 
L 385.356 362.509754 
L 382.064001 361.202411 
L 382.064001 361.202411 
" clip-path="url(#p2641639a8f)" style="fill: none; stroke: #e5ae38"/>
   </g>
  </g>
  <g id="text_1">
   <!-- Isoredshift lines for M=1.0 -->
   <g transform="translate(249.365437 27.165375)scale(0.168 -0.168)">
    <defs>
     <path id="DejaVuSans-49" d="M 628 4666 
L 1259 4666 
L 1259 0 
L 628 0 
L 628 4666 
z
" transform="scale(0.015625)"/>
     <path id="DejaVuSans-73" d="M 2834 3397 
L 2834 2853 
Q 2591 2978 2328 3040 
Q 2066 3103 1784 3103 
Q 1356 3103 1142 2972 
Q 928 2841 928 2578 
Q 928 2378 1081 2264 
Q 1234 2150 1697 2047 
L 1894 2003 
Q 2506 1872 2764 1633 
Q 3022 1394 3022 966 
Q 3022 478 2636 193 
Q 2250 -91 1575 -91 
Q 1294 -91 989 -36 
Q 684 19 347 128 
L 347 722 
Q 666 556 975 473 
Q 1284 391 1588 391 
Q 1994 391 2212 530 
Q 2431 669 2431 922 
Q 2431 1156 2273 1281 
Q 2116 1406 1581 1522 
L 1381 1569 
Q 847 1681 609 1914 
Q 372 2147 372 2553 
Q 372 3047 722 3315 
Q 1072 3584 1716 3584 
Q 2034 3584 2315 3537 
Q 2597 3491 2834 3397 
z
" transform="scale(0.015625)"/>
     <path id="DejaVuSans-6f" d="M 1959 3097 
Q 1497 3097 1228 2736 
Q 959 2375 959 1747 
Q 959 1119 1226 758 
Q 1494 397 1959 397 
Q 2419 397 2687 759 
Q 2956 1122 2956 1747 
Q 2956 2369 2687 2733 
Q 2419 3097 1959 3097 
z
M 1959 3584 
Q 2709 3584 3137 3096 
Q 3566 2609 3566 1747 
Q 3566 888 3137 398 
Q 2709 -91 1959 -91 
Q 1206 -91 779 398 
Q 353 888 353 1747 
Q 353 2609 779 3096 
Q 1206 3584 1959 3584 
z
" transform="scale(0.015625)"/>
     <path id="DejaVuSans-72" d="M 2631 2963 
Q 2534 3019 2420 3045 
Q 2306 3072 2169 3072 
Q 1681 3072 1420 2755 
Q 1159 2438 1159 1844 
L 1159 0 
L 581 0 
L 581 3500 
L 1159 3500 
L 1159 2956 
Q 1341 3275 1631 3429 
Q 1922 3584 2338 3584 
Q 2397 3584 2469 3576 
Q 2541 3569 2628 3553 
L 2631 2963 
z
" transform="scale(0.015625)"/>
     <path id="DejaVuSans-65" d="M 3597 1894 
L 3597 1613 
L 953 1613 
Q 991 1019 1311 708 
Q 1631 397 2203 397 
Q 2534 397 2845 478 
Q 3156 559 3463 722 
L 3463 178 
Q 3153 47 2828 -22 
Q 2503 -91 2169 -91 
Q 1331 -91 842 396 
Q 353 884 353 1716 
Q 353 2575 817 3079 
Q 1281 3584 2069 3584 
Q 2775 3584 3186 3129 
Q 3597 2675 3597 1894 
z
M 3022 2063 
Q 3016 2534 2758 2815 
Q 2500 3097 2075 3097 
Q 1594 3097 1305 2825 
Q 1016 2553 972 2059 
L 3022 2063 
z
" transform="scale(0.015625)"/>
     <path id="DejaVuSans-64" d="M 2906 2969 
L 2906 4863 
L 3481 4863 
L 3481 0 
L 2906 0 
L 2906 525 
Q 2725 213 2448 61 
Q 2172 -91 1784 -91 
Q 1150 -91 751 415 
Q 353 922 353 1747 
Q 353 2572 751 3078 
Q 1150 3584 1784 3584 
Q 2172 3584 2448 3432 
Q 2725 3281 2906 2969 
z
M 947 1747 
Q 947 1113 1208 752 
Q 1469 391 1925 391 
Q 2381 391 2643 752 
Q 2906 1113 2906 1747 
Q 2906 2381 2643 2742 
Q 2381 3103 1925 3103 
Q 1469 3103 1208 2742 
Q 947 2381 947 1747 
z
" transform="scale(0.015625)"/>
     <path id="DejaVuSans-68" d="M 3513 2113 
L 3513 0 
L 2938 0 
L 2938 2094 
Q 2938 2591 2744 2837 
Q 2550 3084 2163 3084 
Q 1697 3084 1428 2787 
Q 1159 2491 1159 1978 
L 1159 0 
L 581 0 
L 581 4863 
L 1159 4863 
L 1159 2956 
Q 1366 3272 1645 3428 
Q 1925 3584 2291 3584 
Q 2894 3584 3203 3211 
Q 3513 2838 3513 2113 
z
" transform="scale(0.015625)"/>
     <path id="DejaVuSans-69" d="M 603 3500 
L 1178 3500 
L 1178 0 
L 603 0 
L 603 3500 
z
M 603 4863 
L 1178 4863 
L 1178 4134 
L 603 4134 
L 603 4863 
z
" transform="scale(0.015625)"/>
     <path id="DejaVuSans-66" d="M 2375 4863 
L 2375 4384 
L 1825 4384 
Q 1516 4384 1395 4259 
Q 1275 4134 1275 3809 
L 1275 3500 
L 2222 3500 
L 2222 3053 
L 1275 3053 
L 1275 0 
L 697 0 
L 697 3053 
L 147 3053 
L 147 3500 
L 697 3500 
L 697 3744 
Q 697 4328 969 4595 
Q 1241 4863 1831 4863 
L 2375 4863 
z
" transform="scale(0.015625)"/>
     <path id="DejaVuSans-74" d="M 1172 4494 
L 1172 3500 
L 2356 3500 
L 2356 3053 
L 1172 3053 
L 1172 1153 
Q 1172 725 1289 603 
Q 1406 481 1766 481 
L 2356 481 
L 2356 0 
L 1766 0 
Q 1100 0 847 248 
Q 594 497 594 1153 
L 594 3053 
L 172 3053 
L 172 3500 
L 594 3500 
L 594 4494 
L 1172 4494 
z
" transform="scale(0.015625)"/>
     <path id="DejaVuSans-20" transform="scale(0.015625)"/>
     <path id="DejaVuSans-6c" d="M 603 4863 
L 1178 4863 
L 1178 0 
L 603 0 
L 603 4863 
z
" transform="scale(0.015625)"/>
     <path id="DejaVuSans-6e" d="M 3513 2113 
L 3513 0 
L 2938 0 
L 2938 2094 
Q 2938 2591 2744 2837 
Q 2550 3084 2163 3084 
Q 1697 3084 1428 2787 
Q 1159 2491 1159 1978 
L 1159 0 
L 581 0 
L 581 3500 
L 1159 3500 
L 1159 2956 
Q 1366 3272 1645 3428 
Q 1925 3584 2291 3584 
Q 2894 3584 3203 3211 
Q 3513 2838 3513 2113 
z
" transform="scale(0.015625)"/>
     <path id="DejaVuSans-4d" d="M 628 4666 
L 1569 4666 
L 2759 1491 
L 3956 4666 
L 4897 4666 
L 4897 0 
L 4281 0 
L 4281 4097 
L 3078 897 
L 2444 897 
L 1241 4097 
L 1241 0 
L 628 0 
L 628 4666 
z
" transform="scale(0.015625)"/>
     <path id="DejaVuSans-3d" d="M 678 2906 
L 4684 2906 
L 4684 2381 
L 678 2381 
L 678 2906 
z
M 678 1631 
L 4684 1631 
L 4684 1100 
L 678 1100 
L 678 1631 
z
" transform="scale(0.015625)"/>
     <path id="DejaVuSans-31" d="M 794 531 
L 1825 531 
L 1825 4091 
L 703 3866 
L 703 4441 
L 1819 4666 
L 2450 4666 
L 2450 531 
L 3481 531 
L 3481 0 
L 794 0 
L 794 531 
z
" transform="scale(0.015625)"/>
     <path id="DejaVuSans-2e" d="M 684 794 
L 1344 794 
L 1344 0 
L 684 0 
L 684 794 
z
" transform="scale(0.015625)"/>
     <path id="DejaVuSans-30" d="M 2034 4250 
Q 1547 4250 1301 3770 
Q 1056 3291 1056 2328 
Q 1056 1369 1301 889 
Q 1547 409 2034 409 
Q 2525 409 2770 889 
Q 3016 1369 3016 2328 
Q 3016 3291 2770 3770 
Q 2525 4250 2034 4250 
z
M 2034 4750 
Q 2819 4750 3233 4129 
Q 3647 3509 3647 2328 
Q 3647 1150 3233 529 
Q 2819 -91 2034 -91 
Q 1250 -91 836 529 
Q 422 1150 422 2328 
Q 422 3509 836 4129 
Q 1250 4750 2034 4750 
z
" transform="scale(0.015625)"/>
    </defs>
    <use xlink:href="#DejaVuSans-49"/>
    <use xlink:href="#DejaVuSans-73" x="29.492188"/>
    <use xlink:href="#DejaVuSans-6f" x="81.591797"/>
    <use xlink:href="#DejaVuSans-72" x="142.773438"/>
    <use xlink:href="#DejaVuSans-65" x="181.636719"/>
    <use xlink:href="#DejaVuSans-64" x="243.160156"/>
    <use xlink:href="#DejaVuSans-73" x="306.636719"/>
    <use xlink:href="#DejaVuSans-68" x="358.736328"/>
    <use xlink:href="#DejaVuSans-69" x="422.115234"/>
    <use xlink:href="#DejaVuSans-66" x="449.898438"/>
    <use xlink:href="#DejaVuSans-74" x="483.353516"/>
    <use xlink:href="#DejaVuSans-20" x="522.5625"/>
    <use xlink:href="#DejaVuSans-6c" x="554.349609"/>
    <use xlink:href="#DejaVuSans-69" x="582.132812"/>
    <use xlink:href="#DejaVuSans-6e" x="609.916016"/>
    <use xlink:href="#DejaVuSans-65" x="673.294922"/>
    <use xlink:href="#DejaVuSans-73" x="734.818359"/>
    <use xlink:href="#DejaVuSans-20" x="786.917969"/>
    <use xlink:href="#DejaVuSans-66" x="818.705078"/>
    <use xlink:href="#DejaVuSans-6f" x="853.910156"/>
    <use xlink:href="#DejaVuSans-72" x="915.091797"/>
    <use xlink:href="#DejaVuSans-20" x="956.205078"/>
    <use xlink:href="#DejaVuSans-4d" x="987.992188"/>
    <use xlink:href="#DejaVuSans-3d" x="1074.271484"/>
    <use xlink:href="#DejaVuSans-31" x="1158.060547"/>
    <use xlink:href="#DejaVuSans-2e" x="1221.683594"/>
    <use xlink:href="#DejaVuSans-30" x="1253.470703"/>
   </g>
  </g>
 </g>
 <defs>
  <clipPath id="p2641639a8f">
   <rect x="57.6" y="86.4" width="626.4" height="583.2"/>
  </clipPath>
 </defs>
</svg>
