<?xml version="1.0" encoding="utf-8" standalone="no"?>
<!DOCTYPE svg PUBLIC "-//W3C//DTD SVG 1.1//EN"
  "http://www.w3.org/Graphics/SVG/1.1/DTD/svg11.dtd">
<svg xmlns:xlink="http://www.w3.org/1999/xlink" width="720pt" height="720pt" viewBox="0 0 720 720" xmlns="http://www.w3.org/2000/svg" version="1.1">
 <metadata>
  <rdf:RDF xmlns:dc="http://purl.org/dc/elements/1.1/" xmlns:cc="http://creativecommons.org/ns#" xmlns:rdf="http://www.w3.org/1999/02/22-rdf-syntax-ns#">
   <cc:Work>
    <dc:type rdf:resource="http://purl.org/dc/dcmitype/StillImage"/>
    <dc:date>2023-06-28T19:50:01.067959</dc:date>
    <dc:format>image/svg+xml</dc:format>
    <dc:creator>
     <cc:Agent>
      <dc:title>Matplotlib v3.5.2, https://matplotlib.org/</dc:title>
     </cc:Agent>
    </dc:creator>
   </cc:Work>
  </rdf:RDF>
 </metadata>
 <defs>
  <style type="text/css">*{stroke-linejoin: round; stroke-linecap: butt}</style>
 </defs>
 <g id="figure_1">
  <g id="patch_1">
   <path d="M 0 720 
L 720 720 
L 720 0 
L 0 0 
z
" style="fill: #1a1a1a"/>
  </g>
  <g id="axes_1">
   <g id="line2d_1">
    <path d="M 370.8 382.190339 
L 374.95645 382.105343 
L 375.025369 382.043898 
L 375.486641 382.080751 
L 375.555078 382.011536 
L 376.080603 382.048996 
L 376.14843 381.971077 
L 376.753812 382.007403 
L 376.820852 381.919619 
L 377.526044 381.952002 
L 377.592051 381.852904 
L 377.956916 381.917353 
L 378.022283 381.811942 
L 378.422447 381.876773 
L 378.48707 381.764542 
L 378.926746 381.828985 
L 378.990499 381.709367 
L 379.474289 381.772383 
L 379.537016 381.644744 
L 380.069812 381.704943 
L 380.131325 381.568582 
L 380.718101 381.624115 
L 380.778166 381.478259 
L 381.423587 381.526681 
L 381.481917 381.370495 
L 382.189649 381.408613 
L 382.245887 381.241211 
L 383.017448 381.264921 
L 383.071154 381.0854 
L 383.904123 381.089558 
L 383.954752 380.89706 
L 384.840139 380.875472 
L 384.887031 380.669277 
L 385.805779 380.614962 
L 385.848146 380.394642 
L 387.643002 380.426768 
L 387.681957 380.179537 
L 388.825645 380.058396 
L 388.858224 379.793872 
L 389.97279 379.620746 
L 389.997824 379.339459 
L 391.024034 379.11321 
L 391.040355 378.816573 
L 391.919065 378.541995 
L 391.925613 378.232308 
L 392.612589 377.920049 
L 392.608533 377.600271 
L 393.086365 377.264511 
L 393.071162 376.937868 
L 393.351455 376.592704 
L 393.324857 376.262259 
L 393.44004 375.918697 
L 393.187554 374.268281 
L 391.057602 370.078754 
L 390.468818 369.269882 
L 389.933953 368.449825 
L 389.538615 367.927376 
L 388.951119 367.148012 
L 387.394165 365.478973 
L 386.455295 364.582197 
L 385.470086 363.73698 
L 384.183419 362.748181 
L 381.394832 361.069066 
L 378.69394 359.905058 
L 376.817219 359.316968 
L 374.893505 358.888988 
L 372.937568 358.624858 
L 370.635314 358.526885 
L 368.33467 358.65598 
L 366.060934 359.013598 
L 364.151276 359.495434 
L 362.293376 360.135822 
L 360.500892 360.929191 
L 359.060582 361.694556 
L 356.372965 363.523675 
L 353.511611 366.169419 
L 350.542398 370.078754 
L 350.066296 370.945292 
L 349.732554 371.524253 
L 349.513338 371.801216 
L 349.411137 372.114062 
L 349.19703 372.397973 
L 349.10496 372.715382 
L 348.901103 373.00739 
L 348.563526 373.95602 
L 348.352107 374.596961 
L 348.207297 375.251803 
L 348.248545 376.592704 
L 348.528838 376.937868 
L 348.513635 377.264511 
L 348.991467 377.600271 
L 348.987411 377.920049 
L 349.674387 378.232308 
L 349.680935 378.541995 
L 350.559645 378.816573 
L 350.575966 379.11321 
L 351.602176 379.339459 
L 351.62721 379.620746 
L 352.741776 379.793872 
L 352.774355 380.058396 
L 353.918043 380.179537 
L 353.956998 380.426768 
L 355.751854 380.394642 
L 355.794221 380.614962 
L 356.712969 380.669277 
L 356.759861 380.875472 
L 357.645248 380.89706 
L 357.695877 381.089558 
L 358.528846 381.0854 
L 358.582552 381.264921 
L 359.354113 381.241211 
L 359.410351 381.408613 
L 360.118083 381.370495 
L 360.176413 381.526681 
L 360.821834 381.478259 
L 360.881899 381.624115 
L 361.468675 381.568582 
L 361.530188 381.704943 
L 362.062984 381.644744 
L 362.125711 381.772383 
L 362.609501 381.709367 
L 362.673254 381.828985 
L 363.11293 381.764542 
L 363.177553 381.876773 
L 363.577717 381.811942 
L 363.643084 381.917353 
L 364.407324 381.888506 
L 364.473884 381.981745 
L 365.126362 381.94695 
L 365.193821 382.02964 
L 365.757077 381.992474 
L 365.825228 382.065912 
L 366.316906 382.028586 
L 366.385598 382.093812 
L 366.819515 382.057698 
L 366.888637 382.115552 
L 367.275679 382.081508 
L 367.345147 382.132671 
L 367.69398 382.101232 
L 367.961017 382.151984 
L 368.265204 382.125028 
L 368.513547 382.165769 
L 368.949002 382.148964 
L 369.337169 382.180436 
L 369.869225 382.173814 
L 370.516151 382.18997 
L 370.8 382.190339 
L 370.8 382.190339 
" clip-path="url(#pb825023b5f)" style="fill: none; stroke: #fc4f30; stroke-width: 2"/>
   </g>
   <g id="line2d_2">
    <path d="M 350.867027 369.206136 
L 340.854553 370.867387 
L 327.824337 372.756354 
L 324.714783 373.380659 
L 321.532672 374.261891 
L 319.711557 375.052303 
L 318.89508 375.670357 
L 318.603802 376.192974 
L 318.632637 376.599859 
L 318.895083 377.006544 
L 319.507846 377.473288 
L 320.726033 378.024772 
L 322.334895 378.505333 
L 324.714782 378.993683 
L 327.824334 379.417899 
L 329.351259 379.566953 
L 335.266253 379.884445 
L 340.854549 379.883957 
L 346.079835 379.643513 
L 350.867027 379.177254 
L 350.867027 379.177254 
" clip-path="url(#pb825023b5f)" style="fill: none; stroke: #008fd5"/>
   </g>
   <g id="line2d_3">
    <path d="M 354.556992 364.842696 
L 351.977057 363.387821 
L 349.231476 362.256096 
L 346.373923 361.319514 
L 343.421702 360.510762 
L 340.38206 359.786331 
L 337.2588 359.116081 
L 334.054363 358.479094 
L 330.77064 357.861232 
L 327.409204 357.25339 
L 323.971505 356.65004 
L 320.458884 356.048142 
L 316.872633 355.446272 
L 313.213976 354.844074 
L 309.484113 354.241826 
L 305.68416 353.640197 
L 301.815225 353.040023 
L 297.878379 352.44226 
L 293.874628 351.847871 
L 289.804982 351.257815 
L 285.670372 350.673017 
L 281.471718 350.094366 
L 277.209902 349.522688 
L 272.885768 348.958762 
L 268.500175 348.403325 
L 264.053879 347.857078 
L 259.547662 347.320683 
L 254.982264 346.794755 
L 250.358395 346.279902 
L 245.676755 345.776684 
L 240.938016 345.285649 
L 236.142817 344.807341 
L 231.291826 344.342251 
L 226.385585 343.890906 
L 221.424751 343.453782 
L 216.409879 343.03138 
L 211.341494 342.62418 
L 206.22015 342.232669 
L 201.046406 341.857308 
L 195.820766 341.49861 
L 190.543659 341.157054 
L 185.215659 340.833129 
L 179.837169 340.527353 
L 174.408711 340.240219 
L 168.930664 339.972275 
L 163.403483 339.724065 
L 157.827609 339.496159 
L 152.203439 339.289105 
L 146.531391 339.103532 
L 140.811832 338.940056 
L 135.045211 338.799329 
L 129.231816 338.682061 
L 123.372079 338.588954 
L 117.466315 338.520776 
L 111.514881 338.478314 
L 105.518176 338.46242 
L 99.476422 338.474032 
L 99.476422 338.474035 
L 99.476392 338.474048 
" clip-path="url(#pb825023b5f)" style="fill: none; stroke: #fc4f30"/>
   </g>
   <g id="line2d_4">
    <path d="M 99.476372 413.719862 
L 99.4764 413.719869 
L 99.476429 413.719881 
L 99.47643 413.719885 
L 105.518163 413.685485 
L 111.514885 413.622411 
L 117.466299 413.531527 
L 123.372087 413.413649 
L 129.231801 413.269499 
L 135.045178 413.099792 
L 140.811825 412.905185 
L 146.531377 412.686323 
L 152.203432 412.443761 
L 157.827616 412.178084 
L 163.403466 411.889774 
L 168.930633 411.579354 
L 174.408682 411.247297 
L 179.837184 410.894063 
L 185.215665 410.520043 
L 190.543656 410.12566 
L 195.820765 409.711322 
L 201.046416 409.277366 
L 206.22015 408.824151 
L 211.341483 408.352044 
L 216.409861 407.861344 
L 221.424769 407.352358 
L 226.385589 406.825395 
L 231.291819 406.280728 
L 236.142832 405.718633 
L 240.938034 405.139387 
L 245.676742 404.543209 
L 250.358393 403.930378 
L 254.982267 403.301108 
L 259.54767 402.655624 
L 264.053868 401.994134 
L 268.500186 401.316867 
L 272.885783 400.623989 
L 277.209898 399.915716 
L 281.471714 399.192209 
L 285.670369 398.453658 
L 289.804994 397.700223 
L 293.874631 396.932045 
L 297.878378 396.149284 
L 301.815227 395.352073 
L 305.684155 394.54053 
L 309.48411 393.714769 
L 313.213982 392.874879 
L 316.872632 392.020927 
L 320.458888 391.152965 
L 323.971503 390.270993 
L 327.409199 389.374967 
L 330.770635 388.464774 
L 334.054369 387.54018 
L 337.258799 386.600774 
L 340.382056 385.645847 
L 343.421705 384.674156 
L 346.373921 383.683387 
L 349.231476 382.668908 
L 351.977056 381.620025 
L 354.556992 380.505507 
" clip-path="url(#pb825023b5f)" style="fill: none; stroke: #e5ae38"/>
   </g>
   <g id="line2d_5">
    <path d="M 358.246956 381.149788 
L 357.874276 382.567905 
L 357.6084 383.894417 
L 357.481596 385.183916 
L 357.492144 386.453539 
L 357.631444 387.737903 
L 357.890083 388.981602 
L 358.259342 390.219206 
L 358.731535 391.451548 
L 359.299954 392.679163 
L 359.958769 393.9024 
L 360.702881 395.121516 
L 361.527815 396.336675 
L 362.429617 397.548023 
L 363.404772 398.755634 
L 364.450138 399.959585 
L 365.562884 401.159938 
L 376.626036 410.63653 
L 378.25284 411.805532 
L 379.929135 412.971097 
L 381.653765 414.133219 
L 383.425646 415.291919 
L 385.243753 416.447165 
L 387.107119 417.598976 
L 389.014837 418.74734 
L 390.96604 419.892259 
L 392.959921 421.033728 
L 394.995683 422.171753 
L 397.072608 423.30629 
L 399.18998 424.437396 
L 401.347139 425.56502 
L 403.543436 426.689151 
L 405.778264 427.809821 
L 408.051035 428.927004 
L 410.361186 430.040701 
L 412.708185 431.150898 
L 415.091504 432.257591 
L 417.510657 433.360767 
L 419.965155 434.460439 
L 422.454549 435.556571 
L 424.978389 436.649189 
L 427.536252 437.738261 
L 430.127685 438.823791 
L 432.752358 439.905764 
L 435.40984 440.984183 
L 438.099773 442.059017 
L 440.821791 443.130304 
L 443.57553 444.197983 
L 446.360658 445.262095 
L 449.176853 446.322614 
L 449.176853 446.322614 
L 449.176882 446.322585 
" clip-path="url(#pb825023b5f)" style="fill: none; stroke: #6d904f"/>
   </g>
   <g id="line2d_6">
    <path d="M 449.176883 285.764762 
L 449.176879 285.764759 
L 449.176839 285.76473 
L 449.176839 285.76473 
L 446.360673 286.514015 
L 443.575527 287.26935 
L 440.821787 288.031589 
L 438.099774 288.801478 
L 435.409846 289.579923 
L 432.752364 290.367761 
L 430.127702 291.165908 
L 427.536239 291.975239 
L 424.978383 292.796704 
L 422.454546 293.631305 
L 419.965168 294.47994 
L 417.510657 295.343627 
L 415.091502 296.223332 
L 412.708184 297.120007 
L 410.361187 298.034629 
L 408.051035 298.96814 
L 405.778267 299.92149 
L 403.543432 300.895626 
L 401.347137 301.891407 
L 399.189981 302.909733 
L 397.072606 303.951454 
L 394.995687 305.017378 
L 392.959915 306.108372 
L 390.966041 307.225151 
L 389.014833 308.368474 
L 387.107121 309.539125 
L 385.243754 310.737715 
L 383.425645 311.964993 
L 381.653769 313.2216 
L 379.929133 314.508148 
L 378.25284 315.825296 
L 376.626037 317.173612 
L 375.049968 318.55375 
L 373.525945 319.96631 
L 372.055402 321.411876 
L 370.639865 322.891092 
L 370.639865 322.891092 
L 370.639862 322.891092 
L 370.639862 322.891092 
L 370.639862 322.891092 
L 370.639795 322.891093 
L 370.639795 322.891093 
L 370.639778 322.891093 
L 369.280971 324.4046 
L 367.980525 325.953082 
L 366.740452 327.537262 
L 365.562884 329.157924 
L 364.450138 330.815919 
L 363.404776 332.512205 
L 362.429621 334.247887 
L 361.527814 336.024204 
L 360.702878 337.842637 
L 359.958767 339.704952 
L 359.299954 341.613298 
L 358.731534 343.570349 
L 358.259343 345.579501 
L 357.890086 347.645207 
L 357.631447 349.773525 
L 357.492144 351.973051 
L 357.481593 354.256782 
L 357.6084 356.646203 
L 357.874279 359.182022 
L 358.246957 361.961751 
" clip-path="url(#pb825023b5f)" style="fill: none; stroke: #8b8b8b"/>
   </g>
   <g id="line2d_7">
    <path d="M 361.936921 381.732325 
L 371.562585 386.967575 
L 374.880834 388.111668 
L 378.521372 389.203313 
L 382.46432 390.261868 
L 386.692431 391.253924 
L 395.946034 393.079308 
L 406.182994 394.683293 
L 417.325439 396.050883 
L 429.310546 397.163119 
L 442.086401 397.996146 
L 455.609353 398.519531 
L 469.842001 398.693341 
L 484.751892 398.463156 
L 492.451786 398.17344 
L 500.310601 397.750649 
L 508.325273 397.178126 
L 516.492897 396.434078 
L 524.810742 395.4889 
L 533.276216 394.300325 
L 541.886844 392.803722 
L 550.64027 390.889648 
L 555.0698 389.716068 
L 559.534218 388.339396 
L 564.033229 386.674084 
L 569.705296 383.881771 
L 571.98901 382.315246 
L 573.707368 380.726013 
L 574.281214 380.026653 
L 574.85559 379.135677 
L 575.520341 377.136288 
L 575.529354 376.086833 
L 575.430486 375.488082 
L 574.85558 373.997332 
L 573.707369 372.392451 
L 573.134043 371.791761 
L 571.989 370.781074 
L 569.705288 369.184532 
L 568.566606 368.514212 
L 564.03324 366.314372 
L 559.534226 364.583728 
L 555.0698 363.138818 
L 550.640242 361.893904 
L 541.886825 359.827082 
L 533.276213 358.162588 
L 524.810747 356.78867 
L 516.492889 355.637901 
L 508.325283 354.664658 
L 492.451804 353.122614 
L 477.214142 351.958429 
L 442.086415 349.585514 
L 429.310545 348.367814 
L 417.325443 346.82497 
L 406.182996 345.263602 
L 400.94687 344.685773 
L 395.946035 344.358114 
L 391.1907 344.339824 
L 386.69243 344.664883 
L 382.464321 345.347688 
L 378.521369 346.390036 
L 374.880833 347.787003 
L 371.562585 349.531445 
L 368.589263 351.617811 
L 365.9853 354.047094 
L 365.9853 354.047094 
L 363.771501 356.837524 
L 361.936921 360.061719 
L 361.936921 360.061719 
" clip-path="url(#pb825023b5f)" style="fill: none; stroke: #810f7c"/>
   </g>
   <g id="line2d_8">
    <path d="M 365.626886 382.069129 
L 385.633028 386.363235 
L 392.130214 387.006643 
L 399.152658 387.460092 
L 406.669301 387.700282 
L 414.653328 387.694069 
L 423.081463 387.392232 
L 431.933304 386.715645 
L 441.190862 385.518618 
L 450.838176 383.453486 
L 453.309193 382.695563 
L 455.803449 381.76082 
L 458.320753 380.523123 
L 461.020413 378.246392 
L 461.339699 377.698703 
L 461.609375 376.768911 
L 461.579401 375.996246 
L 461.339707 375.259476 
L 460.860897 374.477016 
L 458.320748 372.312687 
L 455.803453 370.964258 
L 453.309186 369.910938 
L 450.838177 369.025807 
L 441.190871 366.344943 
L 423.081454 362.388148 
L 414.653325 360.301421 
L 406.669297 357.868866 
L 399.152658 355.386369 
L 392.130214 353.492294 
L 385.633027 352.585024 
L 379.696935 352.732951 
L 374.362238 353.873691 
L 374.362238 353.873691 
L 369.668717 355.93491 
L 365.626885 358.904229 
L 365.626885 358.904229 
" clip-path="url(#pb825023b5f)" style="fill: none; stroke: #008fd5"/>
   </g>
   <g id="line2d_9">
    <path d="M 369.31685 382.219462 
L 399.70347 384.363421 
L 404.447613 384.104601 
L 409.379614 383.656421 
L 414.493546 382.956315 
L 421.13352 381.516773 
L 423.864501 380.620372 
L 425.940297 379.692111 
L 427.337158 378.812697 
L 428.391576 377.755713 
L 428.788468 376.939212 
L 428.858841 376.222584 
L 428.744327 375.672234 
L 428.215436 374.723336 
L 427.337162 373.822096 
L 425.940301 372.815964 
L 423.864503 371.67987 
L 421.133521 370.467974 
L 419.783945 369.931069 
L 409.379609 366.080658 
L 404.447621 364.009669 
L 399.703468 361.779084 
L 390.804607 357.917398 
L 382.739167 356.086887 
L 375.565943 356.333251 
L 369.31685 358.376252 
L 369.31685 358.376252 
" clip-path="url(#pb825023b5f)" style="fill: none; stroke: #fc4f30"/>
   </g>
   <g id="line2d_10">
    <path d="M 373.006815 382.203378 
L 381.46316 382.855243 
L 391.11608 382.920459 
L 401.912276 381.927114 
L 413.870575 377.639442 
L 414.257853 376.98128 
L 414.396128 376.258624 
L 414.306331 375.679771 
L 413.967302 374.965592 
L 413.773907 374.691275 
L 401.91228 367.452253 
L 391.116089 361.191887 
L 381.46316 358.093065 
L 373.006815 358.433043 
L 373.006815 358.433043 
" clip-path="url(#pb825023b5f)" style="fill: none; stroke: #e5ae38"/>
   </g>
   <g id="line2d_11">
    <path d="M 376.696779 382.018881 
L 381.843904 382.134053 
L 387.360376 382.085607 
L 393.246406 381.59513 
L 399.493021 380.507706 
L 401.109646 380.071248 
L 402.747869 379.513979 
L 404.407503 378.747254 
L 406.088346 377.381347 
L 406.194098 377.226021 
L 406.194098 377.22602 
L 406.299929 377.040843 
L 406.299929 377.040843 
L 406.299933 377.040828 
L 406.405848 376.799753 
L 406.405848 376.799753 
L 406.511845 376.350715 
L 406.513505 376.334828 
L 406.513505 376.334825 
L 406.515159 376.317516 
L 406.515159 376.317516 
L 406.516817 376.29808 
L 406.516817 376.298079 
L 406.518474 376.27566 
L 406.519302 376.262797 
L 406.519302 376.262794 
L 406.52013 376.248225 
L 406.52013 376.248225 
L 406.52013 376.248224 
L 406.520132 376.24817 
L 406.52096 376.231015 
L 406.52096 376.231012 
L 406.521787 376.209082 
L 406.521993 376.20219 
L 406.521995 376.202067 
L 406.522201 376.194147 
L 406.522202 376.194083 
L 406.522408 376.18437 
L 406.522408 376.184303 
L 406.522616 376.170094 
L 406.522642 376.167555 
L 406.522643 376.167341 
L 406.522668 376.164553 
L 406.522669 376.164406 
L 406.522669 376.164334 
L 406.522692 376.161137 
L 406.522694 376.160766 
L 406.52272 376.154563 
L 406.522721 376.154414 
L 406.522722 376.153803 
L 406.522722 376.153571 
L 406.522724 376.152809 
L 406.522725 376.152118 
L 406.522725 376.151962 
L 406.522726 376.151112 
L 406.522726 376.149909 
L 406.522726 376.149048 
L 406.522726 376.14846 
L 406.522725 376.14822 
L 406.522726 376.148039 
L 406.522726 376.148038 
L 406.522726 376.148037 
L 406.522725 376.146928 
L 406.522723 376.145975 
L 406.522721 376.145644 
L 406.522721 376.145019 
L 406.522719 376.144066 
L 406.522693 376.13911 
L 406.522694 376.138879 
L 406.522668 376.135096 
L 406.522668 376.134943 
L 406.522668 376.134941 
L 406.522642 376.132017 
L 406.522642 376.131862 
L 406.522616 376.129253 
L 406.522409 376.115305 
L 406.522409 376.115151 
L 406.522202 376.105416 
L 406.522202 376.105338 
L 406.521994 376.097398 
L 406.521995 376.097323 
L 406.521787 376.090245 
L 406.520959 376.068168 
L 406.520959 376.068166 
L 406.52013 376.050853 
L 406.52013 376.050851 
L 406.52013 376.050777 
L 406.52013 376.050777 
L 406.519302 376.036039 
L 406.519302 376.036039 
L 406.518473 376.023019 
L 406.516816 376.00026 
L 406.516816 376.000259 
L 406.51516 375.980474 
L 406.51516 375.980473 
L 406.513503 375.962722 
L 406.513503 375.962722 
L 406.511846 375.94653 
L 406.405848 375.474405 
L 406.405848 375.474405 
L 406.299931 375.209987 
L 406.299931 375.209985 
L 406.299931 375.209985 
L 406.194095 375.001201 
L 406.194095 375.001201 
L 406.088342 374.822026 
L 404.407503 373.036787 
L 402.747871 371.770217 
L 401.109645 370.620151 
L 399.493018 369.491336 
L 393.246405 364.979779 
L 387.360384 361.511937 
L 381.843905 359.625861 
L 376.696779 359.079229 
" clip-path="url(#pb825023b5f)" style="fill: none; stroke: #6d904f"/>
   </g>
   <g id="line2d_12">
    <path d="M 380.051293 381.684222 
L 383.056837 381.589938 
L 386.169581 381.360647 
L 389.391114 381.244933 
L 394.427256 380.44509 
L 396.159875 380.031115 
L 397.919165 379.492086 
L 400.155484 378.490602 
L 401.061499 377.851829 
L 401.745298 377.059351 
L 402.016979 376.300237 
L 401.988353 375.607673 
L 401.745297 374.931434 
L 401.516959 374.532268 
L 400.607676 373.405507 
L 399.704929 372.522303 
L 394.427259 367.982918 
L 392.721489 366.571113 
L 389.391113 364.118227 
L 386.169576 362.272315 
L 383.056834 361.000125 
L 380.051293 360.223864 
L 380.051293 360.223864 
" clip-path="url(#pb825023b5f)" style="fill: none; stroke: #8b8b8b"/>
   </g>
   <g id="line2d_13">
    <path d="M 383.741257 381.069049 
L 387.271973 380.891821 
L 390.927814 380.317117 
L 394.710153 379.321024 
L 398.618712 376.422141 
L 398.634225 376.358697 
L 398.634225 376.358696 
L 398.649741 376.283594 
L 398.649741 376.283593 
L 398.649741 376.283592 
L 398.649741 376.283592 
L 398.66526 376.186958 
L 398.66526 376.186956 
L 398.680779 376.017358 
L 398.681264 376.00681 
L 398.681264 376.006809 
L 398.681749 375.994799 
L 398.681749 375.994797 
L 398.682234 375.980464 
L 398.682234 375.980464 
L 398.682718 375.961619 
L 398.682779 375.958645 
L 398.68278 375.958577 
L 398.682839 375.955444 
L 398.682839 375.955444 
L 398.6829 375.951874 
L 398.6829 375.951874 
L 398.682962 375.947823 
L 398.682991 375.945729 
L 398.682991 375.945728 
L 398.683022 375.943342 
L 398.683022 375.943307 
L 398.683023 375.943239 
L 398.683052 375.940658 
L 398.683052 375.940658 
L 398.683083 375.937601 
L 398.683097 375.936097 
L 398.683097 375.936025 
L 398.683111 375.93437 
L 398.683112 375.934192 
L 398.683114 375.933979 
L 398.683114 375.933907 
L 398.683128 375.932063 
L 398.683128 375.932028 
L 398.683142 375.929738 
L 398.683147 375.928729 
L 398.68315 375.928189 
L 398.683151 375.927788 
L 398.683154 375.927174 
L 398.683159 375.92568 
L 398.683162 375.925172 
L 398.683162 375.925025 
L 398.683163 375.924805 
L 398.683166 375.923705 
L 398.683167 375.923412 
L 398.683167 375.923116 
L 398.683168 375.922895 
L 398.68317 375.922047 
L 398.68317 375.921713 
L 398.683172 375.92034 
L 398.683171 375.916232 
L 398.683171 375.914652 
L 398.68317 375.914494 
L 398.683168 375.914104 
L 398.683167 375.913123 
L 398.683167 375.913085 
L 398.683166 375.912628 
L 398.683164 375.912201 
L 398.683162 375.911585 
L 398.683162 375.911211 
L 398.683158 375.910544 
L 398.683155 375.909504 
L 398.683151 375.908834 
L 398.683151 375.908761 
L 398.683147 375.907869 
L 398.683143 375.907538 
L 398.683128 375.904611 
L 398.683128 375.90461 
L 398.683113 375.902802 
L 398.683113 375.902728 
L 398.683113 375.902727 
L 398.683113 375.902393 
L 398.683098 375.90055 
L 398.683098 375.900474 
L 398.683082 375.898782 
L 398.683052 375.895919 
L 398.683052 375.895845 
L 398.683022 375.893469 
L 398.683022 375.893395 
L 398.683022 375.893394 
L 398.682992 375.89102 
L 398.682991 375.890982 
L 398.682961 375.888723 
L 398.682901 375.884761 
L 398.682901 375.884687 
L 398.68284 375.881212 
L 398.68284 375.881177 
L 398.682779 375.878039 
L 398.682779 375.877965 
L 398.682719 375.874979 
L 398.682234 375.855929 
L 398.682234 375.855855 
L 398.681749 375.841344 
L 398.681749 375.841308 
L 398.681264 375.829156 
L 398.681264 375.829155 
L 398.680779 375.81836 
L 398.665259 375.642502 
L 398.665259 375.642502 
L 398.649741 375.539576 
L 398.649741 375.539576 
L 398.649741 375.539575 
L 398.649741 375.539574 
L 398.634224 375.458135 
L 398.634224 375.458134 
L 398.618711 375.388368 
L 394.71015 370.39311 
L 390.927817 366.816291 
L 387.271969 364.074573 
L 383.741257 362.212819 
" clip-path="url(#pb825023b5f)" style="fill: none; stroke: #810f7c"/>
   </g>
   <g id="line2d_14">
    <path d="M 387.431222 380.399345 
L 389.441446 380.021735 
L 391.487106 379.504774 
L 393.56858 378.750456 
L 395.819598 377.181476 
L 396.221063 376.44189 
L 396.320056 375.74255 
L 396.221063 375.104104 
L 395.819598 374.146288 
L 395.686056 373.911294 
L 393.568577 371.120373 
L 391.487108 368.820841 
L 389.441447 366.845762 
L 387.431222 365.219689 
L 387.431222 365.219689 
" clip-path="url(#pb825023b5f)" style="fill: none; stroke: #008fd5"/>
   </g>
  </g>
  <g id="text_1">
   <!-- Isoredshift lines for M=1.0 -->
   <g transform="translate(249.365437 27.165375)scale(0.168 -0.168)">
    <defs>
     <path id="DejaVuSans-49" d="M 628 4666 
L 1259 4666 
L 1259 0 
L 628 0 
L 628 4666 
z
" transform="scale(0.015625)"/>
     <path id="DejaVuSans-73" d="M 2834 3397 
L 2834 2853 
Q 2591 2978 2328 3040 
Q 2066 3103 1784 3103 
Q 1356 3103 1142 2972 
Q 928 2841 928 2578 
Q 928 2378 1081 2264 
Q 1234 2150 1697 2047 
L 1894 2003 
Q 2506 1872 2764 1633 
Q 3022 1394 3022 966 
Q 3022 478 2636 193 
Q 2250 -91 1575 -91 
Q 1294 -91 989 -36 
Q 684 19 347 128 
L 347 722 
Q 666 556 975 473 
Q 1284 391 1588 391 
Q 1994 391 2212 530 
Q 2431 669 2431 922 
Q 2431 1156 2273 1281 
Q 2116 1406 1581 1522 
L 1381 1569 
Q 847 1681 609 1914 
Q 372 2147 372 2553 
Q 372 3047 722 3315 
Q 1072 3584 1716 3584 
Q 2034 3584 2315 3537 
Q 2597 3491 2834 3397 
z
" transform="scale(0.015625)"/>
     <path id="DejaVuSans-6f" d="M 1959 3097 
Q 1497 3097 1228 2736 
Q 959 2375 959 1747 
Q 959 1119 1226 758 
Q 1494 397 1959 397 
Q 2419 397 2687 759 
Q 2956 1122 2956 1747 
Q 2956 2369 2687 2733 
Q 2419 3097 1959 3097 
z
M 1959 3584 
Q 2709 3584 3137 3096 
Q 3566 2609 3566 1747 
Q 3566 888 3137 398 
Q 2709 -91 1959 -91 
Q 1206 -91 779 398 
Q 353 888 353 1747 
Q 353 2609 779 3096 
Q 1206 3584 1959 3584 
z
" transform="scale(0.015625)"/>
     <path id="DejaVuSans-72" d="M 2631 2963 
Q 2534 3019 2420 3045 
Q 2306 3072 2169 3072 
Q 1681 3072 1420 2755 
Q 1159 2438 1159 1844 
L 1159 0 
L 581 0 
L 581 3500 
L 1159 3500 
L 1159 2956 
Q 1341 3275 1631 3429 
Q 1922 3584 2338 3584 
Q 2397 3584 2469 3576 
Q 2541 3569 2628 3553 
L 2631 2963 
z
" transform="scale(0.015625)"/>
     <path id="DejaVuSans-65" d="M 3597 1894 
L 3597 1613 
L 953 1613 
Q 991 1019 1311 708 
Q 1631 397 2203 397 
Q 2534 397 2845 478 
Q 3156 559 3463 722 
L 3463 178 
Q 3153 47 2828 -22 
Q 2503 -91 2169 -91 
Q 1331 -91 842 396 
Q 353 884 353 1716 
Q 353 2575 817 3079 
Q 1281 3584 2069 3584 
Q 2775 3584 3186 3129 
Q 3597 2675 3597 1894 
z
M 3022 2063 
Q 3016 2534 2758 2815 
Q 2500 3097 2075 3097 
Q 1594 3097 1305 2825 
Q 1016 2553 972 2059 
L 3022 2063 
z
" transform="scale(0.015625)"/>
     <path id="DejaVuSans-64" d="M 2906 2969 
L 2906 4863 
L 3481 4863 
L 3481 0 
L 2906 0 
L 2906 525 
Q 2725 213 2448 61 
Q 2172 -91 1784 -91 
Q 1150 -91 751 415 
Q 353 922 353 1747 
Q 353 2572 751 3078 
Q 1150 3584 1784 3584 
Q 2172 3584 2448 3432 
Q 2725 3281 2906 2969 
z
M 947 1747 
Q 947 1113 1208 752 
Q 1469 391 1925 391 
Q 2381 391 2643 752 
Q 2906 1113 2906 1747 
Q 2906 2381 2643 2742 
Q 2381 3103 1925 3103 
Q 1469 3103 1208 2742 
Q 947 2381 947 1747 
z
" transform="scale(0.015625)"/>
     <path id="DejaVuSans-68" d="M 3513 2113 
L 3513 0 
L 2938 0 
L 2938 2094 
Q 2938 2591 2744 2837 
Q 2550 3084 2163 3084 
Q 1697 3084 1428 2787 
Q 1159 2491 1159 1978 
L 1159 0 
L 581 0 
L 581 4863 
L 1159 4863 
L 1159 2956 
Q 1366 3272 1645 3428 
Q 1925 3584 2291 3584 
Q 2894 3584 3203 3211 
Q 3513 2838 3513 2113 
z
" transform="scale(0.015625)"/>
     <path id="DejaVuSans-69" d="M 603 3500 
L 1178 3500 
L 1178 0 
L 603 0 
L 603 3500 
z
M 603 4863 
L 1178 4863 
L 1178 4134 
L 603 4134 
L 603 4863 
z
" transform="scale(0.015625)"/>
     <path id="DejaVuSans-66" d="M 2375 4863 
L 2375 4384 
L 1825 4384 
Q 1516 4384 1395 4259 
Q 1275 4134 1275 3809 
L 1275 3500 
L 2222 3500 
L 2222 3053 
L 1275 3053 
L 1275 0 
L 697 0 
L 697 3053 
L 147 3053 
L 147 3500 
L 697 3500 
L 697 3744 
Q 697 4328 969 4595 
Q 1241 4863 1831 4863 
L 2375 4863 
z
" transform="scale(0.015625)"/>
     <path id="DejaVuSans-74" d="M 1172 4494 
L 1172 3500 
L 2356 3500 
L 2356 3053 
L 1172 3053 
L 1172 1153 
Q 1172 725 1289 603 
Q 1406 481 1766 481 
L 2356 481 
L 2356 0 
L 1766 0 
Q 1100 0 847 248 
Q 594 497 594 1153 
L 594 3053 
L 172 3053 
L 172 3500 
L 594 3500 
L 594 4494 
L 1172 4494 
z
" transform="scale(0.015625)"/>
     <path id="DejaVuSans-20" transform="scale(0.015625)"/>
     <path id="DejaVuSans-6c" d="M 603 4863 
L 1178 4863 
L 1178 0 
L 603 0 
L 603 4863 
z
" transform="scale(0.015625)"/>
     <path id="DejaVuSans-6e" d="M 3513 2113 
L 3513 0 
L 2938 0 
L 2938 2094 
Q 2938 2591 2744 2837 
Q 2550 3084 2163 3084 
Q 1697 3084 1428 2787 
Q 1159 2491 1159 1978 
L 1159 0 
L 581 0 
L 581 3500 
L 1159 3500 
L 1159 2956 
Q 1366 3272 1645 3428 
Q 1925 3584 2291 3584 
Q 2894 3584 3203 3211 
Q 3513 2838 3513 2113 
z
" transform="scale(0.015625)"/>
     <path id="DejaVuSans-4d" d="M 628 4666 
L 1569 4666 
L 2759 1491 
L 3956 4666 
L 4897 4666 
L 4897 0 
L 4281 0 
L 4281 4097 
L 3078 897 
L 2444 897 
L 1241 4097 
L 1241 0 
L 628 0 
L 628 4666 
z
" transform="scale(0.015625)"/>
     <path id="DejaVuSans-3d" d="M 678 2906 
L 4684 2906 
L 4684 2381 
L 678 2381 
L 678 2906 
z
M 678 1631 
L 4684 1631 
L 4684 1100 
L 678 1100 
L 678 1631 
z
" transform="scale(0.015625)"/>
     <path id="DejaVuSans-31" d="M 794 531 
L 1825 531 
L 1825 4091 
L 703 3866 
L 703 4441 
L 1819 4666 
L 2450 4666 
L 2450 531 
L 3481 531 
L 3481 0 
L 794 0 
L 794 531 
z
" transform="scale(0.015625)"/>
     <path id="DejaVuSans-2e" d="M 684 794 
L 1344 794 
L 1344 0 
L 684 0 
L 684 794 
z
" transform="scale(0.015625)"/>
     <path id="DejaVuSans-30" d="M 2034 4250 
Q 1547 4250 1301 3770 
Q 1056 3291 1056 2328 
Q 1056 1369 1301 889 
Q 1547 409 2034 409 
Q 2525 409 2770 889 
Q 3016 1369 3016 2328 
Q 3016 3291 2770 3770 
Q 2525 4250 2034 4250 
z
M 2034 4750 
Q 2819 4750 3233 4129 
Q 3647 3509 3647 2328 
Q 3647 1150 3233 529 
Q 2819 -91 2034 -91 
Q 1250 -91 836 529 
Q 422 1150 422 2328 
Q 422 3509 836 4129 
Q 1250 4750 2034 4750 
z
" transform="scale(0.015625)"/>
    </defs>
    <use xlink:href="#DejaVuSans-49"/>
    <use xlink:href="#DejaVuSans-73" x="29.492188"/>
    <use xlink:href="#DejaVuSans-6f" x="81.591797"/>
    <use xlink:href="#DejaVuSans-72" x="142.773438"/>
    <use xlink:href="#DejaVuSans-65" x="181.636719"/>
    <use xlink:href="#DejaVuSans-64" x="243.160156"/>
    <use xlink:href="#DejaVuSans-73" x="306.636719"/>
    <use xlink:href="#DejaVuSans-68" x="358.736328"/>
    <use xlink:href="#DejaVuSans-69" x="422.115234"/>
    <use xlink:href="#DejaVuSans-66" x="449.898438"/>
    <use xlink:href="#DejaVuSans-74" x="483.353516"/>
    <use xlink:href="#DejaVuSans-20" x="522.5625"/>
    <use xlink:href="#DejaVuSans-6c" x="554.349609"/>
    <use xlink:href="#DejaVuSans-69" x="582.132812"/>
    <use xlink:href="#DejaVuSans-6e" x="609.916016"/>
    <use xlink:href="#DejaVuSans-65" x="673.294922"/>
    <use xlink:href="#DejaVuSans-73" x="734.818359"/>
    <use xlink:href="#DejaVuSans-20" x="786.917969"/>
    <use xlink:href="#DejaVuSans-66" x="818.705078"/>
    <use xlink:href="#DejaVuSans-6f" x="853.910156"/>
    <use xlink:href="#DejaVuSans-72" x="915.091797"/>
    <use xlink:href="#DejaVuSans-20" x="956.205078"/>
    <use xlink:href="#DejaVuSans-4d" x="987.992188"/>
    <use xlink:href="#DejaVuSans-3d" x="1074.271484"/>
    <use xlink:href="#DejaVuSans-31" x="1158.060547"/>
    <use xlink:href="#DejaVuSans-2e" x="1221.683594"/>
    <use xlink:href="#DejaVuSans-30" x="1253.470703"/>
   </g>
  </g>
 </g>
 <defs>
  <clipPath id="pb825023b5f">
   <rect x="57.6" y="86.4" width="626.4" height="583.2"/>
  </clipPath>
 </defs>
</svg>
