<?xml version="1.0" encoding="utf-8" standalone="no"?>
<!DOCTYPE svg PUBLIC "-//W3C//DTD SVG 1.1//EN"
  "http://www.w3.org/Graphics/SVG/1.1/DTD/svg11.dtd">
<svg xmlns:xlink="http://www.w3.org/1999/xlink" width="720pt" height="720pt" viewBox="0 0 720 720" xmlns="http://www.w3.org/2000/svg" version="1.1">
 <metadata>
  <rdf:RDF xmlns:dc="http://purl.org/dc/elements/1.1/" xmlns:cc="http://creativecommons.org/ns#" xmlns:rdf="http://www.w3.org/1999/02/22-rdf-syntax-ns#">
   <cc:Work>
    <dc:type rdf:resource="http://purl.org/dc/dcmitype/StillImage"/>
    <dc:date>2023-06-28T19:56:52.807785</dc:date>
    <dc:format>image/svg+xml</dc:format>
    <dc:creator>
     <cc:Agent>
      <dc:title>Matplotlib v3.5.2, https://matplotlib.org/</dc:title>
     </cc:Agent>
    </dc:creator>
   </cc:Work>
  </rdf:RDF>
 </metadata>
 <defs>
  <style type="text/css">*{stroke-linejoin: round; stroke-linecap: butt}</style>
 </defs>
 <g id="figure_1">
  <g id="patch_1">
   <path d="M 0 720 
L 720 720 
L 720 0 
L 0 0 
z
" style="fill: #1a1a1a"/>
  </g>
  <g id="axes_1">
   <g id="line2d_1">
    <path d="M 370.8 382.190339 
L 374.95645 382.105343 
L 375.025369 382.043898 
L 375.486641 382.080751 
L 375.555078 382.011536 
L 376.080603 382.048996 
L 376.14843 381.971077 
L 376.753812 382.007403 
L 376.820852 381.919619 
L 377.526044 381.952002 
L 377.592051 381.852904 
L 377.956916 381.917353 
L 378.022283 381.811942 
L 378.422447 381.876773 
L 378.48707 381.764542 
L 378.926746 381.828985 
L 378.990499 381.709367 
L 379.474289 381.772383 
L 379.537016 381.644744 
L 380.069812 381.704943 
L 380.131325 381.568582 
L 380.718101 381.624115 
L 380.778166 381.478259 
L 381.423587 381.526681 
L 381.481917 381.370495 
L 382.189649 381.408613 
L 382.245887 381.241211 
L 383.017448 381.264921 
L 383.071154 381.0854 
L 383.904123 381.089558 
L 383.954752 380.89706 
L 384.840139 380.875472 
L 384.887031 380.669277 
L 385.805779 380.614962 
L 385.848146 380.394642 
L 387.643002 380.426768 
L 387.681957 380.179537 
L 388.825645 380.058396 
L 388.858224 379.793872 
L 389.97279 379.620746 
L 389.997824 379.339459 
L 391.024034 379.11321 
L 391.040355 378.816573 
L 391.919065 378.541995 
L 391.925613 378.232308 
L 392.612589 377.920049 
L 392.608533 377.600271 
L 393.086365 377.264511 
L 393.071162 376.937868 
L 393.351455 376.592704 
L 393.324857 376.262259 
L 393.44004 375.918697 
L 393.187554 374.268281 
L 391.057602 370.078754 
L 390.468818 369.269882 
L 389.933953 368.449825 
L 389.538615 367.927376 
L 388.951119 367.148012 
L 387.394165 365.478973 
L 386.455295 364.582197 
L 385.470086 363.73698 
L 384.183419 362.748181 
L 381.394832 361.069066 
L 378.69394 359.905058 
L 376.817219 359.316968 
L 374.893505 358.888988 
L 372.937568 358.624858 
L 370.635314 358.526885 
L 368.33467 358.65598 
L 366.060934 359.013598 
L 364.151276 359.495434 
L 362.293376 360.135822 
L 360.500892 360.929191 
L 359.060582 361.694556 
L 356.372965 363.523675 
L 353.511611 366.169419 
L 350.542398 370.078754 
L 350.066296 370.945292 
L 349.732554 371.524253 
L 349.513338 371.801216 
L 349.411137 372.114062 
L 349.19703 372.397973 
L 349.10496 372.715382 
L 348.901103 373.00739 
L 348.563526 373.95602 
L 348.352107 374.596961 
L 348.207297 375.251803 
L 348.248545 376.592704 
L 348.528838 376.937868 
L 348.513635 377.264511 
L 348.991467 377.600271 
L 348.987411 377.920049 
L 349.674387 378.232308 
L 349.680935 378.541995 
L 350.559645 378.816573 
L 350.575966 379.11321 
L 351.602176 379.339459 
L 351.62721 379.620746 
L 352.741776 379.793872 
L 352.774355 380.058396 
L 353.918043 380.179537 
L 353.956998 380.426768 
L 355.751854 380.394642 
L 355.794221 380.614962 
L 356.712969 380.669277 
L 356.759861 380.875472 
L 357.645248 380.89706 
L 357.695877 381.089558 
L 358.528846 381.0854 
L 358.582552 381.264921 
L 359.354113 381.241211 
L 359.410351 381.408613 
L 360.118083 381.370495 
L 360.176413 381.526681 
L 360.821834 381.478259 
L 360.881899 381.624115 
L 361.468675 381.568582 
L 361.530188 381.704943 
L 362.062984 381.644744 
L 362.125711 381.772383 
L 362.609501 381.709367 
L 362.673254 381.828985 
L 363.11293 381.764542 
L 363.177553 381.876773 
L 363.577717 381.811942 
L 363.643084 381.917353 
L 364.407324 381.888506 
L 364.473884 381.981745 
L 365.126362 381.94695 
L 365.193821 382.02964 
L 365.757077 381.992474 
L 365.825228 382.065912 
L 366.316906 382.028586 
L 366.385598 382.093812 
L 366.819515 382.057698 
L 366.888637 382.115552 
L 367.275679 382.081508 
L 367.345147 382.132671 
L 367.69398 382.101232 
L 367.961017 382.151984 
L 368.265204 382.125028 
L 368.513547 382.165769 
L 368.949002 382.148964 
L 369.337169 382.180436 
L 369.869225 382.173814 
L 370.516151 382.18997 
L 370.8 382.190339 
L 370.8 382.190339 
" clip-path="url(#pe94f22187d)" style="fill: none; stroke: #810f7c; stroke-width: 2"/>
   </g>
   <g id="line2d_2">
    <path d="M 349.189771 371.952388 
L 342.633545 374.425671 
L 341.469203 375.086151 
L 340.929382 375.620259 
L 340.811559 376.058308 
L 340.929381 376.361624 
L 341.273348 376.69088 
L 341.859384 377.007187 
L 343.017478 377.389684 
L 344.904623 377.757794 
L 347.802972 378.038848 
L 349.18977 378.091195 
L 349.18977 378.091195 
" clip-path="url(#pe94f22187d)" style="fill: none; stroke: #008fd5"/>
   </g>
   <g id="line2d_3">
    <path d="M 352.208832 367.39885 
L 348.224279 367.334228 
L 334.467786 367.996128 
L 312.977345 368.658364 
L 307.115089 368.976639 
L 301.070523 369.428314 
L 294.849076 370.066758 
L 288.455698 370.983007 
L 285.195969 371.600443 
L 281.894928 372.389369 
L 278.5531 373.484877 
L 275.117788 375.831396 
L 274.949097 376.437249 
L 275.011432 376.896835 
L 275.170948 377.247576 
L 278.553103 379.432591 
L 281.894936 380.459717 
L 285.195973 381.176575 
L 288.455698 381.717914 
L 294.849065 382.468237 
L 301.070512 382.919078 
L 307.115088 383.156196 
L 312.977336 383.225727 
L 318.651198 383.156167 
L 324.129793 382.966607 
L 334.467785 382.276957 
L 339.305402 381.792245 
L 343.900706 381.218315 
L 348.224279 380.549937 
L 352.208833 379.760234 
L 352.208833 379.760234 
" clip-path="url(#pe94f22187d)" style="fill: none; stroke: #fc4f30"/>
   </g>
   <g id="line2d_4">
    <path d="M 354.892443 364.529828 
L 352.513167 362.91056 
L 349.993013 361.599206 
L 347.383711 360.475845 
L 344.700833 359.480831 
L 341.950184 358.576884 
L 339.134369 357.738109 
L 336.254816 356.945698 
L 333.312538 356.185831 
L 330.30836 355.448404 
L 327.243074 354.726174 
L 324.117428 354.014035 
L 320.932195 353.308499 
L 317.688128 352.60727 
L 314.385991 351.908906 
L 311.026525 351.212599 
L 307.610467 350.51797 
L 304.138567 349.824904 
L 300.611538 349.133537 
L 297.03008 348.444109 
L 293.394872 347.756953 
L 289.706597 347.072449 
L 285.965912 346.390994 
L 282.17344 345.713018 
L 278.329788 345.038945 
L 274.435596 344.369164 
L 270.491434 343.704092 
L 266.497842 343.044122 
L 262.455414 342.389611 
L 258.364671 341.740931 
L 254.22611 341.098428 
L 250.040281 340.46242 
L 245.807666 339.833227 
L 241.528738 339.21116 
L 237.20395 338.596512 
L 232.83376 337.989561 
L 228.418617 337.390591 
L 223.958977 336.799842 
L 219.455225 336.217596 
L 214.907799 335.644079 
L 210.317064 335.079547 
L 205.683441 334.524234 
L 201.00728 333.978368 
L 196.288952 333.442196 
L 191.528848 332.915919 
L 186.727256 332.39979 
L 181.88458 331.89399 
L 177.001161 331.398761 
L 172.077304 330.91432 
L 167.113311 330.440878 
L 162.109475 329.978675 
L 157.066206 329.527888 
L 151.983692 329.088765 
L 146.862283 328.661509 
L 141.702211 328.246365 
L 136.503824 327.843524 
L 131.267433 327.453224 
L 131.267433 327.453224 
L 131.267405 327.453224 
" clip-path="url(#pe94f22187d)" style="fill: none; stroke: #e5ae38"/>
   </g>
   <g id="line2d_5">
    <path d="M 131.267407 423.70046 
L 131.267408 423.700467 
L 131.26741 423.700473 
L 131.26741 423.700473 
L 136.503826 423.255124 
L 141.702245 422.795939 
L 146.862253 422.323027 
L 151.983653 421.83659 
L 157.066169 421.336801 
L 162.109498 420.823795 
L 167.11327 420.297712 
L 172.077305 419.75876 
L 177.00118 419.207038 
L 181.884603 418.642687 
L 186.72726 418.065861 
L 191.528843 417.476692 
L 196.288931 416.875302 
L 201.007285 416.261823 
L 205.683419 415.636377 
L 210.317066 414.999098 
L 214.907782 414.350078 
L 219.455252 413.689451 
L 223.958986 413.017312 
L 228.418641 412.333774 
L 232.833743 411.638947 
L 237.203934 410.932926 
L 241.52872 410.215815 
L 245.807673 409.48772 
L 250.040275 408.748715 
L 254.226127 407.998914 
L 258.36468 407.238387 
L 262.455409 406.467227 
L 266.497837 405.685519 
L 270.491431 404.893352 
L 274.435604 404.090796 
L 278.3298 403.277924 
L 282.173438 402.454815 
L 285.965912 401.621536 
L 289.706598 400.778152 
L 293.394865 399.924731 
L 297.030081 399.06133 
L 300.611525 398.18799 
L 304.138568 397.304774 
L 307.610459 396.411709 
L 311.026515 395.508838 
L 314.385981 394.596177 
L 317.688124 393.67373 
L 320.932194 392.741492 
L 324.117433 391.799424 
L 327.243075 390.847455 
L 330.308361 389.885472 
L 333.312533 388.913282 
L 336.254819 387.930586 
L 339.134368 386.936905 
L 341.950185 385.93147 
L 344.700831 384.912966 
L 347.383711 383.879025 
L 349.993015 382.824948 
L 352.513167 381.739988 
L 355.111824 380.502461 
" clip-path="url(#pe94f22187d)" style="fill: none; stroke: #6d904f"/>
   </g>
   <g id="line2d_6">
    <path d="M 385.594984 274.035361 
L 384.389303 275.267993 
L 383.200871 276.508039 
L 382.029886 277.755601 
L 380.876554 279.010853 
L 379.741111 280.273851 
L 378.623785 281.544815 
L 377.524815 282.823894 
L 376.444449 284.111176 
L 375.382938 285.406868 
L 374.340561 286.711118 
L 373.317582 288.024063 
L 372.314291 289.345876 
L 371.330994 290.676726 
L 370.368029 292.01678 
L 370.368029 292.01678 
L 370.368002 292.01678 
L 370.368002 292.01678 
L 369.42564 293.366247 
L 368.504241 294.72523 
L 367.60417 296.093955 
L 366.725797 297.47266 
L 365.869509 298.861464 
L 365.035711 300.260616 
L 364.224836 301.670326 
L 363.437332 303.090841 
L 362.673676 304.522356 
L 361.934365 305.965147 
L 361.21993 307.41943 
L 360.530915 308.885545 
L 359.867935 310.363735 
L 359.2316 311.854333 
L 358.62258 313.357637 
L 358.041597 314.87405 
L 357.48939 316.403885 
L 356.966788 317.94759 
L 356.47466 319.50561 
L 356.013937 321.078393 
L 355.585642 322.666479 
L 355.190865 324.270452 
L 354.83079 325.890917 
L 354.506724 327.528596 
L 354.220077 329.184274 
L 353.972401 330.858829 
L 353.765417 332.553234 
L 353.601015 334.268639 
L 353.481319 336.006348 
L 353.408691 337.767883 
L 353.385792 339.555002 
L 353.415626 341.369834 
L 353.501637 343.214928 
L 353.647735 345.09343 
L 353.85844 347.009293 
L 354.13894 348.96763 
L 354.495192 350.975246 
L 354.933882 353.041662 
L 355.46202 355.181037 
L 356.085321 357.41631 
L 356.802055 359.790108 
L 357.576055 362.402551 
L 357.576055 362.402551 
L 357.576054 362.402551 
" clip-path="url(#pe94f22187d)" style="fill: none; stroke: #8b8b8b"/>
   </g>
   <g id="line2d_7">
    <path d="M 357.576053 381.007293 
L 357.576054 381.007294 
L 357.576056 381.007294 
L 357.576056 381.007294 
L 356.802055 382.404681 
L 356.085322 383.708578 
L 355.462017 385.030731 
L 354.933881 386.270891 
L 354.495194 387.503563 
L 354.138943 388.731181 
L 353.858439 389.955124 
L 353.647735 391.176223 
L 353.501638 392.39502 
L 353.415628 393.611873 
L 353.38579 394.827042 
L 353.408691 396.040702 
L 353.48132 397.252987 
L 353.601018 398.464 
L 353.765414 399.673818 
L 353.972397 400.882502 
L 354.220076 402.090094 
L 354.506726 403.296639 
L 354.830794 404.502171 
L 355.190865 405.706712 
L 355.585643 406.910272 
L 356.013942 408.112876 
L 356.47466 409.31454 
L 356.966789 410.515285 
L 357.489393 411.7151 
L 358.041591 412.914025 
L 358.62258 414.112023 
L 359.2316 415.30914 
L 359.867934 416.505363 
L 360.530919 417.700709 
L 361.219925 418.89518 
L 361.934364 420.08876 
L 362.673675 421.281482 
L 363.437331 422.473346 
L 364.224837 423.664298 
L 365.03571 424.854422 
L 365.869506 426.043683 
L 366.725798 427.232047 
L 367.60417 428.419579 
L 368.504242 429.606248 
L 372.314291 434.344358 
L 373.317578 435.526734 
L 374.34056 436.708275 
L 375.382937 437.888946 
L 376.444448 439.068787 
L 377.524816 440.247744 
L 378.62379 441.425887 
L 379.74111 442.603148 
L 380.876553 443.779536 
L 382.029878 444.955103 
L 383.200867 446.129801 
L 384.389303 447.303668 
L 385.594983 448.476687 
" clip-path="url(#pe94f22187d)" style="fill: none; stroke: #810f7c"/>
   </g>
   <g id="line2d_8">
    <path d="M 360.259664 381.504169 
L 361.090943 382.955752 
L 362.177632 384.308785 
L 363.540323 385.611423 
L 365.16693 386.879026 
L 373.982932 391.687011 
L 376.694909 392.842677 
L 379.588189 393.965126 
L 382.654146 395.065472 
L 385.885184 396.143623 
L 389.274507 397.199427 
L 392.816051 398.232688 
L 396.504309 399.243181 
L 400.334331 400.23065 
L 404.301583 401.194812 
L 408.401915 402.135368 
L 412.631512 403.051991 
L 416.98686 403.944338 
L 421.464685 404.812053 
L 426.061981 405.654744 
L 430.775895 406.472019 
L 435.60377 407.263458 
L 440.543192 408.028608 
L 445.591763 408.767022 
L 450.747302 409.478196 
L 456.007784 410.161618 
L 461.371209 410.816757 
L 466.835734 411.443051 
L 472.399557 412.039898 
L 478.061072 412.606667 
L 483.818624 413.142704 
L 489.670734 413.647297 
L 495.615916 414.119708 
L 501.652774 414.559162 
L 507.780023 414.964812 
L 513.996374 415.335774 
L 520.300532 415.671122 
L 526.691429 415.969829 
L 533.167823 416.230833 
L 539.728744 416.452953 
L 546.373031 416.634984 
L 553.099755 416.775554 
L 559.907882 416.873254 
L 566.796522 416.926486 
L 573.764742 416.933568 
L 580.811595 416.892665 
L 587.93633 416.801698 
L 595.138073 416.65846 
L 602.416029 416.460469 
L 609.76941 416.205008 
L 617.197493 415.889001 
L 624.699499 415.509023 
L 632.274799 415.061169 
L 639.922581 414.54107 
L 639.922581 414.54107 
L 639.922581 414.541068 
" clip-path="url(#pe94f22187d)" style="fill: none; stroke: #008fd5"/>
   </g>
   <g id="line2d_9">
    <path d="M 639.922585 337.59186 
L 639.922583 337.591849 
L 639.922556 337.591851 
L 639.922556 337.591851 
L 632.274779 336.976491 
L 624.699533 336.428617 
L 617.197507 335.94342 
L 609.769456 335.51667 
L 602.416038 335.14445 
L 595.138089 334.823235 
L 587.936354 334.549768 
L 580.811614 334.320929 
L 573.764706 334.133854 
L 566.796531 333.985772 
L 559.907894 333.873974 
L 553.099755 333.795841 
L 546.373035 333.748789 
L 539.728742 333.730179 
L 533.167832 333.737399 
L 526.691403 333.767726 
L 520.300536 333.818344 
L 513.996352 333.886339 
L 507.780044 333.968589 
L 501.65278 334.061796 
L 495.615904 334.162471 
L 489.670739 334.266862 
L 483.81863 334.370949 
L 478.06108 334.470514 
L 472.399556 334.561092 
L 466.835731 334.638169 
L 461.371198 334.697254 
L 456.007777 334.734218 
L 450.747313 334.745681 
L 445.591746 334.72955 
L 440.543186 334.685776 
L 435.60378 334.61711 
L 430.775893 334.529943 
L 426.061984 334.434862 
L 421.464687 334.346752 
L 416.986864 334.284344 
L 412.63152 334.269043 
L 408.401914 334.323373 
L 404.301584 334.469336 
L 400.334334 334.726901 
L 396.50431 335.113131 
L 392.81605 335.641684 
L 389.274512 336.322876 
L 385.885186 337.164043 
L 382.654147 338.169959 
L 379.588182 339.34349 
L 376.694909 340.686055 
L 373.982932 342.198216 
L 371.462057 343.880164 
L 369.143515 345.732244 
L 369.143515 345.732244 
L 369.143515 345.732244 
L 369.143514 345.732244 
L 367.040205 347.755656 
L 365.16693 349.953409 
L 363.540323 352.332156 
L 362.177627 354.90608 
L 361.090942 357.707289 
L 360.259664 360.822955 
" clip-path="url(#pe94f22187d)" style="fill: none; stroke: #fc4f30"/>
   </g>
   <g id="line2d_10">
    <path d="M 362.943275 381.844979 
L 375.399978 386.909176 
L 379.585213 387.958674 
L 384.148083 388.955875 
L 389.065679 389.858889 
L 394.318128 390.682909 
L 399.888177 391.424635 
L 405.760746 392.08008 
L 411.922503 392.644531 
L 418.361687 393.11243 
L 425.067709 393.47721 
L 432.031092 393.731054 
L 439.243208 393.864524 
L 446.696267 393.866023 
L 454.3831 393.72105 
L 462.297121 393.410931 
L 470.432222 392.910834 
L 478.782844 392.186188 
L 487.343731 391.185996 
L 496.110003 389.828211 
L 505.077103 387.961894 
L 514.240771 385.231503 
L 516.56193 384.308742 
L 518.895041 383.214719 
L 521.240084 381.842364 
L 523.892414 379.509057 
L 524.483842 378.636709 
L 524.983455 377.32417 
L 525.057512 376.351062 
L 524.890891 375.406889 
L 524.483844 374.45208 
L 523.596961 373.215024 
L 521.240087 371.185765 
L 518.895056 369.767719 
L 516.561922 368.626549 
L 514.24077 367.655178 
L 505.077113 364.713966 
L 496.110012 362.606523 
L 487.343724 360.970563 
L 478.78285 359.646309 
L 470.43223 358.540096 
L 454.383094 356.727429 
L 439.24321 355.090879 
L 432.031085 354.202569 
L 425.067699 353.197005 
L 418.361681 352.047825 
L 399.888178 348.483824 
L 394.31813 347.776871 
L 389.065677 347.527411 
L 384.148083 347.781388 
L 379.585208 348.546059 
L 375.399978 349.809776 
L 371.618633 351.555428 
L 368.269928 353.770199 
L 368.269928 353.770199 
L 365.379833 356.458298 
L 362.943275 359.678753 
L 362.943275 359.678753 
" clip-path="url(#pe94f22187d)" style="fill: none; stroke: #e5ae38"/>
   </g>
   <g id="line2d_11">
    <path d="M 365.626886 382.069129 
L 385.633028 386.363235 
L 392.130214 387.006643 
L 399.152658 387.460092 
L 406.669301 387.700282 
L 414.653328 387.694069 
L 423.081463 387.392232 
L 431.933304 386.715645 
L 441.190862 385.518618 
L 450.838176 383.453486 
L 453.309193 382.695563 
L 455.803449 381.76082 
L 458.320753 380.523123 
L 461.020413 378.246392 
L 461.339699 377.698703 
L 461.609375 376.768911 
L 461.579401 375.996246 
L 461.339707 375.259476 
L 460.860897 374.477016 
L 458.320748 372.312687 
L 455.803453 370.964258 
L 453.309186 369.910938 
L 450.838177 369.025807 
L 441.190871 366.344943 
L 423.081454 362.388148 
L 414.653325 360.301421 
L 406.669297 357.868866 
L 399.152658 355.386369 
L 392.130214 353.492294 
L 385.633027 352.585024 
L 379.696935 352.732951 
L 374.362238 353.873691 
L 374.362238 353.873691 
L 369.668717 355.93491 
L 365.626885 358.904229 
L 365.626885 358.904229 
" clip-path="url(#pe94f22187d)" style="fill: none; stroke: #6d904f"/>
   </g>
   <g id="line2d_12">
    <path d="M 368.310496 382.195359 
L 395.866076 385.092622 
L 404.675227 384.920656 
L 414.157229 384.183772 
L 424.272917 382.519257 
L 434.988523 376.935839 
L 434.999272 376.890353 
L 434.999272 376.890353 
L 435.01002 376.840016 
L 435.01002 376.840016 
L 435.01002 376.840014 
L 435.020769 376.782834 
L 435.020769 376.782834 
L 435.031517 376.714995 
L 435.036894 376.674511 
L 435.036894 376.674507 
L 435.04227 376.626508 
L 435.04227 376.626508 
L 435.04227 376.626507 
L 435.047644 376.564121 
L 435.047644 376.56412 
L 435.053023 376.430847 
L 435.053039 376.429693 
L 435.05304 376.429398 
L 435.053058 376.427639 
L 435.05306 376.427037 
L 435.053061 376.426733 
L 435.053087 376.423101 
L 435.053089 376.42217 
L 435.053107 376.419042 
L 435.053111 376.418091 
L 435.053106 376.418077 
L 435.053116 376.416482 
L 435.053112 376.416143 
L 435.053116 376.414839 
L 435.053119 376.413521 
L 435.053123 376.411519 
L 435.053123 376.411186 
L 435.053124 376.410847 
L 435.053125 376.410508 
L 435.053128 376.410119 
L 435.053127 376.410093 
L 435.053125 376.410066 
L 435.053124 376.41004 
L 435.053113 376.406099 
L 435.053119 376.405868 
L 435.053119 376.405866 
L 435.053108 376.403287 
L 435.053103 376.402848 
L 435.053114 376.402714 
L 435.053108 376.402272 
L 435.053087 376.398823 
L 435.053087 376.398146 
L 435.053061 376.395612 
L 435.053061 376.395272 
L 435.053061 376.393595 
L 435.05304 376.392172 
L 435.05304 376.391835 
L 435.053019 376.389078 
L 435.047644 376.25709 
L 435.047644 376.257088 
L 435.042269 376.194164 
L 435.042269 376.194162 
L 435.042268 376.19416 
L 435.036894 376.145849 
L 435.036894 376.145849 
L 435.031519 376.105024 
L 435.020767 376.036426 
L 435.020767 376.036424 
L 435.01002 375.97853 
L 435.01002 375.97853 
L 435.01002 375.978527 
L 434.999276 375.927515 
L 434.999276 375.927514 
L 434.988528 375.881305 
L 424.27292 369.344418 
L 414.157224 366.048931 
L 404.675224 362.503046 
L 395.866075 358.678448 
L 387.775238 356.042824 
L 380.454554 355.22854 
L 380.454553 355.228539 
L 380.454538 355.228534 
L 380.454538 355.228534 
L 373.957608 356.095714 
L 368.310496 358.461333 
" clip-path="url(#pe94f22187d)" style="fill: none; stroke: #8b8b8b"/>
   </g>
   <g id="line2d_13">
    <path d="M 371.329558 382.230985 
L 378.782606 383.109699 
L 387.308403 383.545123 
L 396.863335 383.334534 
L 407.378253 382.183897 
L 410.149202 381.649749 
L 412.975128 380.94293 
L 415.855134 379.949284 
L 418.973441 378.03802 
L 419.529888 377.286725 
L 419.750656 376.643826 
L 419.750654 375.994487 
L 419.52989 375.326983 
L 418.973436 374.511923 
L 418.788364 374.309365 
L 415.855139 372.193149 
L 412.975133 370.728944 
L 407.378254 368.195912 
L 396.863335 362.757602 
L 387.308409 358.457403 
L 378.782608 357.112117 
L 371.329558 358.335522 
L 371.329558 358.335522 
" clip-path="url(#pe94f22187d)" style="fill: none; stroke: #810f7c"/>
   </g>
   <g id="line2d_14">
    <path d="M 374.013169 382.170333 
L 378.383371 382.512272 
L 388.079589 382.709827 
L 393.400711 382.44082 
L 399.024936 381.83431 
L 401.947396 381.348472 
L 406.465287 380.233519 
L 408.006394 379.683036 
L 409.564815 378.950179 
L 411.338538 377.528967 
L 411.685934 376.910506 
L 411.8102 376.190047 
L 411.685934 375.542489 
L 411.33854 374.867379 
L 411.140393 374.59565 
L 409.564818 373.127339 
L 406.465289 371.141052 
L 401.947391 368.542909 
L 393.400711 363.193851 
L 388.079591 360.45044 
L 383.07149 358.840898 
L 378.383372 358.255147 
L 374.013169 358.549504 
L 374.013169 358.549504 
" clip-path="url(#pe94f22187d)" style="fill: none; stroke: #008fd5"/>
   </g>
   <g id="line2d_15">
    <path d="M 376.696779 382.018881 
L 381.843904 382.134053 
L 387.360376 382.085607 
L 393.246406 381.59513 
L 399.493021 380.507706 
L 401.109646 380.071248 
L 402.747869 379.513979 
L 404.407503 378.747254 
L 406.088346 377.381347 
L 406.194098 377.226021 
L 406.194098 377.22602 
L 406.299929 377.040843 
L 406.299929 377.040843 
L 406.299933 377.040828 
L 406.405848 376.799753 
L 406.405848 376.799753 
L 406.511845 376.350715 
L 406.513505 376.334828 
L 406.513505 376.334825 
L 406.515159 376.317516 
L 406.515159 376.317516 
L 406.516817 376.29808 
L 406.516817 376.298079 
L 406.518474 376.27566 
L 406.519302 376.262797 
L 406.519302 376.262794 
L 406.52013 376.248225 
L 406.52013 376.248225 
L 406.52013 376.248224 
L 406.520132 376.24817 
L 406.52096 376.231015 
L 406.52096 376.231012 
L 406.521787 376.209082 
L 406.521993 376.20219 
L 406.521995 376.202067 
L 406.522201 376.194147 
L 406.522202 376.194083 
L 406.522408 376.18437 
L 406.522408 376.184303 
L 406.522616 376.170094 
L 406.522642 376.167555 
L 406.522643 376.167341 
L 406.522668 376.164553 
L 406.522669 376.164406 
L 406.522669 376.164334 
L 406.522692 376.161137 
L 406.522694 376.160766 
L 406.52272 376.154563 
L 406.522721 376.154414 
L 406.522722 376.153803 
L 406.522722 376.153571 
L 406.522724 376.152809 
L 406.522725 376.152118 
L 406.522725 376.151962 
L 406.522726 376.151112 
L 406.522726 376.149909 
L 406.522726 376.149048 
L 406.522726 376.14846 
L 406.522725 376.14822 
L 406.522726 376.148039 
L 406.522726 376.148038 
L 406.522726 376.148037 
L 406.522725 376.146928 
L 406.522723 376.145975 
L 406.522721 376.145644 
L 406.522721 376.145019 
L 406.522719 376.144066 
L 406.522693 376.13911 
L 406.522694 376.138879 
L 406.522668 376.135096 
L 406.522668 376.134943 
L 406.522668 376.134941 
L 406.522642 376.132017 
L 406.522642 376.131862 
L 406.522616 376.129253 
L 406.522409 376.115305 
L 406.522409 376.115151 
L 406.522202 376.105416 
L 406.522202 376.105338 
L 406.521994 376.097398 
L 406.521995 376.097323 
L 406.521787 376.090245 
L 406.520959 376.068168 
L 406.520959 376.068166 
L 406.52013 376.050853 
L 406.52013 376.050851 
L 406.52013 376.050777 
L 406.52013 376.050777 
L 406.519302 376.036039 
L 406.519302 376.036039 
L 406.518473 376.023019 
L 406.516816 376.00026 
L 406.516816 376.000259 
L 406.51516 375.980474 
L 406.51516 375.980473 
L 406.513503 375.962722 
L 406.513503 375.962722 
L 406.511846 375.94653 
L 406.405848 375.474405 
L 406.405848 375.474405 
L 406.299931 375.209987 
L 406.299931 375.209985 
L 406.299931 375.209985 
L 406.194095 375.001201 
L 406.194095 375.001201 
L 406.088342 374.822026 
L 404.407503 373.036787 
L 402.747871 371.770217 
L 401.109645 370.620151 
L 399.493018 369.491336 
L 393.246405 364.979779 
L 387.360384 361.511937 
L 381.843905 359.625861 
L 376.696779 359.079229 
" clip-path="url(#pe94f22187d)" style="fill: none; stroke: #fc4f30"/>
   </g>
   <g id="line2d_16">
    <path d="M 379.38039 381.765689 
L 382.290445 381.71631 
L 391.64927 381.100249 
L 394.979432 380.524426 
L 398.413225 379.611316 
L 400.168505 378.909144 
L 401.055649 378.428816 
L 402.285754 377.397514 
L 402.679637 376.718011 
L 402.796803 376.03307 
L 402.679638 375.372167 
L 402.285754 374.576848 
L 401.949092 374.112044 
L 400.168503 372.331589 
L 394.979427 368.026179 
L 391.649268 365.387083 
L 388.424018 363.234445 
L 385.304444 361.64668 
L 382.290446 360.573969 
L 379.38039 359.948765 
L 379.38039 359.948765 
" clip-path="url(#pe94f22187d)" style="fill: none; stroke: #e5ae38"/>
   </g>
   <g id="line2d_17">
    <path d="M 382.064 381.388023 
L 388.764979 380.959351 
L 392.292409 380.384198 
L 396.867977 379.069194 
L 397.805108 378.634776 
L 398.749529 378.057505 
L 399.88046 376.775487 
L 400.050606 376.063296 
L 399.970177 375.382923 
L 399.701211 374.71544 
L 398.749529 373.379483 
L 396.867977 371.454765 
L 392.292404 367.245897 
L 388.764982 364.497015 
L 385.356 362.509754 
L 382.064001 361.202411 
L 382.064001 361.202411 
" clip-path="url(#pe94f22187d)" style="fill: none; stroke: #6d904f"/>
   </g>
   <g id="line2d_18">
    <path d="M 384.747611 380.836594 
L 388.421552 380.592358 
L 392.225518 379.824486 
L 394.176738 379.226406 
L 396.160797 378.317555 
L 397.165119 377.567398 
L 397.670345 376.934155 
L 397.931651 376.227183 
L 397.931651 375.531381 
L 397.733642 374.852585 
L 397.291234 374.025918 
L 396.41111 372.850808 
L 395.164667 371.448747 
L 392.225519 368.437176 
L 390.307153 366.67726 
L 388.421552 365.1728 
L 386.568503 363.926085 
L 384.747611 362.916025 
L 384.747611 362.916025 
" clip-path="url(#pe94f22187d)" style="fill: none; stroke: #8b8b8b"/>
   </g>
  </g>
  <g id="text_1">
   <!-- Isoredshift lines for M=1.0 -->
   <g transform="translate(249.365437 27.165375)scale(0.168 -0.168)">
    <defs>
     <path id="DejaVuSans-49" d="M 628 4666 
L 1259 4666 
L 1259 0 
L 628 0 
L 628 4666 
z
" transform="scale(0.015625)"/>
     <path id="DejaVuSans-73" d="M 2834 3397 
L 2834 2853 
Q 2591 2978 2328 3040 
Q 2066 3103 1784 3103 
Q 1356 3103 1142 2972 
Q 928 2841 928 2578 
Q 928 2378 1081 2264 
Q 1234 2150 1697 2047 
L 1894 2003 
Q 2506 1872 2764 1633 
Q 3022 1394 3022 966 
Q 3022 478 2636 193 
Q 2250 -91 1575 -91 
Q 1294 -91 989 -36 
Q 684 19 347 128 
L 347 722 
Q 666 556 975 473 
Q 1284 391 1588 391 
Q 1994 391 2212 530 
Q 2431 669 2431 922 
Q 2431 1156 2273 1281 
Q 2116 1406 1581 1522 
L 1381 1569 
Q 847 1681 609 1914 
Q 372 2147 372 2553 
Q 372 3047 722 3315 
Q 1072 3584 1716 3584 
Q 2034 3584 2315 3537 
Q 2597 3491 2834 3397 
z
" transform="scale(0.015625)"/>
     <path id="DejaVuSans-6f" d="M 1959 3097 
Q 1497 3097 1228 2736 
Q 959 2375 959 1747 
Q 959 1119 1226 758 
Q 1494 397 1959 397 
Q 2419 397 2687 759 
Q 2956 1122 2956 1747 
Q 2956 2369 2687 2733 
Q 2419 3097 1959 3097 
z
M 1959 3584 
Q 2709 3584 3137 3096 
Q 3566 2609 3566 1747 
Q 3566 888 3137 398 
Q 2709 -91 1959 -91 
Q 1206 -91 779 398 
Q 353 888 353 1747 
Q 353 2609 779 3096 
Q 1206 3584 1959 3584 
z
" transform="scale(0.015625)"/>
     <path id="DejaVuSans-72" d="M 2631 2963 
Q 2534 3019 2420 3045 
Q 2306 3072 2169 3072 
Q 1681 3072 1420 2755 
Q 1159 2438 1159 1844 
L 1159 0 
L 581 0 
L 581 3500 
L 1159 3500 
L 1159 2956 
Q 1341 3275 1631 3429 
Q 1922 3584 2338 3584 
Q 2397 3584 2469 3576 
Q 2541 3569 2628 3553 
L 2631 2963 
z
" transform="scale(0.015625)"/>
     <path id="DejaVuSans-65" d="M 3597 1894 
L 3597 1613 
L 953 1613 
Q 991 1019 1311 708 
Q 1631 397 2203 397 
Q 2534 397 2845 478 
Q 3156 559 3463 722 
L 3463 178 
Q 3153 47 2828 -22 
Q 2503 -91 2169 -91 
Q 1331 -91 842 396 
Q 353 884 353 1716 
Q 353 2575 817 3079 
Q 1281 3584 2069 3584 
Q 2775 3584 3186 3129 
Q 3597 2675 3597 1894 
z
M 3022 2063 
Q 3016 2534 2758 2815 
Q 2500 3097 2075 3097 
Q 1594 3097 1305 2825 
Q 1016 2553 972 2059 
L 3022 2063 
z
" transform="scale(0.015625)"/>
     <path id="DejaVuSans-64" d="M 2906 2969 
L 2906 4863 
L 3481 4863 
L 3481 0 
L 2906 0 
L 2906 525 
Q 2725 213 2448 61 
Q 2172 -91 1784 -91 
Q 1150 -91 751 415 
Q 353 922 353 1747 
Q 353 2572 751 3078 
Q 1150 3584 1784 3584 
Q 2172 3584 2448 3432 
Q 2725 3281 2906 2969 
z
M 947 1747 
Q 947 1113 1208 752 
Q 1469 391 1925 391 
Q 2381 391 2643 752 
Q 2906 1113 2906 1747 
Q 2906 2381 2643 2742 
Q 2381 3103 1925 3103 
Q 1469 3103 1208 2742 
Q 947 2381 947 1747 
z
" transform="scale(0.015625)"/>
     <path id="DejaVuSans-68" d="M 3513 2113 
L 3513 0 
L 2938 0 
L 2938 2094 
Q 2938 2591 2744 2837 
Q 2550 3084 2163 3084 
Q 1697 3084 1428 2787 
Q 1159 2491 1159 1978 
L 1159 0 
L 581 0 
L 581 4863 
L 1159 4863 
L 1159 2956 
Q 1366 3272 1645 3428 
Q 1925 3584 2291 3584 
Q 2894 3584 3203 3211 
Q 3513 2838 3513 2113 
z
" transform="scale(0.015625)"/>
     <path id="DejaVuSans-69" d="M 603 3500 
L 1178 3500 
L 1178 0 
L 603 0 
L 603 3500 
z
M 603 4863 
L 1178 4863 
L 1178 4134 
L 603 4134 
L 603 4863 
z
" transform="scale(0.015625)"/>
     <path id="DejaVuSans-66" d="M 2375 4863 
L 2375 4384 
L 1825 4384 
Q 1516 4384 1395 4259 
Q 1275 4134 1275 3809 
L 1275 3500 
L 2222 3500 
L 2222 3053 
L 1275 3053 
L 1275 0 
L 697 0 
L 697 3053 
L 147 3053 
L 147 3500 
L 697 3500 
L 697 3744 
Q 697 4328 969 4595 
Q 1241 4863 1831 4863 
L 2375 4863 
z
" transform="scale(0.015625)"/>
     <path id="DejaVuSans-74" d="M 1172 4494 
L 1172 3500 
L 2356 3500 
L 2356 3053 
L 1172 3053 
L 1172 1153 
Q 1172 725 1289 603 
Q 1406 481 1766 481 
L 2356 481 
L 2356 0 
L 1766 0 
Q 1100 0 847 248 
Q 594 497 594 1153 
L 594 3053 
L 172 3053 
L 172 3500 
L 594 3500 
L 594 4494 
L 1172 4494 
z
" transform="scale(0.015625)"/>
     <path id="DejaVuSans-20" transform="scale(0.015625)"/>
     <path id="DejaVuSans-6c" d="M 603 4863 
L 1178 4863 
L 1178 0 
L 603 0 
L 603 4863 
z
" transform="scale(0.015625)"/>
     <path id="DejaVuSans-6e" d="M 3513 2113 
L 3513 0 
L 2938 0 
L 2938 2094 
Q 2938 2591 2744 2837 
Q 2550 3084 2163 3084 
Q 1697 3084 1428 2787 
Q 1159 2491 1159 1978 
L 1159 0 
L 581 0 
L 581 3500 
L 1159 3500 
L 1159 2956 
Q 1366 3272 1645 3428 
Q 1925 3584 2291 3584 
Q 2894 3584 3203 3211 
Q 3513 2838 3513 2113 
z
" transform="scale(0.015625)"/>
     <path id="DejaVuSans-4d" d="M 628 4666 
L 1569 4666 
L 2759 1491 
L 3956 4666 
L 4897 4666 
L 4897 0 
L 4281 0 
L 4281 4097 
L 3078 897 
L 2444 897 
L 1241 4097 
L 1241 0 
L 628 0 
L 628 4666 
z
" transform="scale(0.015625)"/>
     <path id="DejaVuSans-3d" d="M 678 2906 
L 4684 2906 
L 4684 2381 
L 678 2381 
L 678 2906 
z
M 678 1631 
L 4684 1631 
L 4684 1100 
L 678 1100 
L 678 1631 
z
" transform="scale(0.015625)"/>
     <path id="DejaVuSans-31" d="M 794 531 
L 1825 531 
L 1825 4091 
L 703 3866 
L 703 4441 
L 1819 4666 
L 2450 4666 
L 2450 531 
L 3481 531 
L 3481 0 
L 794 0 
L 794 531 
z
" transform="scale(0.015625)"/>
     <path id="DejaVuSans-2e" d="M 684 794 
L 1344 794 
L 1344 0 
L 684 0 
L 684 794 
z
" transform="scale(0.015625)"/>
     <path id="DejaVuSans-30" d="M 2034 4250 
Q 1547 4250 1301 3770 
Q 1056 3291 1056 2328 
Q 1056 1369 1301 889 
Q 1547 409 2034 409 
Q 2525 409 2770 889 
Q 3016 1369 3016 2328 
Q 3016 3291 2770 3770 
Q 2525 4250 2034 4250 
z
M 2034 4750 
Q 2819 4750 3233 4129 
Q 3647 3509 3647 2328 
Q 3647 1150 3233 529 
Q 2819 -91 2034 -91 
Q 1250 -91 836 529 
Q 422 1150 422 2328 
Q 422 3509 836 4129 
Q 1250 4750 2034 4750 
z
" transform="scale(0.015625)"/>
    </defs>
    <use xlink:href="#DejaVuSans-49"/>
    <use xlink:href="#DejaVuSans-73" x="29.492188"/>
    <use xlink:href="#DejaVuSans-6f" x="81.591797"/>
    <use xlink:href="#DejaVuSans-72" x="142.773438"/>
    <use xlink:href="#DejaVuSans-65" x="181.636719"/>
    <use xlink:href="#DejaVuSans-64" x="243.160156"/>
    <use xlink:href="#DejaVuSans-73" x="306.636719"/>
    <use xlink:href="#DejaVuSans-68" x="358.736328"/>
    <use xlink:href="#DejaVuSans-69" x="422.115234"/>
    <use xlink:href="#DejaVuSans-66" x="449.898438"/>
    <use xlink:href="#DejaVuSans-74" x="483.353516"/>
    <use xlink:href="#DejaVuSans-20" x="522.5625"/>
    <use xlink:href="#DejaVuSans-6c" x="554.349609"/>
    <use xlink:href="#DejaVuSans-69" x="582.132812"/>
    <use xlink:href="#DejaVuSans-6e" x="609.916016"/>
    <use xlink:href="#DejaVuSans-65" x="673.294922"/>
    <use xlink:href="#DejaVuSans-73" x="734.818359"/>
    <use xlink:href="#DejaVuSans-20" x="786.917969"/>
    <use xlink:href="#DejaVuSans-66" x="818.705078"/>
    <use xlink:href="#DejaVuSans-6f" x="853.910156"/>
    <use xlink:href="#DejaVuSans-72" x="915.091797"/>
    <use xlink:href="#DejaVuSans-20" x="956.205078"/>
    <use xlink:href="#DejaVuSans-4d" x="987.992188"/>
    <use xlink:href="#DejaVuSans-3d" x="1074.271484"/>
    <use xlink:href="#DejaVuSans-31" x="1158.060547"/>
    <use xlink:href="#DejaVuSans-2e" x="1221.683594"/>
    <use xlink:href="#DejaVuSans-30" x="1253.470703"/>
   </g>
  </g>
 </g>
 <defs>
  <clipPath id="pe94f22187d">
   <rect x="57.6" y="86.4" width="626.4" height="583.2"/>
  </clipPath>
 </defs>
</svg>
