<?xml version="1.0" encoding="utf-8" standalone="no"?>
<!DOCTYPE svg PUBLIC "-//W3C//DTD SVG 1.1//EN"
  "http://www.w3.org/Graphics/SVG/1.1/DTD/svg11.dtd">
<svg xmlns:xlink="http://www.w3.org/1999/xlink" width="720pt" height="720pt" viewBox="0 0 720 720" xmlns="http://www.w3.org/2000/svg" version="1.1">
 <metadata>
  <rdf:RDF xmlns:dc="http://purl.org/dc/elements/1.1/" xmlns:cc="http://creativecommons.org/ns#" xmlns:rdf="http://www.w3.org/1999/02/22-rdf-syntax-ns#">
   <cc:Work>
    <dc:type rdf:resource="http://purl.org/dc/dcmitype/StillImage"/>
    <dc:date>2023-06-28T21:10:24.099021</dc:date>
    <dc:format>image/svg+xml</dc:format>
    <dc:creator>
     <cc:Agent>
      <dc:title>Matplotlib v3.5.2, https://matplotlib.org/</dc:title>
     </cc:Agent>
    </dc:creator>
   </cc:Work>
  </rdf:RDF>
 </metadata>
 <defs>
  <style type="text/css">*{stroke-linejoin: round; stroke-linecap: butt}</style>
 </defs>
 <g id="figure_1">
  <g id="patch_1">
   <path d="M 0 720 
L 720 720 
L 720 0 
L 0 0 
z
" style="fill: #1a1a1a"/>
  </g>
  <g id="axes_1">
   <g id="line2d_1">
    <path d="M 370.8 382.190339 
L 374.95645 382.105343 
L 375.025369 382.043898 
L 375.486641 382.080751 
L 375.555078 382.011536 
L 376.080603 382.048996 
L 376.14843 381.971077 
L 376.753812 382.007403 
L 376.820852 381.919619 
L 377.526044 381.952002 
L 377.592051 381.852904 
L 377.956916 381.917353 
L 378.022283 381.811942 
L 378.422447 381.876773 
L 378.48707 381.764542 
L 378.926746 381.828985 
L 378.990499 381.709367 
L 379.474289 381.772383 
L 379.537016 381.644744 
L 380.069812 381.704943 
L 380.131325 381.568582 
L 380.718101 381.624115 
L 380.778166 381.478259 
L 381.423587 381.526681 
L 381.481917 381.370495 
L 382.189649 381.408613 
L 382.245887 381.241211 
L 383.017448 381.264921 
L 383.071154 381.0854 
L 383.904123 381.089558 
L 383.954752 380.89706 
L 384.840139 380.875472 
L 384.887031 380.669277 
L 385.805779 380.614962 
L 385.848146 380.394642 
L 387.643002 380.426768 
L 387.681957 380.179537 
L 388.825645 380.058396 
L 388.858224 379.793872 
L 389.97279 379.620746 
L 389.997824 379.339459 
L 391.024034 379.11321 
L 391.040355 378.816573 
L 391.919065 378.541995 
L 391.925613 378.232308 
L 392.612589 377.920049 
L 392.608533 377.600271 
L 393.086365 377.264511 
L 393.071162 376.937868 
L 393.351455 376.592704 
L 393.324857 376.262259 
L 393.44004 375.918697 
L 393.187554 374.268281 
L 391.057602 370.078754 
L 390.468818 369.269882 
L 389.933953 368.449825 
L 389.538615 367.927376 
L 388.951119 367.148012 
L 387.394165 365.478973 
L 386.455295 364.582197 
L 385.470086 363.73698 
L 384.183419 362.748181 
L 381.394832 361.069066 
L 378.69394 359.905058 
L 376.817219 359.316968 
L 374.893505 358.888988 
L 372.937568 358.624858 
L 370.635314 358.526885 
L 368.33467 358.65598 
L 366.060934 359.013598 
L 364.151276 359.495434 
L 362.293376 360.135822 
L 360.500892 360.929191 
L 359.060582 361.694556 
L 356.372965 363.523675 
L 353.511611 366.169419 
L 350.542398 370.078754 
L 350.066296 370.945292 
L 349.732554 371.524253 
L 349.513338 371.801216 
L 349.411137 372.114062 
L 349.19703 372.397973 
L 349.10496 372.715382 
L 348.901103 373.00739 
L 348.563526 373.95602 
L 348.352107 374.596961 
L 348.207297 375.251803 
L 348.248545 376.592704 
L 348.528838 376.937868 
L 348.513635 377.264511 
L 348.991467 377.600271 
L 348.987411 377.920049 
L 349.674387 378.232308 
L 349.680935 378.541995 
L 350.559645 378.816573 
L 350.575966 379.11321 
L 351.602176 379.339459 
L 351.62721 379.620746 
L 352.741776 379.793872 
L 352.774355 380.058396 
L 353.918043 380.179537 
L 353.956998 380.426768 
L 355.751854 380.394642 
L 355.794221 380.614962 
L 356.712969 380.669277 
L 356.759861 380.875472 
L 357.645248 380.89706 
L 357.695877 381.089558 
L 358.528846 381.0854 
L 358.582552 381.264921 
L 359.354113 381.241211 
L 359.410351 381.408613 
L 360.118083 381.370495 
L 360.176413 381.526681 
L 360.821834 381.478259 
L 360.881899 381.624115 
L 361.468675 381.568582 
L 361.530188 381.704943 
L 362.062984 381.644744 
L 362.125711 381.772383 
L 362.609501 381.709367 
L 362.673254 381.828985 
L 363.11293 381.764542 
L 363.177553 381.876773 
L 363.577717 381.811942 
L 363.643084 381.917353 
L 364.407324 381.888506 
L 364.473884 381.981745 
L 365.126362 381.94695 
L 365.193821 382.02964 
L 365.757077 381.992474 
L 365.825228 382.065912 
L 366.316906 382.028586 
L 366.385598 382.093812 
L 366.819515 382.057698 
L 366.888637 382.115552 
L 367.275679 382.081508 
L 367.345147 382.132671 
L 367.69398 382.101232 
L 367.961017 382.151984 
L 368.265204 382.125028 
L 368.513547 382.165769 
L 368.949002 382.148964 
L 369.337169 382.180436 
L 369.869225 382.173814 
L 370.516151 382.18997 
L 370.8 382.190339 
L 370.8 382.190339 
" clip-path="url(#p64898dc1ca)" style="fill: none; stroke: #8b8b8b; stroke-width: 2"/>
   </g>
   <g id="line2d_2">
    <path d="M 350.531576 369.70574 
L 345.543723 370.733131 
L 334.256462 372.751631 
L 327.275939 374.482152 
L 325.870593 375.130183 
L 325.162233 375.67718 
L 324.901983 376.132558 
L 324.921043 376.517435 
L 325.162232 376.8928 
L 325.668588 377.283954 
L 326.474748 377.676379 
L 328.072133 378.184654 
L 334.256463 379.134605 
L 340.093012 379.421333 
L 345.543725 379.354042 
L 350.531575 379.002476 
L 350.531575 379.002476 
" clip-path="url(#p64898dc1ca)" style="fill: none; stroke: #008fd5"/>
   </g>
   <g id="line2d_3">
    <path d="M 354.892443 364.529828 
L 352.513167 362.91056 
L 349.993013 361.599206 
L 347.383711 360.475845 
L 344.700833 359.480831 
L 341.950184 358.576884 
L 339.134369 357.738109 
L 336.254816 356.945698 
L 333.312538 356.185831 
L 330.30836 355.448404 
L 327.243074 354.726174 
L 324.117428 354.014035 
L 320.932195 353.308499 
L 317.688128 352.60727 
L 314.385991 351.908906 
L 311.026525 351.212599 
L 307.610467 350.51797 
L 304.138567 349.824904 
L 300.611538 349.133537 
L 297.03008 348.444109 
L 293.394872 347.756953 
L 289.706597 347.072449 
L 285.965912 346.390994 
L 282.17344 345.713018 
L 278.329788 345.038945 
L 274.435596 344.369164 
L 270.491434 343.704092 
L 266.497842 343.044122 
L 262.455414 342.389611 
L 258.364671 341.740931 
L 254.22611 341.098428 
L 250.040281 340.46242 
L 245.807666 339.833227 
L 241.528738 339.21116 
L 237.20395 338.596512 
L 232.83376 337.989561 
L 228.418617 337.390591 
L 223.958977 336.799842 
L 219.455225 336.217596 
L 214.907799 335.644079 
L 210.317064 335.079547 
L 205.683441 334.524234 
L 201.00728 333.978368 
L 196.288952 333.442196 
L 191.528848 332.915919 
L 186.727256 332.39979 
L 181.88458 331.89399 
L 177.001161 331.398761 
L 172.077304 330.91432 
L 167.113311 330.440878 
L 162.109475 329.978675 
L 157.066206 329.527888 
L 151.983692 329.088765 
L 146.862283 328.661509 
L 141.702211 328.246365 
L 136.503824 327.843524 
L 131.267433 327.453224 
L 131.267433 327.453224 
L 131.267405 327.453224 
" clip-path="url(#p64898dc1ca)" style="fill: none; stroke: #fc4f30"/>
   </g>
   <g id="line2d_4">
    <path d="M 131.267407 423.70046 
L 131.267408 423.700467 
L 131.26741 423.700473 
L 131.26741 423.700473 
L 136.503826 423.255124 
L 141.702245 422.795939 
L 146.862253 422.323027 
L 151.983653 421.83659 
L 157.066169 421.336801 
L 162.109498 420.823795 
L 167.11327 420.297712 
L 172.077305 419.75876 
L 177.00118 419.207038 
L 181.884603 418.642687 
L 186.72726 418.065861 
L 191.528843 417.476692 
L 196.288931 416.875302 
L 201.007285 416.261823 
L 205.683419 415.636377 
L 210.317066 414.999098 
L 214.907782 414.350078 
L 219.455252 413.689451 
L 223.958986 413.017312 
L 228.418641 412.333774 
L 232.833743 411.638947 
L 237.203934 410.932926 
L 241.52872 410.215815 
L 245.807673 409.48772 
L 250.040275 408.748715 
L 254.226127 407.998914 
L 258.36468 407.238387 
L 262.455409 406.467227 
L 266.497837 405.685519 
L 270.491431 404.893352 
L 274.435604 404.090796 
L 278.3298 403.277924 
L 282.173438 402.454815 
L 285.965912 401.621536 
L 289.706598 400.778152 
L 293.394865 399.924731 
L 297.030081 399.06133 
L 300.611525 398.18799 
L 304.138568 397.304774 
L 307.610459 396.411709 
L 311.026515 395.508838 
L 314.385981 394.596177 
L 317.688124 393.67373 
L 320.932194 392.741492 
L 324.117433 391.799424 
L 327.243075 390.847455 
L 330.308361 389.885472 
L 333.312533 388.913282 
L 336.254819 387.930586 
L 339.134368 386.936905 
L 341.950185 385.93147 
L 344.700831 384.912966 
L 347.383711 383.879025 
L 349.993015 382.824948 
L 352.513167 381.739988 
L 355.111824 380.502461 
" clip-path="url(#p64898dc1ca)" style="fill: none; stroke: #e5ae38"/>
   </g>
   <g id="line2d_5">
    <path d="M 359.253311 381.339395 
L 359.48261 382.779523 
L 359.893015 384.126765 
L 360.51096 385.432145 
L 361.329537 386.711875 
L 362.335825 387.972769 
L 363.5168 389.218189 
L 364.860701 390.449971 
L 366.357233 391.669195 
L 373.7065 396.441557 
L 375.852067 397.604687 
L 378.110409 398.757132 
L 380.477226 399.898897 
L 382.948609 401.029985 
L 385.521021 402.150384 
L 388.191211 403.260056 
L 390.956235 404.358963 
L 393.813366 405.447067 
L 396.760047 406.524314 
L 399.793955 407.590657 
L 402.912924 408.646032 
L 406.114902 409.690375 
L 409.39801 410.723623 
L 412.760449 411.74571 
L 416.200549 412.756567 
L 419.716715 413.756119 
L 423.307472 414.744278 
L 426.97143 415.720982 
L 430.707212 416.686148 
L 434.513566 417.639692 
L 438.389273 418.58153 
L 442.333213 419.511571 
L 446.344243 420.429729 
L 450.421389 421.335912 
L 454.563595 422.230028 
L 458.769895 423.111985 
L 463.039394 423.981682 
L 467.371225 424.839019 
L 471.764517 425.683884 
L 476.218457 426.516193 
L 480.732272 427.335816 
L 485.305209 428.142665 
L 489.936531 428.936612 
L 494.625512 429.717561 
L 499.37153 430.485366 
L 504.173934 431.239925 
L 509.032025 431.981111 
L 513.945231 432.70881 
L 518.912919 433.422877 
L 523.93458 434.123173 
L 529.009644 434.809571 
L 534.137551 435.481945 
L 539.317712 436.14013 
L 544.549696 436.783998 
L 544.549696 436.783998 
L 544.549755 436.783994 
" clip-path="url(#p64898dc1ca)" style="fill: none; stroke: #6d904f"/>
   </g>
   <g id="line2d_6">
    <path d="M 544.549731 310.428404 
L 544.549729 310.428398 
L 544.54967 310.428396 
L 544.54967 310.428396 
L 539.317728 310.842125 
L 534.137534 311.258951 
L 529.00964 311.678001 
L 523.934583 312.098416 
L 518.912926 312.519257 
L 513.945233 312.939583 
L 509.032009 313.358385 
L 504.17392 313.774682 
L 499.371559 314.18745 
L 494.625528 314.595675 
L 489.936524 314.998361 
L 485.305205 315.394575 
L 480.732286 315.783474 
L 476.218461 316.164254 
L 471.764535 316.53636 
L 467.371233 316.899421 
L 463.039393 317.253356 
L 458.769899 317.598458 
L 454.563579 317.93541 
L 450.421386 318.265471 
L 446.344261 318.590435 
L 442.333202 318.912808 
L 438.389269 319.235717 
L 434.513554 319.563069 
L 430.707201 319.899376 
L 426.971414 320.249912 
L 423.307489 320.620373 
L 419.716715 321.016882 
L 416.200541 321.445888 
L 412.760446 321.913826 
L 409.398012 322.42714 
L 406.114906 322.99197 
L 402.912917 323.614149 
L 399.793959 324.29904 
L 396.760048 325.051466 
L 393.81336 325.875741 
L 390.956243 326.775544 
L 388.191214 327.754102 
L 385.521016 328.81408 
L 382.948609 329.957735 
L 380.477227 331.1869 
L 378.110408 332.503131 
L 375.852067 333.907692 
L 373.706501 335.401731 
L 371.678512 336.986306 
L 369.77353 338.662486 
L 369.77353 338.662486 
L 369.773478 338.662488 
L 369.773474 338.662488 
L 367.997432 340.431505 
L 366.357233 342.294868 
L 364.860698 344.254633 
L 363.516796 346.313665 
L 362.335825 348.476192 
L 361.329537 350.748697 
L 360.510958 353.141734 
L 359.893017 355.673837 
L 359.482609 358.382119 
L 359.25331 361.359541 
" clip-path="url(#p64898dc1ca)" style="fill: none; stroke: #8b8b8b"/>
   </g>
   <g id="line2d_7">
    <path d="M 363.949629 381.941412 
L 379.237372 386.765576 
L 384.289589 387.716425 
L 389.774798 388.541455 
L 395.667034 389.25443 
L 401.943831 389.848262 
L 408.585663 390.31401 
L 415.575448 390.640473 
L 422.898137 390.81351 
L 430.540367 390.814868 
L 438.490147 390.620299 
L 446.736714 390.196145 
L 455.270294 389.492887 
L 464.081997 388.431162 
L 468.589558 387.725083 
L 473.163653 386.865419 
L 477.803367 385.804015 
L 482.507796 384.453172 
L 484.884016 383.616236 
L 487.276113 382.6124 
L 489.683972 381.33559 
L 492.411539 379.096174 
L 493.02034 378.197326 
L 493.439464 376.892618 
L 493.429924 376.084145 
L 493.325109 375.594395 
L 492.715827 374.338967 
L 492.107509 373.579104 
L 489.683969 371.620322 
L 487.276125 370.277659 
L 484.884022 369.205075 
L 482.507806 368.296331 
L 477.803366 366.791794 
L 473.163649 365.56174 
L 468.589568 364.516275 
L 464.081994 363.604627 
L 455.270304 362.059377 
L 422.898144 356.990903 
L 415.575449 355.45101 
L 401.943829 352.055694 
L 395.667035 350.720197 
L 389.774797 349.962994 
L 384.28959 349.883882 
L 379.237371 350.493398 
L 374.647994 351.764946 
L 370.554554 353.666166 
L 366.988162 356.180465 
L 363.949629 359.347506 
L 363.949629 359.347506 
" clip-path="url(#p64898dc1ca)" style="fill: none; stroke: #810f7c"/>
   </g>
   <g id="line2d_8">
    <path d="M 368.310496 382.195359 
L 395.866076 385.092622 
L 404.675227 384.920656 
L 414.157229 384.183772 
L 424.272917 382.519257 
L 434.988523 376.935839 
L 434.999272 376.890353 
L 434.999272 376.890353 
L 435.01002 376.840016 
L 435.01002 376.840016 
L 435.01002 376.840014 
L 435.020769 376.782834 
L 435.020769 376.782834 
L 435.031517 376.714995 
L 435.036894 376.674511 
L 435.036894 376.674507 
L 435.04227 376.626508 
L 435.04227 376.626508 
L 435.04227 376.626507 
L 435.047644 376.564121 
L 435.047644 376.56412 
L 435.053023 376.430847 
L 435.053039 376.429693 
L 435.05304 376.429398 
L 435.053058 376.427639 
L 435.05306 376.427037 
L 435.053061 376.426733 
L 435.053087 376.423101 
L 435.053089 376.42217 
L 435.053107 376.419042 
L 435.053111 376.418091 
L 435.053106 376.418077 
L 435.053116 376.416482 
L 435.053112 376.416143 
L 435.053116 376.414839 
L 435.053119 376.413521 
L 435.053123 376.411519 
L 435.053123 376.411186 
L 435.053124 376.410847 
L 435.053125 376.410508 
L 435.053128 376.410119 
L 435.053127 376.410093 
L 435.053125 376.410066 
L 435.053124 376.41004 
L 435.053113 376.406099 
L 435.053119 376.405868 
L 435.053119 376.405866 
L 435.053108 376.403287 
L 435.053103 376.402848 
L 435.053114 376.402714 
L 435.053108 376.402272 
L 435.053087 376.398823 
L 435.053087 376.398146 
L 435.053061 376.395612 
L 435.053061 376.395272 
L 435.053061 376.393595 
L 435.05304 376.392172 
L 435.05304 376.391835 
L 435.053019 376.389078 
L 435.047644 376.25709 
L 435.047644 376.257088 
L 435.042269 376.194164 
L 435.042269 376.194162 
L 435.042268 376.19416 
L 435.036894 376.145849 
L 435.036894 376.145849 
L 435.031519 376.105024 
L 435.020767 376.036426 
L 435.020767 376.036424 
L 435.01002 375.97853 
L 435.01002 375.97853 
L 435.01002 375.978527 
L 434.999276 375.927515 
L 434.999276 375.927514 
L 434.988528 375.881305 
L 424.27292 369.344418 
L 414.157224 366.048931 
L 404.675224 362.503046 
L 395.866075 358.678448 
L 387.775238 356.042824 
L 380.454554 355.22854 
L 380.454553 355.228539 
L 380.454538 355.228534 
L 380.454538 355.228534 
L 373.957608 356.095714 
L 368.310496 358.461333 
" clip-path="url(#p64898dc1ca)" style="fill: none; stroke: #008fd5"/>
   </g>
   <g id="line2d_9">
    <path d="M 372.671363 382.211626 
L 380.927054 382.913129 
L 390.354553 383.061256 
L 400.902493 382.259818 
L 412.873068 379.161089 
L 414.204549 378.28476 
L 414.874616 377.593951 
L 415.258802 376.87339 
L 415.352739 376.208239 
L 415.234762 375.598595 
L 414.874615 374.898737 
L 414.204551 374.112529 
L 413.252313 373.305402 
L 412.494781 372.773079 
L 400.902493 366.509717 
L 390.354563 360.585159 
L 380.927052 357.871168 
L 372.671363 358.403931 
L 372.671363 358.403931 
" clip-path="url(#p64898dc1ca)" style="fill: none; stroke: #fc4f30"/>
   </g>
   <g id="line2d_10">
    <path d="M 377.032231 381.993118 
L 382.276471 382.073842 
L 387.896487 381.984469 
L 393.89226 381.412637 
L 401.075026 379.896832 
L 402.732475 379.286343 
L 404.411776 378.404915 
L 405.365914 377.600659 
L 405.792165 376.973642 
L 405.982411 376.269363 
L 405.925642 375.65153 
L 405.685473 375.037847 
L 405.259561 374.392773 
L 404.411774 373.48646 
L 402.732471 372.108684 
L 393.892258 365.657901 
L 387.896493 361.924368 
L 382.276471 359.840114 
L 377.032231 359.168656 
L 377.032231 359.168656 
" clip-path="url(#p64898dc1ca)" style="fill: none; stroke: #e5ae38"/>
   </g>
   <g id="line2d_11">
    <path d="M 381.393098 381.496088 
L 387.899849 381.171782 
L 391.325309 380.706765 
L 395.768986 379.698506 
L 397.596425 379.042051 
L 398.98558 378.331156 
L 399.920483 377.603552 
L 400.567295 376.609868 
L 400.663128 375.86182 
L 400.508359 375.172075 
L 400.390565 374.895726 
L 399.452154 373.534303 
L 398.520767 372.547937 
L 394.865935 369.173433 
L 391.32531 366.121797 
L 387.899851 363.6931 
L 384.589613 361.965533 
L 381.393098 360.84954 
L 381.393098 360.84954 
" clip-path="url(#p64898dc1ca)" style="fill: none; stroke: #6d904f"/>
   </g>
  </g>
  <g id="text_1">
   <!-- Isoredshift lines for M=1.0 -->
   <g transform="translate(249.365437 27.165375)scale(0.168 -0.168)">
    <defs>
     <path id="DejaVuSans-49" d="M 628 4666 
L 1259 4666 
L 1259 0 
L 628 0 
L 628 4666 
z
" transform="scale(0.015625)"/>
     <path id="DejaVuSans-73" d="M 2834 3397 
L 2834 2853 
Q 2591 2978 2328 3040 
Q 2066 3103 1784 3103 
Q 1356 3103 1142 2972 
Q 928 2841 928 2578 
Q 928 2378 1081 2264 
Q 1234 2150 1697 2047 
L 1894 2003 
Q 2506 1872 2764 1633 
Q 3022 1394 3022 966 
Q 3022 478 2636 193 
Q 2250 -91 1575 -91 
Q 1294 -91 989 -36 
Q 684 19 347 128 
L 347 722 
Q 666 556 975 473 
Q 1284 391 1588 391 
Q 1994 391 2212 530 
Q 2431 669 2431 922 
Q 2431 1156 2273 1281 
Q 2116 1406 1581 1522 
L 1381 1569 
Q 847 1681 609 1914 
Q 372 2147 372 2553 
Q 372 3047 722 3315 
Q 1072 3584 1716 3584 
Q 2034 3584 2315 3537 
Q 2597 3491 2834 3397 
z
" transform="scale(0.015625)"/>
     <path id="DejaVuSans-6f" d="M 1959 3097 
Q 1497 3097 1228 2736 
Q 959 2375 959 1747 
Q 959 1119 1226 758 
Q 1494 397 1959 397 
Q 2419 397 2687 759 
Q 2956 1122 2956 1747 
Q 2956 2369 2687 2733 
Q 2419 3097 1959 3097 
z
M 1959 3584 
Q 2709 3584 3137 3096 
Q 3566 2609 3566 1747 
Q 3566 888 3137 398 
Q 2709 -91 1959 -91 
Q 1206 -91 779 398 
Q 353 888 353 1747 
Q 353 2609 779 3096 
Q 1206 3584 1959 3584 
z
" transform="scale(0.015625)"/>
     <path id="DejaVuSans-72" d="M 2631 2963 
Q 2534 3019 2420 3045 
Q 2306 3072 2169 3072 
Q 1681 3072 1420 2755 
Q 1159 2438 1159 1844 
L 1159 0 
L 581 0 
L 581 3500 
L 1159 3500 
L 1159 2956 
Q 1341 3275 1631 3429 
Q 1922 3584 2338 3584 
Q 2397 3584 2469 3576 
Q 2541 3569 2628 3553 
L 2631 2963 
z
" transform="scale(0.015625)"/>
     <path id="DejaVuSans-65" d="M 3597 1894 
L 3597 1613 
L 953 1613 
Q 991 1019 1311 708 
Q 1631 397 2203 397 
Q 2534 397 2845 478 
Q 3156 559 3463 722 
L 3463 178 
Q 3153 47 2828 -22 
Q 2503 -91 2169 -91 
Q 1331 -91 842 396 
Q 353 884 353 1716 
Q 353 2575 817 3079 
Q 1281 3584 2069 3584 
Q 2775 3584 3186 3129 
Q 3597 2675 3597 1894 
z
M 3022 2063 
Q 3016 2534 2758 2815 
Q 2500 3097 2075 3097 
Q 1594 3097 1305 2825 
Q 1016 2553 972 2059 
L 3022 2063 
z
" transform="scale(0.015625)"/>
     <path id="DejaVuSans-64" d="M 2906 2969 
L 2906 4863 
L 3481 4863 
L 3481 0 
L 2906 0 
L 2906 525 
Q 2725 213 2448 61 
Q 2172 -91 1784 -91 
Q 1150 -91 751 415 
Q 353 922 353 1747 
Q 353 2572 751 3078 
Q 1150 3584 1784 3584 
Q 2172 3584 2448 3432 
Q 2725 3281 2906 2969 
z
M 947 1747 
Q 947 1113 1208 752 
Q 1469 391 1925 391 
Q 2381 391 2643 752 
Q 2906 1113 2906 1747 
Q 2906 2381 2643 2742 
Q 2381 3103 1925 3103 
Q 1469 3103 1208 2742 
Q 947 2381 947 1747 
z
" transform="scale(0.015625)"/>
     <path id="DejaVuSans-68" d="M 3513 2113 
L 3513 0 
L 2938 0 
L 2938 2094 
Q 2938 2591 2744 2837 
Q 2550 3084 2163 3084 
Q 1697 3084 1428 2787 
Q 1159 2491 1159 1978 
L 1159 0 
L 581 0 
L 581 4863 
L 1159 4863 
L 1159 2956 
Q 1366 3272 1645 3428 
Q 1925 3584 2291 3584 
Q 2894 3584 3203 3211 
Q 3513 2838 3513 2113 
z
" transform="scale(0.015625)"/>
     <path id="DejaVuSans-69" d="M 603 3500 
L 1178 3500 
L 1178 0 
L 603 0 
L 603 3500 
z
M 603 4863 
L 1178 4863 
L 1178 4134 
L 603 4134 
L 603 4863 
z
" transform="scale(0.015625)"/>
     <path id="DejaVuSans-66" d="M 2375 4863 
L 2375 4384 
L 1825 4384 
Q 1516 4384 1395 4259 
Q 1275 4134 1275 3809 
L 1275 3500 
L 2222 3500 
L 2222 3053 
L 1275 3053 
L 1275 0 
L 697 0 
L 697 3053 
L 147 3053 
L 147 3500 
L 697 3500 
L 697 3744 
Q 697 4328 969 4595 
Q 1241 4863 1831 4863 
L 2375 4863 
z
" transform="scale(0.015625)"/>
     <path id="DejaVuSans-74" d="M 1172 4494 
L 1172 3500 
L 2356 3500 
L 2356 3053 
L 1172 3053 
L 1172 1153 
Q 1172 725 1289 603 
Q 1406 481 1766 481 
L 2356 481 
L 2356 0 
L 1766 0 
Q 1100 0 847 248 
Q 594 497 594 1153 
L 594 3053 
L 172 3053 
L 172 3500 
L 594 3500 
L 594 4494 
L 1172 4494 
z
" transform="scale(0.015625)"/>
     <path id="DejaVuSans-20" transform="scale(0.015625)"/>
     <path id="DejaVuSans-6c" d="M 603 4863 
L 1178 4863 
L 1178 0 
L 603 0 
L 603 4863 
z
" transform="scale(0.015625)"/>
     <path id="DejaVuSans-6e" d="M 3513 2113 
L 3513 0 
L 2938 0 
L 2938 2094 
Q 2938 2591 2744 2837 
Q 2550 3084 2163 3084 
Q 1697 3084 1428 2787 
Q 1159 2491 1159 1978 
L 1159 0 
L 581 0 
L 581 3500 
L 1159 3500 
L 1159 2956 
Q 1366 3272 1645 3428 
Q 1925 3584 2291 3584 
Q 2894 3584 3203 3211 
Q 3513 2838 3513 2113 
z
" transform="scale(0.015625)"/>
     <path id="DejaVuSans-4d" d="M 628 4666 
L 1569 4666 
L 2759 1491 
L 3956 4666 
L 4897 4666 
L 4897 0 
L 4281 0 
L 4281 4097 
L 3078 897 
L 2444 897 
L 1241 4097 
L 1241 0 
L 628 0 
L 628 4666 
z
" transform="scale(0.015625)"/>
     <path id="DejaVuSans-3d" d="M 678 2906 
L 4684 2906 
L 4684 2381 
L 678 2381 
L 678 2906 
z
M 678 1631 
L 4684 1631 
L 4684 1100 
L 678 1100 
L 678 1631 
z
" transform="scale(0.015625)"/>
     <path id="DejaVuSans-31" d="M 794 531 
L 1825 531 
L 1825 4091 
L 703 3866 
L 703 4441 
L 1819 4666 
L 2450 4666 
L 2450 531 
L 3481 531 
L 3481 0 
L 794 0 
L 794 531 
z
" transform="scale(0.015625)"/>
     <path id="DejaVuSans-2e" d="M 684 794 
L 1344 794 
L 1344 0 
L 684 0 
L 684 794 
z
" transform="scale(0.015625)"/>
     <path id="DejaVuSans-30" d="M 2034 4250 
Q 1547 4250 1301 3770 
Q 1056 3291 1056 2328 
Q 1056 1369 1301 889 
Q 1547 409 2034 409 
Q 2525 409 2770 889 
Q 3016 1369 3016 2328 
Q 3016 3291 2770 3770 
Q 2525 4250 2034 4250 
z
M 2034 4750 
Q 2819 4750 3233 4129 
Q 3647 3509 3647 2328 
Q 3647 1150 3233 529 
Q 2819 -91 2034 -91 
Q 1250 -91 836 529 
Q 422 1150 422 2328 
Q 422 3509 836 4129 
Q 1250 4750 2034 4750 
z
" transform="scale(0.015625)"/>
    </defs>
    <use xlink:href="#DejaVuSans-49"/>
    <use xlink:href="#DejaVuSans-73" x="29.492188"/>
    <use xlink:href="#DejaVuSans-6f" x="81.591797"/>
    <use xlink:href="#DejaVuSans-72" x="142.773438"/>
    <use xlink:href="#DejaVuSans-65" x="181.636719"/>
    <use xlink:href="#DejaVuSans-64" x="243.160156"/>
    <use xlink:href="#DejaVuSans-73" x="306.636719"/>
    <use xlink:href="#DejaVuSans-68" x="358.736328"/>
    <use xlink:href="#DejaVuSans-69" x="422.115234"/>
    <use xlink:href="#DejaVuSans-66" x="449.898438"/>
    <use xlink:href="#DejaVuSans-74" x="483.353516"/>
    <use xlink:href="#DejaVuSans-20" x="522.5625"/>
    <use xlink:href="#DejaVuSans-6c" x="554.349609"/>
    <use xlink:href="#DejaVuSans-69" x="582.132812"/>
    <use xlink:href="#DejaVuSans-6e" x="609.916016"/>
    <use xlink:href="#DejaVuSans-65" x="673.294922"/>
    <use xlink:href="#DejaVuSans-73" x="734.818359"/>
    <use xlink:href="#DejaVuSans-20" x="786.917969"/>
    <use xlink:href="#DejaVuSans-66" x="818.705078"/>
    <use xlink:href="#DejaVuSans-6f" x="853.910156"/>
    <use xlink:href="#DejaVuSans-72" x="915.091797"/>
    <use xlink:href="#DejaVuSans-20" x="956.205078"/>
    <use xlink:href="#DejaVuSans-4d" x="987.992188"/>
    <use xlink:href="#DejaVuSans-3d" x="1074.271484"/>
    <use xlink:href="#DejaVuSans-31" x="1158.060547"/>
    <use xlink:href="#DejaVuSans-2e" x="1221.683594"/>
    <use xlink:href="#DejaVuSans-30" x="1253.470703"/>
   </g>
  </g>
 </g>
 <defs>
  <clipPath id="p64898dc1ca">
   <rect x="57.6" y="86.4" width="626.4" height="583.2"/>
  </clipPath>
 </defs>
</svg>
