<?xml version="1.0" encoding="utf-8" standalone="no"?>
<!DOCTYPE svg PUBLIC "-//W3C//DTD SVG 1.1//EN"
  "http://www.w3.org/Graphics/SVG/1.1/DTD/svg11.dtd">
<svg xmlns:xlink="http://www.w3.org/1999/xlink" width="720pt" height="720pt" viewBox="0 0 720 720" xmlns="http://www.w3.org/2000/svg" version="1.1">
 <metadata>
  <rdf:RDF xmlns:dc="http://purl.org/dc/elements/1.1/" xmlns:cc="http://creativecommons.org/ns#" xmlns:rdf="http://www.w3.org/1999/02/22-rdf-syntax-ns#">
   <cc:Work>
    <dc:type rdf:resource="http://purl.org/dc/dcmitype/StillImage"/>
    <dc:date>2023-06-28T19:45:46.228692</dc:date>
    <dc:format>image/svg+xml</dc:format>
    <dc:creator>
     <cc:Agent>
      <dc:title>Matplotlib v3.5.2, https://matplotlib.org/</dc:title>
     </cc:Agent>
    </dc:creator>
   </cc:Work>
  </rdf:RDF>
 </metadata>
 <defs>
  <style type="text/css">*{stroke-linejoin: round; stroke-linecap: butt}</style>
 </defs>
 <g id="figure_1">
  <g id="patch_1">
   <path d="M 0 720 
L 720 720 
L 720 0 
L 0 0 
z
" style="fill: #1a1a1a"/>
  </g>
  <g id="axes_1">
   <g id="line2d_1">
    <path d="M 370.8 382.190339 
L 374.95645 382.105343 
L 375.025369 382.043898 
L 375.486641 382.080751 
L 375.555078 382.011536 
L 376.080603 382.048996 
L 376.14843 381.971077 
L 376.753812 382.007403 
L 376.820852 381.919619 
L 377.526044 381.952002 
L 377.592051 381.852904 
L 377.956916 381.917353 
L 378.022283 381.811942 
L 378.422447 381.876773 
L 378.48707 381.764542 
L 378.926746 381.828985 
L 378.990499 381.709367 
L 379.474289 381.772383 
L 379.537016 381.644744 
L 380.069812 381.704943 
L 380.131325 381.568582 
L 380.718101 381.624115 
L 380.778166 381.478259 
L 381.423587 381.526681 
L 381.481917 381.370495 
L 382.189649 381.408613 
L 382.245887 381.241211 
L 383.017448 381.264921 
L 383.071154 381.0854 
L 383.904123 381.089558 
L 383.954752 380.89706 
L 384.840139 380.875472 
L 384.887031 380.669277 
L 385.805779 380.614962 
L 385.848146 380.394642 
L 387.643002 380.426768 
L 387.681957 380.179537 
L 388.825645 380.058396 
L 388.858224 379.793872 
L 389.97279 379.620746 
L 389.997824 379.339459 
L 391.024034 379.11321 
L 391.040355 378.816573 
L 391.919065 378.541995 
L 391.925613 378.232308 
L 392.612589 377.920049 
L 392.608533 377.600271 
L 393.086365 377.264511 
L 393.071162 376.937868 
L 393.351455 376.592704 
L 393.324857 376.262259 
L 393.44004 375.918697 
L 393.187554 374.268281 
L 391.057602 370.078754 
L 390.468818 369.269882 
L 389.933953 368.449825 
L 389.538615 367.927376 
L 388.951119 367.148012 
L 387.394165 365.478973 
L 386.455295 364.582197 
L 385.470086 363.73698 
L 384.183419 362.748181 
L 381.394832 361.069066 
L 378.69394 359.905058 
L 376.817219 359.316968 
L 374.893505 358.888988 
L 372.937568 358.624858 
L 370.635314 358.526885 
L 368.33467 358.65598 
L 366.060934 359.013598 
L 364.151276 359.495434 
L 362.293376 360.135822 
L 360.500892 360.929191 
L 359.060582 361.694556 
L 356.372965 363.523675 
L 353.511611 366.169419 
L 350.542398 370.078754 
L 350.066296 370.945292 
L 349.732554 371.524253 
L 349.513338 371.801216 
L 349.411137 372.114062 
L 349.19703 372.397973 
L 349.10496 372.715382 
L 348.901103 373.00739 
L 348.563526 373.95602 
L 348.352107 374.596961 
L 348.207297 375.251803 
L 348.248545 376.592704 
L 348.528838 376.937868 
L 348.513635 377.264511 
L 348.991467 377.600271 
L 348.987411 377.920049 
L 349.674387 378.232308 
L 349.680935 378.541995 
L 350.559645 378.816573 
L 350.575966 379.11321 
L 351.602176 379.339459 
L 351.62721 379.620746 
L 352.741776 379.793872 
L 352.774355 380.058396 
L 353.918043 380.179537 
L 353.956998 380.426768 
L 355.751854 380.394642 
L 355.794221 380.614962 
L 356.712969 380.669277 
L 356.759861 380.875472 
L 357.645248 380.89706 
L 357.695877 381.089558 
L 358.528846 381.0854 
L 358.582552 381.264921 
L 359.354113 381.241211 
L 359.410351 381.408613 
L 360.118083 381.370495 
L 360.176413 381.526681 
L 360.821834 381.478259 
L 360.881899 381.624115 
L 361.468675 381.568582 
L 361.530188 381.704943 
L 362.062984 381.644744 
L 362.125711 381.772383 
L 362.609501 381.709367 
L 362.673254 381.828985 
L 363.11293 381.764542 
L 363.177553 381.876773 
L 363.577717 381.811942 
L 363.643084 381.917353 
L 364.407324 381.888506 
L 364.473884 381.981745 
L 365.126362 381.94695 
L 365.193821 382.02964 
L 365.757077 381.992474 
L 365.825228 382.065912 
L 366.316906 382.028586 
L 366.385598 382.093812 
L 366.819515 382.057698 
L 366.888637 382.115552 
L 367.275679 382.081508 
L 367.345147 382.132671 
L 367.69398 382.101232 
L 367.961017 382.151984 
L 368.265204 382.125028 
L 368.513547 382.165769 
L 368.949002 382.148964 
L 369.337169 382.180436 
L 369.869225 382.173814 
L 370.516151 382.18997 
L 370.8 382.190339 
L 370.8 382.190339 
" clip-path="url(#p2644e9cd88)" style="fill: none; stroke: #fc4f30; stroke-width: 2"/>
   </g>
   <g id="line2d_2">
    <path d="M 349.189771 371.952388 
L 342.633545 374.425671 
L 341.469203 375.086151 
L 340.929382 375.620259 
L 340.811559 376.058308 
L 340.929381 376.361624 
L 341.273348 376.69088 
L 341.859384 377.007187 
L 343.017478 377.389684 
L 344.904623 377.757794 
L 347.802972 378.038848 
L 349.18977 378.091195 
L 349.18977 378.091195 
" clip-path="url(#p2644e9cd88)" style="fill: none; stroke: #008fd5"/>
   </g>
   <g id="line2d_3">
    <path d="M 352.879735 366.597025 
L 349.296502 366.099399 
L 345.423782 365.949971 
L 327.880941 365.75646 
L 307.613659 365.391342 
L 296.574829 365.397045 
L 284.974717 365.655964 
L 272.839024 366.276019 
L 266.577437 366.768966 
L 260.19015 367.423734 
L 253.67954 368.290864 
L 247.047873 369.461401 
L 243.687336 370.215543 
L 240.297322 371.144966 
L 236.878085 372.366846 
L 233.213406 374.510768 
L 232.563338 375.243134 
L 232.237926 375.865182 
L 232.129381 376.752126 
L 232.454892 377.663851 
L 232.996821 378.347754 
L 233.429881 378.742702 
L 236.878076 380.654209 
L 240.297314 381.832153 
L 243.687332 382.716159 
L 247.047882 383.423338 
L 253.679541 384.49488 
L 260.190143 385.25561 
L 266.577437 385.795595 
L 272.839011 386.164189 
L 278.972336 386.392279 
L 290.843239 386.50512 
L 302.166166 386.243628 
L 312.913404 385.672664 
L 323.052105 384.834237 
L 332.541432 383.75583 
L 341.324983 382.451372 
L 349.296501 380.905529 
L 352.879735 380.001387 
L 352.879735 380.001387 
" clip-path="url(#p2644e9cd88)" style="fill: none; stroke: #fc4f30"/>
   </g>
   <g id="line2d_4">
    <path d="M 356.5697 363.127937 
L 355.193723 360.824102 
L 353.800706 358.768865 
L 352.432653 356.858193 
L 351.096489 355.046663 
L 349.790813 353.309321 
L 348.512224 351.630513 
L 347.257084 349.99959 
L 346.022036 348.408839 
L 344.804157 346.852462 
L 343.600919 345.325931 
L 342.410158 343.825637 
L 341.230001 342.34864 
L 340.058874 340.892497 
L 338.895379 339.455151 
L 337.738329 338.034871 
L 336.586673 336.630144 
L 335.439511 335.239677 
L 334.296028 333.862332 
L 333.155524 332.497119 
L 332.017367 331.143139 
L 330.880993 329.799596 
L 329.745928 328.465782 
L 328.611698 327.141092 
L 327.477917 325.8249 
L 326.34422 324.516737 
L 325.210283 323.216084 
L 324.075807 321.92253 
L 322.940531 320.635667 
L 321.804217 319.355157 
L 320.666619 318.080652 
L 319.527562 316.811808 
L 318.386851 315.548378 
L 317.244307 314.290095 
L 316.099807 313.036699 
L 314.953174 311.787954 
L 313.804306 310.543671 
L 312.653061 309.303605 
L 311.499339 308.067612 
L 310.343022 306.835518 
L 309.184051 305.607137 
L 308.022312 304.382306 
L 306.857725 303.160903 
L 305.69023 301.94278 
L 304.519741 300.727821 
L 303.346206 299.515889 
L 302.169574 298.306842 
L 300.989763 297.100639 
L 299.806762 295.897122 
L 298.620491 294.696227 
L 297.43092 293.497837 
L 296.238016 292.301842 
L 295.041724 291.108244 
L 293.842018 289.916882 
L 292.638878 288.727673 
L 291.432265 287.540616 
L 290.222137 286.355613 
L 290.222134 286.355615 
L 290.222114 286.355598 
" clip-path="url(#p2644e9cd88)" style="fill: none; stroke: #e5ae38"/>
   </g>
   <g id="line2d_5">
    <path d="M 290.222133 446.193278 
L 290.222135 446.19328 
L 290.222137 446.193282 
L 290.222139 446.193284 
L 291.432251 445.040505 
L 292.638871 443.8875 
L 293.842029 442.73427 
L 295.041724 441.580825 
L 296.238012 440.427132 
L 297.430922 439.273239 
L 298.620512 438.119095 
L 299.806751 436.964729 
L 300.989792 435.810142 
L 302.169574 434.655309 
L 303.346209 433.500269 
L 304.519728 432.344986 
L 305.690224 431.189473 
L 306.857738 430.03373 
L 308.022293 428.877746 
L 309.184051 427.721536 
L 310.343043 426.565078 
L 311.499338 425.40838 
L 312.653059 424.25145 
L 313.804316 423.094283 
L 314.953184 421.936866 
L 316.09981 420.779198 
L 317.244318 419.621288 
L 318.386856 418.463125 
L 319.527562 417.304714 
L 320.666618 416.146028 
L 321.804203 414.987089 
L 322.940531 413.827888 
L 324.075811 412.668399 
L 325.210283 411.508642 
L 326.344221 410.348591 
L 327.47791 409.188257 
L 328.611699 408.027617 
L 329.745927 406.866666 
L 330.881002 405.705379 
L 332.017359 404.54376 
L 333.155516 403.381779 
L 334.296028 402.219415 
L 335.439509 401.056653 
L 336.586673 399.893449 
L 337.738328 398.72977 
L 338.89538 397.565567 
L 340.058877 396.400784 
L 341.230007 395.235337 
L 342.410153 394.069128 
L 343.600923 392.902023 
L 344.804162 391.73384 
L 346.022036 390.564329 
L 347.257078 389.393123 
L 348.512224 388.219689 
L 349.790818 387.043191 
L 351.096491 385.862255 
L 356.5697 380.764445 
" clip-path="url(#p2644e9cd88)" style="fill: none; stroke: #6d904f"/>
   </g>
   <g id="line2d_6">
    <path d="M 360.259664 381.504169 
L 361.090943 382.955752 
L 362.177632 384.308785 
L 363.540323 385.611423 
L 365.16693 386.879026 
L 373.982932 391.687011 
L 376.694909 392.842677 
L 379.588189 393.965126 
L 382.654146 395.065472 
L 385.885184 396.143623 
L 389.274507 397.199427 
L 392.816051 398.232688 
L 396.504309 399.243181 
L 400.334331 400.23065 
L 404.301583 401.194812 
L 408.401915 402.135368 
L 412.631512 403.051991 
L 416.98686 403.944338 
L 421.464685 404.812053 
L 426.061981 405.654744 
L 430.775895 406.472019 
L 435.60377 407.263458 
L 440.543192 408.028608 
L 445.591763 408.767022 
L 450.747302 409.478196 
L 456.007784 410.161618 
L 461.371209 410.816757 
L 466.835734 411.443051 
L 472.399557 412.039898 
L 478.061072 412.606667 
L 483.818624 413.142704 
L 489.670734 413.647297 
L 495.615916 414.119708 
L 501.652774 414.559162 
L 507.780023 414.964812 
L 513.996374 415.335774 
L 520.300532 415.671122 
L 526.691429 415.969829 
L 533.167823 416.230833 
L 539.728744 416.452953 
L 546.373031 416.634984 
L 553.099755 416.775554 
L 559.907882 416.873254 
L 566.796522 416.926486 
L 573.764742 416.933568 
L 580.811595 416.892665 
L 587.93633 416.801698 
L 595.138073 416.65846 
L 602.416029 416.460469 
L 609.76941 416.205008 
L 617.197493 415.889001 
L 624.699499 415.509023 
L 632.274799 415.061169 
L 639.922581 414.54107 
L 639.922581 414.54107 
L 639.922581 414.541068 
" clip-path="url(#p2644e9cd88)" style="fill: none; stroke: #8b8b8b"/>
   </g>
   <g id="line2d_7">
    <path d="M 639.922585 337.59186 
L 639.922583 337.591849 
L 639.922556 337.591851 
L 639.922556 337.591851 
L 632.274779 336.976491 
L 624.699533 336.428617 
L 617.197507 335.94342 
L 609.769456 335.51667 
L 602.416038 335.14445 
L 595.138089 334.823235 
L 587.936354 334.549768 
L 580.811614 334.320929 
L 573.764706 334.133854 
L 566.796531 333.985772 
L 559.907894 333.873974 
L 553.099755 333.795841 
L 546.373035 333.748789 
L 539.728742 333.730179 
L 533.167832 333.737399 
L 526.691403 333.767726 
L 520.300536 333.818344 
L 513.996352 333.886339 
L 507.780044 333.968589 
L 501.65278 334.061796 
L 495.615904 334.162471 
L 489.670739 334.266862 
L 483.81863 334.370949 
L 478.06108 334.470514 
L 472.399556 334.561092 
L 466.835731 334.638169 
L 461.371198 334.697254 
L 456.007777 334.734218 
L 450.747313 334.745681 
L 445.591746 334.72955 
L 440.543186 334.685776 
L 435.60378 334.61711 
L 430.775893 334.529943 
L 426.061984 334.434862 
L 421.464687 334.346752 
L 416.986864 334.284344 
L 412.63152 334.269043 
L 408.401914 334.323373 
L 404.301584 334.469336 
L 400.334334 334.726901 
L 396.50431 335.113131 
L 392.81605 335.641684 
L 389.274512 336.322876 
L 385.885186 337.164043 
L 382.654147 338.169959 
L 379.588182 339.34349 
L 376.694909 340.686055 
L 373.982932 342.198216 
L 371.462057 343.880164 
L 369.143515 345.732244 
L 369.143515 345.732244 
L 369.143515 345.732244 
L 369.143514 345.732244 
L 367.040205 347.755656 
L 365.16693 349.953409 
L 363.540323 352.332156 
L 362.177627 354.90608 
L 361.090942 357.707289 
L 360.259664 360.822955 
" clip-path="url(#p2644e9cd88)" style="fill: none; stroke: #810f7c"/>
   </g>
   <g id="line2d_8">
    <path d="M 363.949629 381.941412 
L 379.237372 386.765576 
L 384.289589 387.716425 
L 389.774798 388.541455 
L 395.667034 389.25443 
L 401.943831 389.848262 
L 408.585663 390.31401 
L 415.575448 390.640473 
L 422.898137 390.81351 
L 430.540367 390.814868 
L 438.490147 390.620299 
L 446.736714 390.196145 
L 455.270294 389.492887 
L 464.081997 388.431162 
L 468.589558 387.725083 
L 473.163653 386.865419 
L 477.803367 385.804015 
L 482.507796 384.453172 
L 484.884016 383.616236 
L 487.276113 382.6124 
L 489.683972 381.33559 
L 492.411539 379.096174 
L 493.02034 378.197326 
L 493.439464 376.892618 
L 493.429924 376.084145 
L 493.325109 375.594395 
L 492.715827 374.338967 
L 492.107509 373.579104 
L 489.683969 371.620322 
L 487.276125 370.277659 
L 484.884022 369.205075 
L 482.507806 368.296331 
L 477.803366 366.791794 
L 473.163649 365.56174 
L 468.589568 364.516275 
L 464.081994 363.604627 
L 455.270304 362.059377 
L 422.898144 356.990903 
L 415.575449 355.45101 
L 401.943829 352.055694 
L 395.667035 350.720197 
L 389.774797 349.962994 
L 384.28959 349.883882 
L 379.237371 350.493398 
L 374.647994 351.764946 
L 370.554554 353.666166 
L 366.988162 356.180465 
L 363.949629 359.347506 
L 363.949629 359.347506 
" clip-path="url(#p2644e9cd88)" style="fill: none; stroke: #008fd5"/>
   </g>
   <g id="line2d_9">
    <path d="M 367.975045 382.184567 
L 394.586946 385.29993 
L 403.107104 385.267228 
L 412.281664 384.756212 
L 422.072472 383.53676 
L 433.11371 380.563467 
L 435.127883 379.508878 
L 436.142209 378.763596 
L 436.991137 377.826561 
L 437.374243 377.006436 
L 437.448809 376.279535 
L 437.289047 375.567005 
L 436.991133 374.984579 
L 436.481379 374.332159 
L 435.465457 373.42401 
L 434.454336 372.732258 
L 432.446625 371.640694 
L 422.072471 367.859966 
L 412.281668 364.789918 
L 403.107098 361.270048 
L 394.586944 357.727373 
L 386.765452 355.499134 
L 379.693014 354.986813 
L 373.421498 356.038279 
L 367.975045 358.499378 
L 367.975045 358.499378 
" clip-path="url(#p2644e9cd88)" style="fill: none; stroke: #fc4f30"/>
   </g>
   <g id="line2d_10">
    <path d="M 371.665009 382.228179 
L 379.318714 383.065592 
L 388.069943 383.43513 
L 397.873122 383.097389 
L 408.657388 381.660066 
L 411.498793 380.977553 
L 414.396382 380.020835 
L 415.86596 379.35422 
L 417.34924 378.40273 
L 418.095989 377.636413 
L 418.470632 376.932367 
L 418.571753 376.237888 
L 418.470631 375.67633 
L 418.095988 374.927924 
L 417.349238 374.069537 
L 415.865959 372.919604 
L 414.396378 372.033271 
L 411.498794 370.561151 
L 408.657384 369.238707 
L 397.873125 363.678533 
L 388.069936 358.94562 
L 379.318721 357.283141 
L 371.665009 358.345442 
L 371.665009 358.345442 
" clip-path="url(#p2644e9cd88)" style="fill: none; stroke: #e5ae38"/>
   </g>
   <g id="line2d_11">
    <path d="M 375.354974 382.106444 
L 380.113636 382.344811 
L 390.663001 382.2184 
L 397.944207 381.404394 
L 400.999274 380.816298 
L 404.133657 379.95476 
L 406.132279 379.157616 
L 407.549227 378.329669 
L 408.365486 377.581387 
L 408.801054 376.84767 
L 408.919285 376.166796 
L 408.801054 375.516859 
L 408.46785 374.849568 
L 407.752846 373.982214 
L 406.535623 372.929778 
L 404.929473 371.79833 
L 390.662998 362.511079 
L 385.215941 360.044351 
L 380.113635 358.867047 
L 375.354974 358.773786 
L 375.354974 358.773786 
" clip-path="url(#p2644e9cd88)" style="fill: none; stroke: #6d904f"/>
   </g>
   <g id="line2d_12">
    <path d="M 379.044939 381.803518 
L 384.871879 381.637613 
L 387.940469 381.577985 
L 392.738332 381.021568 
L 396.065614 380.392338 
L 398.627692 379.68859 
L 400.367099 379.017054 
L 401.687962 378.292011 
L 402.576252 377.540143 
L 403.148543 376.511232 
L 403.190516 375.878014 
L 403.022702 375.221864 
L 402.576253 374.427823 
L 401.687958 373.397477 
L 400.367099 372.196195 
L 394.38921 367.332081 
L 391.113158 364.827612 
L 387.940466 362.820249 
L 384.871876 361.353323 
L 381.907251 360.374096 
L 379.044939 359.820217 
L 379.044939 359.820217 
" clip-path="url(#p2644e9cd88)" style="fill: none; stroke: #8b8b8b"/>
   </g>
   <g id="line2d_13">
    <path d="M 382.734903 381.269418 
L 386.122386 380.932319 
L 389.630113 380.723802 
L 393.259506 380.012757 
L 397.01038 378.727436 
L 397.487733 378.477299 
L 397.966965 378.184733 
L 398.448074 377.827159 
L 398.931059 377.348907 
L 399.052096 377.19335 
L 399.052096 377.193349 
L 399.17325 377.010628 
L 399.17325 377.010626 
L 399.294523 376.781689 
L 399.294523 376.781689 
L 399.41591 376.441481 
L 399.431093 376.37841 
L 399.431093 376.378409 
L 399.446277 376.30348 
L 399.446277 376.303479 
L 399.446277 376.303478 
L 399.446277 376.303477 
L 399.461462 376.206159 
L 399.461462 376.206159 
L 399.476648 376.020879 
L 399.476886 376.013599 
L 399.476887 376.013566 
L 399.477123 376.005408 
L 399.477123 376.005406 
L 399.477123 376.005406 
L 399.47736 375.995734 
L 399.477361 375.995663 
L 399.477599 375.983013 
L 399.477656 375.979208 
L 399.477657 375.979062 
L 399.477715 375.974529 
L 399.477716 375.974453 
L 399.477717 375.974226 
L 399.477776 375.968308 
L 399.477776 375.968307 
L 399.477835 375.958299 
L 399.477837 375.957701 
L 399.47784 375.957103 
L 399.477839 375.957019 
L 399.477839 375.956939 
L 399.47784 375.956698 
L 399.477841 375.956095 
L 399.477843 375.955332 
L 399.477844 375.955008 
L 399.477844 375.954927 
L 399.477845 375.954523 
L 399.477845 375.95404 
L 399.477846 375.953389 
L 399.477847 375.951144 
L 399.477847 375.948874 
L 399.477846 375.948866 
L 399.477845 375.948365 
L 399.477845 375.947866 
L 399.477844 375.947614 
L 399.477844 375.94749 
L 399.477843 375.947482 
L 399.477841 375.946444 
L 399.477841 375.946322 
L 399.477839 375.94561 
L 399.477839 375.945568 
L 399.477839 375.945241 
L 399.477837 375.944733 
L 399.477835 375.944513 
L 399.477776 375.934567 
L 399.477776 375.934565 
L 399.477717 375.928389 
L 399.477717 375.928349 
L 399.477717 375.928309 
L 399.477657 375.923689 
L 399.477657 375.923567 
L 399.477598 375.919481 
L 399.477361 375.9069 
L 399.477361 375.90686 
L 399.477123 375.897111 
L 399.477123 375.897029 
L 399.477123 375.896992 
L 399.476886 375.888756 
L 399.476886 375.888716 
L 399.476649 375.881424 
L 399.461462 375.690374 
L 399.461461 375.690373 
L 399.446276 375.587332 
L 399.446276 375.587331 
L 399.446276 375.587331 
L 399.446276 375.58733 
L 399.431094 375.506681 
L 399.431094 375.50668 
L 399.415911 375.437869 
L 399.294522 375.051273 
L 399.294522 375.051271 
L 399.17325 374.775166 
L 399.173249 374.775164 
L 399.052097 374.544475 
L 399.052097 374.544474 
L 398.931059 374.340131 
L 398.448075 373.658481 
L 397.966966 373.083991 
L 397.487733 372.560759 
L 397.010379 372.066253 
L 393.259503 368.449279 
L 389.630119 365.369516 
L 386.122389 363.098904 
L 382.734903 361.58378 
" clip-path="url(#p2644e9cd88)" style="fill: none; stroke: #810f7c"/>
   </g>
   <g id="line2d_14">
    <path d="M 386.488176 380.502461 
L 388.364092 380.369315 
L 390.337524 379.976575 
L 392.345543 379.440999 
L 394.904506 378.388928 
L 395.943344 377.671841 
L 396.662601 376.780898 
L 396.880002 376.055031 
L 396.859476 375.447637 
L 396.597043 374.614432 
L 396.466032 374.344881 
L 395.422836 372.790684 
L 394.388356 371.544373 
L 392.345544 369.300454 
L 390.337524 367.318291 
L 388.364091 365.643559 
L 386.424868 364.275057 
L 386.424868 364.275057 
" clip-path="url(#p2644e9cd88)" style="fill: none; stroke: #008fd5"/>
   </g>
  </g>
  <g id="text_1">
   <!-- Isoredshift lines for M=1.0 -->
   <g transform="translate(249.365437 27.165375)scale(0.168 -0.168)">
    <defs>
     <path id="DejaVuSans-49" d="M 628 4666 
L 1259 4666 
L 1259 0 
L 628 0 
L 628 4666 
z
" transform="scale(0.015625)"/>
     <path id="DejaVuSans-73" d="M 2834 3397 
L 2834 2853 
Q 2591 2978 2328 3040 
Q 2066 3103 1784 3103 
Q 1356 3103 1142 2972 
Q 928 2841 928 2578 
Q 928 2378 1081 2264 
Q 1234 2150 1697 2047 
L 1894 2003 
Q 2506 1872 2764 1633 
Q 3022 1394 3022 966 
Q 3022 478 2636 193 
Q 2250 -91 1575 -91 
Q 1294 -91 989 -36 
Q 684 19 347 128 
L 347 722 
Q 666 556 975 473 
Q 1284 391 1588 391 
Q 1994 391 2212 530 
Q 2431 669 2431 922 
Q 2431 1156 2273 1281 
Q 2116 1406 1581 1522 
L 1381 1569 
Q 847 1681 609 1914 
Q 372 2147 372 2553 
Q 372 3047 722 3315 
Q 1072 3584 1716 3584 
Q 2034 3584 2315 3537 
Q 2597 3491 2834 3397 
z
" transform="scale(0.015625)"/>
     <path id="DejaVuSans-6f" d="M 1959 3097 
Q 1497 3097 1228 2736 
Q 959 2375 959 1747 
Q 959 1119 1226 758 
Q 1494 397 1959 397 
Q 2419 397 2687 759 
Q 2956 1122 2956 1747 
Q 2956 2369 2687 2733 
Q 2419 3097 1959 3097 
z
M 1959 3584 
Q 2709 3584 3137 3096 
Q 3566 2609 3566 1747 
Q 3566 888 3137 398 
Q 2709 -91 1959 -91 
Q 1206 -91 779 398 
Q 353 888 353 1747 
Q 353 2609 779 3096 
Q 1206 3584 1959 3584 
z
" transform="scale(0.015625)"/>
     <path id="DejaVuSans-72" d="M 2631 2963 
Q 2534 3019 2420 3045 
Q 2306 3072 2169 3072 
Q 1681 3072 1420 2755 
Q 1159 2438 1159 1844 
L 1159 0 
L 581 0 
L 581 3500 
L 1159 3500 
L 1159 2956 
Q 1341 3275 1631 3429 
Q 1922 3584 2338 3584 
Q 2397 3584 2469 3576 
Q 2541 3569 2628 3553 
L 2631 2963 
z
" transform="scale(0.015625)"/>
     <path id="DejaVuSans-65" d="M 3597 1894 
L 3597 1613 
L 953 1613 
Q 991 1019 1311 708 
Q 1631 397 2203 397 
Q 2534 397 2845 478 
Q 3156 559 3463 722 
L 3463 178 
Q 3153 47 2828 -22 
Q 2503 -91 2169 -91 
Q 1331 -91 842 396 
Q 353 884 353 1716 
Q 353 2575 817 3079 
Q 1281 3584 2069 3584 
Q 2775 3584 3186 3129 
Q 3597 2675 3597 1894 
z
M 3022 2063 
Q 3016 2534 2758 2815 
Q 2500 3097 2075 3097 
Q 1594 3097 1305 2825 
Q 1016 2553 972 2059 
L 3022 2063 
z
" transform="scale(0.015625)"/>
     <path id="DejaVuSans-64" d="M 2906 2969 
L 2906 4863 
L 3481 4863 
L 3481 0 
L 2906 0 
L 2906 525 
Q 2725 213 2448 61 
Q 2172 -91 1784 -91 
Q 1150 -91 751 415 
Q 353 922 353 1747 
Q 353 2572 751 3078 
Q 1150 3584 1784 3584 
Q 2172 3584 2448 3432 
Q 2725 3281 2906 2969 
z
M 947 1747 
Q 947 1113 1208 752 
Q 1469 391 1925 391 
Q 2381 391 2643 752 
Q 2906 1113 2906 1747 
Q 2906 2381 2643 2742 
Q 2381 3103 1925 3103 
Q 1469 3103 1208 2742 
Q 947 2381 947 1747 
z
" transform="scale(0.015625)"/>
     <path id="DejaVuSans-68" d="M 3513 2113 
L 3513 0 
L 2938 0 
L 2938 2094 
Q 2938 2591 2744 2837 
Q 2550 3084 2163 3084 
Q 1697 3084 1428 2787 
Q 1159 2491 1159 1978 
L 1159 0 
L 581 0 
L 581 4863 
L 1159 4863 
L 1159 2956 
Q 1366 3272 1645 3428 
Q 1925 3584 2291 3584 
Q 2894 3584 3203 3211 
Q 3513 2838 3513 2113 
z
" transform="scale(0.015625)"/>
     <path id="DejaVuSans-69" d="M 603 3500 
L 1178 3500 
L 1178 0 
L 603 0 
L 603 3500 
z
M 603 4863 
L 1178 4863 
L 1178 4134 
L 603 4134 
L 603 4863 
z
" transform="scale(0.015625)"/>
     <path id="DejaVuSans-66" d="M 2375 4863 
L 2375 4384 
L 1825 4384 
Q 1516 4384 1395 4259 
Q 1275 4134 1275 3809 
L 1275 3500 
L 2222 3500 
L 2222 3053 
L 1275 3053 
L 1275 0 
L 697 0 
L 697 3053 
L 147 3053 
L 147 3500 
L 697 3500 
L 697 3744 
Q 697 4328 969 4595 
Q 1241 4863 1831 4863 
L 2375 4863 
z
" transform="scale(0.015625)"/>
     <path id="DejaVuSans-74" d="M 1172 4494 
L 1172 3500 
L 2356 3500 
L 2356 3053 
L 1172 3053 
L 1172 1153 
Q 1172 725 1289 603 
Q 1406 481 1766 481 
L 2356 481 
L 2356 0 
L 1766 0 
Q 1100 0 847 248 
Q 594 497 594 1153 
L 594 3053 
L 172 3053 
L 172 3500 
L 594 3500 
L 594 4494 
L 1172 4494 
z
" transform="scale(0.015625)"/>
     <path id="DejaVuSans-20" transform="scale(0.015625)"/>
     <path id="DejaVuSans-6c" d="M 603 4863 
L 1178 4863 
L 1178 0 
L 603 0 
L 603 4863 
z
" transform="scale(0.015625)"/>
     <path id="DejaVuSans-6e" d="M 3513 2113 
L 3513 0 
L 2938 0 
L 2938 2094 
Q 2938 2591 2744 2837 
Q 2550 3084 2163 3084 
Q 1697 3084 1428 2787 
Q 1159 2491 1159 1978 
L 1159 0 
L 581 0 
L 581 3500 
L 1159 3500 
L 1159 2956 
Q 1366 3272 1645 3428 
Q 1925 3584 2291 3584 
Q 2894 3584 3203 3211 
Q 3513 2838 3513 2113 
z
" transform="scale(0.015625)"/>
     <path id="DejaVuSans-4d" d="M 628 4666 
L 1569 4666 
L 2759 1491 
L 3956 4666 
L 4897 4666 
L 4897 0 
L 4281 0 
L 4281 4097 
L 3078 897 
L 2444 897 
L 1241 4097 
L 1241 0 
L 628 0 
L 628 4666 
z
" transform="scale(0.015625)"/>
     <path id="DejaVuSans-3d" d="M 678 2906 
L 4684 2906 
L 4684 2381 
L 678 2381 
L 678 2906 
z
M 678 1631 
L 4684 1631 
L 4684 1100 
L 678 1100 
L 678 1631 
z
" transform="scale(0.015625)"/>
     <path id="DejaVuSans-31" d="M 794 531 
L 1825 531 
L 1825 4091 
L 703 3866 
L 703 4441 
L 1819 4666 
L 2450 4666 
L 2450 531 
L 3481 531 
L 3481 0 
L 794 0 
L 794 531 
z
" transform="scale(0.015625)"/>
     <path id="DejaVuSans-2e" d="M 684 794 
L 1344 794 
L 1344 0 
L 684 0 
L 684 794 
z
" transform="scale(0.015625)"/>
     <path id="DejaVuSans-30" d="M 2034 4250 
Q 1547 4250 1301 3770 
Q 1056 3291 1056 2328 
Q 1056 1369 1301 889 
Q 1547 409 2034 409 
Q 2525 409 2770 889 
Q 3016 1369 3016 2328 
Q 3016 3291 2770 3770 
Q 2525 4250 2034 4250 
z
M 2034 4750 
Q 2819 4750 3233 4129 
Q 3647 3509 3647 2328 
Q 3647 1150 3233 529 
Q 2819 -91 2034 -91 
Q 1250 -91 836 529 
Q 422 1150 422 2328 
Q 422 3509 836 4129 
Q 1250 4750 2034 4750 
z
" transform="scale(0.015625)"/>
    </defs>
    <use xlink:href="#DejaVuSans-49"/>
    <use xlink:href="#DejaVuSans-73" x="29.492188"/>
    <use xlink:href="#DejaVuSans-6f" x="81.591797"/>
    <use xlink:href="#DejaVuSans-72" x="142.773438"/>
    <use xlink:href="#DejaVuSans-65" x="181.636719"/>
    <use xlink:href="#DejaVuSans-64" x="243.160156"/>
    <use xlink:href="#DejaVuSans-73" x="306.636719"/>
    <use xlink:href="#DejaVuSans-68" x="358.736328"/>
    <use xlink:href="#DejaVuSans-69" x="422.115234"/>
    <use xlink:href="#DejaVuSans-66" x="449.898438"/>
    <use xlink:href="#DejaVuSans-74" x="483.353516"/>
    <use xlink:href="#DejaVuSans-20" x="522.5625"/>
    <use xlink:href="#DejaVuSans-6c" x="554.349609"/>
    <use xlink:href="#DejaVuSans-69" x="582.132812"/>
    <use xlink:href="#DejaVuSans-6e" x="609.916016"/>
    <use xlink:href="#DejaVuSans-65" x="673.294922"/>
    <use xlink:href="#DejaVuSans-73" x="734.818359"/>
    <use xlink:href="#DejaVuSans-20" x="786.917969"/>
    <use xlink:href="#DejaVuSans-66" x="818.705078"/>
    <use xlink:href="#DejaVuSans-6f" x="853.910156"/>
    <use xlink:href="#DejaVuSans-72" x="915.091797"/>
    <use xlink:href="#DejaVuSans-20" x="956.205078"/>
    <use xlink:href="#DejaVuSans-4d" x="987.992188"/>
    <use xlink:href="#DejaVuSans-3d" x="1074.271484"/>
    <use xlink:href="#DejaVuSans-31" x="1158.060547"/>
    <use xlink:href="#DejaVuSans-2e" x="1221.683594"/>
    <use xlink:href="#DejaVuSans-30" x="1253.470703"/>
   </g>
  </g>
 </g>
 <defs>
  <clipPath id="p2644e9cd88">
   <rect x="57.6" y="86.4" width="626.4" height="583.2"/>
  </clipPath>
 </defs>
</svg>
