<?xml version="1.0" encoding="utf-8" standalone="no"?>
<!DOCTYPE svg PUBLIC "-//W3C//DTD SVG 1.1//EN"
  "http://www.w3.org/Graphics/SVG/1.1/DTD/svg11.dtd">
<svg xmlns:xlink="http://www.w3.org/1999/xlink" width="720pt" height="720pt" viewBox="0 0 720 720" xmlns="http://www.w3.org/2000/svg" version="1.1">
 <metadata>
  <rdf:RDF xmlns:dc="http://purl.org/dc/elements/1.1/" xmlns:cc="http://creativecommons.org/ns#" xmlns:rdf="http://www.w3.org/1999/02/22-rdf-syntax-ns#">
   <cc:Work>
    <dc:type rdf:resource="http://purl.org/dc/dcmitype/StillImage"/>
    <dc:date>2023-06-28T18:35:31.706316</dc:date>
    <dc:format>image/svg+xml</dc:format>
    <dc:creator>
     <cc:Agent>
      <dc:title>Matplotlib v3.5.2, https://matplotlib.org/</dc:title>
     </cc:Agent>
    </dc:creator>
   </cc:Work>
  </rdf:RDF>
 </metadata>
 <defs>
  <style type="text/css">*{stroke-linejoin: round; stroke-linecap: butt}</style>
 </defs>
 <g id="figure_1">
  <g id="patch_1">
   <path d="M 0 720 
L 720 720 
L 720 0 
L 0 0 
z
" style="fill: #1a1a1a"/>
  </g>
  <g id="axes_1">
   <g id="line2d_1">
    <path d="M 370.8 382.190339 
L 374.95645 382.105343 
L 375.025369 382.043898 
L 375.486641 382.080751 
L 375.555078 382.011536 
L 376.080603 382.048996 
L 376.14843 381.971077 
L 376.753812 382.007403 
L 376.820852 381.919619 
L 377.526044 381.952002 
L 377.592051 381.852904 
L 377.956916 381.917353 
L 378.022283 381.811942 
L 378.422447 381.876773 
L 378.48707 381.764542 
L 378.926746 381.828985 
L 378.990499 381.709367 
L 379.474289 381.772383 
L 379.537016 381.644744 
L 380.069812 381.704943 
L 380.131325 381.568582 
L 380.718101 381.624115 
L 380.778166 381.478259 
L 381.423587 381.526681 
L 381.481917 381.370495 
L 382.189649 381.408613 
L 382.245887 381.241211 
L 383.017448 381.264921 
L 383.071154 381.0854 
L 383.904123 381.089558 
L 383.954752 380.89706 
L 384.840139 380.875472 
L 384.887031 380.669277 
L 385.805779 380.614962 
L 385.848146 380.394642 
L 387.643002 380.426768 
L 387.681957 380.179537 
L 388.825645 380.058396 
L 388.858224 379.793872 
L 389.97279 379.620746 
L 389.997824 379.339459 
L 391.024034 379.11321 
L 391.040355 378.816573 
L 391.919065 378.541995 
L 391.925613 378.232308 
L 392.612589 377.920049 
L 392.608533 377.600271 
L 393.086365 377.264511 
L 393.071162 376.937868 
L 393.351455 376.592704 
L 393.324857 376.262259 
L 393.44004 375.918697 
L 393.187554 374.268281 
L 391.057602 370.078754 
L 390.468818 369.269882 
L 389.933953 368.449825 
L 389.538615 367.927376 
L 388.951119 367.148012 
L 387.394165 365.478973 
L 386.455295 364.582197 
L 385.470086 363.73698 
L 384.183419 362.748181 
L 381.394832 361.069066 
L 378.69394 359.905058 
L 376.817219 359.316968 
L 374.893505 358.888988 
L 372.937568 358.624858 
L 370.635314 358.526885 
L 368.33467 358.65598 
L 366.060934 359.013598 
L 364.151276 359.495434 
L 362.293376 360.135822 
L 360.500892 360.929191 
L 359.060582 361.694556 
L 356.372965 363.523675 
L 353.511611 366.169419 
L 350.542398 370.078754 
L 350.066296 370.945292 
L 349.732554 371.524253 
L 349.513338 371.801216 
L 349.411137 372.114062 
L 349.19703 372.397973 
L 349.10496 372.715382 
L 348.901103 373.00739 
L 348.563526 373.95602 
L 348.352107 374.596961 
L 348.207297 375.251803 
L 348.248545 376.592704 
L 348.528838 376.937868 
L 348.513635 377.264511 
L 348.991467 377.600271 
L 348.987411 377.920049 
L 349.674387 378.232308 
L 349.680935 378.541995 
L 350.559645 378.816573 
L 350.575966 379.11321 
L 351.602176 379.339459 
L 351.62721 379.620746 
L 352.741776 379.793872 
L 352.774355 380.058396 
L 353.918043 380.179537 
L 353.956998 380.426768 
L 355.751854 380.394642 
L 355.794221 380.614962 
L 356.712969 380.669277 
L 356.759861 380.875472 
L 357.645248 380.89706 
L 357.695877 381.089558 
L 358.528846 381.0854 
L 358.582552 381.264921 
L 359.354113 381.241211 
L 359.410351 381.408613 
L 360.118083 381.370495 
L 360.176413 381.526681 
L 360.821834 381.478259 
L 360.881899 381.624115 
L 361.468675 381.568582 
L 361.530188 381.704943 
L 362.062984 381.644744 
L 362.125711 381.772383 
L 362.609501 381.709367 
L 362.673254 381.828985 
L 363.11293 381.764542 
L 363.177553 381.876773 
L 363.577717 381.811942 
L 363.643084 381.917353 
L 364.407324 381.888506 
L 364.473884 381.981745 
L 365.126362 381.94695 
L 365.193821 382.02964 
L 365.757077 381.992474 
L 365.825228 382.065912 
L 366.316906 382.028586 
L 366.385598 382.093812 
L 366.819515 382.057698 
L 366.888637 382.115552 
L 367.275679 382.081508 
L 367.345147 382.132671 
L 367.69398 382.101232 
L 367.961017 382.151984 
L 368.265204 382.125028 
L 368.513547 382.165769 
L 368.949002 382.148964 
L 369.337169 382.180436 
L 369.869225 382.173814 
L 370.516151 382.18997 
L 370.8 382.190339 
L 370.8 382.190339 
" clip-path="url(#pc7dc99d593)" style="fill: none; stroke: #fc4f30; stroke-width: 2"/>
   </g>
   <g id="line2d_2">
    <path d="M 350.196125 370.227048 
L 342.224076 372.077127 
L 334.803687 373.730884 
L 332.063802 374.616299 
L 330.76798 375.278709 
L 330.215304 375.789692 
L 330.064119 376.159622 
L 330.064119 376.159622 
L 330.164931 376.588974 
L 330.466847 376.924053 
L 331.068332 377.299796 
L 332.063801 377.696687 
L 333.246675 378.024894 
L 336.337205 378.563972 
L 339.331474 378.853375 
L 345.007616 379.023841 
L 350.196125 378.811477 
L 350.196125 378.811477 
" clip-path="url(#pc7dc99d593)" style="fill: none; stroke: #008fd5"/>
   </g>
   <g id="line2d_3">
    <path d="M 353.215187 366.218878 
L 349.832613 365.513301 
L 346.185323 365.165129 
L 334.109555 364.671953 
L 295.317389 363.170678 
L 284.314702 363.030177 
L 272.837627 363.097785 
L 260.904625 363.43289 
L 248.532188 364.114404 
L 242.185879 364.62072 
L 235.735165 365.266257 
L 229.181667 366.084752 
L 222.526983 367.129815 
L 215.772588 368.498812 
L 208.919891 370.416011 
L 201.751574 374.087922 
L 200.985315 374.964367 
L 200.574339 375.772328 
L 200.442606 376.554062 
L 200.546955 377.256305 
L 200.875762 377.97779 
L 201.532766 378.802983 
L 201.970298 379.210071 
L 208.919902 382.616313 
L 215.772586 384.460933 
L 222.526986 385.753364 
L 229.181672 386.717479 
L 235.735167 387.45023 
L 242.185881 388.004726 
L 248.532199 388.414179 
L 260.90463 388.881702 
L 272.837615 388.970064 
L 284.31471 388.748842 
L 295.317381 388.263783 
L 305.824705 387.547074 
L 315.812572 386.622186 
L 325.252552 385.506284 
L 334.109557 384.21077 
L 342.334767 382.738507 
L 349.832612 381.066199 
L 353.215187 380.112453 
L 353.215187 380.112453 
" clip-path="url(#pc7dc99d593)" style="fill: none; stroke: #fc4f30"/>
   </g>
   <g id="line2d_4">
    <path d="M 356.5697 363.127937 
L 355.193723 360.824102 
L 353.800706 358.768865 
L 352.432653 356.858193 
L 351.096489 355.046663 
L 349.790813 353.309321 
L 348.512224 351.630513 
L 347.257084 349.99959 
L 346.022036 348.408839 
L 344.804157 346.852462 
L 343.600919 345.325931 
L 342.410158 343.825637 
L 341.230001 342.34864 
L 340.058874 340.892497 
L 338.895379 339.455151 
L 337.738329 338.034871 
L 336.586673 336.630144 
L 335.439511 335.239677 
L 334.296028 333.862332 
L 333.155524 332.497119 
L 332.017367 331.143139 
L 330.880993 329.799596 
L 329.745928 328.465782 
L 328.611698 327.141092 
L 327.477917 325.8249 
L 326.34422 324.516737 
L 325.210283 323.216084 
L 324.075807 321.92253 
L 322.940531 320.635667 
L 321.804217 319.355157 
L 320.666619 318.080652 
L 319.527562 316.811808 
L 318.386851 315.548378 
L 317.244307 314.290095 
L 316.099807 313.036699 
L 314.953174 311.787954 
L 313.804306 310.543671 
L 312.653061 309.303605 
L 311.499339 308.067612 
L 310.343022 306.835518 
L 309.184051 305.607137 
L 308.022312 304.382306 
L 306.857725 303.160903 
L 305.69023 301.94278 
L 304.519741 300.727821 
L 303.346206 299.515889 
L 302.169574 298.306842 
L 300.989763 297.100639 
L 299.806762 295.897122 
L 298.620491 294.696227 
L 297.43092 293.497837 
L 296.238016 292.301842 
L 295.041724 291.108244 
L 293.842018 289.916882 
L 292.638878 288.727673 
L 291.432265 287.540616 
L 290.222137 286.355613 
L 290.222134 286.355615 
L 290.222114 286.355598 
" clip-path="url(#pc7dc99d593)" style="fill: none; stroke: #e5ae38"/>
   </g>
   <g id="line2d_5">
    <path d="M 290.222133 446.193278 
L 290.222135 446.19328 
L 290.222137 446.193282 
L 290.222139 446.193284 
L 291.432251 445.040505 
L 292.638871 443.8875 
L 293.842029 442.73427 
L 295.041724 441.580825 
L 296.238012 440.427132 
L 297.430922 439.273239 
L 298.620512 438.119095 
L 299.806751 436.964729 
L 300.989792 435.810142 
L 302.169574 434.655309 
L 303.346209 433.500269 
L 304.519728 432.344986 
L 305.690224 431.189473 
L 306.857738 430.03373 
L 308.022293 428.877746 
L 309.184051 427.721536 
L 310.343043 426.565078 
L 311.499338 425.40838 
L 312.653059 424.25145 
L 313.804316 423.094283 
L 314.953184 421.936866 
L 316.09981 420.779198 
L 317.244318 419.621288 
L 318.386856 418.463125 
L 319.527562 417.304714 
L 320.666618 416.146028 
L 321.804203 414.987089 
L 322.940531 413.827888 
L 324.075811 412.668399 
L 325.210283 411.508642 
L 326.344221 410.348591 
L 327.47791 409.188257 
L 328.611699 408.027617 
L 329.745927 406.866666 
L 330.881002 405.705379 
L 332.017359 404.54376 
L 333.155516 403.381779 
L 334.296028 402.219415 
L 335.439509 401.056653 
L 336.586673 399.893449 
L 337.738328 398.72977 
L 338.89538 397.565567 
L 340.058877 396.400784 
L 341.230007 395.235337 
L 342.410153 394.069128 
L 343.600923 392.902023 
L 344.804162 391.73384 
L 346.022036 390.564329 
L 347.257078 389.393123 
L 348.512224 388.219689 
L 349.790818 387.043191 
L 351.096491 385.862255 
L 356.5697 380.764445 
" clip-path="url(#pc7dc99d593)" style="fill: none; stroke: #6d904f"/>
   </g>
   <g id="line2d_6">
    <path d="M 359.924213 381.451773 
L 360.554835 382.90069 
L 361.416089 384.253407 
L 362.530536 385.558983 
L 363.887799 386.833063 
L 371.441033 391.705013 
L 373.795748 392.874616 
L 376.316615 394.037672 
L 378.995604 395.171911 
L 381.825624 396.288331 
L 384.800362 397.386907 
L 387.914172 398.467548 
L 391.161952 399.530136 
L 394.539095 400.574537 
L 398.041395 401.600608 
L 401.665017 402.608174 
L 405.406429 403.597056 
L 409.262358 404.567061 
L 413.229798 405.517985 
L 417.305957 406.449615 
L 421.488225 407.361714 
L 425.774157 408.254059 
L 430.161463 409.126396 
L 434.647981 409.978479 
L 439.23172 410.810033 
L 443.910753 411.620779 
L 448.683309 412.410435 
L 453.547607 413.178698 
L 458.502116 413.925257 
L 463.545224 414.649796 
L 468.675501 415.351969 
L 473.89156 416.03142 
L 479.192028 416.687795 
L 484.575664 417.320703 
L 490.041198 417.929759 
L 495.587534 418.514536 
L 501.213482 419.074614 
L 506.918005 419.609521 
L 512.700064 420.118794 
L 518.55863 420.601942 
L 524.492776 421.058435 
L 530.50157 421.487731 
L 536.58411 421.889258 
L 542.73951 422.262397 
L 548.967018 422.606526 
L 555.265739 422.92098 
L 561.634907 423.20503 
L 568.073817 423.457929 
L 574.581677 423.6789 
L 581.157806 423.86708 
L 587.801572 424.021551 
L 594.512214 424.141404 
L 601.289075 424.225578 
L 608.131627 424.272979 
L 608.131627 424.272979 
L 608.131628 424.272977 
" clip-path="url(#pc7dc99d593)" style="fill: none; stroke: #8b8b8b"/>
   </g>
   <g id="line2d_7">
    <path d="M 608.131645 326.794015 
L 608.131643 326.794006 
L 608.131642 326.794003 
L 608.131642 326.794003 
L 601.289103 326.716434 
L 594.512211 326.669232 
L 587.801576 326.650833 
L 581.157829 326.659657 
L 574.581695 326.694206 
L 568.073777 326.752877 
L 561.634907 326.834182 
L 555.265715 326.936496 
L 548.966998 327.058223 
L 542.739521 327.197685 
L 536.584091 327.353144 
L 530.501575 327.52283 
L 524.492772 327.704805 
L 518.558631 327.897101 
L 512.700053 328.097584 
L 506.918015 328.304019 
L 501.213498 328.514 
L 495.58752 328.724999 
L 490.041215 328.934356 
L 484.575656 329.139272 
L 479.192035 329.336851 
L 473.891549 329.524196 
L 468.675512 329.698441 
L 463.54524 329.85693 
L 458.502125 329.997375 
L 453.547619 330.118147 
L 448.683296 330.21862 
L 443.910757 330.299465 
L 439.231733 330.36317 
L 434.647996 330.414341 
L 430.161451 330.46004 
L 425.774164 330.509881 
L 421.488229 330.575809 
L 417.305968 330.671765 
L 413.229805 330.812883 
L 409.262358 331.014747 
L 405.40642 331.292508 
L 401.665012 331.660166 
L 398.041394 332.130067 
L 394.539092 332.71262 
L 391.161949 333.416253 
L 387.914173 334.247454 
L 384.800363 335.211041 
L 381.825624 336.310405 
L 378.995605 337.547835 
L 376.316617 338.924752 
L 373.795752 340.442089 
L 371.441032 342.100528 
L 369.261606 343.900844 
L 367.267965 345.844331 
L 367.267965 345.844331 
L 367.267943 345.844329 
L 367.267942 345.844329 
L 365.472077 347.933356 
L 363.887799 350.172279 
L 362.530534 352.569264 
L 361.416093 355.140153 
L 360.554832 357.918919 
L 359.924213 360.994844 
" clip-path="url(#pc7dc99d593)" style="fill: none; stroke: #810f7c"/>
   </g>
   <g id="line2d_8">
    <path d="M 362.943275 381.844979 
L 375.399978 386.909176 
L 379.585213 387.958674 
L 384.148083 388.955875 
L 389.065679 389.858889 
L 394.318128 390.682909 
L 399.888177 391.424635 
L 405.760746 392.08008 
L 411.922503 392.644531 
L 418.361687 393.11243 
L 425.067709 393.47721 
L 432.031092 393.731054 
L 439.243208 393.864524 
L 446.696267 393.866023 
L 454.3831 393.72105 
L 462.297121 393.410931 
L 470.432222 392.910834 
L 478.782844 392.186188 
L 487.343731 391.185996 
L 496.110003 389.828211 
L 505.077103 387.961894 
L 514.240771 385.231503 
L 516.56193 384.308742 
L 518.895041 383.214719 
L 521.240084 381.842364 
L 523.892414 379.509057 
L 524.483842 378.636709 
L 524.983455 377.32417 
L 525.057512 376.351062 
L 524.890891 375.406889 
L 524.483844 374.45208 
L 523.596961 373.215024 
L 521.240087 371.185765 
L 518.895056 369.767719 
L 516.561922 368.626549 
L 514.24077 367.655178 
L 505.077113 364.713966 
L 496.110012 362.606523 
L 487.343724 360.970563 
L 478.78285 359.646309 
L 470.43223 358.540096 
L 454.383094 356.727429 
L 439.24321 355.090879 
L 432.031085 354.202569 
L 425.067699 353.197005 
L 418.361681 352.047825 
L 399.888178 348.483824 
L 394.31813 347.776871 
L 389.065677 347.527411 
L 384.148083 347.781388 
L 379.585208 348.546059 
L 375.399978 349.809776 
L 371.618633 351.555428 
L 368.269928 353.770199 
L 368.269928 353.770199 
L 365.379833 356.458298 
L 362.943275 359.678753 
L 362.943275 359.678753 
" clip-path="url(#pc7dc99d593)" style="fill: none; stroke: #008fd5"/>
   </g>
   <g id="line2d_9">
    <path d="M 365.962337 382.090009 
L 386.912158 386.247837 
L 393.698349 386.817995 
L 401.028227 387.174367 
L 408.869748 387.285924 
L 417.195231 387.106619 
L 425.980618 386.563284 
L 435.204856 385.52448 
L 444.849409 383.692395 
L 455.218083 379.515977 
L 456.18142 378.627696 
L 456.66436 377.981483 
L 457.047285 377.077868 
L 457.112841 376.295402 
L 456.946468 375.537288 
L 456.50328 374.700644 
L 455.859925 373.9355 
L 454.897737 373.101553 
L 444.849411 368.63217 
L 435.204871 366.06542 
L 425.980617 363.967525 
L 417.195229 361.850339 
L 408.869752 359.39544 
L 401.028225 356.699886 
L 393.698348 354.429251 
L 386.912158 353.155517 
L 380.706725 353.023135 
L 375.123781 353.972837 
L 370.204831 355.917838 
L 365.962337 358.831288 
L 365.962337 358.831288 
" clip-path="url(#pc7dc99d593)" style="fill: none; stroke: #fc4f30"/>
   </g>
   <g id="line2d_10">
    <path d="M 369.31685 382.219462 
L 399.70347 384.363421 
L 404.447613 384.104601 
L 409.379614 383.656421 
L 414.493546 382.956315 
L 421.13352 381.516773 
L 423.864501 380.620372 
L 425.940297 379.692111 
L 427.337158 378.812697 
L 428.391576 377.755713 
L 428.788468 376.939212 
L 428.858841 376.222584 
L 428.744327 375.672234 
L 428.215436 374.723336 
L 427.337162 373.822096 
L 425.940301 372.815964 
L 423.864503 371.67987 
L 421.133521 370.467974 
L 419.783945 369.931069 
L 409.379609 366.080658 
L 404.447621 364.009669 
L 399.703468 361.779084 
L 390.804607 357.917398 
L 382.739167 356.086887 
L 375.565943 356.333251 
L 369.31685 358.376252 
L 369.31685 358.376252 
" clip-path="url(#pc7dc99d593)" style="fill: none; stroke: #e5ae38"/>
   </g>
   <g id="line2d_11">
    <path d="M 372.335912 382.218504 
L 380.390936 382.967407 
L 389.593028 383.193624 
L 399.892701 382.562993 
L 411.215645 380.315453 
L 413.446855 379.410064 
L 414.952744 378.511585 
L 415.806219 377.712618 
L 416.234685 376.989197 
L 416.366251 376.261744 
L 416.282362 375.718322 
L 415.996506 375.0792 
L 415.331496 374.237605 
L 414.19797 373.269681 
L 412.699423 372.286091 
L 411.215646 371.452848 
L 399.892701 365.562588 
L 389.593012 360.008836 
L 380.390937 357.662405 
L 372.335912 358.379635 
L 372.335912 358.379635 
" clip-path="url(#pc7dc99d593)" style="fill: none; stroke: #6d904f"/>
   </g>
   <g id="line2d_12">
    <path d="M 375.690425 382.086825 
L 380.546204 382.296407 
L 391.308851 382.076625 
L 398.735562 381.122181 
L 401.851331 380.423605 
L 404.241194 379.668707 
L 405.859342 378.956934 
L 407.291404 378.010349 
L 407.961387 377.241946 
L 408.232869 376.593022 
L 408.271696 376.017475 
L 408.116457 375.386918 
L 407.70332 374.65524 
L 406.880713 373.737974 
L 405.859343 372.875558 
L 403.439565 371.192441 
L 397.208404 367.036845 
L 391.308849 363.08994 
L 385.752052 360.385128 
L 380.546205 359.042484 
L 375.690425 358.84242 
L 375.690425 358.84242 
" clip-path="url(#pc7dc99d593)" style="fill: none; stroke: #8b8b8b"/>
   </g>
   <g id="line2d_13">
    <path d="M 379.044939 381.803518 
L 384.871879 381.637613 
L 387.940469 381.577985 
L 392.738332 381.021568 
L 396.065614 380.392338 
L 398.627692 379.68859 
L 400.367099 379.017054 
L 401.687962 378.292011 
L 402.576252 377.540143 
L 403.148543 376.511232 
L 403.190516 375.878014 
L 403.022702 375.221864 
L 402.576253 374.427823 
L 401.687958 373.397477 
L 400.367099 372.196195 
L 394.38921 367.332081 
L 391.113158 364.827612 
L 387.940466 362.820249 
L 384.871876 361.353323 
L 381.907251 360.374096 
L 379.044939 359.820217 
L 379.044939 359.820217 
" clip-path="url(#pc7dc99d593)" style="fill: none; stroke: #810f7c"/>
   </g>
   <g id="line2d_14">
    <path d="M 382.064 381.388023 
L 388.764979 380.959351 
L 392.292409 380.384198 
L 396.867977 379.069194 
L 397.805108 378.634776 
L 398.749529 378.057505 
L 399.88046 376.775487 
L 400.050606 376.063296 
L 399.970177 375.382923 
L 399.701211 374.71544 
L 398.749529 373.379483 
L 396.867977 371.454765 
L 392.292404 367.245897 
L 388.764982 364.497015 
L 385.356 362.509754 
L 382.064001 361.202411 
L 382.064001 361.202411 
" clip-path="url(#pc7dc99d593)" style="fill: none; stroke: #008fd5"/>
   </g>
  </g>
  <g id="text_1">
   <!-- Isoredshift lines for M=1.0 -->
   <g transform="translate(249.365437 27.165375)scale(0.168 -0.168)">
    <defs>
     <path id="DejaVuSans-49" d="M 628 4666 
L 1259 4666 
L 1259 0 
L 628 0 
L 628 4666 
z
" transform="scale(0.015625)"/>
     <path id="DejaVuSans-73" d="M 2834 3397 
L 2834 2853 
Q 2591 2978 2328 3040 
Q 2066 3103 1784 3103 
Q 1356 3103 1142 2972 
Q 928 2841 928 2578 
Q 928 2378 1081 2264 
Q 1234 2150 1697 2047 
L 1894 2003 
Q 2506 1872 2764 1633 
Q 3022 1394 3022 966 
Q 3022 478 2636 193 
Q 2250 -91 1575 -91 
Q 1294 -91 989 -36 
Q 684 19 347 128 
L 347 722 
Q 666 556 975 473 
Q 1284 391 1588 391 
Q 1994 391 2212 530 
Q 2431 669 2431 922 
Q 2431 1156 2273 1281 
Q 2116 1406 1581 1522 
L 1381 1569 
Q 847 1681 609 1914 
Q 372 2147 372 2553 
Q 372 3047 722 3315 
Q 1072 3584 1716 3584 
Q 2034 3584 2315 3537 
Q 2597 3491 2834 3397 
z
" transform="scale(0.015625)"/>
     <path id="DejaVuSans-6f" d="M 1959 3097 
Q 1497 3097 1228 2736 
Q 959 2375 959 1747 
Q 959 1119 1226 758 
Q 1494 397 1959 397 
Q 2419 397 2687 759 
Q 2956 1122 2956 1747 
Q 2956 2369 2687 2733 
Q 2419 3097 1959 3097 
z
M 1959 3584 
Q 2709 3584 3137 3096 
Q 3566 2609 3566 1747 
Q 3566 888 3137 398 
Q 2709 -91 1959 -91 
Q 1206 -91 779 398 
Q 353 888 353 1747 
Q 353 2609 779 3096 
Q 1206 3584 1959 3584 
z
" transform="scale(0.015625)"/>
     <path id="DejaVuSans-72" d="M 2631 2963 
Q 2534 3019 2420 3045 
Q 2306 3072 2169 3072 
Q 1681 3072 1420 2755 
Q 1159 2438 1159 1844 
L 1159 0 
L 581 0 
L 581 3500 
L 1159 3500 
L 1159 2956 
Q 1341 3275 1631 3429 
Q 1922 3584 2338 3584 
Q 2397 3584 2469 3576 
Q 2541 3569 2628 3553 
L 2631 2963 
z
" transform="scale(0.015625)"/>
     <path id="DejaVuSans-65" d="M 3597 1894 
L 3597 1613 
L 953 1613 
Q 991 1019 1311 708 
Q 1631 397 2203 397 
Q 2534 397 2845 478 
Q 3156 559 3463 722 
L 3463 178 
Q 3153 47 2828 -22 
Q 2503 -91 2169 -91 
Q 1331 -91 842 396 
Q 353 884 353 1716 
Q 353 2575 817 3079 
Q 1281 3584 2069 3584 
Q 2775 3584 3186 3129 
Q 3597 2675 3597 1894 
z
M 3022 2063 
Q 3016 2534 2758 2815 
Q 2500 3097 2075 3097 
Q 1594 3097 1305 2825 
Q 1016 2553 972 2059 
L 3022 2063 
z
" transform="scale(0.015625)"/>
     <path id="DejaVuSans-64" d="M 2906 2969 
L 2906 4863 
L 3481 4863 
L 3481 0 
L 2906 0 
L 2906 525 
Q 2725 213 2448 61 
Q 2172 -91 1784 -91 
Q 1150 -91 751 415 
Q 353 922 353 1747 
Q 353 2572 751 3078 
Q 1150 3584 1784 3584 
Q 2172 3584 2448 3432 
Q 2725 3281 2906 2969 
z
M 947 1747 
Q 947 1113 1208 752 
Q 1469 391 1925 391 
Q 2381 391 2643 752 
Q 2906 1113 2906 1747 
Q 2906 2381 2643 2742 
Q 2381 3103 1925 3103 
Q 1469 3103 1208 2742 
Q 947 2381 947 1747 
z
" transform="scale(0.015625)"/>
     <path id="DejaVuSans-68" d="M 3513 2113 
L 3513 0 
L 2938 0 
L 2938 2094 
Q 2938 2591 2744 2837 
Q 2550 3084 2163 3084 
Q 1697 3084 1428 2787 
Q 1159 2491 1159 1978 
L 1159 0 
L 581 0 
L 581 4863 
L 1159 4863 
L 1159 2956 
Q 1366 3272 1645 3428 
Q 1925 3584 2291 3584 
Q 2894 3584 3203 3211 
Q 3513 2838 3513 2113 
z
" transform="scale(0.015625)"/>
     <path id="DejaVuSans-69" d="M 603 3500 
L 1178 3500 
L 1178 0 
L 603 0 
L 603 3500 
z
M 603 4863 
L 1178 4863 
L 1178 4134 
L 603 4134 
L 603 4863 
z
" transform="scale(0.015625)"/>
     <path id="DejaVuSans-66" d="M 2375 4863 
L 2375 4384 
L 1825 4384 
Q 1516 4384 1395 4259 
Q 1275 4134 1275 3809 
L 1275 3500 
L 2222 3500 
L 2222 3053 
L 1275 3053 
L 1275 0 
L 697 0 
L 697 3053 
L 147 3053 
L 147 3500 
L 697 3500 
L 697 3744 
Q 697 4328 969 4595 
Q 1241 4863 1831 4863 
L 2375 4863 
z
" transform="scale(0.015625)"/>
     <path id="DejaVuSans-74" d="M 1172 4494 
L 1172 3500 
L 2356 3500 
L 2356 3053 
L 1172 3053 
L 1172 1153 
Q 1172 725 1289 603 
Q 1406 481 1766 481 
L 2356 481 
L 2356 0 
L 1766 0 
Q 1100 0 847 248 
Q 594 497 594 1153 
L 594 3053 
L 172 3053 
L 172 3500 
L 594 3500 
L 594 4494 
L 1172 4494 
z
" transform="scale(0.015625)"/>
     <path id="DejaVuSans-20" transform="scale(0.015625)"/>
     <path id="DejaVuSans-6c" d="M 603 4863 
L 1178 4863 
L 1178 0 
L 603 0 
L 603 4863 
z
" transform="scale(0.015625)"/>
     <path id="DejaVuSans-6e" d="M 3513 2113 
L 3513 0 
L 2938 0 
L 2938 2094 
Q 2938 2591 2744 2837 
Q 2550 3084 2163 3084 
Q 1697 3084 1428 2787 
Q 1159 2491 1159 1978 
L 1159 0 
L 581 0 
L 581 3500 
L 1159 3500 
L 1159 2956 
Q 1366 3272 1645 3428 
Q 1925 3584 2291 3584 
Q 2894 3584 3203 3211 
Q 3513 2838 3513 2113 
z
" transform="scale(0.015625)"/>
     <path id="DejaVuSans-4d" d="M 628 4666 
L 1569 4666 
L 2759 1491 
L 3956 4666 
L 4897 4666 
L 4897 0 
L 4281 0 
L 4281 4097 
L 3078 897 
L 2444 897 
L 1241 4097 
L 1241 0 
L 628 0 
L 628 4666 
z
" transform="scale(0.015625)"/>
     <path id="DejaVuSans-3d" d="M 678 2906 
L 4684 2906 
L 4684 2381 
L 678 2381 
L 678 2906 
z
M 678 1631 
L 4684 1631 
L 4684 1100 
L 678 1100 
L 678 1631 
z
" transform="scale(0.015625)"/>
     <path id="DejaVuSans-31" d="M 794 531 
L 1825 531 
L 1825 4091 
L 703 3866 
L 703 4441 
L 1819 4666 
L 2450 4666 
L 2450 531 
L 3481 531 
L 3481 0 
L 794 0 
L 794 531 
z
" transform="scale(0.015625)"/>
     <path id="DejaVuSans-2e" d="M 684 794 
L 1344 794 
L 1344 0 
L 684 0 
L 684 794 
z
" transform="scale(0.015625)"/>
     <path id="DejaVuSans-30" d="M 2034 4250 
Q 1547 4250 1301 3770 
Q 1056 3291 1056 2328 
Q 1056 1369 1301 889 
Q 1547 409 2034 409 
Q 2525 409 2770 889 
Q 3016 1369 3016 2328 
Q 3016 3291 2770 3770 
Q 2525 4250 2034 4250 
z
M 2034 4750 
Q 2819 4750 3233 4129 
Q 3647 3509 3647 2328 
Q 3647 1150 3233 529 
Q 2819 -91 2034 -91 
Q 1250 -91 836 529 
Q 422 1150 422 2328 
Q 422 3509 836 4129 
Q 1250 4750 2034 4750 
z
" transform="scale(0.015625)"/>
    </defs>
    <use xlink:href="#DejaVuSans-49"/>
    <use xlink:href="#DejaVuSans-73" x="29.492188"/>
    <use xlink:href="#DejaVuSans-6f" x="81.591797"/>
    <use xlink:href="#DejaVuSans-72" x="142.773438"/>
    <use xlink:href="#DejaVuSans-65" x="181.636719"/>
    <use xlink:href="#DejaVuSans-64" x="243.160156"/>
    <use xlink:href="#DejaVuSans-73" x="306.636719"/>
    <use xlink:href="#DejaVuSans-68" x="358.736328"/>
    <use xlink:href="#DejaVuSans-69" x="422.115234"/>
    <use xlink:href="#DejaVuSans-66" x="449.898438"/>
    <use xlink:href="#DejaVuSans-74" x="483.353516"/>
    <use xlink:href="#DejaVuSans-20" x="522.5625"/>
    <use xlink:href="#DejaVuSans-6c" x="554.349609"/>
    <use xlink:href="#DejaVuSans-69" x="582.132812"/>
    <use xlink:href="#DejaVuSans-6e" x="609.916016"/>
    <use xlink:href="#DejaVuSans-65" x="673.294922"/>
    <use xlink:href="#DejaVuSans-73" x="734.818359"/>
    <use xlink:href="#DejaVuSans-20" x="786.917969"/>
    <use xlink:href="#DejaVuSans-66" x="818.705078"/>
    <use xlink:href="#DejaVuSans-6f" x="853.910156"/>
    <use xlink:href="#DejaVuSans-72" x="915.091797"/>
    <use xlink:href="#DejaVuSans-20" x="956.205078"/>
    <use xlink:href="#DejaVuSans-4d" x="987.992188"/>
    <use xlink:href="#DejaVuSans-3d" x="1074.271484"/>
    <use xlink:href="#DejaVuSans-31" x="1158.060547"/>
    <use xlink:href="#DejaVuSans-2e" x="1221.683594"/>
    <use xlink:href="#DejaVuSans-30" x="1253.470703"/>
   </g>
  </g>
 </g>
 <defs>
  <clipPath id="pc7dc99d593">
   <rect x="57.6" y="86.4" width="626.4" height="583.2"/>
  </clipPath>
 </defs>
</svg>
