<?xml version="1.0" encoding="utf-8" standalone="no"?>
<!DOCTYPE svg PUBLIC "-//W3C//DTD SVG 1.1//EN"
  "http://www.w3.org/Graphics/SVG/1.1/DTD/svg11.dtd">
<svg xmlns:xlink="http://www.w3.org/1999/xlink" width="720pt" height="720pt" viewBox="0 0 720 720" xmlns="http://www.w3.org/2000/svg" version="1.1">
 <metadata>
  <rdf:RDF xmlns:dc="http://purl.org/dc/elements/1.1/" xmlns:cc="http://creativecommons.org/ns#" xmlns:rdf="http://www.w3.org/1999/02/22-rdf-syntax-ns#">
   <cc:Work>
    <dc:type rdf:resource="http://purl.org/dc/dcmitype/StillImage"/>
    <dc:date>2023-06-28T19:30:48.173729</dc:date>
    <dc:format>image/svg+xml</dc:format>
    <dc:creator>
     <cc:Agent>
      <dc:title>Matplotlib v3.5.2, https://matplotlib.org/</dc:title>
     </cc:Agent>
    </dc:creator>
   </cc:Work>
  </rdf:RDF>
 </metadata>
 <defs>
  <style type="text/css">*{stroke-linejoin: round; stroke-linecap: butt}</style>
 </defs>
 <g id="figure_1">
  <g id="patch_1">
   <path d="M 0 720 
L 720 720 
L 720 0 
L 0 0 
z
" style="fill: #1a1a1a"/>
  </g>
  <g id="axes_1">
   <g id="line2d_1">
    <path d="M 370.8 382.190339 
L 374.95645 382.105343 
L 375.025369 382.043898 
L 375.486641 382.080751 
L 375.555078 382.011536 
L 376.080603 382.048996 
L 376.14843 381.971077 
L 376.753812 382.007403 
L 376.820852 381.919619 
L 377.526044 381.952002 
L 377.592051 381.852904 
L 377.956916 381.917353 
L 378.022283 381.811942 
L 378.422447 381.876773 
L 378.48707 381.764542 
L 378.926746 381.828985 
L 378.990499 381.709367 
L 379.474289 381.772383 
L 379.537016 381.644744 
L 380.069812 381.704943 
L 380.131325 381.568582 
L 380.718101 381.624115 
L 380.778166 381.478259 
L 381.423587 381.526681 
L 381.481917 381.370495 
L 382.189649 381.408613 
L 382.245887 381.241211 
L 383.017448 381.264921 
L 383.071154 381.0854 
L 383.904123 381.089558 
L 383.954752 380.89706 
L 384.840139 380.875472 
L 384.887031 380.669277 
L 385.805779 380.614962 
L 385.848146 380.394642 
L 387.643002 380.426768 
L 387.681957 380.179537 
L 388.825645 380.058396 
L 388.858224 379.793872 
L 389.97279 379.620746 
L 389.997824 379.339459 
L 391.024034 379.11321 
L 391.040355 378.816573 
L 391.919065 378.541995 
L 391.925613 378.232308 
L 392.612589 377.920049 
L 392.608533 377.600271 
L 393.086365 377.264511 
L 393.071162 376.937868 
L 393.351455 376.592704 
L 393.324857 376.262259 
L 393.44004 375.918697 
L 393.187554 374.268281 
L 391.057602 370.078754 
L 390.468818 369.269882 
L 389.933953 368.449825 
L 389.538615 367.927376 
L 388.951119 367.148012 
L 387.394165 365.478973 
L 386.455295 364.582197 
L 385.470086 363.73698 
L 384.183419 362.748181 
L 381.394832 361.069066 
L 378.69394 359.905058 
L 376.817219 359.316968 
L 374.893505 358.888988 
L 372.937568 358.624858 
L 370.635314 358.526885 
L 368.33467 358.65598 
L 366.060934 359.013598 
L 364.151276 359.495434 
L 362.293376 360.135822 
L 360.500892 360.929191 
L 359.060582 361.694556 
L 356.372965 363.523675 
L 353.511611 366.169419 
L 350.542398 370.078754 
L 350.066296 370.945292 
L 349.732554 371.524253 
L 349.513338 371.801216 
L 349.411137 372.114062 
L 349.19703 372.397973 
L 349.10496 372.715382 
L 348.901103 373.00739 
L 348.563526 373.95602 
L 348.352107 374.596961 
L 348.207297 375.251803 
L 348.248545 376.592704 
L 348.528838 376.937868 
L 348.513635 377.264511 
L 348.991467 377.600271 
L 348.987411 377.920049 
L 349.674387 378.232308 
L 349.680935 378.541995 
L 350.559645 378.816573 
L 350.575966 379.11321 
L 351.602176 379.339459 
L 351.62721 379.620746 
L 352.741776 379.793872 
L 352.774355 380.058396 
L 353.918043 380.179537 
L 353.956998 380.426768 
L 355.751854 380.394642 
L 355.794221 380.614962 
L 356.712969 380.669277 
L 356.759861 380.875472 
L 357.645248 380.89706 
L 357.695877 381.089558 
L 358.528846 381.0854 
L 358.582552 381.264921 
L 359.354113 381.241211 
L 359.410351 381.408613 
L 360.118083 381.370495 
L 360.176413 381.526681 
L 360.821834 381.478259 
L 360.881899 381.624115 
L 361.468675 381.568582 
L 361.530188 381.704943 
L 362.062984 381.644744 
L 362.125711 381.772383 
L 362.609501 381.709367 
L 362.673254 381.828985 
L 363.11293 381.764542 
L 363.177553 381.876773 
L 363.577717 381.811942 
L 363.643084 381.917353 
L 364.407324 381.888506 
L 364.473884 381.981745 
L 365.126362 381.94695 
L 365.193821 382.02964 
L 365.757077 381.992474 
L 365.825228 382.065912 
L 366.316906 382.028586 
L 366.385598 382.093812 
L 366.819515 382.057698 
L 366.888637 382.115552 
L 367.275679 382.081508 
L 367.345147 382.132671 
L 367.69398 382.101232 
L 367.961017 382.151984 
L 368.265204 382.125028 
L 368.513547 382.165769 
L 368.949002 382.148964 
L 369.337169 382.180436 
L 369.869225 382.173814 
L 370.516151 382.18997 
L 370.8 382.190339 
L 370.8 382.190339 
" clip-path="url(#pd1d56f98e0)" style="fill: none; stroke: #6d904f; stroke-width: 2"/>
   </g>
   <g id="line2d_2">
    <path d="M 351.53793 368.26632 
L 347.152056 368.644581 
L 337.285826 369.679079 
L 320.378653 371.085792 
L 314.250292 371.849115 
L 307.083317 373.244458 
L 304.632173 373.998574 
L 302.981175 374.723743 
L 302.046587 375.349966 
L 301.577711 375.898497 
L 301.427673 376.437688 
L 301.525554 376.856811 
L 301.838327 377.298484 
L 302.566318 377.860177 
L 303.808359 378.464104 
L 305.452615 379.020685 
L 307.893544 379.615531 
L 314.250291 380.561559 
L 320.378653 381.028344 
L 326.268921 381.207466 
L 331.909522 381.176404 
L 337.285828 380.975407 
L 342.377633 380.626429 
L 347.152058 380.13692 
L 351.53793 379.488537 
L 351.53793 379.488537 
" clip-path="url(#pd1d56f98e0)" style="fill: none; stroke: #008fd5"/>
   </g>
   <g id="line2d_3">
    <path d="M 356.905151 362.877194 
L 355.729834 360.462477 
L 354.562245 358.290651 
L 353.442441 356.259073 
L 352.37562 354.323316 
L 351.358942 352.459144 
L 350.387797 350.651452 
L 349.457533 348.889977 
L 348.563935 347.167358 
L 347.703319 345.478012 
L 346.872489 343.817636 
L 346.068699 342.182788 
L 345.289567 340.570663 
L 344.533023 338.978932 
L 343.797259 337.405655 
L 343.08069 335.849141 
L 342.381917 334.308 
L 341.699697 332.780964 
L 341.032929 331.266954 
L 340.380611 329.765026 
L 339.741867 328.274317 
L 339.115888 326.794076 
L 338.501932 325.323639 
L 337.899353 323.86238 
L 337.307541 322.409748 
L 336.725946 320.965245 
L 336.154051 319.528428 
L 335.591398 318.098881 
L 335.037554 316.676184 
L 334.49212 315.260023 
L 333.954721 313.85006 
L 333.425012 312.445985 
L 332.902689 311.047543 
L 332.387439 309.654445 
L 331.878992 308.266481 
L 331.377057 306.883417 
L 330.88144 305.505037 
L 330.391879 304.131135 
L 329.908154 302.761551 
L 329.430076 301.396131 
L 328.957448 300.034636 
L 328.490087 298.677007 
L 328.027817 297.322999 
L 327.57048 295.972579 
L 327.117925 294.625555 
L 326.669998 293.281825 
L 326.226567 291.941281 
L 325.787497 290.603791 
L 325.352657 289.26926 
L 324.92193 287.937625 
L 324.49521 286.608712 
L 324.072381 285.282501 
L 323.653334 283.958906 
L 323.237976 282.637813 
L 322.826208 281.319186 
L 322.417943 280.00291 
L 322.01311 278.688909 
L 322.01311 278.688909 
L 322.013086 278.688892 
" clip-path="url(#pd1d56f98e0)" style="fill: none; stroke: #fc4f30"/>
   </g>
   <g id="line2d_4">
    <path d="M 322.013084 447.698461 
L 322.013086 447.698462 
L 322.01311 447.698446 
L 322.01311 447.698446 
L 322.417937 446.514072 
L 322.826217 445.329687 
L 323.237978 444.145279 
L 323.653344 442.960892 
L 324.072379 441.776479 
L 324.495214 440.592062 
L 324.921932 439.407639 
L 325.352653 438.223176 
L 325.787487 437.038718 
L 326.226567 435.854246 
L 326.670004 434.669759 
L 327.117925 433.485243 
L 327.570482 432.300733 
L 328.027813 431.116207 
L 328.490083 429.931649 
L 328.957448 428.747091 
L 329.430077 427.562489 
L 329.908163 426.377874 
L 330.391877 425.193229 
L 330.881445 424.008569 
L 331.377068 422.823868 
L 331.87899 421.639151 
L 332.387439 420.454391 
L 332.902697 419.269598 
L 333.425013 418.084764 
L 333.954719 416.899893 
L 334.492117 415.71496 
L 335.037547 414.529986 
L 335.591389 413.344954 
L 336.154042 412.159856 
L 336.725933 410.974691 
L 337.307541 409.789441 
L 337.899355 408.604114 
L 338.50194 407.418684 
L 339.115881 406.233137 
L 339.741866 405.047479 
L 340.380617 403.861662 
L 341.032927 402.675689 
L 341.699705 401.48952 
L 342.381921 400.30313 
L 343.080689 399.116484 
L 343.797258 397.92952 
L 344.533022 396.742196 
L 345.289565 395.554423 
L 346.068704 394.366102 
L 346.872485 393.177099 
L 347.703318 391.987235 
L 348.563936 390.796251 
L 349.457536 389.603792 
L 350.387794 388.409316 
L 351.358943 387.211989 
L 352.375618 386.010434 
L 356.905151 380.849701 
" clip-path="url(#pd1d56f98e0)" style="fill: none; stroke: #e5ae38"/>
   </g>
   <g id="line2d_5">
    <path d="M 362.607824 381.809297 
L 374.120847 386.937977 
L 378.017085 388.022387 
L 382.272512 389.05962 
L 386.865225 390.014469 
L 391.776227 390.900601 
L 396.989026 391.715723 
L 402.48917 392.457048 
L 414.302118 393.704651 
L 427.129205 394.610406 
L 433.900852 394.921737 
L 440.901021 395.129695 
L 448.122906 395.225893 
L 455.560214 395.200168 
L 463.207162 395.039985 
L 471.058357 394.729492 
L 479.108844 394.248063 
L 487.353999 393.567871 
L 495.789464 392.649474 
L 504.411136 391.433201 
L 513.215245 389.819267 
L 517.684553 388.809317 
L 524.471418 386.922759 
L 529.050608 385.287079 
L 532.513405 383.716614 
L 534.835377 382.376613 
L 536.58387 381.074824 
L 537.75285 379.908628 
L 538.631335 378.614793 
L 539.034484 377.551593 
L 539.156517 376.516909 
L 539.034469 375.560218 
L 538.777913 374.802324 
L 538.338351 373.978699 
L 537.168042 372.544096 
L 536.00038 371.511309 
L 533.673051 369.935217 
L 531.356452 368.696111 
L 529.050612 367.652429 
L 524.471425 365.92927 
L 522.19816 365.194078 
L 517.684559 363.901751 
L 513.215246 362.790657 
L 504.411138 360.954772 
L 495.789463 359.485926 
L 487.35401 358.277862 
L 479.10885 357.262499 
L 463.207136 355.617391 
L 440.901026 353.511246 
L 433.900849 352.740713 
L 427.129208 351.867348 
L 420.593557 350.870378 
L 402.489168 347.671682 
L 396.989024 346.949543 
L 391.77623 346.602058 
L 386.865223 346.688906 
L 382.272516 347.231871 
L 378.017082 348.230125 
L 374.120847 349.672528 
L 370.608839 351.546063 
L 367.508372 353.843132 
L 367.508372 353.843132 
L 364.843718 356.573256 
L 362.607824 359.800533 
L 362.607824 359.800533 
" clip-path="url(#pd1d56f98e0)" style="fill: none; stroke: #6d904f"/>
   </g>
   <g id="line2d_6">
    <path d="M 367.975045 382.184567 
L 394.586946 385.29993 
L 403.107104 385.267228 
L 412.281664 384.756212 
L 422.072472 383.53676 
L 433.11371 380.563467 
L 435.127883 379.508878 
L 436.142209 378.763596 
L 436.991137 377.826561 
L 437.374243 377.006436 
L 437.448809 376.279535 
L 437.289047 375.567005 
L 436.991133 374.984579 
L 436.481379 374.332159 
L 435.465457 373.42401 
L 434.454336 372.732258 
L 432.446625 371.640694 
L 422.072471 367.859966 
L 412.281668 364.789918 
L 403.107098 361.270048 
L 394.586944 357.727373 
L 386.765452 355.499134 
L 379.693014 354.986813 
L 373.421498 356.038279 
L 367.975045 358.499378 
L 367.975045 358.499378 
" clip-path="url(#pd1d56f98e0)" style="fill: none; stroke: #8b8b8b"/>
   </g>
   <g id="line2d_7">
    <path d="M 373.677717 382.182742 
L 377.9508 382.54796 
L 387.433733 382.816138 
L 395.354066 382.402838 
L 401.001705 381.699935 
L 405.422952 380.793352 
L 408.456411 379.850461 
L 410.77577 378.735897 
L 411.753237 377.991231 
L 412.342814 377.260066 
L 412.601483 376.560725 
L 412.601483 375.929515 
L 412.392049 375.287697 
L 411.949504 374.597281 
L 411.165982 373.782718 
L 409.998474 372.869579 
L 406.93119 370.989663 
L 401.001705 367.634384 
L 392.639171 362.496789 
L 387.433739 359.996456 
L 382.535381 358.577573 
L 377.950801 358.123803 
L 373.677718 358.505806 
L 373.677718 358.505806 
" clip-path="url(#pd1d56f98e0)" style="fill: none; stroke: #810f7c"/>
   </g>
   <g id="line2d_8">
    <path d="M 379.044939 381.803518 
L 384.871879 381.637613 
L 387.940469 381.577985 
L 392.738332 381.021568 
L 396.065614 380.392338 
L 398.627692 379.68859 
L 400.367099 379.017054 
L 401.687962 378.292011 
L 402.576252 377.540143 
L 403.148543 376.511232 
L 403.190516 375.878014 
L 403.022702 375.221864 
L 402.576253 374.427823 
L 401.687958 373.397477 
L 400.367099 372.196195 
L 394.38921 367.332081 
L 391.113158 364.827612 
L 387.940466 362.820249 
L 384.871876 361.353323 
L 381.907251 360.374096 
L 379.044939 359.820217 
L 379.044939 359.820217 
" clip-path="url(#pd1d56f98e0)" style="fill: none; stroke: #008fd5"/>
   </g>
   <g id="line2d_9">
    <path d="M 384.747611 380.836594 
L 388.421552 380.592358 
L 392.225518 379.824486 
L 394.176738 379.226406 
L 396.160797 378.317555 
L 397.165119 377.567398 
L 397.670345 376.934155 
L 397.931651 376.227183 
L 397.931651 375.531381 
L 397.733642 374.852585 
L 397.291234 374.025918 
L 396.41111 372.850808 
L 395.164667 371.448747 
L 392.225519 368.437176 
L 390.307153 366.67726 
L 388.421552 365.1728 
L 386.568503 363.926085 
L 384.747611 362.916025 
L 384.747611 362.916025 
" clip-path="url(#pd1d56f98e0)" style="fill: none; stroke: #fc4f30"/>
   </g>
   <g id="line2d_10">
    <path d="M 390.114832 379.465638 
L 392.314393 378.672941 
L 393.428659 378.072835 
L 394.693846 376.848651 
L 394.941291 376.253437 
L 394.994375 375.466939 
L 394.835184 374.755211 
L 394.552659 374.083029 
L 393.428659 372.29309 
L 391.209804 369.529192 
L 390.114832 368.337513 
L 390.114832 368.337513 
" clip-path="url(#pd1d56f98e0)" style="fill: none; stroke: #e5ae38"/>
   </g>
  </g>
  <g id="text_1">
   <!-- Isoredshift lines for M=1.0 -->
   <g transform="translate(249.365437 27.165375)scale(0.168 -0.168)">
    <defs>
     <path id="DejaVuSans-49" d="M 628 4666 
L 1259 4666 
L 1259 0 
L 628 0 
L 628 4666 
z
" transform="scale(0.015625)"/>
     <path id="DejaVuSans-73" d="M 2834 3397 
L 2834 2853 
Q 2591 2978 2328 3040 
Q 2066 3103 1784 3103 
Q 1356 3103 1142 2972 
Q 928 2841 928 2578 
Q 928 2378 1081 2264 
Q 1234 2150 1697 2047 
L 1894 2003 
Q 2506 1872 2764 1633 
Q 3022 1394 3022 966 
Q 3022 478 2636 193 
Q 2250 -91 1575 -91 
Q 1294 -91 989 -36 
Q 684 19 347 128 
L 347 722 
Q 666 556 975 473 
Q 1284 391 1588 391 
Q 1994 391 2212 530 
Q 2431 669 2431 922 
Q 2431 1156 2273 1281 
Q 2116 1406 1581 1522 
L 1381 1569 
Q 847 1681 609 1914 
Q 372 2147 372 2553 
Q 372 3047 722 3315 
Q 1072 3584 1716 3584 
Q 2034 3584 2315 3537 
Q 2597 3491 2834 3397 
z
" transform="scale(0.015625)"/>
     <path id="DejaVuSans-6f" d="M 1959 3097 
Q 1497 3097 1228 2736 
Q 959 2375 959 1747 
Q 959 1119 1226 758 
Q 1494 397 1959 397 
Q 2419 397 2687 759 
Q 2956 1122 2956 1747 
Q 2956 2369 2687 2733 
Q 2419 3097 1959 3097 
z
M 1959 3584 
Q 2709 3584 3137 3096 
Q 3566 2609 3566 1747 
Q 3566 888 3137 398 
Q 2709 -91 1959 -91 
Q 1206 -91 779 398 
Q 353 888 353 1747 
Q 353 2609 779 3096 
Q 1206 3584 1959 3584 
z
" transform="scale(0.015625)"/>
     <path id="DejaVuSans-72" d="M 2631 2963 
Q 2534 3019 2420 3045 
Q 2306 3072 2169 3072 
Q 1681 3072 1420 2755 
Q 1159 2438 1159 1844 
L 1159 0 
L 581 0 
L 581 3500 
L 1159 3500 
L 1159 2956 
Q 1341 3275 1631 3429 
Q 1922 3584 2338 3584 
Q 2397 3584 2469 3576 
Q 2541 3569 2628 3553 
L 2631 2963 
z
" transform="scale(0.015625)"/>
     <path id="DejaVuSans-65" d="M 3597 1894 
L 3597 1613 
L 953 1613 
Q 991 1019 1311 708 
Q 1631 397 2203 397 
Q 2534 397 2845 478 
Q 3156 559 3463 722 
L 3463 178 
Q 3153 47 2828 -22 
Q 2503 -91 2169 -91 
Q 1331 -91 842 396 
Q 353 884 353 1716 
Q 353 2575 817 3079 
Q 1281 3584 2069 3584 
Q 2775 3584 3186 3129 
Q 3597 2675 3597 1894 
z
M 3022 2063 
Q 3016 2534 2758 2815 
Q 2500 3097 2075 3097 
Q 1594 3097 1305 2825 
Q 1016 2553 972 2059 
L 3022 2063 
z
" transform="scale(0.015625)"/>
     <path id="DejaVuSans-64" d="M 2906 2969 
L 2906 4863 
L 3481 4863 
L 3481 0 
L 2906 0 
L 2906 525 
Q 2725 213 2448 61 
Q 2172 -91 1784 -91 
Q 1150 -91 751 415 
Q 353 922 353 1747 
Q 353 2572 751 3078 
Q 1150 3584 1784 3584 
Q 2172 3584 2448 3432 
Q 2725 3281 2906 2969 
z
M 947 1747 
Q 947 1113 1208 752 
Q 1469 391 1925 391 
Q 2381 391 2643 752 
Q 2906 1113 2906 1747 
Q 2906 2381 2643 2742 
Q 2381 3103 1925 3103 
Q 1469 3103 1208 2742 
Q 947 2381 947 1747 
z
" transform="scale(0.015625)"/>
     <path id="DejaVuSans-68" d="M 3513 2113 
L 3513 0 
L 2938 0 
L 2938 2094 
Q 2938 2591 2744 2837 
Q 2550 3084 2163 3084 
Q 1697 3084 1428 2787 
Q 1159 2491 1159 1978 
L 1159 0 
L 581 0 
L 581 4863 
L 1159 4863 
L 1159 2956 
Q 1366 3272 1645 3428 
Q 1925 3584 2291 3584 
Q 2894 3584 3203 3211 
Q 3513 2838 3513 2113 
z
" transform="scale(0.015625)"/>
     <path id="DejaVuSans-69" d="M 603 3500 
L 1178 3500 
L 1178 0 
L 603 0 
L 603 3500 
z
M 603 4863 
L 1178 4863 
L 1178 4134 
L 603 4134 
L 603 4863 
z
" transform="scale(0.015625)"/>
     <path id="DejaVuSans-66" d="M 2375 4863 
L 2375 4384 
L 1825 4384 
Q 1516 4384 1395 4259 
Q 1275 4134 1275 3809 
L 1275 3500 
L 2222 3500 
L 2222 3053 
L 1275 3053 
L 1275 0 
L 697 0 
L 697 3053 
L 147 3053 
L 147 3500 
L 697 3500 
L 697 3744 
Q 697 4328 969 4595 
Q 1241 4863 1831 4863 
L 2375 4863 
z
" transform="scale(0.015625)"/>
     <path id="DejaVuSans-74" d="M 1172 4494 
L 1172 3500 
L 2356 3500 
L 2356 3053 
L 1172 3053 
L 1172 1153 
Q 1172 725 1289 603 
Q 1406 481 1766 481 
L 2356 481 
L 2356 0 
L 1766 0 
Q 1100 0 847 248 
Q 594 497 594 1153 
L 594 3053 
L 172 3053 
L 172 3500 
L 594 3500 
L 594 4494 
L 1172 4494 
z
" transform="scale(0.015625)"/>
     <path id="DejaVuSans-20" transform="scale(0.015625)"/>
     <path id="DejaVuSans-6c" d="M 603 4863 
L 1178 4863 
L 1178 0 
L 603 0 
L 603 4863 
z
" transform="scale(0.015625)"/>
     <path id="DejaVuSans-6e" d="M 3513 2113 
L 3513 0 
L 2938 0 
L 2938 2094 
Q 2938 2591 2744 2837 
Q 2550 3084 2163 3084 
Q 1697 3084 1428 2787 
Q 1159 2491 1159 1978 
L 1159 0 
L 581 0 
L 581 3500 
L 1159 3500 
L 1159 2956 
Q 1366 3272 1645 3428 
Q 1925 3584 2291 3584 
Q 2894 3584 3203 3211 
Q 3513 2838 3513 2113 
z
" transform="scale(0.015625)"/>
     <path id="DejaVuSans-4d" d="M 628 4666 
L 1569 4666 
L 2759 1491 
L 3956 4666 
L 4897 4666 
L 4897 0 
L 4281 0 
L 4281 4097 
L 3078 897 
L 2444 897 
L 1241 4097 
L 1241 0 
L 628 0 
L 628 4666 
z
" transform="scale(0.015625)"/>
     <path id="DejaVuSans-3d" d="M 678 2906 
L 4684 2906 
L 4684 2381 
L 678 2381 
L 678 2906 
z
M 678 1631 
L 4684 1631 
L 4684 1100 
L 678 1100 
L 678 1631 
z
" transform="scale(0.015625)"/>
     <path id="DejaVuSans-31" d="M 794 531 
L 1825 531 
L 1825 4091 
L 703 3866 
L 703 4441 
L 1819 4666 
L 2450 4666 
L 2450 531 
L 3481 531 
L 3481 0 
L 794 0 
L 794 531 
z
" transform="scale(0.015625)"/>
     <path id="DejaVuSans-2e" d="M 684 794 
L 1344 794 
L 1344 0 
L 684 0 
L 684 794 
z
" transform="scale(0.015625)"/>
     <path id="DejaVuSans-30" d="M 2034 4250 
Q 1547 4250 1301 3770 
Q 1056 3291 1056 2328 
Q 1056 1369 1301 889 
Q 1547 409 2034 409 
Q 2525 409 2770 889 
Q 3016 1369 3016 2328 
Q 3016 3291 2770 3770 
Q 2525 4250 2034 4250 
z
M 2034 4750 
Q 2819 4750 3233 4129 
Q 3647 3509 3647 2328 
Q 3647 1150 3233 529 
Q 2819 -91 2034 -91 
Q 1250 -91 836 529 
Q 422 1150 422 2328 
Q 422 3509 836 4129 
Q 1250 4750 2034 4750 
z
" transform="scale(0.015625)"/>
    </defs>
    <use xlink:href="#DejaVuSans-49"/>
    <use xlink:href="#DejaVuSans-73" x="29.492188"/>
    <use xlink:href="#DejaVuSans-6f" x="81.591797"/>
    <use xlink:href="#DejaVuSans-72" x="142.773438"/>
    <use xlink:href="#DejaVuSans-65" x="181.636719"/>
    <use xlink:href="#DejaVuSans-64" x="243.160156"/>
    <use xlink:href="#DejaVuSans-73" x="306.636719"/>
    <use xlink:href="#DejaVuSans-68" x="358.736328"/>
    <use xlink:href="#DejaVuSans-69" x="422.115234"/>
    <use xlink:href="#DejaVuSans-66" x="449.898438"/>
    <use xlink:href="#DejaVuSans-74" x="483.353516"/>
    <use xlink:href="#DejaVuSans-20" x="522.5625"/>
    <use xlink:href="#DejaVuSans-6c" x="554.349609"/>
    <use xlink:href="#DejaVuSans-69" x="582.132812"/>
    <use xlink:href="#DejaVuSans-6e" x="609.916016"/>
    <use xlink:href="#DejaVuSans-65" x="673.294922"/>
    <use xlink:href="#DejaVuSans-73" x="734.818359"/>
    <use xlink:href="#DejaVuSans-20" x="786.917969"/>
    <use xlink:href="#DejaVuSans-66" x="818.705078"/>
    <use xlink:href="#DejaVuSans-6f" x="853.910156"/>
    <use xlink:href="#DejaVuSans-72" x="915.091797"/>
    <use xlink:href="#DejaVuSans-20" x="956.205078"/>
    <use xlink:href="#DejaVuSans-4d" x="987.992188"/>
    <use xlink:href="#DejaVuSans-3d" x="1074.271484"/>
    <use xlink:href="#DejaVuSans-31" x="1158.060547"/>
    <use xlink:href="#DejaVuSans-2e" x="1221.683594"/>
    <use xlink:href="#DejaVuSans-30" x="1253.470703"/>
   </g>
  </g>
 </g>
 <defs>
  <clipPath id="pd1d56f98e0">
   <rect x="57.6" y="86.4" width="626.4" height="583.2"/>
  </clipPath>
 </defs>
</svg>
